<svg xmlns="http://www.w3.org/2000/svg" width="32" height="32" viewBox="0 0 32 32"><title>kamp</title><path d="M27.97461,28.3418l-1-3A0.501,0.501,0,0,0,26.5,25H26V24.5a0.49971,0.49971,0,0,0-.5-0.5H25V23h1.5a0.49971,0.49971,0,0,0,.5-0.5v-3a2.50379,2.50379,0,0,0-2-2.4494V16h1.5a0.49971,0.49971,0,0,0,.5-0.5v-5a2.50379,2.50379,0,0,0-2-2.4494V5.5a0.47233,0.47233,0,0,0-.01373-0.06824,0.40615,0.40615,0,0,0-.07532-0.20032,0.47643,0.47643,0,0,0-.02423-0.04834C24.8819,5.17725,24.87421,5.175,24.86914,5.16937A0.49534,0.49534,0,0,0,24.5,5H24.15039V2.5a1.50164,1.50164,0,0,0-1.5-1.5H9.34961a1.50164,1.50164,0,0,0-1.5,1.5V5H7.5a0.57038,0.57038,0,0,0-.36914.16937C7.12579,5.175,7.1181,5.17725,7.11328,5.18311a0.47643,0.47643,0,0,0-.02423.04834,0.40615,0.40615,0,0,0-.07532.20032A0.47233,0.47233,0,0,0,7,5.5V8.0506A2.50379,2.50379,0,0,0,5,10.5v5a0.49971,0.49971,0,0,0,.5.5H7v1.0506A2.50379,2.50379,0,0,0,5,19.5v3a0.49971,0.49971,0,0,0,.5.5H7v1H6.5a0.46967,0.46967,0,0,0-.05914.0119,0.47264,0.47264,0,0,0-.1264.02374l-0.00391.00256a0.49217,0.49217,0,0,0-.126.0824c-0.01147.00946-.02686,0.01477-0.03729,0.02515a28.84277,28.84277,0,0,0-.10687.1579,0.51392,0.51392,0,0,0-.01276.059,0.49075,0.49075,0,0,0-.02661.13208L6,24.5V25H4.5a0.50063,0.50063,0,0,0-.47461.6582l1,3A0.501,0.501,0,0,0,5.5,29H6v0.5a0.49971,0.49971,0,0,0,.5.5H10v0.5a0.49971,0.49971,0,0,0,.5.5h2a0.49971,0.49971,0,0,0,.5-0.5V30h6v0.5a0.49971,0.49971,0,0,0,.5.5h2a0.49971,0.49971,0,0,0,.5-0.5V30h3.5a0.497,0.497,0,0,0,.18555-0.03564l0.00391-.00256a0.49217,0.49217,0,0,0,.126-0.0824c0.01147-.00946.02686-0.01477,0.03729-0.02515a28.84318,28.84318,0,0,0,.10687-0.1579,0.51392,0.51392,0,0,0,.01276-0.059,0.49075,0.49075,0,0,0,.02661-0.13208L26,29.5V29h1.5A0.50063,0.50063,0,0,0,27.97461,28.3418ZM8.16193,25l1.2,3H8.43811l-1.2-3H8.16193ZM10,25v1.90479L9.2381,25H10Zm12-4v2.5a0.49971,0.49971,0,0,0-.5-0.5h-2a0.49971,0.49971,0,0,0-.5.5V24H13V23.5a0.49971,0.49971,0,0,0-.5-0.5h-2a0.49971,0.49971,0,0,0-.5.5V21H22ZM10.08594,20A1.50151,1.50151,0,0,1,11.5,19h9a1.50151,1.50151,0,0,1,1.41406,1H10.08594ZM25,25v1.90479L24.2381,25H25Zm-1.83807,0,1.2,3H23.43811l-1.2-3h0.92383ZM19,26.18945L18.52423,25H19v1.18945ZM20,24h1v1H20V24Zm-9,0h1v1H11V24Zm2,1h0.73322l1.2,3H14.152l-1.08856-2.72168A0.48137,0.48137,0,0,0,13,25.18134V25Zm1.80939,0h0.78125l1.2,3H16.0094ZM11,26h1v3H11V26Zm2,1.8103L13.07587,28H13V27.8103ZM16.66681,25h0.78125l1.2,3H17.86682Zm3.4574,4L20,28.68945V26h1v3H20.12421ZM22,27.09521L22.36194,28H22V27.09521ZM22.08984,15H9.91016L8.11035,6h15.7793ZM6,20H7v1H6V20Zm0-9H7v3H6V11ZM21,5H11V4H21V5Zm4,6h1v3H25V11Zm0,9h1v1H25V20Zm0.90881-1H25V18.08545A1.50484,1.50484,0,0,1,25.90881,19Zm0-9H25V9.08545A1.50484,1.50484,0,0,1,25.90881,10ZM8.84961,2.5a0.50065,0.50065,0,0,1,.5-0.5H22.65039a0.50065,0.50065,0,0,1,.5.5V5H22V3.5A0.49971,0.49971,0,0,0,21.5,3h-11a0.49971,0.49971,0,0,0-.5.5V5H8.84961V2.5ZM7,9.08545V10H6.09119A1.50484,1.50484,0,0,1,7,9.08545Zm0,9V19H6.09119A1.50484,1.50484,0,0,1,7,18.08545ZM8,22.5V10.54932l1.00977,5.04883a0.49162,0.49162,0,0,0,.12415.23181c0.00616,0.0069.006,0.017,0.01257,0.02356l1,1A0.49964,0.49964,0,0,0,10.5,17h11a0.49964,0.49964,0,0,0,.35352-0.14648l1-1c0.00653-.00659.00641-0.01666,0.01257-0.02356a0.49162,0.49162,0,0,0,.12415-0.23181L24,10.54932V24H23V20.5A2.50263,2.50263,0,0,0,20.5,18h-9A2.50263,2.50263,0,0,0,9,20.5V24H8V22.5ZM5.86035,28l-0.667-2H6v2H5.86035ZM7,28.5V27.09521L7.7619,29H7V28.5ZM26,28V26h0.13965l0.667,2H26Z" fill="#231f20"/><path d="M19.5,9h-7a0.49971,0.49971,0,0,0-.5.5v3a0.49971,0.49971,0,0,0,.5.5h7a0.48635,0.48635,0,0,0,.24792-0.07507,0.46514,0.46514,0,0,0,.05029-0.03394,0.49316,0.49316,0,0,0,.163-0.19879l0.00067-.00079,0.00049-.00476A0.4973,0.4973,0,0,0,20,12.5v-3A0.49971,0.49971,0,0,0,19.5,9ZM13,10h6v1.293l-1.14648-1.14648a0.49982,0.49982,0,0,0-.707,0L15.5,11.793l-0.64648-.64648a0.49982,0.49982,0,0,0-.707,0L13.293,12H13V10Z" fill="#231f20"/></svg>