<svg xmlns="http://www.w3.org/2000/svg" width="32" height="32" viewBox="0 0 32 32"><title>kamp</title><path d="M28.97614,18.129c-0.0047-.04486-0.00824-0.0899-0.01459-0.1344a4.32705,4.32705,0,0,0-.36682-1.48047L24.78711,8.29,24.77917,8.2793l-0.00281-.00977a4.71,4.71,0,0,0-.99164-1.32709A2.338,2.338,0,0,0,21.208,5a2.42124,2.42124,0,0,0-2.54614,1.70819A2.38367,2.38367,0,0,0,17.654,8H14.346a2.38367,2.38367,0,0,0-1.00787-1.29181A2.42124,2.42124,0,0,0,10.792,5,2.35088,2.35088,0,0,0,8.22089,6.89813,4.36535,4.36535,0,0,0,7.2168,8.2832l-0.00061.00232L7.21289,8.29,3.40625,16.51367a4.31746,4.31746,0,0,0-.36768,1.48041c-0.00641.04492-.01007,0.09027-0.01477,0.13556C3.02008,18.20337,3,18.27435,3,18.34863V21.5A5.61322,5.61322,0,0,0,8.708,27a5.61408,5.61408,0,0,0,5.709-5.5V16.46057a2.59246,2.59246,0,0,0,3.166,0V21.5A5.71245,5.71245,0,0,0,29,21.5V18.34863C29,18.27417,28.97986,18.203,28.97614,18.129Zm-0.99323.24524A5.8218,5.8218,0,0,0,18.6,18.37476C18.691,16.50421,20.75305,15,23.292,15,25.82977,15,27.89154,16.504,27.98291,18.37427ZM21.208,6c-0.10931,0-.21155.01526-0.31812,0.02148A2.37963,2.37963,0,0,1,21.208,6Zm-10.0979.02148C11.00354,6.01526,10.90131,6,10.792,6A2.37963,2.37963,0,0,1,11.11011,6.02148ZM8.708,15c2.53894,0,4.601,1.50421,4.692,3.37476a5.8218,5.8218,0,0,0-9.38287-.00049C4.10846,16.504,6.17023,15,8.708,15Zm0,11A4.61286,4.61286,0,0,1,4,21.5,4.61286,4.61286,0,0,1,8.708,17a4.6131,4.6131,0,0,1,4.709,4.5A4.6131,4.6131,0,0,1,8.708,26Zm8.875-13.46057a2.59246,2.59246,0,0,0-3.166,0v-1.038A1.93251,1.93251,0,0,1,16,11a1.93978,1.93978,0,0,1,1.583.5v1.03943ZM16,16a1.50218,1.50218,0,1,1,1.583-1.5A1.54479,1.54479,0,0,1,16,16Zm2.583-.5v-4c0-.86914-1.08594-1.5-2.583-1.5s-2.583.63086-2.583,1.5v4.46088A6.24716,6.24716,0,0,0,8.708,14a6.70555,6.70555,0,0,0-3.46875.93445L8.12109,8.71l0.00012-.00061A2.66558,2.66558,0,0,1,10.792,7c1.42285,0,2.625.687,2.625,1.5a0.49971,0.49971,0,0,0,.5.5h4.166a0.49971,0.49971,0,0,0,.5-0.5c0-.813,1.20215-1.5,2.625-1.5a2.78561,2.78561,0,0,1,2.67554,1.72l2.87793,6.21484A6.70579,6.70579,0,0,0,23.292,14a6.24716,6.24716,0,0,0-4.709,1.96088V15.5ZM23.292,26a4.6131,4.6131,0,0,1-4.709-4.5A4.71333,4.71333,0,0,1,28,21.5,4.61286,4.61286,0,0,1,23.292,26Z" fill="#231f20"/><path d="M8.75,17.5a4.13522,4.13522,0,0,0-4.25,4,4.13522,4.13522,0,0,0,4.25,4,4.13522,4.13522,0,0,0,4.25-4A4.13522,4.13522,0,0,0,8.75,17.5Zm0,7a3.13605,3.13605,0,0,1-3.25-3c0-1.084,1.48828-2,3.25-2S12,20.416,12,21.5A3.13605,3.13605,0,0,1,8.75,24.5Z" fill="#231f20"/><path d="M23.25,17.5a4.13522,4.13522,0,0,0-4.25,4,4.13522,4.13522,0,0,0,4.25,4,4.13522,4.13522,0,0,0,4.25-4A4.13522,4.13522,0,0,0,23.25,17.5Zm0,7a3.13605,3.13605,0,0,1-3.25-3c0-1.084,1.48828-2,3.25-2s3.25,0.916,3.25,2A3.13605,3.13605,0,0,1,23.25,24.5Z" fill="#231f20"/></svg>