<svg xmlns="http://www.w3.org/2000/svg" width="32" height="32" viewBox="0 0 32 32"><title>kamp</title><path d="M29.92529,4.7373A0.50018,0.50018,0,0,0,29.5,4.5h-2A0.49971,0.49971,0,0,0,27,5V6H20V3.5A0.49971,0.49971,0,0,0,19.5,3h-2a0.49971,0.49971,0,0,0-.5.5v8c0,3.03174-4.23242,5.49707-6.99414,5.5H9.5A7.5082,7.5082,0,0,0,2,24.5v3a0.49971,0.49971,0,0,0,.5.5h1A0.49971,0.49971,0,0,0,4,27.5V27H5v0.5a0.49971,0.49971,0,0,0,.5.5h1A0.49971,0.49971,0,0,0,7,27.5V27H8v0.5a0.49971,0.49971,0,0,0,.5.5h1a0.49971,0.49971,0,0,0,.5-0.5V27h1v0.5a0.49971,0.49971,0,0,0,.5.5h1a0.49971,0.49971,0,0,0,.5-0.5V27h1v0.5a0.49971,0.49971,0,0,0,.5.5h1a0.49971,0.49971,0,0,0,.5-0.5V27h1v0.5a0.49971,0.49971,0,0,0,.5.5h1a0.49971,0.49971,0,0,0,.5-0.5V27h1v0.5a0.49971,0.49971,0,0,0,.5.5h1a0.49971,0.49971,0,0,0,.5-0.5V27h1v0.5a0.49971,0.49971,0,0,0,.5.5h1a0.49971,0.49971,0,0,0,.5-0.5V27h1v0.5a0.49971,0.49971,0,0,0,.5.5h1a0.49971,0.49971,0,0,0,.5-0.5V9.11816l1.94727-3.89453A0.49887,0.49887,0,0,0,29.92529,4.7373ZM24.5,26H3V25H27v1H24.5ZM18,4h1V5H18V4ZM15.19043,18.69092a0.50212,0.50212,0,0,1,.46191.30664L15.8457,19.4585l-0.92236.38672L14.73,19.38428A0.50017,0.50017,0,0,1,15.19043,18.69092ZM11.5,19a0.50034,0.50034,0,0,1,.5.5V20H11V19.5A0.50034,0.50034,0,0,1,11.5,19Zm-2-1h0.50635A6.46144,6.46144,0,0,0,11,17.90942V18.0921A1.49758,1.49758,0,0,0,10,19.5v1a0.49971,0.49971,0,0,0,.5.5h2a0.49971,0.49971,0,0,0,.5-0.5v-1a1.49758,1.49758,0,0,0-1-1.4079V17.68823a10.26305,10.26305,0,0,0,1.73254-.68109l0.45538,1.08514a1.45579,1.45579,0,0,0-.37982,1.67871l0.38672,0.92236a0.49937,0.49937,0,0,0,.6543.26758l1.84424-.77393a0.49958,0.49958,0,0,0,.26758-0.6543l-0.38672-.92187a1.48319,1.48319,0,0,0-1.46753-.91266L14.61182,16.5188a9.52075,9.52075,0,0,0,1.31738-.99121l0.93286,1.01678a1.491,1.491,0,0,0,.20874,1.7066l0.67627,0.73682a0.49967,0.49967,0,0,0,.70605.03076l1.47363-1.35205A0.50016,0.50016,0,0,0,19.95752,16.96l-0.67578-.73682a1.48981,1.48981,0,0,0-1.041-.48486,1.475,1.475,0,0,0-.65.12091l-0.95953-1.04578a6.16886,6.16886,0,0,0,.89618-1.33075l1.15466,0.54187a1.48091,1.48091,0,0,0,.85114,1.5033l0.90527,0.4248a0.5,0.5,0,0,0,.665-0.24023l0.84912-1.81055a0.5,0.5,0,0,0-.24023-0.665l-0.90527-.4248a1.45659,1.45659,0,0,0-1.69354.31036l-1.2536-.5882A4.29176,4.29176,0,0,0,18,11.5V11h1.0921A1.49758,1.49758,0,0,0,20.5,12h1a0.49971,0.49971,0,0,0,.5-0.5v-2A0.49971,0.49971,0,0,0,21.5,9h-1a1.49758,1.49758,0,0,0-1.4079,1H18V8h9V24H3.019A6.50864,6.50864,0,0,1,9.5,18Zm8.67529-1.26318,0.022,0.00049a0.49636,0.49636,0,0,1,.34717.16162l0.33789,0.36865-0.73682.67578-0.33789-.36816a0.50164,0.50164,0,0,1,.03076-0.707A0.49584,0.49584,0,0,1,18.17529,16.73682Zm1.54181-2.77863,0.00018-.00018,0.00018-.00073a0.4999,0.4999,0,0,1,.66486-0.24l0.45264,0.2124-0.42432.90527-0.45312-.2124A0.49984,0.49984,0,0,1,19.7171,13.95819ZM20,10.5a0.50034,0.50034,0,0,1,.5-0.5H21v1H20.5A0.50034,0.50034,0,0,1,20,10.5Zm8-3.61816V5.5h0.69092Z" fill="#231f20"/></svg>