<svg xmlns="http://www.w3.org/2000/svg" width="32" height="32" viewBox="0 0 32 32"><title>kamp</title><path d="M30.71143,10.04688l-15-7a0.50005,0.50005,0,0,0-.43506.00586L10,5.69092V2.5A0.49971,0.49971,0,0,0,9.5,2h-5a0.49971,0.49971,0,0,0-.5.5V8.69092L1.27637,10.05273A0.5002,0.5002,0,0,0,1,10.5v3a0.50019,0.50019,0,0,0,.72363.44727L4,12.809V14H3.5a0.49971,0.49971,0,0,0-.5.5v3a0.49971,0.49971,0,0,0,.5.5H4v2H3.5a0.49971,0.49971,0,0,0-.5.5v3a0.49971,0.49971,0,0,0,.5.5H4v2H3.5a0.49971,0.49971,0,0,0-.5.5v3a0.49971,0.49971,0,0,0,.5.5h25a0.49971,0.49971,0,0,0,.5-0.5v-1a0.49971,0.49971,0,0,0-.5-0.5H28V27h0.5a0.49971,0.49971,0,0,0,.5-0.5v-3a0.49971,0.49971,0,0,0-.5-0.5H28V21h0.5a0.49971,0.49971,0,0,0,.5-0.5v-3a0.49971,0.49971,0,0,0-.5-0.5H28V15h0.5a0.49971,0.49971,0,0,0,.5-0.5V13.35181l1.28857,0.60132A0.49991,0.49991,0,0,0,31,13.5v-3A0.49946,0.49946,0,0,0,30.71143,10.04688ZM5,3H6V4H5V3ZM5,7.5H5.8335a0.49971,0.49971,0,0,0,.5-0.5V6.5a0.49971,0.49971,0,0,0-.5-0.5H5V5H6.5A0.49971,0.49971,0,0,0,7,4.5V3H9V4H8.5a0.49971,0.49971,0,0,0-.5.5v1a0.49971,0.49971,0,0,0,.5.5H9V6.19092l-4,2V7.5ZM18,28V17h5v6H22.5a0.5,0.5,0,0,0,0,1H23v4H18Zm6.6535-2.96906A0.48936,0.48936,0,0,0,24.5,25H24V24h0.071a1.991,1.991,0,0,0,.62,1C24.67877,25.01062,24.66547,25.02,24.6535,25.03094Zm0-3A0.48936,0.48936,0,0,0,24.5,22H24V21h0.071a1.991,1.991,0,0,0,.62,1C24.67877,22.01062,24.66547,22.02,24.6535,22.03094Zm0-3A0.48936,0.48936,0,0,0,24.5,19H24V18h0.071a1.991,1.991,0,0,0,.62,1C24.67877,19.01062,24.66547,19.02,24.6535,19.03094Zm0-3A0.48936,0.48936,0,0,0,24.5,16H7.5a0.48936,0.48936,0,0,0-.1535.03094C7.33453,16.02,7.32123,16.01062,7.309,16a1.991,1.991,0,0,0,.62-1H24.071a1.991,1.991,0,0,0,.62,1C24.67877,16.01062,24.66547,16.02,24.6535,16.03094ZM6,25.5a1,1,0,1,1-1,1A1.0013,1.0013,0,0,1,6,25.5ZM9,21h5v1H9V21Zm6,0h2v1H15V21Zm0-2V18h2v1H15Zm-1,1H9V17h5v3ZM7.929,18H8v1H7.5a0.48936,0.48936,0,0,0-.1535.03094C7.33453,19.02,7.32123,19.01062,7.309,19A1.991,1.991,0,0,0,7.929,18Zm0,3H8v1H7.5a0.48936,0.48936,0,0,0-.1535.03094C7.33453,22.02,7.32123,22.01062,7.309,22A1.991,1.991,0,0,0,7.929,21Zm0,3H17v1H7.5a0.48936,0.48936,0,0,0-.1535.03094C7.33453,25.02,7.32123,25.01062,7.309,25A1.991,1.991,0,0,0,7.929,24ZM24.6535,13.03094A0.48936,0.48936,0,0,0,24.5,13V12.20428l0.87726,0.40491A1.98992,1.98992,0,0,0,24.6535,13.03094ZM23.5,13h-1V11.28125l1,0.46155V13Zm-2,0h-1V10.35822l1,0.46155V13Zm-2,0h-1V9.43518l1,0.46155V13Zm-2,0h-1V8.51215l1,0.46155V13Zm-2,0h-1V8.55908l1-.5V13Zm-2,0h-1V9.55908l1-.5V13Zm-2,0h-1V10.55908l1-.5V13Zm-2,0h-1V11.55908l1-.5V13Zm-2,0a0.48936,0.48936,0,0,0-.1535.03094,1.98936,1.98936,0,0,0-.86121-0.46454L7.5,12.05908V13ZM25,14.5a0.99976,0.99976,0,0,1,1.99951-.00244v0.00488A0.99976,0.99976,0,0,1,25,14.5Zm-20,0a1,1,0,1,1,1,1A1.0013,1.0013,0,0,1,5,14.5Zm2,3a1,1,0,1,1-1-1A1.0013,1.0013,0,0,1,7,17.5Zm-2,3a1,1,0,1,1,1,1A1.0013,1.0013,0,0,1,5,20.5Zm2,3a1,1,0,1,1-1-1A1.0013,1.0013,0,0,1,7,23.5ZM7.309,28a1.991,1.991,0,0,0,.62-1H17v1H7.309ZM24,27h0.071a1.991,1.991,0,0,0,.62,1H24V27Zm2.99976-.50122L26.99951,26.5l0.00024,0.00122A1,1,0,1,1,26.99976,26.49878ZM25,23.5a1,1,0,1,1,1,1A1.0013,1.0013,0,0,1,25,23.5Zm1.99976-3.00122L26.99951,20.5l0.00024,0.00122A1,1,0,1,1,26.99976,20.49878ZM25,17.5a1,1,0,1,1,1,1A1.0013,1.0013,0,0,1,25,17.5ZM4,15H4.071a1.991,1.991,0,0,0,.62,1,1.991,1.991,0,0,0-.62,1H4V15Zm0,6H4.071a1.991,1.991,0,0,0,.62,1,1.991,1.991,0,0,0-.62,1H4V21Zm0,6H4.071a1.991,1.991,0,0,0,.62,1H4V27Zm24-1H27.929a1.991,1.991,0,0,0-.62-1,1.991,1.991,0,0,0,.62-1H28v2Zm0-6H27.929a1.991,1.991,0,0,0-.62-1,1.991,1.991,0,0,0,.62-1H28v2Zm2-7.28516-14.28857-6.668a0.5004,0.5004,0,0,0-.43506.00586L2,12.69092V10.80908L4.72345,9.44733l0.00018-.00006,5-2.5L9.724,6.947l5.78333-2.89178L30,10.81836v1.89648Z" fill="#231f20"/><path d="M22,18.5a0.49971,0.49971,0,0,0-.5-0.5h-2a0.49971,0.49971,0,0,0-.5.5v2a0.49971,0.49971,0,0,0,.5.5h2a0.49971,0.49971,0,0,0,.5-0.5v-2ZM21,20H20V19h1v1Z" fill="#231f20"/></svg>