<svg xmlns="http://www.w3.org/2000/svg" width="32" height="32" viewBox="0 0 32 32"><title>kamp</title><path d="M5.1499,29.1499A0.5003,0.5003,0,0,0,5.5,30a0.40888,0.40888,0,0,0,.18994-0.04,0.35028,0.35028,0,0,0,.15967-0.11035,0.48213,0.48213,0,0,0,0-.69971A0.50083,0.50083,0,0,0,5.1499,29.1499Z" fill="#231f20"/><path d="M23.5,16a0.49971,0.49971,0,0,0,.5-0.5v-1a0.5,0.5,0,0,0-1,0v1A0.49971,0.49971,0,0,0,23.5,16Z" fill="#231f20"/><path d="M9,9.5v2a0.5,0.5,0,0,0,1,0v-2A0.5,0.5,0,0,0,9,9.5Z" fill="#231f20"/><path d="M9.5,13a0.49971,0.49971,0,0,0-.5.5v1a0.5,0.5,0,0,0,1,0v-1A0.49971,0.49971,0,0,0,9.5,13Z" fill="#231f20"/><path d="M25.85352,12.85352a0.49995,0.49995,0,0,0-.707-0.707l-0.27.27A2.48324,2.48324,0,0,0,24,12.0506V11.5a0.5,0.5,0,0,0-1,0v0.5498A2.45875,2.45875,0,0,0,21.0415,14.5V15H20V11h0.5a0.5,0.5,0,0,0,0-1H20V9h0.5a0.5,0.5,0,0,0,0-1H19.94739a3.61348,3.61348,0,0,0-.62732-1.48578l0.56812-.69879a0.50018,0.50018,0,1,0-.77637-0.63086l-0.481.59161A3.37252,3.37252,0,0,0,17,5.05554V4.5a0.5,0.5,0,0,0-1,0V5.05029a3.53512,3.53512,0,0,0-1.03412.27448,0.49361,0.49361,0,0,0-.11237-0.17828l-0.40625-.40625a0.49995,0.49995,0,0,0-.707.707l0.40625,0.40625c0.006,0.006.01428,0.008,0.02057,0.01367a3.34742,3.34742,0,0,0-.551.63177l-0.89246-.44623a0.50006,0.50006,0,0,0-.44727.89453L13.1828,7.40045A3.65083,3.65083,0,0,0,13,8.5V13H12V9.5a2.504,2.504,0,0,0-2-2.4494V6.5a0.5,0.5,0,0,0-1,0V7.0506a2.48324,2.48324,0,0,0-.87646.36591l-0.27-.27a0.49995,0.49995,0,0,0-.707.707l0.27,0.27A2.48324,2.48324,0,0,0,7.0506,9H6.5a0.5,0.5,0,0,0,0,1H7v1H6.5a0.5,0.5,0,0,0,0,1H7v2.5A4.50492,4.50492,0,0,0,11.5,19H13v7H11.5a0.49964,0.49964,0,0,0-.35352.14648l-1,1a0.4999,0.4999,0,0,0-.09375.57715L10.5,28.61816V29H9.707l-0.85352-.85352a0.49982,0.49982,0,0,0-.707,0l-0.99939.99939a0.49538,0.49538,0,0,0-.12128.2262,0.44891,0.44891,0,0,0-.01294.06415A0.46654,0.46654,0,0,0,7,29.5a0.497,0.497,0,0,0,.0376.18658l0.00049,0.00482L7.03876,29.6922a0.49316,0.49316,0,0,0,.163.19879,0.46514,0.46514,0,0,0,.05029.03394A0.48635,0.48635,0,0,0,7.5,30h18a0.48635,0.48635,0,0,0,.24792-0.07507,0.46514,0.46514,0,0,0,.05029-0.03394,0.49316,0.49316,0,0,0,.163-0.19879l0.00067-.00079,0.00049-.00482A0.497,0.497,0,0,0,26,29.5a0.46654,0.46654,0,0,0-.01288-0.06378,0.44891,0.44891,0,0,0-.01294-0.06415,0.49538,0.49538,0,0,0-.12128-0.2262l-0.99939-.99939A0.49964,0.49964,0,0,0,24.5,28H23.30908l-0.36182-.72363A0.5002,0.5002,0,0,0,22.5,27H21.86017l0.114-.3418A0.49952,0.49952,0,0,0,21.5,26H20V21h1.5A4.50492,4.50492,0,0,0,26,16.5v-2a2.483,2.483,0,0,0-.4165-1.37646ZM14.27637,7.94727a0.50006,0.50006,0,0,0,.44727-0.89453l-0.1991-.09955A2.2766,2.2766,0,0,1,16,6.05377V6.5a0.5,0.5,0,0,0,1,0V6.05847A2.65366,2.65366,0,0,1,19,8.5v7c0,0.00861.00446,0.01569,0.00488,0.02417a1.14671,1.14671,0,0,0,.04053.17969,0.49857,0.49857,0,0,0,.09937.14746c0.00757,0.00763.018,0.01166,0.02606,0.0188a0.49513,0.49513,0,0,0,.10944.0791l2.0415,1A0.5,0.5,0,0,0,22.0415,16.5v-2A1.46381,1.46381,0,0,1,23.5,13a1.48248,1.48248,0,0,1,.64362.15082,0.49892,0.49892,0,0,0,.70557.70557A1.48248,1.48248,0,0,1,25,14.5v1A3.50425,3.50425,0,0,1,21.5,19h-2a0.49971,0.49971,0,0,0-.5.5V29H18.0415V24.5a0.5,0.5,0,0,0-1,0V29H16V28.5a0.49964,0.49964,0,0,0-.14648-0.35352L14,26.293V8.5a2.57305,2.57305,0,0,1,.09619-0.64282ZM13.71875,27.42578L14.293,28H13.52728ZM11,9.5v4a0.49971,0.49971,0,0,0,.5.5H13v3H11.5A3.50425,3.50425,0,0,1,8,13.5v-4a1.48248,1.48248,0,0,1,.15082-0.64362,0.49893,0.49893,0,0,0,.70557-0.70557A1.48248,1.48248,0,0,1,9.5,8,1.50164,1.50164,0,0,1,11,9.5ZM11.707,27h1.09943l-0.33331,1H11.30908l-0.20068-.40137Zm9.09912,0L20.4729,28H20V27h0.80615Z" fill="#231f20"/><path d="M15.5,13.5A0.49971,0.49971,0,0,0,16,13V8.5a0.5,0.5,0,0,0-1,0V13A0.49971,0.49971,0,0,0,15.5,13.5Z" fill="#231f20"/><path d="M15.5,16.5A0.49971,0.49971,0,0,0,16,16V14.5a0.5,0.5,0,0,0-1,0V16A0.49971,0.49971,0,0,0,15.5,16.5Z" fill="#231f20"/><path d="M15.5,21.4165a0.49971,0.49971,0,0,0,.5-0.5V17.5a0.5,0.5,0,0,0-1,0v3.4165A0.49971,0.49971,0,0,0,15.5,21.4165Z" fill="#231f20"/><path d="M15.5,23.9585a0.49971,0.49971,0,0,0,.5-0.5v-1a0.5,0.5,0,1,0-1,0v1A0.49971,0.49971,0,0,0,15.5,23.9585Z" fill="#231f20"/><path d="M15.5,26.9165a0.49971,0.49971,0,0,0,.5-0.5V25a0.5,0.5,0,0,0-1,0v1.4165A0.49971,0.49971,0,0,0,15.5,26.9165Z" fill="#231f20"/><path d="M17.5415,12a0.49971,0.49971,0,0,0,.5-0.5v-2a0.5,0.5,0,0,0-1,0v2A0.49971,0.49971,0,0,0,17.5415,12Z" fill="#231f20"/><path d="M17.5415,18a0.49971,0.49971,0,0,0,.5-0.5v-4a0.5,0.5,0,0,0-1,0v4A0.49971,0.49971,0,0,0,17.5415,18Z" fill="#231f20"/><path d="M17.5415,22.9585a0.49971,0.49971,0,0,0,.5-0.5V19.5a0.5,0.5,0,0,0-1,0v2.9585A0.49971,0.49971,0,0,0,17.5415,22.9585Z" fill="#231f20"/></svg>