<svg xmlns="http://www.w3.org/2000/svg" width="32" height="32" viewBox="0 0 32 32"><title>kamp</title><path d="M29,6.0921V4.5A0.49971,0.49971,0,0,0,28.5,4h-4a0.49971,0.49971,0,0,0-.5.5V6H12V4.5A0.49971,0.49971,0,0,0,11.5,4h-1a0.49971,0.49971,0,0,0-.5.5V6H9V4.5A0.49971,0.49971,0,0,0,8.5,4H8V3.5A0.49971,0.49971,0,0,0,7.5,3h-2a0.49971,0.49971,0,0,0-.5.5V4H4.5a0.49971,0.49971,0,0,0-.5.5V6.0921A1.49758,1.49758,0,0,0,3,7.5H2.5a1.5,1.5,0,0,0,0,3H3v16A1.48344,1.48344,0,0,0,4.46289,28H28.53711A1.48344,1.48344,0,0,0,30,26.5V7.5A1.49758,1.49758,0,0,0,29,6.0921ZM25,5h3V6H25V5ZM5,5H5.5A0.49971,0.49971,0,0,0,6,4.5V4H7V4.5a0.49971,0.49971,0,0,0,.5.5H8V6H5V5ZM2.5,9.5a0.5,0.5,0,0,1,0-1H3v1H2.5ZM4,22V13H5V24H4.5A0.50034,0.50034,0,0,1,4,23.5V22Zm3-9v2.02032a0.4954,0.4954,0,0,0-.37451.38153L6.061,18.2251A1.463,1.463,0,0,0,7,19.89893V24H6V13H7Zm2,0V24H8V19.90985a1.46266,1.46266,0,0,0,.9707-1.68475L8.40625,15.40186A0.49491,0.49491,0,0,0,8,15.01477V13H9Zm2,0V24H10V13h1Zm14,0V24H24V13h1Zm2,0V24H26V13h1Zm-8,9.65V24H18V22.90967A5.936,5.936,0,0,0,19,22.65ZM17,23v1H16V22.90967A5.98827,5.98827,0,0,0,17,23Zm3,1V22.18823a6.02348,6.02348,0,0,0,1-.7287V24H20Zm-5-1.35V24H14V22.18823A5.96883,5.96883,0,0,0,15,22.65ZM22,24V20.5a0.48667,0.48667,0,0,0-.029-0.14368A5.966,5.966,0,0,0,23,17v7H22Zm-9-2.54047V24H12V20.30957A6.03907,6.03907,0,0,0,13,21.45953ZM4.46289,25c-0.01135,0-.02081-0.0061-0.032-0.007C4.45428,24.99414,4.47632,25,4.5,25H4.46289Zm24.07422,0H28.5c0.02368,0,.04572-0.00586.06909-0.007C28.55792,24.9939,28.54846,25,28.53711,25ZM23,14.5a0.49521,0.49521,0,0,0-.04486-0.203A5.9433,5.9433,0,0,0,22.65,13H23v1.5ZM22,15a5,5,0,1,1-5-5A5.00589,5.00589,0,0,1,22,15ZM7.51611,16.04883l0.47412,2.37256a0.47637,0.47637,0,0,1-.1001.40137,0.48378,0.48378,0,0,1-.84863-0.40137ZM29,21v2.5a0.50034,0.50034,0,0,1-.5.5H28V13h1v8Zm-6.81177-9a5.98629,5.98629,0,0,0-10.37646,0H4V7.5A0.50034,0.50034,0,0,1,4.5,7h24a0.50034,0.50034,0,0,1,.5.5V12H22.18823Z" fill="#231f20"/><path d="M17,10.5A4.5,4.5,0,1,0,21.5,15,4.50492,4.50492,0,0,0,17,10.5Zm0,8A3.50425,3.50425,0,0,1,13.5,15a3.54167,3.54167,0,0,1,7,0A3.50425,3.50425,0,0,1,17,18.5Z" fill="#231f20"/><path d="M7.5,8A1.5,1.5,0,1,0,9,9.5,1.50164,1.50164,0,0,0,7.5,8Zm0,2A0.5,0.5,0,1,1,8,9.5,0.50034,0.50034,0,0,1,7.5,10Z" fill="#231f20"/><path d="M27.5,8h-4a0.49971,0.49971,0,0,0-.5.5v2a0.49971,0.49971,0,0,0,.5.5h4a0.49971,0.49971,0,0,0,.5-0.5v-2A0.49971,0.49971,0,0,0,27.5,8ZM27,10H24V9h3v1Z" fill="#231f20"/><path d="M14.70508,13.64648a0.49995,0.49995,0,0,0,.707.707,2.24919,2.24919,0,0,1,3.17578,0,0.49995,0.49995,0,0,0,.707-0.707A3.24882,3.24882,0,0,0,14.70508,13.64648Z" fill="#231f20"/></svg>