<svg xmlns="http://www.w3.org/2000/svg" width="32" height="32" viewBox="0 0 32 32"><title>kamp</title><path d="M13.7959,21.98828L9.19189,23.938a0.5,0.5,0,1,0,.38965.9209l4.604-1.94971A0.5,0.5,0,0,0,13.7959,21.98828Z" fill="#231f20"/><path d="M13.65527,24.21973l-2.7627,1.16992a0.5,0.5,0,1,0,.38965.9209l2.7627-1.16992A0.5,0.5,0,1,0,13.65527,24.21973Z" fill="#231f20"/><path d="M19.71094,20.56885l-3.68359,1.56006a0.5,0.5,0,1,0,.38965.9209l3.68359-1.56006A0.5,0.5,0,1,0,19.71094,20.56885Z" fill="#231f20"/><path d="M18.20508,20.07764a0.49819,0.49819,0,0,0,.19482-0.03955l4.604-1.9502a0.5,0.5,0,1,0-.38965-0.9209l-4.604,1.9502A0.5,0.5,0,0,0,18.20508,20.07764Z" fill="#231f20"/><path d="M23.394,19.00879l-1.8418.78027a0.5,0.5,0,1,0,.38965.9209l1.8418-.78027A0.5,0.5,0,0,0,23.394,19.00879Z" fill="#231f20"/><path d="M27.20117,22.54053a1.17661,1.17661,0,0,0-.28174-0.06,0.49147,0.49147,0,0,0-.17871-0.13483l-0.48431-.20508,0.90277-.38232a1.48517,1.48517,0,0,0,.91309-1.27539,7.14149,7.14149,0,0,0-.70544-3.57141c-0.00238-.01514-0.00531-0.03-0.00916-0.045a10.72862,10.72862,0,0,0-1.551-9.67993,0.50026,0.50026,0,0,0-.88574.376c0.00354,0.02979.31122,2.71918-1.24829,4.12823a8.11835,8.11835,0,0,0-3.14624-6.57941,0.5,0.5,0,0,0-.81445.37549,5.23634,5.23634,0,0,1-.56152,2.34375,5.36676,5.36676,0,0,1-2.17871-3.6792A13.89245,13.89245,0,0,1,16.958,1.7002a0.49976,0.49976,0,0,0-.75-0.606l-0.00049.00049A15.54083,15.54083,0,0,0,10.253,8.65283,9.725,9.725,0,0,1,8.91455,4.45215a0.5,0.5,0,0,0-.377-0.4375,0.50831,0.50831,0,0,0-.53809.21C4.71826,9.20068,6.13336,13.08624,6.75977,14.34155a7.04168,7.04168,0,0,0-2.832,6.14136,1.48517,1.48517,0,0,0,.91309,1.27539l0.90277,0.38226-0.48431.20514a0.48975,0.48975,0,0,0-.17926.13574,1.188,1.188,0,0,0-.28168.05908c-1.2085.51221-1.05615,2.6333-.28125,4.46338A6.991,6.991,0,0,0,6.001,29.27734a2.13859,2.13859,0,0,0,1.45264.72168l0.0127-.00134a0.49591,0.49591,0,0,0,.2832.09607,0.53474,0.53474,0,0,0,.0918-0.0083l11.58386-2.15027,4.19592,1.77722a0.49819,0.49819,0,0,0,.19482.03955c0.00867,0,.01569-0.00677.02429-0.0072a0.96665,0.96665,0,0,0,.70618.25427,2.13859,2.13859,0,0,0,1.45264-.72168,6.991,6.991,0,0,0,1.48389-2.27344C28.25781,25.17383,28.41016,23.05273,27.20117,22.54053Zm-3.40186,2.90332a6.51987,6.51987,0,0,0-.57324,3.01526l-4.67578-1.98053,1.76965-.74963,1.37341,0.5816a0.5,0.5,0,0,0,.38965-0.9209l-0.48114-.20374,3.07855-1.30408A7.97661,7.97661,0,0,0,23.79932,25.44385Zm-6.517.49762,0.0401-.017c-0.011.00616-.02032,0.0141-0.03064,0.021Zm9.79089-5.50836a0.48013,0.48013,0,0,1-.30371.4043l-1.9895.84265-0.00073.00012L15.80518,25.481l-0.00055.00049L8.77386,28.45923a6.51973,6.51973,0,0,0-.57318-3.01538,6.51592,6.51592,0,0,0-1.76581-2.51013l0.785-.33246,0.00079-.00018,3.78143-1.60175L24.4292,15.3125a0.47794,0.47794,0,0,1,.502.063,6.68564,6.68564,0,0,1,1.20673,1.38519l-2.21307.93756a0.5,0.5,0,1,0,.38965.9209L26.62,17.6424A6.25018,6.25018,0,0,1,27.07324,20.43311ZM25.88232,9.25488a9.79046,9.79046,0,0,1,.74622,6.47369,7.91428,7.91428,0,0,0-1.03821-1.105,1.48493,1.48493,0,0,0-1.55078-.23193l-0.82153.348a11.17453,11.17453,0,0,0,.37469-1.78162,0.47465,0.47465,0,0,0,.07379-0.02484A4.80494,4.80494,0,0,0,25.88232,9.25488ZM15.90479,2.583a17.31061,17.31061,0,0,0,.08154,1.73779C16.28955,6.085,17.2876,8.22705,19.1792,8.94727a0.50171,0.50171,0,0,0,.60254-0.2041,5.97117,5.97117,0,0,0,.834-2.20508c3.5871,3.63519,1.51465,8.386,1.35767,8.72864l-5.97314,2.52979-1.34357-.569a5.91448,5.91448,0,0,1-3.81-4.91943C10.4624,9.04053,12.33936,5.46484,15.90479,2.583ZM8.13721,5.95557A6.92155,6.92155,0,0,0,9.97046,9.77576a8.60855,8.60855,0,0,0-.11694,2.649,6.92861,6.92861,0,0,0,1.295,3.317l-3.259-1.38013A0.48571,0.48571,0,0,0,7.835,14.22559C7.81055,14.18848,5.62793,10.75928,8.13721,5.95557ZM5.23047,20.8374a0.48013,0.48013,0,0,1-.30371-0.4043,5.99783,5.99783,0,0,1,2.35889-5.24121l6.98816,2.95947,0.00208,0.001,0.00055,0.00012,0.44135,0.18689L11.35938,19.762l-1.77783-.75317a0.5,0.5,0,0,0-.38965.9209l0.88574,0.37524-0.50348.21326L7.0257,21.5976ZM5.438,26.61426c-0.72559-1.71387-.57373-3.01514-0.24951-3.15283a0.20982,0.20982,0,0,1,.083-0.01514c0.39355,0,1.33594.80029,2.0083,2.38721,0.72559,1.71387.57373,3.01514,0.24854,3.15283a1.04755,1.04755,0,0,1-.83447-0.43018A6.06205,6.06205,0,0,1,5.438,26.61426Zm21.124,0a6.06205,6.06205,0,0,1-1.25586,1.94189,1.04224,1.04224,0,0,1-.835.43018c-0.32471-.1377-0.47656-1.439.249-3.15283,0.72656-1.71582,1.76953-2.50732,2.09082-2.37207C27.13574,23.59912,27.2876,24.90039,26.562,26.61426Z" fill="#231f20"/><path d="M12.021,19a0.5,0.5,0,0,0,.19482-0.96045l-4.604-1.9502a0.5,0.5,0,0,0-.38965.9209l4.604,1.9502A0.49819,0.49819,0,0,0,12.021,19Z" fill="#231f20"/></svg>