<svg xmlns="http://www.w3.org/2000/svg" width="32" height="32" viewBox="0 0 32 32"><title>kamp</title><path d="M28.88965,11.1582l-0.00574-.00311a0.4586,0.4586,0,0,0-.25146-0.138c-0.0141-.00317-0.02673-0.00281-0.041-0.00476a0.49087,0.49087,0,0,0-.09827-0.01135,0.49734,0.49734,0,0,0-.17615.04572l-0.00549.00067-0.0011.001a0.49406,0.49406,0,0,0-.2016.18915,0.46173,0.46173,0,0,0-.02625.041,0.48881,0.48881,0,0,0-.05817.22144c0,1.68115-3.76172,2.498-11.5,2.498-9.04871,0-11.58026-1.16229-12.259-1.95239A1.48154,1.48154,0,0,1,4.02051,11.438a0.50369,0.50369,0,0,0-.10236-0.23871L3.898,11.17413A0.47461,0.47461,0,0,0,3.49316,11.001a0.479,0.479,0,0,0-.05646.01465,0.46317,0.46317,0,0,0-.06.01556,0.492,0.492,0,0,0-.199.1134l-0.0127.00726-0.00458.00543-0.00116.00128a6.33848,6.33848,0,0,0-1.49817,4.62268,6.99881,6.99881,0,0,0,.8493,3.22156A0.49868,0.49868,0,0,0,2.52441,20h27a0.49917,0.49917,0,0,0,.00836-0.99829,6.89618,6.89618,0,0,0,.80316-3.08325A6.65937,6.65937,0,0,0,28.88965,11.1582ZM3.72852,19a5.29819,5.29819,0,0,1-1.06836-3.25293c-0.00812-.23743.00494-0.4679,0.019-0.69763C4.29968,17.03088,8.86389,18,16.52539,18c7.07153,0,11.2608-.81262,12.80756-2.48022,0.00018,0.11926.00916,0.235,0.004,0.3562A5.12866,5.12866,0,0,1,28.31934,19H3.72852ZM3.33533,12.61145C4.4704,14.97247,8.55023,16,16.52344,16c6.75488,0,10.40723-.72412,11.84082-2.34814a2.70633,2.70633,0,0,0,.46179-0.758,5.08628,5.08628,0,0,1,.21222.53571,0.48109,0.48109,0,0,0-.00995.13245,1.50405,1.50405,0,0,1-.38965,1.2417C27.75391,15.80566,24.93457,17,16.52539,17,5.73145,17,3.22363,15.063,3.02051,13.438a0.44274,0.44274,0,0,0-.02063-0.05975A4.79823,4.79823,0,0,1,3.33533,12.61145Zm13.78754,2.38409c-0.08215.00055-.16315,0.00122-0.24591,0.00159-0.0307.00024-.06134-0.00067-0.092-0.00049,0.12366-.00031.24438-0.00116,0.3667-0.00189Z" fill="#231f20"/><path d="M8.52441,21h-5a0.5,0.5,0,1,0,0,1h5A0.5,0.5,0,0,0,8.52441,21Z" fill="#231f20"/><path d="M11.52441,22a0.5,0.5,0,0,0,0-1h-1a0.5,0.5,0,1,0,0,1h1Z" fill="#231f20"/><path d="M21.52441,21h-8a0.5,0.5,0,1,0,0,1h8A0.5,0.5,0,0,0,21.52441,21Z" fill="#231f20"/><path d="M28.52441,21h-5a0.5,0.5,0,1,0,0,1h5A0.5,0.5,0,0,0,28.52441,21Z" fill="#231f20"/><path d="M19.52441,23h-10a0.5,0.5,0,1,0,0,1h10A0.5,0.5,0,0,0,19.52441,23Z" fill="#231f20"/><path d="M25.52441,23h-3a0.5,0.5,0,1,0,0,1h3A0.5,0.5,0,0,0,25.52441,23Z" fill="#231f20"/></svg>