<svg xmlns="http://www.w3.org/2000/svg" width="32" height="32" viewBox="0 0 32 32"><title>kamp</title><path d="M19.97021,4.54926V2.50439a0.496,0.496,0,0,0-.04327-0.20062C19.71051,1.40979,18.10815,1,16.5,1s-3.21051.40979-3.42694,1.30377a0.496,0.496,0,0,0-.04327.20062V4.5849A11.63705,11.63705,0,0,0,5.10986,15.61865v2.95752a0.46766,0.46766,0,0,0,.012.05969A11.52947,11.52947,0,0,0,16.55518,30,11.52937,11.52937,0,0,0,27.988,18.63586,0.46766,0.46766,0,0,0,28,18.57617V15.61865A11.61232,11.61232,0,0,0,19.97021,4.54926ZM16.5,6.02246c-0.173,0-.33466-0.00641-0.49023-0.01556V3.99207c0.16284,0.00848.32611,0.01672,0.49023,0.01672,0.16394,0,.327-0.00824.48975-0.01672V6.00684C16.83429,6.016,16.67285,6.02246,16.5,6.02246Zm-2.47021-2.4173a4.88835,4.88835,0,0,0,.98.2724V5.87781a2.41857,2.41857,0,0,1-.98-0.35974V3.60516Zm3.96,0.27252a4.89209,4.89209,0,0,0,.98047-0.27252V5.47308a2.03371,2.03371,0,0,1-.98047.40137V3.87769ZM13.05267,5.63153a0.50089,0.50089,0,0,0,.02039.08716c0.14984,0.6189.959,1.00439,1.98511,1.18188a11.46555,11.46555,0,0,0-8.60767,6.057A10.60164,10.60164,0,0,1,13.05267,5.63153ZM16.55518,29a10.60645,10.60645,0,0,1,0-21.21045A10.60646,10.60646,0,0,1,16.55518,29ZM17.991,6.89111c1.00275-.18121,1.78857-0.56354,1.936-1.17242A0.50547,0.50547,0,0,0,19.95471,5.595a10.57434,10.57434,0,0,1,6.71191,7.37781A11.46432,11.46432,0,0,0,17.991,6.89111Z" fill="#231f20"/><path d="M16.438,8.4707a10.04368,10.04368,0,1,0,9.90527,10.043A9.986,9.986,0,0,0,16.438,8.4707ZM24.65314,22H8.25c-0.00885,0-.01624.00458-0.025,0.005a9.10138,9.10138,0,0,1-.66791-3.0116C7.56854,18.9942,7.57825,19,7.58984,19H25.319A9.09866,9.09866,0,0,1,24.65314,22ZM7.89044,16H24.986a9.08569,9.08569,0,0,1,.22223,1h-17.54A9.08569,9.08569,0,0,1,7.89044,16Zm-0.3006,2c-0.01111,0-.02039.00555-0.03131,0.00629l0.00061-.01245C7.56989,17.99451,7.579,18,7.58984,18ZM16.438,9.4707A8.91854,8.91854,0,0,1,24.64337,15H8.233A8.91782,8.91782,0,0,1,16.438,9.4707ZM11.44989,26h9.97632A8.77271,8.77271,0,0,1,11.44989,26ZM22.6286,25H10.25l-0.002.00037A9.0752,9.0752,0,0,1,8.71722,23H24.15912A9.07694,9.07694,0,0,1,22.6286,25Z" fill="#231f20"/></svg>