<svg xmlns="http://www.w3.org/2000/svg" width="32" height="32" viewBox="0 0 32 32"><title>kamp</title><path d="M27.11639,24.57867c2.72247-3.34589.84558-6.9104-.86542-9.35553a1.43341,1.43341,0,0,0-1.544-.54645l-1.26459-1.26459-0.001-.00146-0.00146-.001L22.38037,12.3501l0.35352-.35352a0.49982,0.49982,0,0,0,0-.707L21.32031,9.87573,21.31982,9.875l-0.00073-.00049L19.90576,8.46094a0.49964,0.49964,0,0,0-.35352-0.14648,0.49437,0.49437,0,0,0-.30493.114,2.25749,2.25749,0,0,0-1.06763-1.3606A10.00174,10.00174,0,0,0,6.7923,8.14252a0.49685,0.49685,0,0,0-.17072.11041C6.54907,8.32538,6.49023,8.403,6.42169,8.477c-0.08154.07623-.16846,0.14447-0.24786,0.22369a6.45951,6.45951,0,0,0-1.72266,2.86279,6.7863,6.7863,0,0,0,1.71094,6.67578A6.70868,6.70868,0,0,0,7.25,19.11816l13.28662,6.67822a4.78418,4.78418,0,0,0,6.021-.59619c0.103-.103.18555-0.207,0.27917-0.31055,0.054-.04919.116-0.08514,0.16809-0.13721A0.4952,0.4952,0,0,0,27.11639,24.57867ZM23.68665,22.412a0.7791,0.7791,0,0,1-.985.02551L9.41553,15.75977A2.745,2.745,0,0,1,8.23438,12.981a3.03278,3.03278,0,0,1,1.02-1.68359l0.00586-.00342c0.16754-.148.35266-0.26556,0.52942-0.39813a5.8766,5.8766,0,0,1,3.58191-1.12189,5.95192,5.95192,0,0,1,3.2323,1.04218L16.72369,10.936l-0.35358.35358a0.49982,0.49982,0,0,0,0,.707l2.82861,2.82813a0.49982,0.49982,0,0,0,.707,0l0.35352-.35352,2.56714,2.56714a1.42542,1.42542,0,0,0,.2019.5603l0.05762,0.08594c1.47559,2.20856,2.06793,3.2572.6402,4.68494C23.71106,22.38452,23.702,22.39685,23.68665,22.412ZM17.07721,9.16791L17.07727,9.168a0.5,0.5,0,0,0,.70709,0h0l0.35376,0.35352-0.6322.6322a4.7602,4.7602,0,0,0-.70331-0.71124Zm6.56635,7.2735-1.26312-1.26312,0.70715-.70691,1.06073,1.06073a0.49995,0.49995,0,0,0,.707.707L25.209,16.59277l-0.707.707Zm-1.263-2.67706-0.70715.70691-0.70709-.70709,0.707-.707Zm-1.06073-1.76776-1.41406,1.41406-0.35352.35352-0.70715-.707,2.12109-2.12146,0.70715,0.70734Zm-1.06061-1.76794L18.138,12.35022l-0.70734-.70715,0.35352-.35352L19.19873,9.875l0.35352-.35352ZM13.43164,6.77441a9.027,9.027,0,0,1,3.751.89893,0.49985,0.49985,0,0,0-.10547.08057l-1.1167,1.1167A4.09985,4.09985,0,0,0,13.791,8.33643a8.58291,8.58291,0,0,0-4.686,1.79529c-0.14874.10931-.29559,0.22174-0.436,0.34338-0.02417.02094-.04205,0.04449-0.06567,0.06567l-0.00513.00415-0.00293.00391A3.993,3.993,0,0,0,7.248,12.81494a3.74815,3.74815,0,0,0,1.66553,3.80762L22.2002,23.30029a1.748,1.748,0,0,0,1.99695-.04559,0.50036,0.50036,0,0,0,.172-0.1087l0.02106-.022,0.0014-.001,0.00574-.00653c1.98608-1.96649,1.75922-3.27655.64807-4.94611l1.16748-1.16748c1.76788,2.99164,1.70288,5.21277-.12738,7.22034a3.80005,3.80005,0,0,1-4.59967.26306L8.19922,17.80811a5.76365,5.76365,0,0,1-2.33545-6.42822A5.35464,5.35464,0,0,1,7.1319,9.18073a8.92283,8.92283,0,0,1,6.11322-2.40826C13.30713,6.77246,13.36963,6.77295,13.43164,6.77441Z" fill="#231f20"/></svg>