<svg xmlns="http://www.w3.org/2000/svg" width="32" height="32" viewBox="0 0 32 32"><title>kamp</title><path d="M24.4585,8H20.9494A2.504,2.504,0,0,0,18.5,6H18.48975A2.51276,2.51276,0,0,0,17.5,5.22516V5a2,2,0,0,0-4,0V5.22516A2.51276,2.51276,0,0,0,12.51025,6H12.5a2.504,2.504,0,0,0-2.4494,2H6.5a0.50019,0.50019,0,0,0-.44727.72363L9.27637,15.1709l0.05682-.02844L8.1123,27.35107A1.50023,1.50023,0,0,0,9.605,29H8.5a0.5,0.5,0,0,0,0,1h14a0.5,0.5,0,0,0,0-1H21.395a1.5003,1.5003,0,0,0,1.49268-1.64941L22.11206,19.595l4.74146-4.74146A0.49964,0.49964,0,0,0,27,14.5V10.5415A2.54441,2.54441,0,0,0,24.4585,8Zm-2.74768,7.58215L21.25256,11H23.5a0.50034,0.50034,0,0,1,.5.5v1.793ZM15.5,4a1.0013,1.0013,0,0,1,1,1h-2A1.0013,1.0013,0,0,1,15.5,4Zm-3,3h1a0.498,0.498,0,0,0,.36023-0.84387A1.46363,1.46363,0,0,1,14.5,6h2a1.46363,1.46363,0,0,1,.63977.15613A0.498,0.498,0,0,0,17.5,7h1a1.5031,1.5031,0,0,1,1.41455,1h-8.8291A1.5031,1.5031,0,0,1,12.5,7ZM7.30908,9H9.94745L9.50769,13.39728ZM21.76563,27.83545A0.49477,0.49477,0,0,1,21.395,28H9.605a0.50032,0.50032,0,0,1-.49756-0.5498L10.85614,9.96484h9.28772l1.74872,17.48486A0.494,0.494,0,0,1,21.76563,27.83545ZM26,14.293l-3.12811,3.12811-0.17621-1.40973,2.15784-2.15784A0.49964,0.49964,0,0,0,25,13.5v-2A1.50164,1.50164,0,0,0,23.5,10H22.07074l-0.125-1H24.4585A1.54311,1.54311,0,0,1,26,10.5415V14.293Z" fill="#231f20"/><path d="M12.53662,12.03564a0.50373,0.50373,0,0,0-.54736.44775L10.69531,25.42285a0.49993,0.49993,0,0,0,.44775.54736c0.01709,0.00146.03369,0.00244,0.05029,0.00244a0.50013,0.50013,0,0,0,.49707-0.4502L12.98438,12.583A0.49993,0.49993,0,0,0,12.53662,12.03564Z" fill="#231f20"/></svg>