<svg xmlns="http://www.w3.org/2000/svg" width="32" height="32" viewBox="0 0 32 32"><title>kamp</title><path d="M27.9881,17.76471C27.98962,17.67578,28,17.58936,28,17.5a0.49157,0.49157,0,0,0-.03381-0.16785A12.00719,12.00719,0,0,0,18.68463,6.3136a3.00011,3.00011,0,1,0-5.36926,0A12.00719,12.00719,0,0,0,4.03381,17.33215,0.49157,0.49157,0,0,0,4,17.5c0,0.08936.01038,0.17578,0.0119,0.26471C4.01038,17.84375,4,17.92059,4,18a11.92,11.92,0,0,0,.70007,4C6.3526,27.23468,10.787,31,16,31s9.6474-3.76532,11.29993-9A11.92,11.92,0,0,0,28,18C28,17.92059,27.98962,17.84375,27.9881,17.76471ZM16,5V4.999L16.5,5H16ZM14.58594,3.58594a1.99379,1.99379,0,0,1,3.28717,2.0993,9.558,9.558,0,0,0-1.05682-.14069A0.97244,0.97244,0,0,0,17,5a1,1,0,0,0-2,0,0.97405,0.97405,0,0,0,.19617.563,9.416,9.416,0,0,0-1.05652.16443A1.98822,1.98822,0,0,1,14.58594,3.58594ZM16,7A11.00676,11.00676,0,0,1,26.98816,17.76593a13.93284,13.93284,0,0,1-.62994,3.90076,10.98208,10.98208,0,0,1-20.71643,0,13.93284,13.93284,0,0,1-.62994-3.90076A11.00676,11.00676,0,0,1,16,7Z" fill="#231f20"/><path d="M16,27a9,9,0,1,0-9-9A9.01015,9.01015,0,0,0,16,27Zm0-1a8.00917,8.00917,0,0,1-8-8c0-3.85986,3.58887-7,8-7s8,3.14014,8,7A8.00917,8.00917,0,0,1,16,26Z" fill="#231f20"/><path d="M10.69141,16.53809a0.50014,0.50014,0,0,0-.54492.1084l-1,1a0.49982,0.49982,0,0,0,0,.707l1,1A0.49989,0.49989,0,0,0,10.5,19.5a0.494,0.494,0,0,0,.19141-0.03809A0.50022,0.50022,0,0,0,11,19V17A0.50022,0.50022,0,0,0,10.69141,16.53809Z" fill="#231f20"/><path d="M21.30859,16.53809A0.50022,0.50022,0,0,0,21,17v2a0.50022,0.50022,0,0,0,.30859.46191A0.494,0.494,0,0,0,21.5,19.5a0.49989,0.49989,0,0,0,.35352-0.14648l1-1a0.49982,0.49982,0,0,0,0-.707l-1-1A0.50068,0.50068,0,0,0,21.30859,16.53809Z" fill="#231f20"/><path d="M17,23H15a0.5,0.5,0,0,0-.35352.85352l1,1a0.49982,0.49982,0,0,0,.707,0l1-1A0.5,0.5,0,0,0,17,23Z" fill="#231f20"/><path d="M16.3125,11.10938a0.502,0.502,0,0,0-.625,0l-2.5,2A0.50024,0.50024,0,0,0,13.5,14h1v2.69122a2.00005,2.00005,0,1,0,3,0V14h1a0.50024,0.50024,0,0,0,.3125-0.89062ZM16,19a1,1,0,1,1,1-1A1.001,1.001,0,0,1,16,19Z" fill="#231f20"/></svg>