<svg xmlns="http://www.w3.org/2000/svg" width="32" height="32" viewBox="0 0 32 32"><title>kamp</title><path d="M27.5,10.207l0.35291-.35291,0.00122-.00122,0.99939-.99939A0.49964,0.49964,0,0,0,29,8.5v-1A0.49971,0.49971,0,0,0,28.5,7H19.86066l0.114-.3418A0.50063,0.50063,0,0,0,19.5,6h-6a0.50063,0.50063,0,0,0-.47461.6582L13.13934,7H3.5a0.49971,0.49971,0,0,0-.5.5v1a0.49964,0.49964,0,0,0,.14648.35352L4.14587,9.85291,4.14709,9.85413,4.5,10.207V10.793l-0.35291.35291-0.00122.00122-0.99939.99939A0.49964,0.49964,0,0,0,3,12.5v11A2.50263,2.50263,0,0,0,5.5,26h-2a0.5,0.5,0,0,0,0,1h25a0.5,0.5,0,0,0,0-1h-2A2.50263,2.50263,0,0,0,29,23.5v-11a0.49964,0.49964,0,0,0-.14648-0.35352l-0.99939-.99939-0.00122-.00122L27.5,10.793V10.207ZM16.5,12a0.5,0.5,0,1,1-.5.5A0.50065,0.50065,0,0,1,16.5,12Zm1.4079,0H21a0.50065,0.50065,0,0,1-.5.5H18A1.48253,1.48253,0,0,0,17.9079,12ZM28,8V8.293L27.293,9H19.194l0.33331-1H28ZM18.80664,7l-0.667,2h-3.2793l-0.667-2h4.61328ZM4,8h9.47266L13.806,9H4.707L4,8.293V8Zm0.707,4H15.0921A1.48253,1.48253,0,0,0,15,12.5a1.49436,1.49436,0,0,0,2.60986,1H20.5A1.50164,1.50164,0,0,0,22,12h5.293L28,12.707V20H4V12.707ZM26.5,25H5.5A1.50164,1.50164,0,0,1,4,23.5V21H28v2.5A1.50164,1.50164,0,0,1,26.5,25Z" fill="#231f20"/><path d="M9.22266,18.916a0.49993,0.49993,0,0,0,.55469,0l3-2a0.5,0.5,0,0,0,0-.832l-3-2a0.49873,0.49873,0,0,0-.55469,0l-3,2a0.5,0.5,0,0,0,0,.832ZM9.5,15.10107L11.59863,16.5H7.40137Z" fill="#231f20"/></svg>