<svg xmlns="http://www.w3.org/2000/svg" width="32" height="32" viewBox="0 0 32 32"><title>kamp</title><path d="M23,20.49023a0.5,0.5,0,0,0-.5-0.5l-5,.002a0.5,0.5,0,0,0,0,1l5-.002A0.5,0.5,0,0,0,23,20.49023Z" fill="#231f20"/><path d="M22,22.49023a0.5,0.5,0,0,0,.5.5l3-.00146a0.5,0.5,0,0,0,0-1l-3,.00146A0.5,0.5,0,0,0,22,22.49023Z" fill="#231f20"/><path d="M14.5,21.99023l-4,.00146a0.5,0.5,0,0,0,0,1l4-.00146A0.5,0.5,0,1,0,14.5,21.99023Z" fill="#231f20"/><path d="M11.5,13.99023h2a0.5,0.5,0,0,0,0-1h-2A0.5,0.5,0,0,0,11.5,13.99023Z" fill="#231f20"/><path d="M18,15.4917a0.5,0.5,0,0,0,.5.5l3-.00146a0.5,0.5,0,0,0,0-1l-3,.00146A0.5,0.5,0,0,0,18,15.4917Z" fill="#231f20"/><path d="M16.5,13.99365h0.00049l4-.00244a0.5,0.5,0,0,0-.00049-1H20.49951l-4,.00244A0.5,0.5,0,0,0,16.5,13.99365Z" fill="#231f20"/><path d="M23.5,13.99072l3-.00049a0.5,0.5,0,0,0,0-1l-3,.00049A0.5,0.5,0,0,0,23.5,13.99072Z" fill="#231f20"/><path d="M30.5,24.99023H29.31714a6.92867,6.92867,0,0,0,.10522-5.76318,2.00335,2.00335,0,0,0-1.17816-1.101,7.4706,7.4706,0,0,0,.70276-2.42139,0.49,0.49,0,0,0,.053-0.215,0.47374,0.47374,0,0,0-.01923-0.09521,7.13161,7.13161,0,0,0-.74347-3.57422,1.5042,1.5042,0,0,0-1.35742-.83008L6.49854,11a0.49665,0.49665,0,0,0-.19818.04169A1.17238,1.17238,0,0,0,5.999,11H5.998c-1.313.001-1.999,2.01318-1.998,4.001a6.98489,6.98489,0,0,0,.481,2.67139c0.05066,0.118.10413,0.21948,0.1579,0.31787H4.5a0.48145,0.48145,0,0,0-.16779.05084A1.17677,1.17677,0,0,0,3.999,17.99023H3.99854a1.74023,1.74023,0,0,0-1.52,1.32861A6.98229,6.98229,0,0,0,2,21.99121a6.98409,6.98409,0,0,0,.481,2.6709,3.64588,3.64588,0,0,0,.163.32813H2.5a0.5,0.5,0,0,0,0,1H6.85376A1.13,1.13,0,0,0,7.001,26H7.002c0.0177,0,.03241-0.009.04987-0.00977H7.455A0.46215,0.46215,0,0,0,7.50342,26l21-.00977H30.5A0.5,0.5,0,0,0,30.5,24.99023Zm-23.527,0a1.12847,1.12847,0,0,1-.57312-0.71191,4.46358,4.46358,0,0,1-.22974-0.75122l0.68335-.68335A0.5,0.5,0,0,0,6.5,21.99023H6.00043C6.00183,20.136,6.64667,19,6.999,19a1.05422,1.05422,0,0,1,.60107.72168A6.06475,6.06475,0,0,1,8,22c0.001,1.8172-.61456,2.93878-0.97223,2.99023H6.973Zm21.52747-5.376c0.05273,0.12555.09143,0.25043,0.13586,0.37555l-2.7301.00092a0.5,0.5,0,0,0,0,1l3-.001,0.006-.00122a5.76916,5.76916,0,0,1-.28192,3.028A0.48365,0.48365,0,0,0,28.5,23.99023H8.74915A7.82365,7.82365,0,0,0,9,21.999a8.35784,8.35784,0,0,0-.06732-1.007L12.5,20.99023a0.5,0.5,0,1,0,0-1l-3.75592.00183a5.13873,5.13873,0,0,0-.225-0.66443A3.63368,3.63368,0,0,0,8.356,18.99933l19.187-.00909A1.04316,1.04316,0,0,1,28.50049,19.61426Zm-1.16357-7.35938a6.24007,6.24007,0,0,1,.6554,2.73492L24.5,14.99023a0.5,0.5,0,0,0,0,1l3.41486-.00043a6.34507,6.34507,0,0,1-.28754,1.02612A0.48245,0.48245,0,0,0,27.5,16.99023H7.74915a7.11518,7.11518,0,0,0,.18628-1.00055L12.5,15.98877a0.5,0.5,0,0,0,0-1l-4.50043.00085a6.97926,6.97926,0,0,0-.48053-2.662,3.65252,3.65252,0,0,0-.163-0.32806l19.5238-.00934A0.50092,0.50092,0,0,1,27.33691,12.25488ZM5.999,12a1.05422,1.05422,0,0,1,.60107.72168A6.06475,6.06475,0,0,1,7,15c0.001,1.86035-.646,3-0.999,3a1.05422,1.05422,0,0,1-.60107-0.72168A6.06475,6.06475,0,0,1,5,15l0.00043-.01L5.5,14.99023a0.5,0.5,0,0,0,.35352-0.85352l-0.6814-.6814A1.83319,1.83319,0,0,1,5.999,12ZM3.39795,19.7124A1.03638,1.03638,0,0,1,3.999,18.99023a1.03872,1.03872,0,0,1,.59137.70258l-0.44391.44391A0.5,0.5,0,0,0,4.5,20.99023H4.9259A7.31352,7.31352,0,0,1,5,21.98975c0.001,1.86035-.646,3-0.999,3a1.05422,1.05422,0,0,1-.60107-0.72168A6.06208,6.06208,0,0,1,3,21.99023,6.05424,6.05424,0,0,1,3.39795,19.7124Z" fill="#231f20"/></svg>