<svg xmlns="http://www.w3.org/2000/svg" width="32" height="32" viewBox="0 0 32 32"><title>kamp</title><path d="M26,9.0506V8.5A0.49971,0.49971,0,0,0,25.5,8h-3a0.49971,0.49971,0,0,0-.5.5V9H20V8.5l-0.0022-.0108A2.49171,2.49171,0,0,0,18.5,4h-5a2.49171,2.49171,0,0,0-1.4978,4.4892L12,8.5V9H10V8.5A0.49971,0.49971,0,0,0,9.5,8h-3a0.49971,0.49971,0,0,0-.5.5V9.0506A2.50379,2.50379,0,0,0,4,11.5v15A2.50263,2.50263,0,0,0,6.5,29h19A2.50263,2.50263,0,0,0,28,26.5v-15A2.50379,2.50379,0,0,0,26,9.0506ZM13.5,5h5a1.5,1.5,0,0,1,0,3h-1a0.49971,0.49971,0,0,0-.5.5V9H15V8.5A0.49971,0.49971,0,0,0,14.5,8h-1A1.5,1.5,0,0,1,13.5,5ZM5,11.5A1.50164,1.50164,0,0,1,6.5,10h19A1.50164,1.50164,0,0,1,27,11.5v13A1.50164,1.50164,0,0,1,25.5,26H6.5A1.50164,1.50164,0,0,1,5,24.5v-13ZM25.80206,26.96942A1.502,1.502,0,0,1,25.5,27,2.453,2.453,0,0,0,25.80206,26.96942ZM6.5,27a1.502,1.502,0,0,1-.30206-0.03058A2.453,2.453,0,0,0,6.5,27Zm-0.30206.96942A2.453,2.453,0,0,0,6.5,28,1.502,1.502,0,0,1,6.19794,27.96942Zm19.60413,0A1.502,1.502,0,0,1,25.5,28,2.453,2.453,0,0,0,25.80206,27.96942Z" fill="#231f20"/><path d="M14.5,19.5V21a0.49971,0.49971,0,0,0,.5.5h2a0.49971,0.49971,0,0,0,.5-0.5V19.5H19a0.49971,0.49971,0,0,0,.5-0.5V17a0.49971,0.49971,0,0,0-.5-0.5H17.5V15a0.49971,0.49971,0,0,0-.5-0.5H15a0.49971,0.49971,0,0,0-.5.5v1.5H13a0.49971,0.49971,0,0,0-.5.5v2a0.49971,0.49971,0,0,0,.5.5h1.5Zm-1-2H15a0.49971,0.49971,0,0,0,.5-0.5V15.5h1V17a0.49971,0.49971,0,0,0,.5.5h1.5v1H17a0.49971,0.49971,0,0,0-.5.5v1.5h-1V19a0.49971,0.49971,0,0,0-.5-0.5H13.5v-1Z" fill="#231f20"/><path d="M16,23.5A5.5,5.5,0,1,0,10.5,18,5.50654,5.50654,0,0,0,16,23.5Zm0-10A4.5,4.5,0,1,1,11.5,18,4.50492,4.50492,0,0,1,16,13.5Z" fill="#231f20"/></svg>