<svg xmlns="http://www.w3.org/2000/svg" width="32" height="32" viewBox="0 0 32 32"><title>kamp</title><path d="M29.98486,12.62109a0.49972,0.49972,0,0,0-.7085-0.56836l-4.65918,2.32959a21.53866,21.53866,0,0,0-7.46747-2.25085l0.8244-2.47327a0.49971,0.49971,0,0,0-.70752-0.6001l-6.24231,3.299A14.95822,14.95822,0,0,0,4.16943,15.125a0.50029,0.50029,0,0,0-.02295.72852L4.793,16.5l-0.64648.64648a0.49933,0.49933,0,0,0,.01758.72363,18.34792,18.34792,0,0,0,8.0368,3.78027L15.2002,23.8999A0.49645,0.49645,0,0,0,15.5,24a0.49983,0.49983,0,0,0,.5-0.5V21.9715a16.6502,16.6502,0,0,0,7.90332-2.869c0.27-.16211.52686-0.31592,0.77051-0.45654l4.60254,2.30127a0.49972,0.49972,0,0,0,.7085-0.56836L29.01563,16.5ZM20,18.5a0.497,0.497,0,0,1-.15082.35632A1.50047,1.50047,0,0,0,19.60986,18.5a1.50047,1.50047,0,0,0,.23932-0.35632A0.497,0.497,0,0,1,20,18.5Zm8.01514-2.12109a0.49582,0.49582,0,0,0,0,.24219l0.33136,1.32538-3.44507-.86127a1.19133,1.19133,0,0,1-.04687-0.17651l2.80365-.93457a0.49982,0.49982,0,1,0-.31641-0.94824l-2.186.7287a4.28655,4.28655,0,0,1,.65283-0.84973l2.94287-1.47125Zm-11.89172-4.33C15.7525,12.02728,15.38531,12,15,12c-0.39264,0-.76892.02637-1.1499,0.04547-0.02185-.00525-0.04272-0.01233-0.06488-0.01666l2.84613-1.50439ZM15,14.5a0.497,0.497,0,0,1-.15082.35632A1.50047,1.50047,0,0,0,14.60986,14.5a1.50047,1.50047,0,0,0,.23932-0.35632A0.497,0.497,0,0,1,15,14.5Zm-1.29559-1.454A0.49862,0.49862,0,0,1,13.5,14a0.5,0.5,0,0,0,0,1,0.5,0.5,0,0,1,0,1,0.5,0.5,0,0,0,0,1,1.497,1.497,0,0,0,1.42975-1.07025,1.49013,1.49013,0,0,0,0-2.8595c-0.00677-.02246-0.01312-0.045-0.02087-0.067C14.93988,13.00311,14.96893,13,15,13a20.126,20.126,0,0,1,9.257,2.325,2.8047,2.8047,0,0,0-.40344,1.66919,2.20693,2.20693,0,0,0,.16455.605,0.49036,0.49036,0,0,0,.0835.19183c-0.33514.1615-.654,0.33179-0.97705,0.51416a11.139,11.139,0,0,1-2.42871,1.09064,1.4842,1.4842,0,0,0-.76605-2.32556A1.497,1.497,0,0,0,18.5,16a0.5,0.5,0,0,0,0,1,0.5,0.5,0,0,1,0,1,0.5,0.5,0,0,0,0,1,0.50034,0.50034,0,0,1,.5.5,0.48746,0.48746,0,0,1-.10022.28479A23.56407,23.56407,0,0,1,15.5,20c-6.43561,0-8.73425-1.514-10.22565-2.56732l0.57916-.57916a0.49982,0.49982,0,0,0,0-.707l-0.604-.604A17.006,17.006,0,0,1,13.70441,13.046Z" fill="#231f20"/><path d="M8,17a1,1,0,1,0-1-1A1.0013,1.0013,0,0,0,8,17Zm0.5-1H8.00049L8,15.999Z" fill="#231f20"/><path d="M10.14648,18.85352a0.49982,0.49982,0,0,0,.707,0,2.97588,2.97588,0,0,0,0-4.707,0.49995,0.49995,0,0,0-.707.707,2.01418,2.01418,0,0,1,0,3.293A0.49982,0.49982,0,0,0,10.14648,18.85352Z" fill="#231f20"/><path d="M6,11.5a0.5,0.5,0,0,0-1,0,0.5,0.5,0,0,1-1,0V9.84625a0.96614,0.96614,0,0,0,0-1.6925V1.5a0.5,0.5,0,0,0-1,0V8.15375a0.96614,0.96614,0,0,0,0,1.6925V11.5A1.5,1.5,0,0,0,6,11.5ZM3.50049,9L3.50043,8.99994,3.50482,8.999,4,9H3.50049Z" fill="#231f20"/></svg>