<svg xmlns="http://www.w3.org/2000/svg" width="32" height="32" viewBox="0 0 32 32"><title>kamp</title><path d="M27,7a8.00886,8.00886,0,0,0-7.411,5H17V11.5a0.49971,0.49971,0,0,0-.5-0.5h-4a0.49971,0.49971,0,0,0-.5.5V12H3.5C2.46387,12,2,13.75781,2,15.5S2.46387,19,3.5,19H19.589A8.00886,8.00886,0,0,0,27,24c1.96973,0,3-4.27588,3-8.5S28.96973,7,27,7ZM24.09546,22A16.534,16.534,0,0,1,23,15.5c0-3.01593.55157-5.78363,1.37738-6.98547a6.94552,6.94552,0,0,1,1.0144-.32068C24.47443,9.75751,24,12.63843,24,15.5A18.69649,18.69649,0,0,0,25.00189,22H24.09546ZM25,15.5c0-.17023.00482-0.33344,0.008-0.499A0.94255,0.94255,0,0,1,26,15.5a0.94255,0.94255,0,0,1-.992.499C25.00482,15.83344,25,15.67023,25,15.5ZM13,12h3v0.78564H13V12Zm-1,1v0.28564c0,0.0116.0058,0.0213,0.00659,0.03271C12.0058,13.32977,12,13.33948,12,13.35107v1a0.49971,0.49971,0,0,0,.5.5h4a0.49971,0.49971,0,0,0,.5-0.5v-1c0-.0116-0.0058-0.0213-0.00659-0.03271C16.9942,13.30695,17,13.29724,17,13.28564V13h2.26331A7.95978,7.95978,0,0,0,19,15v1a8.00884,8.00884,0,0,0,.06946,1H5.14612A7.173,7.173,0,0,1,5,15.5,4.7118,4.7118,0,0,1,5.5,13H12ZM3.5,13H4.40643A6.92715,6.92715,0,0,0,4,15.5,8.63972,8.63972,0,0,0,4.13031,17H3.14612A7.173,7.173,0,0,1,3,15.5,4.7118,4.7118,0,0,1,3.5,13ZM20,16V15a6.98793,6.98793,0,0,1,2.88-5.64642A19.44079,19.44079,0,0,0,22,15.5a19.46459,19.46459,0,0,0,.87958,6.14606A6.988,6.988,0,0,1,20,16Zm7,7c-0.72247,0-1.73291-2.29651-1.95435-6.00336A1.77051,1.77051,0,0,0,27,15.5a1.77051,1.77051,0,0,0-1.95435-1.49664,17.59655,17.59655,0,0,1,.62927-3.90131A0.61082,0.61082,0,0,1,26,10c1.39032,0,2.362,1.47119,2.92224,3.55621C28.97052,14.16553,29,14.8114,29,15.5,29,20.07813,27.81543,23,27,23Z" fill="#231f20"/></svg>