<svg xmlns="http://www.w3.org/2000/svg" width="32" height="32" viewBox="0 0 32 32"><title>kamp</title><path d="M24.52148,5.00049C17.53418,4.72314,12.80371,3.83838,8.70215,2.042a0.5,0.5,0,0,0-.66113.26367C6.667,5.56006,6.66016,9.5918,8.01953,14.63037a0.472,0.472,0,0,0,.02771.0531,0.48947,0.48947,0,0,0,.0556.10638,0.48063,0.48063,0,0,0,.0578.06378,0.48766,0.48766,0,0,0,.09393.07184c0.01373,0.00806.02289,0.02185,0.03741,0.02863,0.01221,0.00562.02612,0.00372,0.0387,0.0083a0.65959,0.65959,0,0,0,.203.03058c0.01318-.00085.02533,0.00409,0.03857,0.00214l5.78125-.82568a3.422,3.422,0,0,1,2.02637.32861l0.72015,0.36a81.28648,81.28648,0,0,1-1.09125,13.56232,0.48946,0.48946,0,0,0,.02209.22949,1.447,1.447,0,0,0,1.1615,1.71338l3.03809,0.60742a1.49048,1.49048,0,0,0,.293.0293A1.48138,1.48138,0,0,0,22.002,29.519l-0.00177-.01013L22.002,29.5V14.73364A2.92466,2.92466,0,0,1,23.916,14H24.502a0.49971,0.49971,0,0,0,.5-0.5v-8A0.49992,0.49992,0,0,0,24.52148,5.00049ZM8.77734,3.16162C12.792,4.83447,17.40625,5.687,24.002,5.97949V11h-0.5a2.50263,2.50263,0,0,0-2.5,2.5V14H18.10327c-0.00043-.0188.00067-0.03882,0.00024-0.05762A2.51191,2.51191,0,0,0,14.9859,11.558,0.40374,0.40374,0,0,0,15.002,11.5v-1a0.5,0.5,0,0,0-.94727-0.22363l-0.90607,1.81219A37.71246,37.71246,0,0,0,8.834,13.79248C7.74707,9.48779,7.72852,5.99854,8.77734,3.16162ZM18.09155,17H21.002v1H18.05908C18.07135,17.66541,18.084,17.33105,18.09155,17Zm-0.08514,2H21.002v5.28088l-3.35565-.67114Q17.897,21.25693,18.00641,19ZM21.002,25.30042v0.98047l-3.58228-.71649c0.04083-.31714.09143-0.63983,0.1286-0.95471Zm-6.79-12.12122-1.97736.28247c0.90045-.32922,1.88135-0.64642,2.96368-0.92993a1.504,1.504,0,0,1,1.87292,1.19379l-0.244-.122A4.42089,4.42089,0,0,0,14.21191,13.1792Zm6.61426,16.71143a0.48171,0.48171,0,0,1-.39941.09961l-3.03809-.60742a0.48188,0.48188,0,0,1-.38672-0.47168,0.48128,0.48128,0,0,1,.47754-0.481,0.50861,0.50861,0,0,1,.09766.00977l3.03809,0.60791A0.4805,0.4805,0,0,1,20.82617,29.89063ZM23.916,13a3.92088,3.92088,0,0,0-1.91406.52191V13.5a1.50164,1.50164,0,0,1,1.5-1.5h0.5v1H23.916Z" fill="#231f20"/></svg>