<svg xmlns="http://www.w3.org/2000/svg" width="32" height="32" viewBox="0 0 32 32"><title>kamp</title><circle cx="16.39001" cy="22.50061" r="1" fill="#231f20"/><path d="M30.71094,5.75146l-1.44336-2.5A0.49956,0.49956,0,0,0,28.40234,3.251L27.33966,5.08716a2.90227,2.90227,0,0,0-.58673-0.62866,2.83535,2.83535,0,0,0-2.47754-.50244,30.43249,30.43249,0,0,1-15.77051,0,2.84355,2.84355,0,0,0-2.47852.50244,2.90619,2.90619,0,0,0-.58716.6297L4.37793,3.25A0.49956,0.49956,0,0,0,3.5127,3.24951L2.06738,5.749A0.4994,0.4994,0,0,0,2.5,6.49951L4.92,6.49994c-0.00818.08948-.0304,0.1756-0.0304,0.26666A2.91019,2.91019,0,0,0,6.96582,9.55615a32.65938,32.65938,0,0,0,5.92383,1.2179v2.72644a3.495,3.495,0,0,0,3,3.44946v3.10114a2.50379,2.50379,0,0,0-2,2.4494v7a0.49971,0.49971,0,0,0,.5.5h4a0.49971,0.49971,0,0,0,.5-0.5v-7a2.50379,2.50379,0,0,0-2-2.4494V16.95a3.495,3.495,0,0,0,3-3.44946V10.77411a32.64467,32.64467,0,0,0,5.92383-1.218A2.90931,2.90931,0,0,0,27.88965,6.7666c0-.09082-0.02222-0.1767-0.03033-0.26593l2.419,0.00079A0.5,0.5,0,0,0,30.71094,5.75146Zm-27.34473-.252,0.5791-1L4.52246,5.5ZM6.63672,5.251A1.84688,1.84688,0,0,1,8.249,4.92285c0.55792,0.14777,1.11713.27063,1.67645,0.38788l-0.35809.71613a0.50006,0.50006,0,0,0,.89453.44727l0.375-.75a0.4893,0.4893,0,0,0,.04645-0.23206q0.96542,0.172,1.93243.28528l-0.19568.88086A0.50066,0.50066,0,0,0,13,7.25488a0.5185,0.5185,0,0,0,.1084.01172,0.50075,0.50075,0,0,0,.48828-0.3916l0.22186-.99866q1.03528,0.086,2.07111.103V7.00049a0.5,0.5,0,0,0,1,0V5.97943q1.03949-.01675,2.07819-0.10376L19.1543,6.62158a0.5,0.5,0,0,0,.48535.37891,0.48978,0.48978,0,0,0,.12109-0.01514,0.49993,0.49993,0,0,0,.36426-0.606l-0.15076-.60315Q20.9361,5.665,21.89594,5.49213a0.48891,0.48891,0,0,0,.04645.232l0.375,0.75a0.50006,0.50006,0,1,0,.89453-0.44727l-0.358-.716c0.55969-.11725,1.11914-0.24017,1.67737-0.388a1.84619,1.84619,0,0,1,1.61133.32813,1.89936,1.89936,0,0,1,.74707,1.51563,1.48572,1.48572,0,0,1-1.332,1.20459,41.54129,41.54129,0,0,1-18.33594,0,1.48572,1.48572,0,0,1-1.332-1.20459A1.90006,1.90006,0,0,1,6.63672,5.251ZM17.88965,22.50049v5.5h-3v-5.5A1.5,1.5,0,0,1,17.88965,22.50049Zm1-9a2.5,2.5,0,0,1-5,0V10.88837c0.83307,0.0672,1.6665.10577,2.5,0.10577s1.667-.03857,2.5-0.10571v2.61206ZM28.25586,5.501L28.834,4.50049,29.41211,5.501H28.25586Z" fill="#231f20"/></svg>