<svg xmlns="http://www.w3.org/2000/svg" width="32" height="32" viewBox="0 0 32 32"><title>kamp</title><path d="M29.5166,25.71143L17.14191,13.33673l1.06073-1.06085a0.49982,0.49982,0,0,0,0-.707l-1.41406-1.41406a0.51466,0.51466,0,0,0-.707,0L15.021,11.21539,11.13184,7.32666a1.49887,1.49887,0,0,1,0-2.12158,0.50082,0.50082,0,0,0,0-.707L9.71729,3.084a0.49982,0.49982,0,0,0-.707,0L7.24268,4.85156,6.88916,4.498a0.49982,0.49982,0,0,0-.707,0L4.06055,6.61914a0.49982,0.49982,0,0,0,0,.707l0.35352,0.354L2.64648,9.44775a0.49982,0.49982,0,0,0,0,.707l1.41406,1.41406a0.49982,0.49982,0,0,0,.707,0,1.50359,1.50359,0,0,1,2.12158,0l1.41309,1.41309,0.001,0.00146,0.00146,0.001,2.47382,2.47382L9.71777,16.519a0.49982,0.49982,0,0,0,0,.707l1.41406,1.41406a0.49982,0.49982,0,0,0,.707,0l1.06055-1.06061,7.4248,7.42438a9.54942,9.54942,0,0,0,6.15918,2.499,4.175,4.175,0,0,0,3.0332-1.08447A0.49982,0.49982,0,0,0,29.5166,25.71143ZM11.48535,14.751l-0.707-.707,2.82837-2.8288L14.314,11.92236ZM9.364,12.62964L12.1925,9.80115l0.70709,0.707-2.82831,2.82874ZM7.9082,11.17383l2.82819-2.82861,0.749,0.749L8.657,11.92261ZM5.47461,8.03369a0.49982,0.49982,0,0,0,0-.707l-0.35352-.354L6.53564,5.55859,6.88916,5.91211a0.49982,0.49982,0,0,0,.707,0L9.36377,4.14453l0.70752,0.707L4.41406,10.5083l-0.707-.707Zm6.01074,9.5459-0.707-.707,5.65674-5.65723,0.707,0.707Zm9.5459,6.71729-6.81079-6.8103L17.04907,14.658,28.417,26.02588C26.50391,27.24414,22.68164,25.94727,21.03125,24.29688Z" fill="#231f20"/><path d="M16.916,16.64648a0.49995,0.49995,0,0,0-.707.707l5.17578,5.17578a0.49995,0.49995,0,0,0,.707-0.707Z" fill="#231f20"/></svg>