<svg xmlns="http://www.w3.org/2000/svg" width="32" height="32" viewBox="0 0 32 32"><title>kamp</title><path d="M26,25H25V24a0.5,0.5,0,0,0-1,0v1H23a0.5,0.5,0,0,0,0,1h1v1a0.5,0.5,0,0,0,1,0V26h1A0.5,0.5,0,0,0,26,25Z" fill="#231f20"/><path d="M21.53564,12.18555a0.50005,0.50005,0,0,0,.92871-0.37109l-2-5a0.50005,0.50005,0,1,0-.92871.37109Z" fill="#231f20"/><path d="M6,16.5A0.49971,0.49971,0,0,0,6.5,16V13a0.5,0.5,0,0,0-1,0v3A0.49971,0.49971,0,0,0,6,16.5Z" fill="#231f20"/><path d="M29.96,24.959A3.38289,3.38289,0,0,0,30,24.5a4.48906,4.48906,0,0,0-1.89417-3.65491L21.25928,2.32666a0.50016,0.50016,0,0,0-.2666-0.28418,0.49466,0.49466,0,0,0-.39014-0.00586,7.61454,7.61454,0,0,0-4.09814,9.647L19.096,19H10V17.64893a0.522,0.522,0,0,0-.04541-0.38232,0.53536,0.53536,0,0,0-.91895.04785,0.47892,0.47892,0,0,1-.52393.1499A0.76331,0.76331,0,0,1,8,16.73975V14.9375l1.50439,0.062a0.51027,0.51027,0,0,0,.44238-0.231,0.49993,0.49993,0,0,0,.022-0.49854l-2.0625-3.9834a0.50044,0.50044,0,0,0-.43555-0.27L4.5083,9.96631a0.4761,0.4761,0,0,0-.35889.14355A0.49858,0.49858,0,0,0,4,10.46631V25a0.48667,0.48667,0,0,0,.02954.14648,1.43715,1.43715,0,0,0-.02954.29v0.12109a1.43385,1.43385,0,0,0,.038.318,4.45621,4.45621,0,0,0,.24744,1.15326A1.97351,1.97351,0,0,0,4,27a2,2,0,1,0,1.97742,2.22357A4.47325,4.47325,0,0,0,8.5,30h17A4.50492,4.50492,0,0,0,30,25.5a4.404,4.404,0,0,0-.04846-0.47931Zm-24.9483.65631C5.01038,25.57611,5,25.53949,5,25.5c0-.04346.01123-0.0838,0.01282-0.12683A0.43164,0.43164,0,0,1,5.43652,25H6v1H5.44238A0.43746,0.43746,0,0,1,5.01166,25.6153ZM9,21H8.99951L9,20.99988V21ZM20.50732,3.17627L26.8078,20.21661A4.43775,4.43775,0,0,0,25.5,20H20.51093l-3.06024-8.63916A6.58042,6.58042,0,0,1,20.50732,3.17627ZM5,10.9751l2.15576,0.03613,1.52881,2.95361L7.52051,13.917a0.48062,0.48062,0,0,0-.3667.13867A0.50046,0.50046,0,0,0,7,14.4165v2.32324a1.76054,1.76054,0,0,0,1.21631,1.67969A1.472,1.472,0,0,0,9,18.45117v1.549L8.99951,20H8.5A4.475,4.475,0,0,0,5,21.70648V10.9751ZM4,30a1,1,0,1,1,1-1A1.0013,1.0013,0,0,1,4,30Zm21.5-1H8.5a3.49577,3.49577,0,0,1-3.15424-2.00977C5.3783,26.99243,5.4093,27,5.44238,27H6.5A0.49971,0.49971,0,0,0,7,26.5v-2A0.49971,0.49971,0,0,0,6.5,24H5.43652c-0.02441,0-.04712.006-0.07123,0.0072,0.02338-.04944.03864-0.10333,0.06415-0.15143l0.00952-.0174a3.50585,3.50585,0,0,1,.32019-0.48828c0.01538-.01959.0318-0.03839,0.04761-0.05768A3.5203,3.5203,0,0,1,6.172,22.90619c0.03369-.03027.06989-0.0575,0.10474-0.08649a3.51263,3.51263,0,0,1,.38348-0.28394c0.05969-.03717.12372-0.06732,0.18573-0.101a3.45559,3.45559,0,0,1,.3703-0.18335c0.1-.03967.20581-0.066,0.31-0.09644,0.10175-.03015.201-0.06677,0.30615-0.08752A3.49311,3.49311,0,0,1,8.5,22h17a3.49311,3.49311,0,0,1,.6676.0675c0.10516,0.02075.20441,0.05737,0.30615,0.08752,0.10419,0.03046.21,0.05676,0.31,0.09644a3.45559,3.45559,0,0,1,.3703.18335c0.062,0.03363.126,0.06378,0.18573,0.101a3.51263,3.51263,0,0,1,.38348.28394c0.03485,0.029.071,0.05621,0.10474,0.08649a3.52029,3.52029,0,0,1,.36523.38623c0.01581,0.01929.03223,0.03809,0.04761,0.05768a3.50585,3.50585,0,0,1,.32019.48828l0.00952,0.0174a3.49726,3.49726,0,0,1,.38306,1.20673l0.00317,0.00983A3.43348,3.43348,0,0,1,29,25.5,3.50425,3.50425,0,0,1,25.5,29Z" fill="#231f20"/></svg>