<svg xmlns="http://www.w3.org/2000/svg" width="32" height="32" viewBox="0 0 32 32"><title>kamp</title><path d="M23.85352,22.56055l-1.41406-1.41406a0.49982,0.49982,0,0,0-.707,0l-0.976.97565A2.81869,2.81869,0,0,0,20,22.00244V18h2.5a0.5,0.5,0,0,0,0-1H22V8h1.5A0.49971,0.49971,0,0,0,24,7.5,2.50294,2.50294,0,0,0,21.5,5H20V4h0.50732a0.49971,0.49971,0,0,0,.5-0.5,2.50294,2.50294,0,0,0-2.5-2.5H14.5A2.50294,2.50294,0,0,0,12,3.5a0.49971,0.49971,0,0,0,.5.5H13V5H11.5A2.50294,2.50294,0,0,0,9,7.5a0.49971,0.49971,0,0,0,.5.5H11v9H10.5a0.5,0.5,0,0,0,0,1H13v4.00244a2.86,2.86,0,0,0-2.8335,2.85547V28H9.5a0.49971,0.49971,0,0,0-.5.5v2a0.49971,0.49971,0,0,0,.5.5h14a0.49971,0.49971,0,0,0,.5-0.5v-2a0.49971,0.49971,0,0,0-.5-0.5H22.8335V24.85791a2.84256,2.84256,0,0,0-.05237-0.51758l1.07239-1.07275A0.49982,0.49982,0,0,0,23.85352,22.56055ZM14,19h1.0921A1.48253,1.48253,0,0,0,15,19.5a1.5,1.5,0,0,0,3,0,1.48253,1.48253,0,0,0-.0921-0.5H19v3H14V19ZM15,9h1v2.98877a1.16273,1.16273,0,0,1-1-1.1499V9Zm2,0h1v1.83887a1.16273,1.16273,0,0,1-1,1.1499V9Zm1,7v1H15V16h3Zm-1,3.5a0.5,0.5,0,1,1-.5-0.5A0.50034,0.50034,0,0,1,17,19.5ZM19.5,17H19V15.5a0.49971,0.49971,0,0,0-.5-0.5H17V12.9837a2.15667,2.15667,0,0,0,2-2.14484V9h2v8H19.5Zm-5-15h4.00732a1.5031,1.5031,0,0,1,1.41455,1H13.08545A1.5031,1.5031,0,0,1,14.5,2Zm-3,4h10a1.5031,1.5031,0,0,1,1.41455,1H10.08545A1.5031,1.5031,0,0,1,11.5,6ZM12,17V9h2v1.83887a2.15667,2.15667,0,0,0,2,2.14484V15H14.5a0.49971,0.49971,0,0,0-.5.5V17H12Zm1.02441,6h6.95117a1.86007,1.86007,0,0,1,1.85791,1.85791V27H11.1665V24.85791A1.86007,1.86007,0,0,1,13.02441,23ZM23,30H10V29H23v1Zm-0.61963-6.67316a2.86872,2.86872,0,0,0-.68115-0.73328l0.38672-.38654,0.707,0.707Z" fill="#231f20"/><path d="M14.5,26h3a0.49964,0.49964,0,0,0,.35352-0.14648l1-1A0.5,0.5,0,0,0,18.5,24h-3a0.49964,0.49964,0,0,0-.35352.14648l-1,1A0.5,0.5,0,0,0,14.5,26Z" fill="#231f20"/></svg>