<svg xmlns="http://www.w3.org/2000/svg" width="32" height="32" viewBox="0 0 32 32"><title>kamp</title><path d="M29.5,4.97461H16.57465L3.64648,1.022A0.49966,0.49966,0,0,0,3,1.5v23a0.49972,0.49972,0,0,0,.35352.478l4.348,1.32935-1.641,3.01636A0.50029,0.50029,0,0,0,6.5,30.0625h22a0.49971,0.49971,0,0,0,.5-0.5V28.97461h0.5a0.49971,0.49971,0,0,0,.5-0.5v-23A0.49971,0.49971,0,0,0,29.5,4.97461Zm-2,16H23.15985a1.75974,1.75974,0,0,0,.2005-0.34375l0.00879-.00244a3.10581,3.10581,0,0,0,2.332-1.54346,0.51123,0.51123,0,0,0,.0459-0.2251,1.89175,1.89175,0,0,0-.65137-1.46045,2.83717,2.83717,0,0,0-2.22852-.4458,9.39261,9.39261,0,0,0-1.84863.49854c-0.13965.05127-.28516,0.11768-0.43359,0.187a1.484,1.484,0,0,1-.81641.22949,3.80863,3.80863,0,0,0-2.33691.23389c-0.12671.04077-.26239,0.08368-0.43164,0.13385V17.37384a2.13232,2.13232,0,0,0,1.19043-.69464,2.80615,2.80615,0,0,1,.3623-0.31885,1.15118,1.15118,0,0,1,.93066.05322l0.19141,0.05371a4.27409,4.27409,0,0,0,1.874.05078c0.25781-.043.5166-0.09717,0.77441-0.15137a9.206,9.206,0,0,1,1.61035-.22363,13.41527,13.41527,0,0,1,2.51953.34668A16.72722,16.72722,0,0,0,29,16.85242V22.305a1.45807,1.45807,0,0,1-1,.52844V21.47461A0.49971,0.49971,0,0,0,27.5,20.97461Zm-21-4.66113a0.99974,0.99974,0,0,0-1,1v2.03613a0.98337,0.98337,0,0,0,.37134.76007A4.06485,4.06485,0,0,0,4,20.829V18.52356a6.42277,6.42277,0,0,1,.584-2.421A4.89359,4.89359,0,0,1,5.14355,15.21l0.127-.17187a4.36152,4.36152,0,0,1,.30658-0.397A0.99843,0.99843,0,0,0,6.5,15.25928a0.98713,0.98713,0,0,0,.97009-0.85168c0.043-.00427.07849-0.01062,0.12463-0.014a2.03514,2.03514,0,0,1,1.29785.23584,2.30051,2.30051,0,0,1,.6084.96631,3.48884,3.48884,0,0,0,1.70117,2.01172c0.46289,0.21387.61621-.07666,1.11816-1.05469,0.06641-.12842.11914-0.23242,0.13574-0.26221a2.9028,2.9028,0,0,1,.79688-0.92285A0.65271,0.65271,0,0,1,13.957,15.313a1.48887,1.48887,0,0,1,.459.354,0.9914,0.9914,0,0,1,.10059.23145,1.50492,1.50492,0,0,0,.39941.66992,1.22848,1.22848,0,0,0,.88672.27734h0.00391a1.12822,1.12822,0,0,1,.18262.0083L16,16.85742v1.07477a1.0278,1.0278,0,0,0-.10156-0.03864,1.36751,1.36751,0,0,0-.416-0.01318,1.02345,1.02345,0,0,1-.11523.00586,1.066,1.066,0,0,1-.18555-0.03467,2.37382,2.37382,0,0,0-.31152-0.05566,2.64044,2.64044,0,0,0-1.73437.67041,4.39153,4.39153,0,0,1-.43848.28564,2.1444,2.1444,0,0,1-1.0791.28809,2.4476,2.4476,0,0,1-1.63477-.47363l-0.11426-.11719a2.59612,2.59612,0,0,0-.292-0.27686,1.34544,1.34544,0,0,0-.8457-0.291A0.67724,0.67724,0,0,0,8.249,18.084a0.72258,0.72258,0,0,0-.1709.311l-0.10547.36816c-0.28735,1.04041-.49023,1.44928-0.97223,1.433A0.98553,0.98553,0,0,0,7.5,19.34961V17.31348A0.99974,0.99974,0,0,0,6.5,16.31348ZM6.49512,10.15625a1.00507,1.00507,0,0,0,.26367.03564,0.99364,0.99364,0,0,0,.85968-0.51221A7.06856,7.06856,0,0,1,8.7998,12.21582a0.50752,0.50752,0,0,0,.125.25342,4.39576,4.39576,0,0,1,.43066.55664,6.15838,6.15838,0,0,0,.79.9668,0.52235,0.52235,0,0,0,.38281.14648L10.8125,14.123a0.49851,0.49851,0,0,0,.34863-0.17041l0.124-.14258c0.35059-.40137.749-0.85645,1.08008-1.31152a0.972,0.972,0,0,1,1.29395.00293c0.50977,0.31787,1.00879.66162,1.50879,1.00488l0.2832,0.19385c0.11523,0.0791.22266,0.15674,0.3252,0.23047,0.079,0.05688.14941,0.10236,0.22363,0.15417v1.7674a1.76,1.76,0,0,1-.416-0.0285,0.65587,0.65587,0,0,1-.124-0.25732,1.82193,1.82193,0,0,0-.23242-0.4834,2.43472,2.43472,0,0,0-.82227-0.66406,1.65894,1.65894,0,0,0-1.69531.10889,3.761,3.761,0,0,0-1.10059,1.231c-0.01953.03125-.09082,0.166-0.17871,0.3374-0.05762.11328-.126,0.24609-0.18945,0.36914a3.20829,3.20829,0,0,1-.82715-1.27686,3.03433,3.03433,0,0,0-.959-1.38525,2.9869,2.9869,0,0,0-1.93457-.40674L7.5,13.39886V12.22266a1,1,0,0,0-2,0v1.43079a0.72813,0.72813,0,0,0-.11914.00525,1.8018,1.8018,0,0,0-.92187.79443l-0.10254.13867A5.98384,5.98384,0,0,0,4,15.09937V10.24274a2.73729,2.73729,0,0,0,.90918-1.44147L4.9873,8.5542a3.74979,3.74979,0,0,0,.24121-1.90869,0.7161,0.7161,0,0,0-.55176-0.58594C4.45178,5.99506,4.227,5.93756,4,5.88715V4.88855a1.43907,1.43907,0,0,1,.63574.07239,0.673,0.673,0,0,1,.40527.34912c0.06543,0.14941.123,0.314,0.18652,0.49463A8.80283,8.80283,0,0,0,6.20978,7.855,5.58436,5.58436,0,0,0,5.793,8.92871,0.99941,0.99941,0,0,0,6.49512,10.15625ZM29,15.85181a15.98313,15.98313,0,0,1-2.34961-.342,14.323,14.323,0,0,0-2.707-.3667,8.3201,8.3201,0,0,0-1.82617.24512c-0.24414.05127-.48828,0.103-0.7334,0.14355a3.28768,3.28768,0,0,1-1.44922-.03027l-0.17578-.04932a2.011,2.011,0,0,0-1.76465.0791,3.79306,3.79306,0,0,0-.502.43115,2.19822,2.19822,0,0,1-.459.37939c-0.01135-.00964-0.02185-0.01654-0.0332-0.02557v-1.8891a2.11859,2.11859,0,0,0,.72168-0.21765,6.583,6.583,0,0,1,2.43066-.39258c0.292-.01221.57715-0.02441,0.84961-0.04639a13.866,13.866,0,0,1,3.58887.126c1.50665,0.26813,2.81244.582,4.40918,0.971v0.98431Zm-6.16016,3.88306a0.50076,0.50076,0,0,0-.35059.353,1.13142,1.13142,0,0,1-.89453.80176l-0.19751.085H20.5a0.49971,0.49971,0,0,0-.5.5v1.36823a3.33337,3.33337,0,0,1-1.2207.624,6.10054,6.10054,0,0,0-1.21777.54346l-0.28418.20654a0.49705,0.49705,0,0,0-.19336.29346,3.58968,3.58968,0,0,0,.082,1.54785,1.6994,1.6994,0,0,1,.06543.77832,0.41557,0.41557,0,0,1-.18109.08191A0.45639,0.45639,0,0,0,17.04,26.86426,0.46833,0.46833,0,0,0,17,26.802V22.35675q0.1745-.134.35254-0.28888a4.53257,4.53257,0,0,1,.459-0.3667,0.50259,0.50259,0,0,0,.21484-0.51758l-0.03516-.17236a0.50107,0.50107,0,0,0-.374-0.38623A1.94024,1.94024,0,0,0,17,20.5918v-1.3197c0.0871-.01935.17194-0.04254,0.25293-0.06653,0.16016-.0459.32227-0.09863,0.4873-0.15186a2.98092,2.98092,0,0,1,1.7373-.229,2.15254,2.15254,0,0,0,1.52832-.27832c0.12207-.05713.24121-0.11279,0.35547-0.15479a8.44714,8.44714,0,0,1,1.65234-.44873,1.89816,1.89816,0,0,1,1.44043.22314,0.85653,0.85653,0,0,1,.28516.60352,2.35841,2.35841,0,0,1-1.625.89209ZM4,6.92261c0.09052,0.02313.17517,0.03448,0.26855,0.06079a3.2519,3.2519,0,0,1-.2334,1.26416L4,8.35925V6.92261ZM16,21.83789a6.15618,6.15618,0,0,0-.91992.73486,2.48185,2.48185,0,0,1-1.25684.57568,6.59542,6.59542,0,0,1-1.248-.88965,8.70949,8.70949,0,0,0,1.85449-.3623A7.42276,7.42276,0,0,1,16,21.58643v0.25146Zm0,5.74353v0.21735l-4.29736-1.31384-0.35181-.10754,0.29175-.7016a2.2681,2.2681,0,0,1,1.03223.3418,3.8686,3.8686,0,0,0,2.06152.54541,0.724,0.724,0,0,1,.332.39648,0.4816,0.4816,0,0,0,.10547.13721L15.458,27.35547a0.53779,0.53779,0,0,0,.09082.06592A1.43787,1.43787,0,0,0,16,27.58142Zm1,0.39319V27.94043a1.49305,1.49305,0,0,0,1.00684-.47217,1.83441,1.83441,0,0,0,.13867-1.6123,3.54932,3.54932,0,0,1-.1123-0.9541l0.082-.06006a5.2814,5.2814,0,0,1,1-.43262A7.367,7.367,0,0,0,20,24.03534V26.4165a3.85774,3.85774,0,0,0-.0484,1.55811H17Zm4-4.49091V21.97461h6v4H21V23.4837ZM29,13.839c-1.50494-.36621-2.77417-0.66718-4.2334-0.92688a14.98273,14.98273,0,0,0-3.84668-.13867c-0.25879.02148-.53125,0.03271-0.80957,0.04395a7.41234,7.41234,0,0,0-2.81445.48682A1.57933,1.57933,0,0,1,17,13.41547V9.47461h0.44531a1,1,0,0,0,0-2H17v-1.5H29V13.839ZM16,5.84473V7.276l-0.251-.07678a1.00012,1.00012,0,0,0-.584,1.91309L16,9.36755v3.4967l-0.26562-.18213c-0.51172-.35156-1.02441-0.70312-1.5459-1.0293a1.92279,1.92279,0,0,0-2.63184.25684c-0.27734.38086-.61816,0.77686-0.93066,1.13525a5.44438,5.44438,0,0,1-.44629-0.58545A5.8611,5.8611,0,0,0,9.75391,11.895,8.42806,8.42806,0,0,0,8.06683,8.62939a2.16485,2.16485,0,0,1,.35211-0.4751A0.99978,0.99978,0,0,0,7.03613,6.71C6.96021,6.78259,6.89441,6.8678,6.824,6.94727a8.3265,8.3265,0,0,1-.65405-1.47559C6.09766,5.26709,6.03223,5.08154,5.959,4.9126a1.65726,1.65726,0,0,0-.96777-0.88574A2.41473,2.41473,0,0,0,4,3.88794V2.17578ZM4,22.02094c0.08313-.05371.165-0.104,0.25-0.1601a2.91045,2.91045,0,0,1,2.34473-.71094c1.64746,0.34912,2.08594-1.19531,2.3418-2.12012L8.958,18.957l0.00488,0.00439a1.62126,1.62126,0,0,1,.17871.17383c0.04883,0.05225.09863,0.10449,0.15137,0.1543A3.31779,3.31779,0,0,0,11.5957,20.04a3.14322,3.14322,0,0,0,1.57031-.4043,5.52509,5.52509,0,0,0,.54492-0.35156,1.90129,1.90129,0,0,1,1.07031-.49219,1.25463,1.25463,0,0,1,.1748.03418,2.1532,2.1532,0,0,0,.35938.05908,1.8228,1.8228,0,0,0,.25-0.0083,0.71568,0.71568,0,0,1,.13184-0.00391A1.274,1.274,0,0,1,16,19.05182v1.53546a8.186,8.186,0,0,0-1.834.34436,5.07529,5.07529,0,0,1-2.42285.26855,0.50028,0.50028,0,0,0-.59863.5708c0.15918,0.95557,1.36523,1.79932,2.34961,2.33936a0.4996,0.4996,0,0,0,.24023.06152,0.513,0.513,0,0,0,.07715-0.00586,3.63616,3.63616,0,0,0,1.97949-.89062c0.06409-.06342.13971-0.12128,0.209-0.18225v3.40344L15.91016,26.415a1.52865,1.52865,0,0,0-1.03516-.85156,0.50822,0.50822,0,0,0-.21191-0.002,2.915,2.915,0,0,1-1.55957-.44775c-0.77148-.36572-1.73242-0.82324-2.30566.01758a0.46153,0.46153,0,0,0-.04883.09033l-0.35864.86206L4,24.12988V22.02094Zm24.5,5.95367H20.95673l-0.0036-.03467a6.913,6.913,0,0,1-.05768-0.96533H27.5a0.49971,0.49971,0,0,0,.5-0.5V23.864c0.054-.01276.11426-0.02991,0.166-0.04175A4.42233,4.42233,0,0,0,29,23.56781v4.4068H28.5Z" fill="#231f20"/><path d="M23.5,10.97461h4.041a0.5,0.5,0,0,0,.43262-0.75l-2.02051-3.5a0.51914,0.51914,0,0,0-.86523,0l-2.02051,3.5A0.5,0.5,0,0,0,23.5,10.97461Zm2.02051-3,1.1543,2H24.36621Z" fill="#231f20"/><path d="M25.5,23.97461h-3a0.5,0.5,0,0,0,0,1h3A0.5,0.5,0,0,0,25.5,23.97461Z" fill="#231f20"/><path d="M20.5,9.47461h1a1,1,0,0,0,0-2h-1A1,1,0,0,0,20.5,9.47461Z" fill="#231f20"/><path d="M10.4209,7.69336a4.17032,4.17032,0,0,1,.78711.2085l1.03613,0.31689a0.97705,0.97705,0,0,0,.292.04443,1.00013,1.00013,0,0,0,.292-1.95654L11.876,6.019a5.65734,5.65734,0,0,0-1.13867-.30029A0.9999,0.9999,0,1,0,10.4209,7.69336Z" fill="#231f20"/><path d="M6.5,21.417a0.99974,0.99974,0,0,0-1,1v1a1,1,0,0,0,2,0v-1A0.99974,0.99974,0,0,0,6.5,21.417Z" fill="#231f20"/></svg>