<svg xmlns="http://www.w3.org/2000/svg" width="32" height="32" viewBox="0 0 32 32"><title>kamp</title><path d="M26.79883,10.61523a0.99989,0.99989,0,0,0-1.41406-1.41406L24.844,9.74194c0.11493-1.364-.29248-3.54041-2.96509-6.10278a0.50027,0.50027,0,0,0-.84619.3501,5.83483,5.83483,0,0,1-.56348,2.32422,2.30723,2.30723,0,0,1-.979-1.3623,4.9254,4.9254,0,0,1-.04883-2.75342,0.477,0.477,0,0,0-.20312-0.57715,0.54814,0.54814,0,0,0-.65674.0708c-0.51318.47754-1.04395,0.97168-1.53809,1.51758a14.30993,14.30993,0,0,0-3.8916,9.209,6.32979,6.32979,0,0,0,3.28625,5.72986L6.293,28.293A0.99989,0.99989,0,1,0,7.707,29.707L18.34808,19.066a5.326,5.326,0,0,0,2.95612,1.433,1.22613,1.22613,0,0,0,.90186-0.34131,1.0725,1.0725,0,0,0,.15-0.23346,0.48927,0.48927,0,0,0,.20007-0.11664l3.54541-3.54492c0.87469-.87469.53247-2.59-0.7561-4.20728,0.012-.01093.02771-0.01453,0.03931-0.02612Zm-12.647,1.80859a13.31042,13.31042,0,0,1,3.63379-8.54395c0.15576-.17236.31445-0.33838,0.479-0.50342a7.07061,7.07061,0,0,0,.26855,1.86377,3.34528,3.34528,0,0,0,1.95068,2.21533,0.49925,0.49925,0,0,0,.64941-0.22412,7.88147,7.88147,0,0,0,.77881-2.12109C24.308,7.7948,23.93176,9.78888,23.684,10.48163A6.04894,6.04894,0,0,0,22.11035,9.644a2.201,2.201,0,0,0-2.33057.29688l-3.89551,3.89551a0.49471,0.49471,0,0,0-.11139.17328c-0.46509.68323-.11658,1.80231,0.63763,2.92542A5.24953,5.24953,0,0,1,14.15186,12.42383ZM21.499,19.45068a1.22823,1.22823,0,0,1-1.01562-.17236,6.6704,6.6704,0,0,1-1.425-.92267l0.3161-.3161a0.99989,0.99989,0,0,0-1.41406-1.41406l-0.31128.31128a6.61526,6.61526,0,0,1-.8855-1.37769,1.22609,1.22609,0,0,1-.17236-1.01562,0.28085,0.28085,0,0,1,.19531-0.05273,5.39947,5.39947,0,0,1,2.96875,1.79639,7.70871,7.70871,0,0,1,1.57129,2.14844A1.225,1.225,0,0,1,21.499,19.45068Zm0.89874-.97058a0.49876,0.49876,0,0,0,.06018.01172l-0.04193.042C22.41071,18.51617,22.40344,18.49786,22.39777,18.4801Zm3.07611-4.135a0.4771,0.4771,0,0,0-.07739.05139l-3.25,3.25a0.48031,0.48031,0,0,0-.06183.09314,9.12068,9.12068,0,0,0-1.62225-2.15955,7.77152,7.77152,0,0,0-2.95355-1.95416l2.978-2.978a1.32061,1.32061,0,0,1,1.30957-.0542,5.861,5.861,0,0,1,2.15808,1.41113c0.007,0.00739.009,0.01721,0.01624,0.02441,0.01013,0.01013.0238,0.01318,0.03424,0.02277a5.89038,5.89038,0,0,1,1.44379,2.194C25.46027,14.281,25.46381,14.311,25.47388,14.34509Z" fill="#231f20"/></svg>