<svg xmlns="http://www.w3.org/2000/svg" width="32" height="32" viewBox="0 0 32 32"><title>kamp</title><path d="M22.5,9H22V2.5A0.49971,0.49971,0,0,0,21.5,2H9.5a0.49971,0.49971,0,0,0-.5.5V9H8.5a0.49971,0.49971,0,0,0-.5.5v21a0.49971,0.49971,0,0,0,.5.5h14a0.49971,0.49971,0,0,0,.5-0.5V9.5A0.49971,0.49971,0,0,0,22.5,9ZM18,9V8h1V9H18ZM16,9V6.5a1.5,1.5,0,0,0-3,0V9H12V6.5A1.50164,1.50164,0,0,0,10.5,5a1.48253,1.48253,0,0,0-.5.0921V4H21V5.0921a1.45315,1.45315,0,0,0-1.5.298A1.49347,1.49347,0,0,0,17,6.5V9H16ZM14,8h1V9H14V8Zm6,0h1V9H20V8ZM10,8h1V9H10V8ZM9.5,10H22V28H9V10H9.5Z" fill="#231f20"/><path d="M10.5,27h10a0.49971,0.49971,0,0,0,.5-0.5v-15a0.49971,0.49971,0,0,0-.5-0.5h-10a0.49971,0.49971,0,0,0-.5.5v15A0.49971,0.49971,0,0,0,10.5,27ZM11,12h9V26H11V12Z" fill="#231f20"/><path d="M17.92285,15.2666L17.00293,14.877l0.10742-.9502a0.50016,0.50016,0,0,0-.78516-0.46436L15.5,14.04395l-0.8252-.58154a0.50016,0.50016,0,0,0-.78516.46436l0.10742,0.9502-0.91992.38965a0.50026,0.50026,0,0,0,0,.9209l0.91992,0.39014-0.10742.9502a0.5013,0.5013,0,0,0,.24219.48584,0.495,0.495,0,0,0,.543-0.02148L15.5,17.41064l0.8252,0.58154a0.50016,0.50016,0,0,0,.78516-0.46436l-0.10742-.9502,0.91992-.39014A0.50026,0.50026,0,0,0,17.92285,15.2666Z" fill="#231f20"/><path d="M17.92285,21.18359l-0.91992-.39014,0.10742-.94971a0.50016,0.50016,0,0,0-.78516-0.46436L15.5,19.96045l-0.8252-.58105a0.50016,0.50016,0,0,0-.78516.46436l0.10742,0.94971-0.91992.39014a0.50026,0.50026,0,0,0,0,.9209l0.91992,0.38965-0.10742.9502a0.50016,0.50016,0,0,0,.78516.46436L15.5,23.32715l0.8252,0.58154a0.50016,0.50016,0,0,0,.78516-0.46436l-0.10742-.9502,0.91992-.38965A0.50026,0.50026,0,0,0,17.92285,21.18359Z" fill="#231f20"/></svg>