<svg xmlns="http://www.w3.org/2000/svg" width="32" height="32" viewBox="0 0 32 32"><title>kamp</title><path d="M13.5,15h5a0.49971,0.49971,0,0,0,.5-0.5v-4a0.49971,0.49971,0,0,0-.5-0.5h-3a0.5002,0.5002,0,0,0-.44727.27637l-2,4A0.50019,0.50019,0,0,0,13.5,15Zm2.30908-4H18v3H14.30908Z" fill="#231f20"/><path d="M20.5,15h6a0.49971,0.49971,0,0,0,.5-0.5v-4a0.49971,0.49971,0,0,0-.5-0.5h-6a0.49971,0.49971,0,0,0-.5.5v4A0.49971,0.49971,0,0,0,20.5,15ZM26,11v3H24V11h2Zm-5,0h2v3H21V11Z" fill="#231f20"/><path d="M30.5,13H29V8.707l0.85291-.85291A0.50607,0.50607,0,0,0,30,7.5v-2A0.49971,0.49971,0,0,0,29.5,5H29V2.5625a0.49971,0.49971,0,0,0-.5-0.5h-4a0.49971,0.49971,0,0,0-.5.5V5H22.98315A2.162,2.162,0,0,0,20.8335,3h-4.667a2.162,2.162,0,0,0-2.14966,2H13.5a0.49971,0.49971,0,0,0-.5.5v2a0.50607,0.50607,0,0,0,.14709.35413l0.74481,0.74481L11.17432,14.0332l-6.93652.77051A2.51251,2.51251,0,0,0,2,17.30371V19.9585H1.5a0.49971,0.49971,0,0,0-.5.5V21.5a0.49971,0.49971,0,0,0,.5.5H3.57184l0.08362,0.0249A3.452,3.452,0,0,0,3.5,23a3.48925,3.48925,0,0,0,1.726,3H3.5a0.5,0.5,0,0,0,0,1h23a0.5,0.5,0,0,0,0-1H24.774a3.40484,3.40484,0,0,0,1.60071-3.87823l0.52136-.26074,0.081-.02411-0.00427-.01422,1.75085-.87543A0.5002,0.5002,0,0,0,29,20.5V20h1.5a0.49971,0.49971,0,0,0,.5-0.5v-6A0.49971,0.49971,0,0,0,30.5,13ZM7,21.5A1.5,1.5,0,1,1,5.5,23,1.50164,1.50164,0,0,1,7,21.5Zm0-2a3.46365,3.46365,0,0,0-.546.05524,2.72541,2.72541,0,0,1,1.09155-.00006A3.46624,3.46624,0,0,0,7,19.5Zm16,2A1.5,1.5,0,1,1,21.5,23,1.50164,1.50164,0,0,1,23,21.5Zm0-2a3.46365,3.46365,0,0,0-.546.05524,2.72541,2.72541,0,0,1,1.09155-.00006A3.46624,3.46624,0,0,0,23,19.5Zm3.18488,0.59851A3.96587,3.96587,0,0,0,19.897,20H10.10266A3.95915,3.95915,0,0,0,3.897,20H3V19H3.5A1.50164,1.50164,0,0,0,5,17.5V17H17v0.5a0.49971,0.49971,0,0,0,.5.5h1a0.49971,0.49971,0,0,0,.5-0.5V17h8v0.5a0.49971,0.49971,0,0,0,.5.5H28v1.19092ZM3.0567,17H4v0.5a0.50034,0.50034,0,0,1-.5.5H3V17.30371A1.45981,1.45981,0,0,1,3.0567,17ZM24.5,6H25V7H24V6h0.5ZM29,6V7H28V6h1ZM26.5,6H27V7H26V6h0.5ZM23,6V7H22V6h1ZM21,7H20V6h1V7ZM19,6V7H18V6h1ZM17,7H16V6h1V7ZM28,5H27V3.0625h1V5ZM25,3.0625h1V5H25V3.0625ZM21.98828,5H19V4.03125C19,4.02014,18.99445,4.01093,18.99371,4H20.8335A1.16845,1.16845,0,0,1,21.98828,5ZM16.1665,4h1.83978C18.00555,4.01093,18,4.02014,18,4.03125V5H15.01172A1.16845,1.16845,0,0,1,16.1665,4ZM14,6h1V7H14V6ZM4.34814,15.79785l7.207-.80078a0.50053,0.50053,0,0,0,.39209-0.27344L14.80957,9H28v7H3.76215A1.49307,1.49307,0,0,1,4.34814,15.79785ZM8.774,26A3.48925,3.48925,0,0,0,10.5,23a3.45066,3.45066,0,0,0-.15533-0.97461L10.42981,22h9.142l0.08362,0.0249A3.452,3.452,0,0,0,19.5,23a3.48925,3.48925,0,0,0,1.726,3H8.774Z" fill="#231f20"/><circle cx="7" cy="23" r="0.5" fill="#231f20"/><circle cx="23" cy="23" r="0.5" fill="#231f20"/><path d="M30.5,26h-2a0.5,0.5,0,0,0,0,1h2A0.5,0.5,0,0,0,30.5,26Z" fill="#231f20"/></svg>