<svg xmlns="http://www.w3.org/2000/svg" width="32" height="32" viewBox="0 0 32 32"><title>kamp</title><path d="M30.97339,26.66583c0.00562-.032.017-0.06219,0.02173-0.09454l-0.03137-.00464a3.461,3.461,0,0,0-.98914-2.10376,37.41622,37.41622,0,0,0-9.73828-7.01953l-0.292-.145-0.01172-.00586-1.88434-1.88531,8.91461-8.915,0.60449-.60449a4.37163,4.37163,0,0,1,1.7002-1.05078l0.47461-.1582a0.8656,0.8656,0,0,0,.33789-1.43311l-1.99219-1.9917a0.86552,0.86552,0,0,0-1.43359.33887l-0.15723.47314A4.38051,4.38051,0,0,1,25.44629,3.7666l-0.60449.60449-8.91553,8.91553L7.07422,4.43457l-0.001-.00146-0.60449-.605A4.3636,4.3636,0,0,1,5.418,2.12842l-0.1582-.47461a0.86674,0.86674,0,0,0-1.43359-.33838V1.31592L1.833,3.30859a0.86609,0.86609,0,0,0,.33984,1.43213l0.47363,0.1582A4.38807,4.38807,0,0,1,4.34766,5.94971l0.60449,0.605L13.80493,15.408l-1.95142,1.95142-0.13184.06592a37.39183,37.39183,0,0,0-9.73828,7.019A3.50015,3.50015,0,0,0,6.93359,29.394c0.4317-.43164.82977-0.89148,1.23877-1.34222,0.03-.024.05829-0.03992,0.08838-0.06451l-0.01355-.0166Q9.11072,27.01324,9.90234,26H9.958V25.929q0.96835-1.241,1.82922-2.5589a0.4903,0.4903,0,0,0,.13837-0.20917,37.47874,37.47874,0,0,0,2.02655-3.50513l0.14551-.2915,0.00684-.01318,1.82239-1.82251,2.01355,2.0144,0.06543,0.13135a37.41122,37.41122,0,0,0,7.01953,9.73828A3.5,3.5,0,0,0,31,26.938C31,26.84558,30.98047,26.757,30.97339,26.66583ZM24.88959,21.438H22.5a0.49971,0.49971,0,0,0-.5.5v2.389c-0.35223-.48566-0.67206-0.99384-1-1.49658V20.438h2.39313C23.89587,20.76593,24.404,21.08575,24.88959,21.438Zm2.04791,7.16888V23.04346c0.36438,0.3064.70978,0.63574,1.0625,0.95667v4.60059A2.48707,2.48707,0,0,1,26.9375,28.60687ZM25,27.69226V22.438h0.9375v5.81409A7.055,7.055,0,0,1,25,27.69226ZM23,22.438h1v4.3905c-0.34644-.39862-0.67163-0.81317-1-1.22589V22.438Zm6.96643,4.15582a2.47494,2.47494,0,0,1-.66663,1.23334A3.89166,3.89166,0,0,1,29,28.09747V24.923c0.08685,0.08514.18152,0.16089,0.26758,0.24695A2.47118,2.47118,0,0,1,29.96643,26.59381ZM25.603,6.438l-0.707-.707,0.29932-.29932,0.707,0.707Zm0.55029-1.96436a5.38188,5.38188,0,0,0,1.293-2.09229l0.08887-.2666,1.68359,1.68457-0.26758.08887a5.37539,5.37539,0,0,0-2.09082,1.29248l-0.251.251-0.707-.707ZM2.96289,3.95068L2.69531,3.86084,4.37988,2.17676,4.46875,2.44482a5.3632,5.3632,0,0,0,1.293,2.09082l0.251,0.251-0.707.707-0.251-.25146A5.38384,5.38384,0,0,0,2.96289,3.95068ZM6.71973,5.49414L6.947,5.72144l-0.707.707L6.0127,6.20117ZM6.947,7.1355l0.707-.707,7.56519,7.56519-0.70728.70728ZM8.958,22.5v3.08508c-0.32837.41272-.6535,0.82721-1,1.22583V22.5h1Zm-5,6.093V24H3.93823c0.33948-.30933.66943-0.63007,1.01978-0.9259v5.54608A2.45518,2.45518,0,0,1,3.958,28.593Zm3-.87909a6.82508,6.82508,0,0,1-1,.58307V22.5h1v5.21393Zm-4-2.80945v3.16565c-0.09521-.07916-0.1853-0.16071-0.26758-0.243a2.47689,2.47689,0,0,1-.69049-1.33759,2.47482,2.47482,0,0,1,.69049-1.3382C2.77649,25.06531,2.87115,24.98962,2.958,24.90448ZM9.458,21.5H6.96625c0.48132-.35175.9826-0.67444,1.48083-1.0022L8.458,20.5h2.5v2.31244c-0.32794.50281-.64777,1.01111-1,1.49677V22A0.49971,0.49971,0,0,0,9.458,21.5Zm3.81738-2.73437a0.46718,0.46718,0,0,0-.13086.27l-0.08691.17334c-0.34058.681-.71881,1.33893-1.09961,1.99493V20a0.49971,0.49971,0,0,0-.5-0.5H10.02783c0.70209-.41187,1.41016-0.8147,2.14111-1.18018l0.2041-.10205a0.50057,0.50057,0,0,0,.12988-0.09375l2.267-2.267a0.34857,0.34857,0,0,0,.19116-0.19116L24.189,6.438l0.707,0.707Zm5.52344,0.2583a0.48409,0.48409,0,0,0-.09375-0.13037L17.2066,17.39447l0.70734-.70734,1.43274,1.43347a0.4801,0.4801,0,0,0,.26172.12744L19.79,18.33838c0.681,0.34052,1.33881.71881,1.99481,1.09961H20.5a0.49971,0.49971,0,0,0-.5.5V21.222c-0.3808-.65594-0.75909-1.31366-1.09961-1.99451Z" fill="#231f20"/></svg>