<svg xmlns="http://www.w3.org/2000/svg" width="32" height="32" viewBox="0 0 32 32"><title>kamp</title><path d="M29.5,23a0.48711,0.48711,0,0,0,.2359-0.067,0.46341,0.46341,0,0,0,.05194-0.035,0.48773,0.48773,0,0,0,.1366-0.14929c0.00592-.01.01758-0.01453,0.02283-0.025l1-2L30.95,20.71057A0.492,0.492,0,0,0,31,20.5v-2a0.49971,0.49971,0,0,0-.5-0.5h-6a0.49971,0.49971,0,0,0-.5.5V20H23.47168l-2.25-6H26.5a0.49971,0.49971,0,0,0,.5-0.5v-2a0.4684,0.4684,0,0,0-.0144-0.07153A0.4684,0.4684,0,0,0,27,11.35693V9.5A0.49971,0.49971,0,0,0,26.5,9h-4c-0.0155,0-.02844.00739-0.04358,0.00879H6.5a0.49971,0.49971,0,0,0-.5.5v1.85742a0.47212,0.47212,0,0,0,.01349.06689A0.47212,0.47212,0,0,0,6,11.5v2a0.49971,0.49971,0,0,0,.5.5h5.27832l-2.25,6H9V18.5A0.49971,0.49971,0,0,0,8.5,18h-6a0.49971,0.49971,0,0,0-.5.5v2a0.492,0.492,0,0,0,.05.21057l0.00275,0.01306,1,2c0.00525,0.0105.01691,0.015,0.02283,0.025a0.48772,0.48772,0,0,0,.1366.14929,0.46341,0.46341,0,0,0,.05194.035A0.48711,0.48711,0,0,0,3.5,23H8.40332l-2.25,6H2.5a0.5,0.5,0,0,0,0,1h28a0.5,0.5,0,0,0,0-1H26.84668l-2.25-6H29.5ZM9.875,21H23.19092l0.5,1H22.5a0.5,0.5,0,0,0-1,0h-10a0.5,0.5,0,0,0-1,0H9.49237l-0.3125-1H9.875Zm6.65332-6,1.875,5H14.59668l1.875-5h0.05664Zm-3.05664,8h6.05664l2.25,6H11.22168ZM25,19h5v1H25V19Zm-5.52832,1-1.875-5h2.93164l1.875,5H19.47168ZM26,10.85693H23V10h3v0.85693Zm-4,.00928H19V10.00879h3v0.85742Zm-4,0H15V10.00879h3v0.85742Zm-4,0H11V10.00879h3v0.85742Zm-7-.85742h3v0.85742H7V10.00879ZM7,12H7.5a0.5,0.5,0,0,0,1,0h16a0.5,0.5,0,0,0,1,0H26v1H7V12Zm5.47168,3h2.93164l-1.875,5H10.59668ZM3,19H8v1H3V19ZM7.22168,29l1.875-5h2.93164l-1.875,5H7.22168Zm15.625,0-1.875-5h2.93164l1.875,5H22.84668Z" fill="#231f20"/></svg>