<svg xmlns="http://www.w3.org/2000/svg" width="32" height="32" viewBox="0 0 32 32"><title>kamp</title><path d="M27.98871,22.53839a0.49349,0.49349,0,0,0-.35-0.51886A3.74817,3.74817,0,0,1,25,18.50488l-0.00031-.00171L25,18.5a1.48855,1.48855,0,0,0-.39014-1,1.47667,1.47667,0,0,0,0-2A1.49347,1.49347,0,0,0,23.5,13H23.36206c0.08051-.41656.16522-0.81189,0.261-1.1709a6.78845,6.78845,0,0,0,.11377-3.43555,8.50223,8.50223,0,0,0-16.6001.5791A6.59034,6.59034,0,0,0,7.28613,11.688c0.10577,0.44263.183,0.87671,0.26459,1.312H7.5a1.49347,1.49347,0,0,0-1.10986,2.5,1.47667,1.47667,0,0,0,0,2A1.49347,1.49347,0,0,0,7.5,20H7.72308a11.63108,11.63108,0,0,1-.28461,1.20508,6.655,6.655,0,0,0,.05859,4.16553,8.5029,8.5029,0,0,0,16.23975-.76416,5.53655,5.53655,0,0,0,.1449-0.96283,5.39954,5.39954,0,0,0,2.51868,1.34613A0.50117,0.50117,0,0,0,26.50049,25c0.01306,0,.02472-0.00549.0376-0.00653a0.62545,0.62545,0,0,0,.16211.029,0.69642,0.69642,0,0,0,.29053-0.06543,2.156,2.156,0,0,0,.84814-1.15771A2.4592,2.4592,0,0,0,27.98871,22.53839Zm-7.3642-1.23175a5.33528,5.33528,0,0,1-2.98389,6.26123A5.59474,5.59474,0,0,1,12,26.74268a5.24685,5.24685,0,0,1-1.65332-5.32617c0.035-.13226.06567-0.27814,0.09857-0.4165h0.9693c-0.0282.11169-.05316,0.23108-0.083,0.33936A4.38582,4.38582,0,0,0,17.47949,26.542a4.50816,4.50816,0,0,0,2.16406-5.293c-0.02136-.07916-0.03931-0.16779-0.05981-0.249H20.5531C20.57727,21.10089,20.59894,21.20807,20.62451,21.30664Zm-1.9458.20361a3.5117,3.5117,0,0,1-1.63965,4.13428,3.55146,3.55146,0,0,1-4.0166-.67236,3.44831,3.44831,0,0,1-.72705-3.3667V21.605c0.05389-.19519.10291-0.39948,0.15161-0.605h0.964c-0.06757.2674-.13312,0.53583-0.21179,0.79639a2.43484,2.43484,0,1,0,4.60156-.00049c-0.07867-.26031-0.14417-0.52869-0.21173-0.7959h0.96387C18.59381,21.17249,18.63428,21.34595,18.67871,21.51025Zm-1.30695-1.48444L17.36664,20H17.5A0.48392,0.48392,0,0,0,17.37177,20.02582Zm-0.528,2.05963a1.49,1.49,0,0,1-.28369,1.4751,1.53374,1.53374,0,0,1-2.12061,0,1.4904,1.4904,0,0,1-.2832-1.47461A19.46278,19.46278,0,0,0,14.66113,20h1.67773A19.42533,19.42533,0,0,0,16.84375,22.08545Zm-3.21552-2.05963A0.48343,0.48343,0,0,0,13.5,20h0.13336ZM7,16.5A0.50034,0.50034,0,0,1,7.5,16h16a0.5,0.5,0,0,1,0,1H7.5A0.50034,0.50034,0,0,1,7,16.5Zm1.25879-5.04395a5.61861,5.61861,0,0,1-.1377-2.30469,7.50209,7.50209,0,0,1,14.647-.51074,5.816,5.816,0,0,1-.11084,2.93066c-0.11768.43945-.22217,0.91016-0.31738,1.42871h-0.9834c0.07275-.37939.1499-0.72363,0.23584-1.05518a6.34019,6.34019,0,0,0-3.562-7.43359,6.61059,6.61059,0,0,0-6.667.97461,6.18388,6.18388,0,0,0-1.9834,6.35449C9.47559,12.19971,9.562,12.58252,9.64258,13h-1.062C8.48779,12.48975,8.38281,11.97559,8.25879,11.45605ZM19.36328,13c0.08569-.44275.17633-0.86371,0.28027-1.24854A4.50888,4.50888,0,0,0,17.48,6.458a4.56516,4.56516,0,0,0-5.16553.86377,4.445,4.445,0,0,0-.98291,4.33936c0.11371,0.41174.21191,0.863,0.3042,1.33887H10.655c-0.094-.50873-0.19391-0.98468-0.30835-1.4165A5.24685,5.24685,0,0,1,12,6.25732a5.593,5.593,0,0,1,5.64063-.8252,5.33528,5.33528,0,0,1,2.98389,6.26123C20.5199,12.09607,20.43,12.53015,20.34369,13H19.36328Zm-5.207-2.08545a1.49,1.49,0,0,1,.28369-1.4751,1.53374,1.53374,0,0,1,2.12061,0,1.4904,1.4904,0,0,1,.2832,1.47461A19.46278,19.46278,0,0,0,16.33887,13H14.66113A19.42533,19.42533,0,0,0,14.15625,10.91455Zm3.11182-2.18213a2.5604,2.5604,0,0,0-3.53564,0,2.46342,2.46342,0,0,0-.5332,2.47168c0.17407,0.57611.31232,1.175,0.43414,1.7959H12.65967c-0.10742-.58105-0.22705-1.10937-0.36426-1.60547a3.44831,3.44831,0,0,1,.72705-3.3667,3.55064,3.55064,0,0,1,4.0166-.67236,3.5117,3.5117,0,0,1,1.63965,4.13428v0.00049C18.55225,11.957,18.44092,12.4541,18.34033,13H17.36664c0.12183-.62091.26007-1.21991,0.43414-1.79639A2.46373,2.46373,0,0,0,17.26807,8.73242ZM7.5,14h16a0.5,0.5,0,0,1,0,1H7.5A0.5,0.5,0,0,1,7.5,14ZM7,18.5A0.50034,0.50034,0,0,1,7.5,18h16a0.5,0.5,0,0,1,0,1H7.5A0.50034,0.50034,0,0,1,7,18.5Zm15.76807,5.85938a7.50292,7.50292,0,0,1-14.32959.67334,5.6523,5.6523,0,0,1-.04395-3.53564C8.44305,21.3382,8.48529,21.1684,8.52832,21H9.41608c-0.01282.05042-.023,0.11017-0.03619,0.15967a6.18388,6.18388,0,0,0,1.9834,6.35449,6.60692,6.60692,0,0,0,6.667.97461,6.34054,6.34054,0,0,0,3.562-7.43408C21.58783,21.03754,21.58447,21.01721,21.58008,21H22.5a0.46391,0.46391,0,0,0,.05011-0.01013c0.03516,0.14777.0694,0.298,0.10712,0.43884A5.816,5.816,0,0,1,22.76807,24.35938ZM23.90674,22.209a0.48049,0.48049,0,0,0-.08423-0.07812,8.78979,8.78979,0,0,0-.19946-0.96c-0.01575-.059-0.029-0.12592-0.04425-0.18622a0.48817,0.48817,0,0,0,.27472-0.13116l0.50916-.50916a4.78577,4.78577,0,0,0,2.14453,2.26941,3.512,3.512,0,0,0-.2821.58691,3.44185,3.44185,0,0,0-.17273.648A5.27393,5.27393,0,0,1,23.90674,22.209Z" fill="#231f20"/></svg>