<svg xmlns="http://www.w3.org/2000/svg" width="32" height="32" viewBox="0 0 32 32"><title>kamp</title><path d="M7.5,17h5a0.49971,0.49971,0,0,0,.5-0.5v-3a0.49971,0.49971,0,0,0-.5-0.5h-4a0.501,0.501,0,0,0-.47461.3418l-1,3A0.50063,0.50063,0,0,0,7.5,17Zm1.36035-3H12v2H8.19336Z" fill="#231f20"/><path d="M28.5,12h-6a0.49971,0.49971,0,0,0-.5.5v4a0.49971,0.49971,0,0,0,.5.5h6a0.49971,0.49971,0,0,0,.5-0.5v-4A0.49971,0.49971,0,0,0,28.5,12ZM23,16V13h2v3H23Zm5,0H26V13h2v3Z" fill="#231f20"/><path d="M30.5,26h-2a0.5,0.5,0,0,0,0,1h2A0.5,0.5,0,0,0,30.5,26Z" fill="#231f20"/><path d="M28.50293,7H4.5a0.50036,0.50036,0,0,0-.48535.37891L3.32422,10.14209A1.49469,1.49469,0,0,0,4.77441,12H6.7619l-1.631,4.07715-2.84863.71191A1.51535,1.51535,0,0,0,1.16016,18.5l0.24615,1.47736A0.49275,0.49275,0,0,0,1,20.4585V21.5a0.49971,0.49971,0,0,0,.5.5H1.74329l0.26355,1.582A0.50011,0.50011,0,0,0,2.5,24h1V23.97906l0.04968,0.01257A2.99734,2.99734,0,0,0,4.84772,26H3.5a0.5,0.5,0,0,0,0,1h23a0.5,0.5,0,0,0,0-1H24.15228a2.99754,2.99754,0,0,0,1.29718-2H30.5a0.49971,0.49971,0,0,0,.5-0.5V9.49658A2.49971,2.49971,0,0,0,28.50293,7ZM12,8V9H9V8h3ZM2.52441,17.75928l3.09668-.77441a0.4969,0.4969,0,0,0,.34277-0.29932L7.83807,12H14v7H10.707l0.14648-.14648A0.5,0.5,0,0,0,10.5,18H2.2121A0.50351,0.50351,0,0,1,2.52441,17.75928ZM15,12h5v7H15V12Zm8.5,11.5a1,1,0,0,1-2,0V23h2v0.5ZM2.60278,19.97919A0.47818,0.47818,0,0,0,2.5,19.9585H2.417L2.2572,19H3v0.5A0.49355,0.49355,0,0,1,2.60278,19.97919ZM2.745,21.92688A0.49307,0.49307,0,0,0,3,21.5V20.9079A1.49758,1.49758,0,0,0,4,19.5V19H9.293l-0.14648.14648A0.5,0.5,0,0,0,9.5,20H14v2H9.19958a3.57809,3.57809,0,0,0-1.46106-1.22485c-0.03076-.014-0.05908-0.03174-0.09039-0.0448a3.12911,3.12911,0,0,0-.36945-0.11493c-0.06543-.01776-0.12744-0.04309-0.19452-0.0564a2.92075,2.92075,0,0,0-1.1684,0c-0.06622.01312-.12738,0.03815-0.192,0.0556a3.11266,3.11266,0,0,0-.37268.116c-0.02979.01239-.05676,0.0293-0.08612,0.04266A3.57719,3.57719,0,0,0,3.80011,22H2.7572ZM6.5,22.5a1,1,0,1,1-1,1A1.001,1.001,0,0,1,6.5,22.5Zm13.5-1V22H15V20h5v1.5ZM8.15228,26a2.99754,2.99754,0,0,0,1.29718-2H19.55054a2.99754,2.99754,0,0,0,1.29718,2H8.15228ZM26,22H25.707l-0.85352-.85352A0.49964,0.49964,0,0,0,24.5,21H21V20h9v2H26Zm4-10v6H29a0.49971,0.49971,0,0,0-.5.5V19H21V11.5a0.49971,0.49971,0,0,0-.5-0.5H4.77441a0.49484,0.49484,0,0,1-.47949-0.61523L4.89063,8H8V9.5a0.49971,0.49971,0,0,0,.5.5h4A0.49971,0.49971,0,0,0,13,9.5V8H28.50293A1.49872,1.49872,0,0,1,30,9.49658V10H29a0.5,0.5,0,0,0,0,1h1v1Z" fill="#231f20"/><path d="M18.5,13h-2a0.49971,0.49971,0,0,0-.5.5v3a0.49971,0.49971,0,0,0,.5.5h2a0.49971,0.49971,0,0,0,.5-0.5v-3A0.49971,0.49971,0,0,0,18.5,13ZM18,16H17V14h1v2Z" fill="#231f20"/></svg>