<svg xmlns="http://www.w3.org/2000/svg" width="32" height="32" viewBox="0 0 32 32"><title>kamp</title><path d="M23.5,1H7.5a0.49971,0.49971,0,0,0-.5.5v27A2.50294,2.50294,0,0,0,9.5,31h14A2.50294,2.50294,0,0,0,26,28.5V3.5A2.50294,2.50294,0,0,0,23.5,1ZM9.793,2l3.808,3.808-0.907.679L8.207,2H9.793Zm3,0,2.52362,2.52362-0.90692.679L11.207,2H12.793Zm3,0,1.23932,1.23932L16.239,3.83319a0.48383,0.48383,0,0,0-.06732.05042l-0.04633.03467L14.207,2H15.793Zm3.0752,0,1.08337,1.08337c-0.41827-.01361-0.86432-0.025-1.34216-0.034l-0.543-.19L17.207,2h1.66113Zm3.07178,0,1.28284,1.28284q-0.75146-.08029-1.795-0.13727L20.28223,2h1.65771ZM17.77075,3.936a0.48736,0.48736,0,0,0,.17291.053L17.061,11.45361l-1.10632-.1106,1.00763-6.80176ZM8.82813,10.63037l0.35742-.26758-0.09784.29352Zm6.99713-5.238-0.86676,5.851-0.97717-.09772L14.9549,6.044Zm-2.84308,5.65338-0.95441-.09546L12.86285,7.61,13.767,6.93323Zm-1.96014-.196-0.91461-.09143L10.5896,9.31177l1.00507-.75238Zm0.86328-3.75739-0.907.679L8,4.793V3.207Zm-1.7157,1.2843-0.90692.679L8,7.793V6.207ZM8.454,9.661L8,10.00085V9.207ZM8,19.66986c1.62891-.89636,15.37109-0.89636,17,0V23.64c-1.11249-.3443-3.466-0.64-8.5-0.64s-7.38751.29572-8.5,0.64V19.66986ZM16.5,18c-5.034,0-7.38751.29572-8.5,0.64V14.66986c1.62891-.89636,15.37109-0.89636,17,0V18.64C23.88751,18.29572,21.534,18,16.5,18Zm0-5c-5.034,0-7.38751.29572-8.5,0.64V12.5h9.50049a0.49362,0.49362,0,0,0,.1861-0.0376,0.48674,0.48674,0,0,0,.05811-0.03534,0.31411,0.31411,0,0,0,.14417-0.12567,0.482,0.482,0,0,0,.05933-0.08807,0.48914,0.48914,0,0,0,.02478-0.07916,0.47619,0.47619,0,0,0,.02362-0.07556L18.35712,9.009C22.78033,9.0976,24.56921,9.42932,25,9.64691V13.64C23.88751,13.29572,21.534,13,16.5,13Zm1.97491-4.98773,0.46771-3.95636C23.581,4.16022,24.72687,4.50836,25,4.64911V8.59033A29.65227,29.65227,0,0,0,18.47491,8.01227ZM25,3.5V3.593c-0.02441-.00714-0.04865-0.01428-0.07428-0.0213L23.354,2H23.5A1.50164,1.50164,0,0,1,25,3.5ZM8,24.66986c1.62891-.89636,15.37109-0.89636,17,0V28.5a1.48639,1.48639,0,0,1-.04419.34583C24.19543,28.42621,22.16632,28,16.75,28c-6.88062,0-8.291.687-8.58185,1.17548A1.48082,1.48082,0,0,1,8,28.5V24.66986Z" fill="#231f20"/></svg>