<svg xmlns="http://www.w3.org/2000/svg" width="32" height="32" viewBox="0 0 32 32"><title>kamp</title><path d="M30.5,26H30.12225l0.86212-3.37646A0.49974,0.49974,0,0,0,30.5,22h-1a0.49971,0.49971,0,0,0-.5.5v1.44006l-1.59326-2.23059-0.00458-.00427-0.00372-.00745L16.62622,7.498,18.2749,5.2998a0.4998,0.4998,0,1,0-.7998-0.59961L15.98755,6.68365,14.39063,4.6875a0.50024,0.50024,0,0,0-.78125.625L15.366,7.5083,4.60156,21.69775a0.49374,0.49374,0,0,0-.06995.13977L3,23.95532V22.5A0.49971,0.49971,0,0,0,2.5,22h-1a0.49974,0.49974,0,0,0-.48437.62354L1.87775,26H1.5a0.5,0.5,0,0,0,0,1h2a0.5,0.5,0,0,0,0-1H3V25.662l2.43652-3.369,0.00293-.00641L7,21.0097V25.5a0.49971,0.49971,0,0,0,.5.5h-1a0.5,0.5,0,0,0,0,1h19a0.5,0.5,0,0,0,0-1h-1a0.49971,0.49971,0,0,0,.5-0.5V21.0097l1.63239,1.33563L29,25.66V26H28.5a0.5,0.5,0,0,0,0,1h2A0.5,0.5,0,0,0,30.5,26ZM12.5285,25c0.16571-.47931.69263-2.04315,2.42261-7.25183L14.058,25H12.5285ZM24.0174,18.91357L16.5,12.763V8.98627l7.52026,9.91315ZM15.5,12.763L7.9826,18.91357l-0.00287-.01416L15.5,8.98627V12.763ZM8,20.49109A0.48417,0.48417,0,0,0,8.09937,20.486a0.49326,0.49326,0,0,0,.09015-0.03381,0.4714,0.4714,0,0,0,.07562-0.02838L14.251,16.68292c-1.19678,3.60321-2.60937,7.84784-2.7124,8.12421A0.4942,0.4942,0,0,0,11.50116,25H8V20.49109ZM17.942,25l-0.897-7.28339L19.47314,25H17.942Zm2.55157,0a0.49054,0.49054,0,0,0-.01947-0.1582l-2.7182-8.15454,5.97894,3.73657a0.49667,0.49667,0,0,0,.26465.07617L24,20.49988V25H20.49359Z" fill="#231f20"/></svg>