<svg xmlns="http://www.w3.org/2000/svg" width="32" height="32" viewBox="0 0 32 32"><title>kamp</title><path d="M23.5,13h-1a0.4964,0.4964,0,0,0-.46527.3277L21,12.293V11.5a0.503,0.503,0,0,0-.14709-0.35413L19,9.293V2.5A1.50164,1.50164,0,0,0,17.5,1h-5A1.50164,1.50164,0,0,0,11,2.5V9.293L9.14709,11.14587A0.503,0.503,0,0,0,9,11.5v17A1.50164,1.50164,0,0,0,10.5,30h-1a0.5,0.5,0,0,0,0,1h11a0.5,0.5,0,0,0,0-1h-1A1.50164,1.50164,0,0,0,21,28.5V24.707l1.03473-1.03473A0.4964,0.4964,0,0,0,22.5,24h1A1.50164,1.50164,0,0,0,25,22.5v-8A1.50164,1.50164,0,0,0,23.5,13ZM23,14h0.5a0.50065,0.50065,0,0,1,.5.5V22H23V14ZM10,25V12h2.5a0.5,0.5,0,0,0,0-1H10.707l1-1H18.293l1,1H17.5a0.5,0.5,0,0,0,0,1H20V25H10ZM21,14.707l1,1V21.293l-1,1V14.707ZM12,2.5A0.50065,0.50065,0,0,1,12.5,2h5a0.50065,0.50065,0,0,1,.5.5V8H12V2.5ZM19.5,29h-9a0.50065,0.50065,0,0,1-.5-0.5V26h1v1.5a0.5,0.5,0,0,0,1,0V26h8v2.5A0.50065,0.50065,0,0,1,19.5,29Z" fill="#231f20"/><path d="M17.5,13h-5A1.50164,1.50164,0,0,0,11,14.5v1A1.50164,1.50164,0,0,0,12.5,17h5A1.50164,1.50164,0,0,0,19,15.5v-1A1.50164,1.50164,0,0,0,17.5,13ZM18,15.5a0.50065,0.50065,0,0,1-.5.5h-5a0.50065,0.50065,0,0,1-.5-0.5v-1a0.50065,0.50065,0,0,1,.5-0.5h5a0.50065,0.50065,0,0,1,.5.5v1Z" fill="#231f20"/><path d="M13.5,3a0.49971,0.49971,0,0,0-.5.5v3a0.5,0.5,0,0,0,1,0v-3A0.49971,0.49971,0,0,0,13.5,3Z" fill="#231f20"/></svg>