<svg xmlns="http://www.w3.org/2000/svg" width="32" height="32" viewBox="0 0 32 32"><title>kamp</title><path d="M25.5,29H20.707l0.14648-.14648a0.49995,0.49995,0,0,0-.707-0.707l-0.82129.82129,0.62207-1.24414a0.50006,0.50006,0,0,0-.89453-0.44727L19,27.38184V24h6.5a0.50039,0.50039,0,0,0,.38428-0.82031L21.56738,18H24.5a0.50039,0.50039,0,0,0,.38428-0.82031L20.56738,12H23.5a0.5,0.5,0,0,0,.35352-0.85352L19.707,7H21.5a0.5,0.5,0,0,0,.35352-0.85352l-5-5a0.49982,0.49982,0,0,0-.707,0l-5,5A0.5,0.5,0,0,0,11.5,7h1.71692l-0.11414.19019-3.9563,3.9563A0.5,0.5,0,0,0,9.5,12h2.93262L8.11572,17.17969A0.50039,0.50039,0,0,0,8.5,18h2.93262L7.11572,23.17969A0.50039,0.50039,0,0,0,7.5,24H14v3.84863l-1.084-1.626a0.5,0.5,0,0,0-.832.55469l1.19922,1.79883-0.42969-.42969a0.49995,0.49995,0,0,0-.707.707L12.293,29H7.5a0.5,0.5,0,0,0,0,1h18A0.5,0.5,0,0,0,25.5,29ZM11.9187,18.97882A0.47418,0.47418,0,0,0,12,19h2.5a0.50034,0.50034,0,0,0,.22363-0.05273l2-1a0.49029,0.49029,0,0,0,.10205-0.07477c0.00946-.00824.0213-0.01312,0.03015-0.02209a0.49706,0.49706,0,0,0,.1-0.14832c0.00623-.014.00751-0.02979,0.01245-0.04449a0.48971,0.48971,0,0,0,.02716-0.13477C16.99579,17.51483,17,17.50812,17,17.5c0-.01538-0.00739-0.02832-0.00873-0.04333a0.17841,0.17841,0,0,0-.02338-0.11609,0.47783,0.47783,0,0,0-.02832-0.06671,0.48536,0.48536,0,0,0-.06146-0.09119,0.47555,0.47555,0,0,0-.0462-0.051,0.49,0.49,0,0,0-.09747-0.06567A0.40457,0.40457,0,0,0,16.5,17H9.56738l3.35-4.01959A0.47776,0.47776,0,0,0,13,13h1.5a0.50034,0.50034,0,0,0,.22363-0.05273l2-1a0.49029,0.49029,0,0,0,.10205-0.07477c0.00946-.00824.0213-0.01312,0.03015-0.02209a0.49706,0.49706,0,0,0,.1-0.14832c0.00623-.014.00751-0.02979,0.01245-0.04449a0.48971,0.48971,0,0,0,.02716-0.13477C16.99579,11.51483,17,11.50812,17,11.5c0-.01538-0.00739-0.02832-0.00873-0.04333a0.17841,0.17841,0,0,0-.02338-0.11609,0.47783,0.47783,0,0,0-.02832-0.06671,0.48536,0.48536,0,0,0-.06146-0.09119,0.47555,0.47555,0,0,0-.0462-0.051,0.49,0.49,0,0,0-.09747-0.06567A0.40457,0.40457,0,0,0,16.5,11H10.707l3-3H14.5a0.50034,0.50034,0,0,0,.22363-0.05273l2-1a0.4903,0.4903,0,0,0,.10205-0.07477c0.00946-.00824.0213-0.01312,0.03015-0.02209a0.49706,0.49706,0,0,0,.1-0.14832c0.00623-.014.00751-0.02979,0.01245-0.04449a0.48971,0.48971,0,0,0,.02716-0.13477C16.99579,6.51483,17,6.50812,17,6.5c0-.01538-0.00739-0.02832-0.00873-0.04333a0.48364,0.48364,0,0,0-.00446-0.07141,69.81406,69.81406,0,0,0-.04724-0.11139,0.48536,0.48536,0,0,0-.06146-0.09119,0.47555,0.47555,0,0,0-.0462-0.051A0.49,0.49,0,0,0,16.73444,6.066,0.40457,0.40457,0,0,0,16.5,6H12.707L16.5,2.207,20.293,6H18.5a0.5,0.5,0,0,0-.35352.85352L22.293,11H18.5a0.49991,0.49991,0,0,0-.248.93408l1.75,1a0.46813,0.46813,0,0,0,.054.01434L23.43262,17H19.5a0.49991,0.49991,0,0,0-.248.93408l1.75,1a0.46813,0.46813,0,0,0,.054.01434L24.43262,23H8.56738ZM16,29V27.5a0.49971,0.49971,0,0,0-.5-0.5H15V25h2v1.5a0.49971,0.49971,0,0,0,.5.5H18v2H16Z" fill="#231f20"/><path d="M5.5,29h-1a0.5,0.5,0,0,0,0,1h1A0.5,0.5,0,0,0,5.5,29Z" fill="#231f20"/><path d="M2.1499,29.1499a0.48321,0.48321,0,0,0,0,.69971,0.48213,0.48213,0,0,0,.69971,0,0.48213,0.48213,0,0,0,0-.69971A0.50079,0.50079,0,0,0,2.1499,29.1499Z" fill="#231f20"/><path d="M29.5,29h-2a0.5,0.5,0,0,0,0,1h2A0.5,0.5,0,0,0,29.5,29Z" fill="#231f20"/></svg>