<svg xmlns="http://www.w3.org/2000/svg" width="32" height="32" viewBox="0 0 32 32"><title>kamp</title><path d="M21,9.0506V6h0.5A0.49971,0.49971,0,0,0,22,5.5V3a2,2,0,0,0-4,0V5.5a0.49971,0.49971,0,0,0,.5.5H19V9H12.5A2.50263,2.50263,0,0,0,10,11.5V12H9.5A1.50164,1.50164,0,0,0,8,13.5v4A1.50164,1.50164,0,0,0,9.5,19H10v9.5A2.50263,2.50263,0,0,0,12.5,31h8A2.50263,2.50263,0,0,0,23,28.5v-17A2.50379,2.50379,0,0,0,21,9.0506ZM19,3a1,1,0,0,1,2,0V5H19V3Zm-8,8.5A1.50164,1.50164,0,0,1,12.5,10h8A1.50164,1.50164,0,0,1,22,11.5v16A1.50164,1.50164,0,0,1,20.5,29h-8A1.50164,1.50164,0,0,1,11,27.5v-16ZM9.5,13H10v4H9V13.5A0.50065,0.50065,0,0,1,9.5,13Zm2.69794,16.96942A2.453,2.453,0,0,0,12.5,30,1.502,1.502,0,0,1,12.19794,29.96942Zm8.60413,0A1.502,1.502,0,0,1,20.5,30,2.453,2.453,0,0,0,20.80206,29.96942Z" fill="#231f20"/><path d="M13.833,21h5.334A1.83516,1.83516,0,0,0,21,19.1665v-6.333A1.83516,1.83516,0,0,0,19.167,11H13.833A1.83516,1.83516,0,0,0,12,12.8335v6.333A1.83516,1.83516,0,0,0,13.833,21Zm0-8h5.334a0.83449,0.83449,0,0,1,.833.8335V14H13V13.8335A0.83449,0.83449,0,0,1,13.833,13Zm5.11646,3a2.47751,2.47751,0,0,0-.4621-1H20v1H18.94946ZM17.9079,16H15.0921A1.49109,1.49109,0,0,1,17.9079,16Zm-3.85736,0H13V15h1.51263A2.47751,2.47751,0,0,0,14.05054,16Zm0,1a2.47751,2.47751,0,0,0,.4621,1H13V17h1.05054Zm1.04156,0h2.8158A1.49109,1.49109,0,0,1,15.0921,17Zm3.85736,0H20v1H18.48737A2.47751,2.47751,0,0,0,18.94946,17ZM19.167,20H13.833A0.83449,0.83449,0,0,1,13,19.1665V19h7v0.1665A0.83449,0.83449,0,0,1,19.167,20Z" fill="#231f20"/><path d="M16.73242,22.73242a2.5,2.5,0,1,0,3.53516,0A2.48107,2.48107,0,0,0,16.73242,22.73242Zm2.82813,2.82813a1.5353,1.5353,0,0,1-2.12109,0,1.48767,1.48767,0,0,1,1.696-2.40308l-0.282.282a0.49995,0.49995,0,1,0,.707.707l0.28931-.28931A1.48205,1.48205,0,0,1,19.56055,25.56055Z" fill="#231f20"/><path d="M12.5,27h2a0.49971,0.49971,0,0,0,.5-0.5v-4a0.49971,0.49971,0,0,0-.5-0.5h-2a0.49971,0.49971,0,0,0-.5.5v4A0.49971,0.49971,0,0,0,12.5,27ZM14,23v1.5H13V23h1Z" fill="#231f20"/></svg>