<svg class="kamp-icons-sprite" xmlns="http://www.w3.org/2000/svg">
<symbol id="backpack" viewBox="0 0 32 32"><title>kamp</title><path d="M27.97461,28.3418l-1-3A0.501,0.501,0,0,0,26.5,25H26V24.5a0.49971,0.49971,0,0,0-.5-0.5H25V23h1.5a0.49971,0.49971,0,0,0,.5-0.5v-3a2.50379,2.50379,0,0,0-2-2.4494V16h1.5a0.49971,0.49971,0,0,0,.5-0.5v-5a2.50379,2.50379,0,0,0-2-2.4494V5.5a0.47233,0.47233,0,0,0-.01373-0.06824,0.40615,0.40615,0,0,0-.07532-0.20032,0.47643,0.47643,0,0,0-.02423-0.04834C24.8819,5.17725,24.87421,5.175,24.86914,5.16937A0.49534,0.49534,0,0,0,24.5,5H24.15039V2.5a1.50164,1.50164,0,0,0-1.5-1.5H9.34961a1.50164,1.50164,0,0,0-1.5,1.5V5H7.5a0.57038,0.57038,0,0,0-.36914.16937C7.12579,5.175,7.1181,5.17725,7.11328,5.18311a0.47643,0.47643,0,0,0-.02423.04834,0.40615,0.40615,0,0,0-.07532.20032A0.47233,0.47233,0,0,0,7,5.5V8.0506A2.50379,2.50379,0,0,0,5,10.5v5a0.49971,0.49971,0,0,0,.5.5H7v1.0506A2.50379,2.50379,0,0,0,5,19.5v3a0.49971,0.49971,0,0,0,.5.5H7v1H6.5a0.46967,0.46967,0,0,0-.05914.0119,0.47264,0.47264,0,0,0-.1264.02374l-0.00391.00256a0.49217,0.49217,0,0,0-.126.0824c-0.01147.00946-.02686,0.01477-0.03729,0.02515a28.84277,28.84277,0,0,0-.10687.1579,0.51392,0.51392,0,0,0-.01276.059,0.49075,0.49075,0,0,0-.02661.13208L6,24.5V25H4.5a0.50063,0.50063,0,0,0-.47461.6582l1,3A0.501,0.501,0,0,0,5.5,29H6v0.5a0.49971,0.49971,0,0,0,.5.5H10v0.5a0.49971,0.49971,0,0,0,.5.5h2a0.49971,0.49971,0,0,0,.5-0.5V30h6v0.5a0.49971,0.49971,0,0,0,.5.5h2a0.49971,0.49971,0,0,0,.5-0.5V30h3.5a0.497,0.497,0,0,0,.18555-0.03564l0.00391-.00256a0.49217,0.49217,0,0,0,.126-0.0824c0.01147-.00946.02686-0.01477,0.03729-0.02515a28.84318,28.84318,0,0,0,.10687-0.1579,0.51392,0.51392,0,0,0,.01276-0.059,0.49075,0.49075,0,0,0,.02661-0.13208L26,29.5V29h1.5A0.50063,0.50063,0,0,0,27.97461,28.3418ZM8.16193,25l1.2,3H8.43811l-1.2-3H8.16193ZM10,25v1.90479L9.2381,25H10Zm12-4v2.5a0.49971,0.49971,0,0,0-.5-0.5h-2a0.49971,0.49971,0,0,0-.5.5V24H13V23.5a0.49971,0.49971,0,0,0-.5-0.5h-2a0.49971,0.49971,0,0,0-.5.5V21H22ZM10.08594,20A1.50151,1.50151,0,0,1,11.5,19h9a1.50151,1.50151,0,0,1,1.41406,1H10.08594ZM25,25v1.90479L24.2381,25H25Zm-1.83807,0,1.2,3H23.43811l-1.2-3h0.92383ZM19,26.18945L18.52423,25H19v1.18945ZM20,24h1v1H20V24Zm-9,0h1v1H11V24Zm2,1h0.73322l1.2,3H14.152l-1.08856-2.72168A0.48137,0.48137,0,0,0,13,25.18134V25Zm1.80939,0h0.78125l1.2,3H16.0094ZM11,26h1v3H11V26Zm2,1.8103L13.07587,28H13V27.8103ZM16.66681,25h0.78125l1.2,3H17.86682Zm3.4574,4L20,28.68945V26h1v3H20.12421ZM22,27.09521L22.36194,28H22V27.09521ZM22.08984,15H9.91016L8.11035,6h15.7793ZM6,20H7v1H6V20Zm0-9H7v3H6V11ZM21,5H11V4H21V5Zm4,6h1v3H25V11Zm0,9h1v1H25V20Zm0.90881-1H25V18.08545A1.50484,1.50484,0,0,1,25.90881,19Zm0-9H25V9.08545A1.50484,1.50484,0,0,1,25.90881,10ZM8.84961,2.5a0.50065,0.50065,0,0,1,.5-0.5H22.65039a0.50065,0.50065,0,0,1,.5.5V5H22V3.5A0.49971,0.49971,0,0,0,21.5,3h-11a0.49971,0.49971,0,0,0-.5.5V5H8.84961V2.5ZM7,9.08545V10H6.09119A1.50484,1.50484,0,0,1,7,9.08545Zm0,9V19H6.09119A1.50484,1.50484,0,0,1,7,18.08545ZM8,22.5V10.54932l1.00977,5.04883a0.49162,0.49162,0,0,0,.12415.23181c0.00616,0.0069.006,0.017,0.01257,0.02356l1,1A0.49964,0.49964,0,0,0,10.5,17h11a0.49964,0.49964,0,0,0,.35352-0.14648l1-1c0.00653-.00659.00641-0.01666,0.01257-0.02356a0.49162,0.49162,0,0,0,.12415-0.23181L24,10.54932V24H23V20.5A2.50263,2.50263,0,0,0,20.5,18h-9A2.50263,2.50263,0,0,0,9,20.5V24H8V22.5ZM5.86035,28l-0.667-2H6v2H5.86035ZM7,28.5V27.09521L7.7619,29H7V28.5ZM26,28V26h0.13965l0.667,2H26Z" fill="#231f20"/><path d="M19.5,9h-7a0.49971,0.49971,0,0,0-.5.5v3a0.49971,0.49971,0,0,0,.5.5h7a0.48635,0.48635,0,0,0,.24792-0.07507,0.46514,0.46514,0,0,0,.05029-0.03394,0.49316,0.49316,0,0,0,.163-0.19879l0.00067-.00079,0.00049-.00476A0.4973,0.4973,0,0,0,20,12.5v-3A0.49971,0.49971,0,0,0,19.5,9ZM13,10h6v1.293l-1.14648-1.14648a0.49982,0.49982,0,0,0-.707,0L15.5,11.793l-0.64648-.64648a0.49982,0.49982,0,0,0-.707,0L13.293,12H13V10Z" fill="#231f20"/>
</symbol>
<symbol id="binoculars" viewBox="0 0 32 32"><title>kamp</title><path d="M28.97614,18.129c-0.0047-.04486-0.00824-0.0899-0.01459-0.1344a4.32705,4.32705,0,0,0-.36682-1.48047L24.78711,8.29,24.77917,8.2793l-0.00281-.00977a4.71,4.71,0,0,0-.99164-1.32709A2.338,2.338,0,0,0,21.208,5a2.42124,2.42124,0,0,0-2.54614,1.70819A2.38367,2.38367,0,0,0,17.654,8H14.346a2.38367,2.38367,0,0,0-1.00787-1.29181A2.42124,2.42124,0,0,0,10.792,5,2.35088,2.35088,0,0,0,8.22089,6.89813,4.36535,4.36535,0,0,0,7.2168,8.2832l-0.00061.00232L7.21289,8.29,3.40625,16.51367a4.31746,4.31746,0,0,0-.36768,1.48041c-0.00641.04492-.01007,0.09027-0.01477,0.13556C3.02008,18.20337,3,18.27435,3,18.34863V21.5A5.61322,5.61322,0,0,0,8.708,27a5.61408,5.61408,0,0,0,5.709-5.5V16.46057a2.59246,2.59246,0,0,0,3.166,0V21.5A5.71245,5.71245,0,0,0,29,21.5V18.34863C29,18.27417,28.97986,18.203,28.97614,18.129Zm-0.99323.24524A5.8218,5.8218,0,0,0,18.6,18.37476C18.691,16.50421,20.75305,15,23.292,15,25.82977,15,27.89154,16.504,27.98291,18.37427ZM21.208,6c-0.10931,0-.21155.01526-0.31812,0.02148A2.37963,2.37963,0,0,1,21.208,6Zm-10.0979.02148C11.00354,6.01526,10.90131,6,10.792,6A2.37963,2.37963,0,0,1,11.11011,6.02148ZM8.708,15c2.53894,0,4.601,1.50421,4.692,3.37476a5.8218,5.8218,0,0,0-9.38287-.00049C4.10846,16.504,6.17023,15,8.708,15Zm0,11A4.61286,4.61286,0,0,1,4,21.5,4.61286,4.61286,0,0,1,8.708,17a4.6131,4.6131,0,0,1,4.709,4.5A4.6131,4.6131,0,0,1,8.708,26Zm8.875-13.46057a2.59246,2.59246,0,0,0-3.166,0v-1.038A1.93251,1.93251,0,0,1,16,11a1.93978,1.93978,0,0,1,1.583.5v1.03943ZM16,16a1.50218,1.50218,0,1,1,1.583-1.5A1.54479,1.54479,0,0,1,16,16Zm2.583-.5v-4c0-.86914-1.08594-1.5-2.583-1.5s-2.583.63086-2.583,1.5v4.46088A6.24716,6.24716,0,0,0,8.708,14a6.70555,6.70555,0,0,0-3.46875.93445L8.12109,8.71l0.00012-.00061A2.66558,2.66558,0,0,1,10.792,7c1.42285,0,2.625.687,2.625,1.5a0.49971,0.49971,0,0,0,.5.5h4.166a0.49971,0.49971,0,0,0,.5-0.5c0-.813,1.20215-1.5,2.625-1.5a2.78561,2.78561,0,0,1,2.67554,1.72l2.87793,6.21484A6.70579,6.70579,0,0,0,23.292,14a6.24716,6.24716,0,0,0-4.709,1.96088V15.5ZM23.292,26a4.6131,4.6131,0,0,1-4.709-4.5A4.71333,4.71333,0,0,1,28,21.5,4.61286,4.61286,0,0,1,23.292,26Z" fill="#231f20"/><path d="M8.75,17.5a4.13522,4.13522,0,0,0-4.25,4,4.13522,4.13522,0,0,0,4.25,4,4.13522,4.13522,0,0,0,4.25-4A4.13522,4.13522,0,0,0,8.75,17.5Zm0,7a3.13605,3.13605,0,0,1-3.25-3c0-1.084,1.48828-2,3.25-2S12,20.416,12,21.5A3.13605,3.13605,0,0,1,8.75,24.5Z" fill="#231f20"/><path d="M23.25,17.5a4.13522,4.13522,0,0,0-4.25,4,4.13522,4.13522,0,0,0,4.25,4,4.13522,4.13522,0,0,0,4.25-4A4.13522,4.13522,0,0,0,23.25,17.5Zm0,7a3.13605,3.13605,0,0,1-3.25-3c0-1.084,1.48828-2,3.25-2s3.25,0.916,3.25,2A3.13605,3.13605,0,0,1,23.25,24.5Z" fill="#231f20"/>
</symbol>
<symbol id="boot" viewBox="0 0 32 32"><title>kamp</title><path d="M29.92529,4.7373A0.50018,0.50018,0,0,0,29.5,4.5h-2A0.49971,0.49971,0,0,0,27,5V6H20V3.5A0.49971,0.49971,0,0,0,19.5,3h-2a0.49971,0.49971,0,0,0-.5.5v8c0,3.03174-4.23242,5.49707-6.99414,5.5H9.5A7.5082,7.5082,0,0,0,2,24.5v3a0.49971,0.49971,0,0,0,.5.5h1A0.49971,0.49971,0,0,0,4,27.5V27H5v0.5a0.49971,0.49971,0,0,0,.5.5h1A0.49971,0.49971,0,0,0,7,27.5V27H8v0.5a0.49971,0.49971,0,0,0,.5.5h1a0.49971,0.49971,0,0,0,.5-0.5V27h1v0.5a0.49971,0.49971,0,0,0,.5.5h1a0.49971,0.49971,0,0,0,.5-0.5V27h1v0.5a0.49971,0.49971,0,0,0,.5.5h1a0.49971,0.49971,0,0,0,.5-0.5V27h1v0.5a0.49971,0.49971,0,0,0,.5.5h1a0.49971,0.49971,0,0,0,.5-0.5V27h1v0.5a0.49971,0.49971,0,0,0,.5.5h1a0.49971,0.49971,0,0,0,.5-0.5V27h1v0.5a0.49971,0.49971,0,0,0,.5.5h1a0.49971,0.49971,0,0,0,.5-0.5V27h1v0.5a0.49971,0.49971,0,0,0,.5.5h1a0.49971,0.49971,0,0,0,.5-0.5V9.11816l1.94727-3.89453A0.49887,0.49887,0,0,0,29.92529,4.7373ZM24.5,26H3V25H27v1H24.5ZM18,4h1V5H18V4ZM15.19043,18.69092a0.50212,0.50212,0,0,1,.46191.30664L15.8457,19.4585l-0.92236.38672L14.73,19.38428A0.50017,0.50017,0,0,1,15.19043,18.69092ZM11.5,19a0.50034,0.50034,0,0,1,.5.5V20H11V19.5A0.50034,0.50034,0,0,1,11.5,19Zm-2-1h0.50635A6.46144,6.46144,0,0,0,11,17.90942V18.0921A1.49758,1.49758,0,0,0,10,19.5v1a0.49971,0.49971,0,0,0,.5.5h2a0.49971,0.49971,0,0,0,.5-0.5v-1a1.49758,1.49758,0,0,0-1-1.4079V17.68823a10.26305,10.26305,0,0,0,1.73254-.68109l0.45538,1.08514a1.45579,1.45579,0,0,0-.37982,1.67871l0.38672,0.92236a0.49937,0.49937,0,0,0,.6543.26758l1.84424-.77393a0.49958,0.49958,0,0,0,.26758-0.6543l-0.38672-.92187a1.48319,1.48319,0,0,0-1.46753-.91266L14.61182,16.5188a9.52075,9.52075,0,0,0,1.31738-.99121l0.93286,1.01678a1.491,1.491,0,0,0,.20874,1.7066l0.67627,0.73682a0.49967,0.49967,0,0,0,.70605.03076l1.47363-1.35205A0.50016,0.50016,0,0,0,19.95752,16.96l-0.67578-.73682a1.48981,1.48981,0,0,0-1.041-.48486,1.475,1.475,0,0,0-.65.12091l-0.95953-1.04578a6.16886,6.16886,0,0,0,.89618-1.33075l1.15466,0.54187a1.48091,1.48091,0,0,0,.85114,1.5033l0.90527,0.4248a0.5,0.5,0,0,0,.665-0.24023l0.84912-1.81055a0.5,0.5,0,0,0-.24023-0.665l-0.90527-.4248a1.45659,1.45659,0,0,0-1.69354.31036l-1.2536-.5882A4.29176,4.29176,0,0,0,18,11.5V11h1.0921A1.49758,1.49758,0,0,0,20.5,12h1a0.49971,0.49971,0,0,0,.5-0.5v-2A0.49971,0.49971,0,0,0,21.5,9h-1a1.49758,1.49758,0,0,0-1.4079,1H18V8h9V24H3.019A6.50864,6.50864,0,0,1,9.5,18Zm8.67529-1.26318,0.022,0.00049a0.49636,0.49636,0,0,1,.34717.16162l0.33789,0.36865-0.73682.67578-0.33789-.36816a0.50164,0.50164,0,0,1,.03076-0.707A0.49584,0.49584,0,0,1,18.17529,16.73682Zm1.54181-2.77863,0.00018-.00018,0.00018-.00073a0.4999,0.4999,0,0,1,.66486-0.24l0.45264,0.2124-0.42432.90527-0.45312-.2124A0.49984,0.49984,0,0,1,19.7171,13.95819ZM20,10.5a0.50034,0.50034,0,0,1,.5-0.5H21v1H20.5A0.50034,0.50034,0,0,1,20,10.5Zm8-3.61816V5.5h0.69092Z" fill="#231f20"/>
</symbol>
<symbol id="cabin" viewBox="0 0 32 32"><title>kamp</title><path d="M30.71143,10.04688l-15-7a0.50005,0.50005,0,0,0-.43506.00586L10,5.69092V2.5A0.49971,0.49971,0,0,0,9.5,2h-5a0.49971,0.49971,0,0,0-.5.5V8.69092L1.27637,10.05273A0.5002,0.5002,0,0,0,1,10.5v3a0.50019,0.50019,0,0,0,.72363.44727L4,12.809V14H3.5a0.49971,0.49971,0,0,0-.5.5v3a0.49971,0.49971,0,0,0,.5.5H4v2H3.5a0.49971,0.49971,0,0,0-.5.5v3a0.49971,0.49971,0,0,0,.5.5H4v2H3.5a0.49971,0.49971,0,0,0-.5.5v3a0.49971,0.49971,0,0,0,.5.5h25a0.49971,0.49971,0,0,0,.5-0.5v-1a0.49971,0.49971,0,0,0-.5-0.5H28V27h0.5a0.49971,0.49971,0,0,0,.5-0.5v-3a0.49971,0.49971,0,0,0-.5-0.5H28V21h0.5a0.49971,0.49971,0,0,0,.5-0.5v-3a0.49971,0.49971,0,0,0-.5-0.5H28V15h0.5a0.49971,0.49971,0,0,0,.5-0.5V13.35181l1.28857,0.60132A0.49991,0.49991,0,0,0,31,13.5v-3A0.49946,0.49946,0,0,0,30.71143,10.04688ZM5,3H6V4H5V3ZM5,7.5H5.8335a0.49971,0.49971,0,0,0,.5-0.5V6.5a0.49971,0.49971,0,0,0-.5-0.5H5V5H6.5A0.49971,0.49971,0,0,0,7,4.5V3H9V4H8.5a0.49971,0.49971,0,0,0-.5.5v1a0.49971,0.49971,0,0,0,.5.5H9V6.19092l-4,2V7.5ZM18,28V17h5v6H22.5a0.5,0.5,0,0,0,0,1H23v4H18Zm6.6535-2.96906A0.48936,0.48936,0,0,0,24.5,25H24V24h0.071a1.991,1.991,0,0,0,.62,1C24.67877,25.01062,24.66547,25.02,24.6535,25.03094Zm0-3A0.48936,0.48936,0,0,0,24.5,22H24V21h0.071a1.991,1.991,0,0,0,.62,1C24.67877,22.01062,24.66547,22.02,24.6535,22.03094Zm0-3A0.48936,0.48936,0,0,0,24.5,19H24V18h0.071a1.991,1.991,0,0,0,.62,1C24.67877,19.01062,24.66547,19.02,24.6535,19.03094Zm0-3A0.48936,0.48936,0,0,0,24.5,16H7.5a0.48936,0.48936,0,0,0-.1535.03094C7.33453,16.02,7.32123,16.01062,7.309,16a1.991,1.991,0,0,0,.62-1H24.071a1.991,1.991,0,0,0,.62,1C24.67877,16.01062,24.66547,16.02,24.6535,16.03094ZM6,25.5a1,1,0,1,1-1,1A1.0013,1.0013,0,0,1,6,25.5ZM9,21h5v1H9V21Zm6,0h2v1H15V21Zm0-2V18h2v1H15Zm-1,1H9V17h5v3ZM7.929,18H8v1H7.5a0.48936,0.48936,0,0,0-.1535.03094C7.33453,19.02,7.32123,19.01062,7.309,19A1.991,1.991,0,0,0,7.929,18Zm0,3H8v1H7.5a0.48936,0.48936,0,0,0-.1535.03094C7.33453,22.02,7.32123,22.01062,7.309,22A1.991,1.991,0,0,0,7.929,21Zm0,3H17v1H7.5a0.48936,0.48936,0,0,0-.1535.03094C7.33453,25.02,7.32123,25.01062,7.309,25A1.991,1.991,0,0,0,7.929,24ZM24.6535,13.03094A0.48936,0.48936,0,0,0,24.5,13V12.20428l0.87726,0.40491A1.98992,1.98992,0,0,0,24.6535,13.03094ZM23.5,13h-1V11.28125l1,0.46155V13Zm-2,0h-1V10.35822l1,0.46155V13Zm-2,0h-1V9.43518l1,0.46155V13Zm-2,0h-1V8.51215l1,0.46155V13Zm-2,0h-1V8.55908l1-.5V13Zm-2,0h-1V9.55908l1-.5V13Zm-2,0h-1V10.55908l1-.5V13Zm-2,0h-1V11.55908l1-.5V13Zm-2,0a0.48936,0.48936,0,0,0-.1535.03094,1.98936,1.98936,0,0,0-.86121-0.46454L7.5,12.05908V13ZM25,14.5a0.99976,0.99976,0,0,1,1.99951-.00244v0.00488A0.99976,0.99976,0,0,1,25,14.5Zm-20,0a1,1,0,1,1,1,1A1.0013,1.0013,0,0,1,5,14.5Zm2,3a1,1,0,1,1-1-1A1.0013,1.0013,0,0,1,7,17.5Zm-2,3a1,1,0,1,1,1,1A1.0013,1.0013,0,0,1,5,20.5Zm2,3a1,1,0,1,1-1-1A1.0013,1.0013,0,0,1,7,23.5ZM7.309,28a1.991,1.991,0,0,0,.62-1H17v1H7.309ZM24,27h0.071a1.991,1.991,0,0,0,.62,1H24V27Zm2.99976-.50122L26.99951,26.5l0.00024,0.00122A1,1,0,1,1,26.99976,26.49878ZM25,23.5a1,1,0,1,1,1,1A1.0013,1.0013,0,0,1,25,23.5Zm1.99976-3.00122L26.99951,20.5l0.00024,0.00122A1,1,0,1,1,26.99976,20.49878ZM25,17.5a1,1,0,1,1,1,1A1.0013,1.0013,0,0,1,25,17.5ZM4,15H4.071a1.991,1.991,0,0,0,.62,1,1.991,1.991,0,0,0-.62,1H4V15Zm0,6H4.071a1.991,1.991,0,0,0,.62,1,1.991,1.991,0,0,0-.62,1H4V21Zm0,6H4.071a1.991,1.991,0,0,0,.62,1H4V27Zm24-1H27.929a1.991,1.991,0,0,0-.62-1,1.991,1.991,0,0,0,.62-1H28v2Zm0-6H27.929a1.991,1.991,0,0,0-.62-1,1.991,1.991,0,0,0,.62-1H28v2Zm2-7.28516-14.28857-6.668a0.5004,0.5004,0,0,0-.43506.00586L2,12.69092V10.80908L4.72345,9.44733l0.00018-.00006,5-2.5L9.724,6.947l5.78333-2.89178L30,10.81836v1.89648Z" fill="#231f20"/><path d="M22,18.5a0.49971,0.49971,0,0,0-.5-0.5h-2a0.49971,0.49971,0,0,0-.5.5v2a0.49971,0.49971,0,0,0,.5.5h2a0.49971,0.49971,0,0,0,.5-0.5v-2ZM21,20H20V19h1v1Z" fill="#231f20"/>
</symbol>
<symbol id="cactus" viewBox="0 0 32 32"><title>kamp</title><path d="M5.1499,29.1499A0.5003,0.5003,0,0,0,5.5,30a0.40888,0.40888,0,0,0,.18994-0.04,0.35028,0.35028,0,0,0,.15967-0.11035,0.48213,0.48213,0,0,0,0-.69971A0.50083,0.50083,0,0,0,5.1499,29.1499Z" fill="#231f20"/><path d="M23.5,16a0.49971,0.49971,0,0,0,.5-0.5v-1a0.5,0.5,0,0,0-1,0v1A0.49971,0.49971,0,0,0,23.5,16Z" fill="#231f20"/><path d="M9,9.5v2a0.5,0.5,0,0,0,1,0v-2A0.5,0.5,0,0,0,9,9.5Z" fill="#231f20"/><path d="M9.5,13a0.49971,0.49971,0,0,0-.5.5v1a0.5,0.5,0,0,0,1,0v-1A0.49971,0.49971,0,0,0,9.5,13Z" fill="#231f20"/><path d="M25.85352,12.85352a0.49995,0.49995,0,0,0-.707-0.707l-0.27.27A2.48324,2.48324,0,0,0,24,12.0506V11.5a0.5,0.5,0,0,0-1,0v0.5498A2.45875,2.45875,0,0,0,21.0415,14.5V15H20V11h0.5a0.5,0.5,0,0,0,0-1H20V9h0.5a0.5,0.5,0,0,0,0-1H19.94739a3.61348,3.61348,0,0,0-.62732-1.48578l0.56812-.69879a0.50018,0.50018,0,1,0-.77637-0.63086l-0.481.59161A3.37252,3.37252,0,0,0,17,5.05554V4.5a0.5,0.5,0,0,0-1,0V5.05029a3.53512,3.53512,0,0,0-1.03412.27448,0.49361,0.49361,0,0,0-.11237-0.17828l-0.40625-.40625a0.49995,0.49995,0,0,0-.707.707l0.40625,0.40625c0.006,0.006.01428,0.008,0.02057,0.01367a3.34742,3.34742,0,0,0-.551.63177l-0.89246-.44623a0.50006,0.50006,0,0,0-.44727.89453L13.1828,7.40045A3.65083,3.65083,0,0,0,13,8.5V13H12V9.5a2.504,2.504,0,0,0-2-2.4494V6.5a0.5,0.5,0,0,0-1,0V7.0506a2.48324,2.48324,0,0,0-.87646.36591l-0.27-.27a0.49995,0.49995,0,0,0-.707.707l0.27,0.27A2.48324,2.48324,0,0,0,7.0506,9H6.5a0.5,0.5,0,0,0,0,1H7v1H6.5a0.5,0.5,0,0,0,0,1H7v2.5A4.50492,4.50492,0,0,0,11.5,19H13v7H11.5a0.49964,0.49964,0,0,0-.35352.14648l-1,1a0.4999,0.4999,0,0,0-.09375.57715L10.5,28.61816V29H9.707l-0.85352-.85352a0.49982,0.49982,0,0,0-.707,0l-0.99939.99939a0.49538,0.49538,0,0,0-.12128.2262,0.44891,0.44891,0,0,0-.01294.06415A0.46654,0.46654,0,0,0,7,29.5a0.497,0.497,0,0,0,.0376.18658l0.00049,0.00482L7.03876,29.6922a0.49316,0.49316,0,0,0,.163.19879,0.46514,0.46514,0,0,0,.05029.03394A0.48635,0.48635,0,0,0,7.5,30h18a0.48635,0.48635,0,0,0,.24792-0.07507,0.46514,0.46514,0,0,0,.05029-0.03394,0.49316,0.49316,0,0,0,.163-0.19879l0.00067-.00079,0.00049-.00482A0.497,0.497,0,0,0,26,29.5a0.46654,0.46654,0,0,0-.01288-0.06378,0.44891,0.44891,0,0,0-.01294-0.06415,0.49538,0.49538,0,0,0-.12128-0.2262l-0.99939-.99939A0.49964,0.49964,0,0,0,24.5,28H23.30908l-0.36182-.72363A0.5002,0.5002,0,0,0,22.5,27H21.86017l0.114-.3418A0.49952,0.49952,0,0,0,21.5,26H20V21h1.5A4.50492,4.50492,0,0,0,26,16.5v-2a2.483,2.483,0,0,0-.4165-1.37646ZM14.27637,7.94727a0.50006,0.50006,0,0,0,.44727-0.89453l-0.1991-.09955A2.2766,2.2766,0,0,1,16,6.05377V6.5a0.5,0.5,0,0,0,1,0V6.05847A2.65366,2.65366,0,0,1,19,8.5v7c0,0.00861.00446,0.01569,0.00488,0.02417a1.14671,1.14671,0,0,0,.04053.17969,0.49857,0.49857,0,0,0,.09937.14746c0.00757,0.00763.018,0.01166,0.02606,0.0188a0.49513,0.49513,0,0,0,.10944.0791l2.0415,1A0.5,0.5,0,0,0,22.0415,16.5v-2A1.46381,1.46381,0,0,1,23.5,13a1.48248,1.48248,0,0,1,.64362.15082,0.49892,0.49892,0,0,0,.70557.70557A1.48248,1.48248,0,0,1,25,14.5v1A3.50425,3.50425,0,0,1,21.5,19h-2a0.49971,0.49971,0,0,0-.5.5V29H18.0415V24.5a0.5,0.5,0,0,0-1,0V29H16V28.5a0.49964,0.49964,0,0,0-.14648-0.35352L14,26.293V8.5a2.57305,2.57305,0,0,1,.09619-0.64282ZM13.71875,27.42578L14.293,28H13.52728ZM11,9.5v4a0.49971,0.49971,0,0,0,.5.5H13v3H11.5A3.50425,3.50425,0,0,1,8,13.5v-4a1.48248,1.48248,0,0,1,.15082-0.64362,0.49893,0.49893,0,0,0,.70557-0.70557A1.48248,1.48248,0,0,1,9.5,8,1.50164,1.50164,0,0,1,11,9.5ZM11.707,27h1.09943l-0.33331,1H11.30908l-0.20068-.40137Zm9.09912,0L20.4729,28H20V27h0.80615Z" fill="#231f20"/><path d="M15.5,13.5A0.49971,0.49971,0,0,0,16,13V8.5a0.5,0.5,0,0,0-1,0V13A0.49971,0.49971,0,0,0,15.5,13.5Z" fill="#231f20"/><path d="M15.5,16.5A0.49971,0.49971,0,0,0,16,16V14.5a0.5,0.5,0,0,0-1,0V16A0.49971,0.49971,0,0,0,15.5,16.5Z" fill="#231f20"/><path d="M15.5,21.4165a0.49971,0.49971,0,0,0,.5-0.5V17.5a0.5,0.5,0,0,0-1,0v3.4165A0.49971,0.49971,0,0,0,15.5,21.4165Z" fill="#231f20"/><path d="M15.5,23.9585a0.49971,0.49971,0,0,0,.5-0.5v-1a0.5,0.5,0,1,0-1,0v1A0.49971,0.49971,0,0,0,15.5,23.9585Z" fill="#231f20"/><path d="M15.5,26.9165a0.49971,0.49971,0,0,0,.5-0.5V25a0.5,0.5,0,0,0-1,0v1.4165A0.49971,0.49971,0,0,0,15.5,26.9165Z" fill="#231f20"/><path d="M17.5415,12a0.49971,0.49971,0,0,0,.5-0.5v-2a0.5,0.5,0,0,0-1,0v2A0.49971,0.49971,0,0,0,17.5415,12Z" fill="#231f20"/><path d="M17.5415,18a0.49971,0.49971,0,0,0,.5-0.5v-4a0.5,0.5,0,0,0-1,0v4A0.49971,0.49971,0,0,0,17.5415,18Z" fill="#231f20"/><path d="M17.5415,22.9585a0.49971,0.49971,0,0,0,.5-0.5V19.5a0.5,0.5,0,0,0-1,0v2.9585A0.49971,0.49971,0,0,0,17.5415,22.9585Z" fill="#231f20"/>
</symbol>
<symbol id="camera" viewBox="0 0 32 32"><title>kamp</title><path d="M29,6.0921V4.5A0.49971,0.49971,0,0,0,28.5,4h-4a0.49971,0.49971,0,0,0-.5.5V6H12V4.5A0.49971,0.49971,0,0,0,11.5,4h-1a0.49971,0.49971,0,0,0-.5.5V6H9V4.5A0.49971,0.49971,0,0,0,8.5,4H8V3.5A0.49971,0.49971,0,0,0,7.5,3h-2a0.49971,0.49971,0,0,0-.5.5V4H4.5a0.49971,0.49971,0,0,0-.5.5V6.0921A1.49758,1.49758,0,0,0,3,7.5H2.5a1.5,1.5,0,0,0,0,3H3v16A1.48344,1.48344,0,0,0,4.46289,28H28.53711A1.48344,1.48344,0,0,0,30,26.5V7.5A1.49758,1.49758,0,0,0,29,6.0921ZM25,5h3V6H25V5ZM5,5H5.5A0.49971,0.49971,0,0,0,6,4.5V4H7V4.5a0.49971,0.49971,0,0,0,.5.5H8V6H5V5ZM2.5,9.5a0.5,0.5,0,0,1,0-1H3v1H2.5ZM4,22V13H5V24H4.5A0.50034,0.50034,0,0,1,4,23.5V22Zm3-9v2.02032a0.4954,0.4954,0,0,0-.37451.38153L6.061,18.2251A1.463,1.463,0,0,0,7,19.89893V24H6V13H7Zm2,0V24H8V19.90985a1.46266,1.46266,0,0,0,.9707-1.68475L8.40625,15.40186A0.49491,0.49491,0,0,0,8,15.01477V13H9Zm2,0V24H10V13h1Zm14,0V24H24V13h1Zm2,0V24H26V13h1Zm-8,9.65V24H18V22.90967A5.936,5.936,0,0,0,19,22.65ZM17,23v1H16V22.90967A5.98827,5.98827,0,0,0,17,23Zm3,1V22.18823a6.02348,6.02348,0,0,0,1-.7287V24H20Zm-5-1.35V24H14V22.18823A5.96883,5.96883,0,0,0,15,22.65ZM22,24V20.5a0.48667,0.48667,0,0,0-.029-0.14368A5.966,5.966,0,0,0,23,17v7H22Zm-9-2.54047V24H12V20.30957A6.03907,6.03907,0,0,0,13,21.45953ZM4.46289,25c-0.01135,0-.02081-0.0061-0.032-0.007C4.45428,24.99414,4.47632,25,4.5,25H4.46289Zm24.07422,0H28.5c0.02368,0,.04572-0.00586.06909-0.007C28.55792,24.9939,28.54846,25,28.53711,25ZM23,14.5a0.49521,0.49521,0,0,0-.04486-0.203A5.9433,5.9433,0,0,0,22.65,13H23v1.5ZM22,15a5,5,0,1,1-5-5A5.00589,5.00589,0,0,1,22,15ZM7.51611,16.04883l0.47412,2.37256a0.47637,0.47637,0,0,1-.1001.40137,0.48378,0.48378,0,0,1-.84863-0.40137ZM29,21v2.5a0.50034,0.50034,0,0,1-.5.5H28V13h1v8Zm-6.81177-9a5.98629,5.98629,0,0,0-10.37646,0H4V7.5A0.50034,0.50034,0,0,1,4.5,7h24a0.50034,0.50034,0,0,1,.5.5V12H22.18823Z" fill="#231f20"/><path d="M17,10.5A4.5,4.5,0,1,0,21.5,15,4.50492,4.50492,0,0,0,17,10.5Zm0,8A3.50425,3.50425,0,0,1,13.5,15a3.54167,3.54167,0,0,1,7,0A3.50425,3.50425,0,0,1,17,18.5Z" fill="#231f20"/><path d="M7.5,8A1.5,1.5,0,1,0,9,9.5,1.50164,1.50164,0,0,0,7.5,8Zm0,2A0.5,0.5,0,1,1,8,9.5,0.50034,0.50034,0,0,1,7.5,10Z" fill="#231f20"/><path d="M27.5,8h-4a0.49971,0.49971,0,0,0-.5.5v2a0.49971,0.49971,0,0,0,.5.5h4a0.49971,0.49971,0,0,0,.5-0.5v-2A0.49971,0.49971,0,0,0,27.5,8ZM27,10H24V9h3v1Z" fill="#231f20"/><path d="M14.70508,13.64648a0.49995,0.49995,0,0,0,.707.707,2.24919,2.24919,0,0,1,3.17578,0,0.49995,0.49995,0,0,0,.707-0.707A3.24882,3.24882,0,0,0,14.70508,13.64648Z" fill="#231f20"/>
</symbol>
<symbol id="campfire" viewBox="0 0 32 32"><title>kamp</title><path d="M13.7959,21.98828L9.19189,23.938a0.5,0.5,0,1,0,.38965.9209l4.604-1.94971A0.5,0.5,0,0,0,13.7959,21.98828Z" fill="#231f20"/><path d="M13.65527,24.21973l-2.7627,1.16992a0.5,0.5,0,1,0,.38965.9209l2.7627-1.16992A0.5,0.5,0,1,0,13.65527,24.21973Z" fill="#231f20"/><path d="M19.71094,20.56885l-3.68359,1.56006a0.5,0.5,0,1,0,.38965.9209l3.68359-1.56006A0.5,0.5,0,1,0,19.71094,20.56885Z" fill="#231f20"/><path d="M18.20508,20.07764a0.49819,0.49819,0,0,0,.19482-0.03955l4.604-1.9502a0.5,0.5,0,1,0-.38965-0.9209l-4.604,1.9502A0.5,0.5,0,0,0,18.20508,20.07764Z" fill="#231f20"/><path d="M23.394,19.00879l-1.8418.78027a0.5,0.5,0,1,0,.38965.9209l1.8418-.78027A0.5,0.5,0,0,0,23.394,19.00879Z" fill="#231f20"/><path d="M27.20117,22.54053a1.17661,1.17661,0,0,0-.28174-0.06,0.49147,0.49147,0,0,0-.17871-0.13483l-0.48431-.20508,0.90277-.38232a1.48517,1.48517,0,0,0,.91309-1.27539,7.14149,7.14149,0,0,0-.70544-3.57141c-0.00238-.01514-0.00531-0.03-0.00916-0.045a10.72862,10.72862,0,0,0-1.551-9.67993,0.50026,0.50026,0,0,0-.88574.376c0.00354,0.02979.31122,2.71918-1.24829,4.12823a8.11835,8.11835,0,0,0-3.14624-6.57941,0.5,0.5,0,0,0-.81445.37549,5.23634,5.23634,0,0,1-.56152,2.34375,5.36676,5.36676,0,0,1-2.17871-3.6792A13.89245,13.89245,0,0,1,16.958,1.7002a0.49976,0.49976,0,0,0-.75-0.606l-0.00049.00049A15.54083,15.54083,0,0,0,10.253,8.65283,9.725,9.725,0,0,1,8.91455,4.45215a0.5,0.5,0,0,0-.377-0.4375,0.50831,0.50831,0,0,0-.53809.21C4.71826,9.20068,6.13336,13.08624,6.75977,14.34155a7.04168,7.04168,0,0,0-2.832,6.14136,1.48517,1.48517,0,0,0,.91309,1.27539l0.90277,0.38226-0.48431.20514a0.48975,0.48975,0,0,0-.17926.13574,1.188,1.188,0,0,0-.28168.05908c-1.2085.51221-1.05615,2.6333-.28125,4.46338A6.991,6.991,0,0,0,6.001,29.27734a2.13859,2.13859,0,0,0,1.45264.72168l0.0127-.00134a0.49591,0.49591,0,0,0,.2832.09607,0.53474,0.53474,0,0,0,.0918-0.0083l11.58386-2.15027,4.19592,1.77722a0.49819,0.49819,0,0,0,.19482.03955c0.00867,0,.01569-0.00677.02429-0.0072a0.96665,0.96665,0,0,0,.70618.25427,2.13859,2.13859,0,0,0,1.45264-.72168,6.991,6.991,0,0,0,1.48389-2.27344C28.25781,25.17383,28.41016,23.05273,27.20117,22.54053Zm-3.40186,2.90332a6.51987,6.51987,0,0,0-.57324,3.01526l-4.67578-1.98053,1.76965-.74963,1.37341,0.5816a0.5,0.5,0,0,0,.38965-0.9209l-0.48114-.20374,3.07855-1.30408A7.97661,7.97661,0,0,0,23.79932,25.44385Zm-6.517.49762,0.0401-.017c-0.011.00616-.02032,0.0141-0.03064,0.021Zm9.79089-5.50836a0.48013,0.48013,0,0,1-.30371.4043l-1.9895.84265-0.00073.00012L15.80518,25.481l-0.00055.00049L8.77386,28.45923a6.51973,6.51973,0,0,0-.57318-3.01538,6.51592,6.51592,0,0,0-1.76581-2.51013l0.785-.33246,0.00079-.00018,3.78143-1.60175L24.4292,15.3125a0.47794,0.47794,0,0,1,.502.063,6.68564,6.68564,0,0,1,1.20673,1.38519l-2.21307.93756a0.5,0.5,0,1,0,.38965.9209L26.62,17.6424A6.25018,6.25018,0,0,1,27.07324,20.43311ZM25.88232,9.25488a9.79046,9.79046,0,0,1,.74622,6.47369,7.91428,7.91428,0,0,0-1.03821-1.105,1.48493,1.48493,0,0,0-1.55078-.23193l-0.82153.348a11.17453,11.17453,0,0,0,.37469-1.78162,0.47465,0.47465,0,0,0,.07379-0.02484A4.80494,4.80494,0,0,0,25.88232,9.25488ZM15.90479,2.583a17.31061,17.31061,0,0,0,.08154,1.73779C16.28955,6.085,17.2876,8.22705,19.1792,8.94727a0.50171,0.50171,0,0,0,.60254-0.2041,5.97117,5.97117,0,0,0,.834-2.20508c3.5871,3.63519,1.51465,8.386,1.35767,8.72864l-5.97314,2.52979-1.34357-.569a5.91448,5.91448,0,0,1-3.81-4.91943C10.4624,9.04053,12.33936,5.46484,15.90479,2.583ZM8.13721,5.95557A6.92155,6.92155,0,0,0,9.97046,9.77576a8.60855,8.60855,0,0,0-.11694,2.649,6.92861,6.92861,0,0,0,1.295,3.317l-3.259-1.38013A0.48571,0.48571,0,0,0,7.835,14.22559C7.81055,14.18848,5.62793,10.75928,8.13721,5.95557ZM5.23047,20.8374a0.48013,0.48013,0,0,1-.30371-0.4043,5.99783,5.99783,0,0,1,2.35889-5.24121l6.98816,2.95947,0.00208,0.001,0.00055,0.00012,0.44135,0.18689L11.35938,19.762l-1.77783-.75317a0.5,0.5,0,0,0-.38965.9209l0.88574,0.37524-0.50348.21326L7.0257,21.5976ZM5.438,26.61426c-0.72559-1.71387-.57373-3.01514-0.24951-3.15283a0.20982,0.20982,0,0,1,.083-0.01514c0.39355,0,1.33594.80029,2.0083,2.38721,0.72559,1.71387.57373,3.01514,0.24854,3.15283a1.04755,1.04755,0,0,1-.83447-0.43018A6.06205,6.06205,0,0,1,5.438,26.61426Zm21.124,0a6.06205,6.06205,0,0,1-1.25586,1.94189,1.04224,1.04224,0,0,1-.835.43018c-0.32471-.1377-0.47656-1.439.249-3.15283,0.72656-1.71582,1.76953-2.50732,2.09082-2.37207C27.13574,23.59912,27.2876,24.90039,26.562,26.61426Z" fill="#231f20"/><path d="M12.021,19a0.5,0.5,0,0,0,.19482-0.96045l-4.604-1.9502a0.5,0.5,0,0,0-.38965.9209l4.604,1.9502A0.49819,0.49819,0,0,0,12.021,19Z" fill="#231f20"/>
</symbol>
<symbol id="canoe" viewBox="0 0 32 32"><title>kamp</title><path d="M28.88965,11.1582l-0.00574-.00311a0.4586,0.4586,0,0,0-.25146-0.138c-0.0141-.00317-0.02673-0.00281-0.041-0.00476a0.49087,0.49087,0,0,0-.09827-0.01135,0.49734,0.49734,0,0,0-.17615.04572l-0.00549.00067-0.0011.001a0.49406,0.49406,0,0,0-.2016.18915,0.46173,0.46173,0,0,0-.02625.041,0.48881,0.48881,0,0,0-.05817.22144c0,1.68115-3.76172,2.498-11.5,2.498-9.04871,0-11.58026-1.16229-12.259-1.95239A1.48154,1.48154,0,0,1,4.02051,11.438a0.50369,0.50369,0,0,0-.10236-0.23871L3.898,11.17413A0.47461,0.47461,0,0,0,3.49316,11.001a0.479,0.479,0,0,0-.05646.01465,0.46317,0.46317,0,0,0-.06.01556,0.492,0.492,0,0,0-.199.1134l-0.0127.00726-0.00458.00543-0.00116.00128a6.33848,6.33848,0,0,0-1.49817,4.62268,6.99881,6.99881,0,0,0,.8493,3.22156A0.49868,0.49868,0,0,0,2.52441,20h27a0.49917,0.49917,0,0,0,.00836-0.99829,6.89618,6.89618,0,0,0,.80316-3.08325A6.65937,6.65937,0,0,0,28.88965,11.1582ZM3.72852,19a5.29819,5.29819,0,0,1-1.06836-3.25293c-0.00812-.23743.00494-0.4679,0.019-0.69763C4.29968,17.03088,8.86389,18,16.52539,18c7.07153,0,11.2608-.81262,12.80756-2.48022,0.00018,0.11926.00916,0.235,0.004,0.3562A5.12866,5.12866,0,0,1,28.31934,19H3.72852ZM3.33533,12.61145C4.4704,14.97247,8.55023,16,16.52344,16c6.75488,0,10.40723-.72412,11.84082-2.34814a2.70633,2.70633,0,0,0,.46179-0.758,5.08628,5.08628,0,0,1,.21222.53571,0.48109,0.48109,0,0,0-.00995.13245,1.50405,1.50405,0,0,1-.38965,1.2417C27.75391,15.80566,24.93457,17,16.52539,17,5.73145,17,3.22363,15.063,3.02051,13.438a0.44274,0.44274,0,0,0-.02063-0.05975A4.79823,4.79823,0,0,1,3.33533,12.61145Zm13.78754,2.38409c-0.08215.00055-.16315,0.00122-0.24591,0.00159-0.0307.00024-.06134-0.00067-0.092-0.00049,0.12366-.00031.24438-0.00116,0.3667-0.00189Z" fill="#231f20"/><path d="M8.52441,21h-5a0.5,0.5,0,1,0,0,1h5A0.5,0.5,0,0,0,8.52441,21Z" fill="#231f20"/><path d="M11.52441,22a0.5,0.5,0,0,0,0-1h-1a0.5,0.5,0,1,0,0,1h1Z" fill="#231f20"/><path d="M21.52441,21h-8a0.5,0.5,0,1,0,0,1h8A0.5,0.5,0,0,0,21.52441,21Z" fill="#231f20"/><path d="M28.52441,21h-5a0.5,0.5,0,1,0,0,1h5A0.5,0.5,0,0,0,28.52441,21Z" fill="#231f20"/><path d="M19.52441,23h-10a0.5,0.5,0,1,0,0,1h10A0.5,0.5,0,0,0,19.52441,23Z" fill="#231f20"/><path d="M25.52441,23h-3a0.5,0.5,0,1,0,0,1h3A0.5,0.5,0,0,0,25.52441,23Z" fill="#231f20"/>
</symbol>
<symbol id="canteen" viewBox="0 0 32 32"><title>kamp</title><path d="M19.97021,4.54926V2.50439a0.496,0.496,0,0,0-.04327-0.20062C19.71051,1.40979,18.10815,1,16.5,1s-3.21051.40979-3.42694,1.30377a0.496,0.496,0,0,0-.04327.20062V4.5849A11.63705,11.63705,0,0,0,5.10986,15.61865v2.95752a0.46766,0.46766,0,0,0,.012.05969A11.52947,11.52947,0,0,0,16.55518,30,11.52937,11.52937,0,0,0,27.988,18.63586,0.46766,0.46766,0,0,0,28,18.57617V15.61865A11.61232,11.61232,0,0,0,19.97021,4.54926ZM16.5,6.02246c-0.173,0-.33466-0.00641-0.49023-0.01556V3.99207c0.16284,0.00848.32611,0.01672,0.49023,0.01672,0.16394,0,.327-0.00824.48975-0.01672V6.00684C16.83429,6.016,16.67285,6.02246,16.5,6.02246Zm-2.47021-2.4173a4.88835,4.88835,0,0,0,.98.2724V5.87781a2.41857,2.41857,0,0,1-.98-0.35974V3.60516Zm3.96,0.27252a4.89209,4.89209,0,0,0,.98047-0.27252V5.47308a2.03371,2.03371,0,0,1-.98047.40137V3.87769ZM13.05267,5.63153a0.50089,0.50089,0,0,0,.02039.08716c0.14984,0.6189.959,1.00439,1.98511,1.18188a11.46555,11.46555,0,0,0-8.60767,6.057A10.60164,10.60164,0,0,1,13.05267,5.63153ZM16.55518,29a10.60645,10.60645,0,0,1,0-21.21045A10.60646,10.60646,0,0,1,16.55518,29ZM17.991,6.89111c1.00275-.18121,1.78857-0.56354,1.936-1.17242A0.50547,0.50547,0,0,0,19.95471,5.595a10.57434,10.57434,0,0,1,6.71191,7.37781A11.46432,11.46432,0,0,0,17.991,6.89111Z" fill="#231f20"/><path d="M16.438,8.4707a10.04368,10.04368,0,1,0,9.90527,10.043A9.986,9.986,0,0,0,16.438,8.4707ZM24.65314,22H8.25c-0.00885,0-.01624.00458-0.025,0.005a9.10138,9.10138,0,0,1-.66791-3.0116C7.56854,18.9942,7.57825,19,7.58984,19H25.319A9.09866,9.09866,0,0,1,24.65314,22ZM7.89044,16H24.986a9.08569,9.08569,0,0,1,.22223,1h-17.54A9.08569,9.08569,0,0,1,7.89044,16Zm-0.3006,2c-0.01111,0-.02039.00555-0.03131,0.00629l0.00061-.01245C7.56989,17.99451,7.579,18,7.58984,18ZM16.438,9.4707A8.91854,8.91854,0,0,1,24.64337,15H8.233A8.91782,8.91782,0,0,1,16.438,9.4707ZM11.44989,26h9.97632A8.77271,8.77271,0,0,1,11.44989,26ZM22.6286,25H10.25l-0.002.00037A9.0752,9.0752,0,0,1,8.71722,23H24.15912A9.07694,9.07694,0,0,1,22.6286,25Z" fill="#231f20"/>
</symbol>
<symbol id="carabiner" viewBox="0 0 32 32"><title>kamp</title><path d="M27.11639,24.57867c2.72247-3.34589.84558-6.9104-.86542-9.35553a1.43341,1.43341,0,0,0-1.544-.54645l-1.26459-1.26459-0.001-.00146-0.00146-.001L22.38037,12.3501l0.35352-.35352a0.49982,0.49982,0,0,0,0-.707L21.32031,9.87573,21.31982,9.875l-0.00073-.00049L19.90576,8.46094a0.49964,0.49964,0,0,0-.35352-0.14648,0.49437,0.49437,0,0,0-.30493.114,2.25749,2.25749,0,0,0-1.06763-1.3606A10.00174,10.00174,0,0,0,6.7923,8.14252a0.49685,0.49685,0,0,0-.17072.11041C6.54907,8.32538,6.49023,8.403,6.42169,8.477c-0.08154.07623-.16846,0.14447-0.24786,0.22369a6.45951,6.45951,0,0,0-1.72266,2.86279,6.7863,6.7863,0,0,0,1.71094,6.67578A6.70868,6.70868,0,0,0,7.25,19.11816l13.28662,6.67822a4.78418,4.78418,0,0,0,6.021-.59619c0.103-.103.18555-0.207,0.27917-0.31055,0.054-.04919.116-0.08514,0.16809-0.13721A0.4952,0.4952,0,0,0,27.11639,24.57867ZM23.68665,22.412a0.7791,0.7791,0,0,1-.985.02551L9.41553,15.75977A2.745,2.745,0,0,1,8.23438,12.981a3.03278,3.03278,0,0,1,1.02-1.68359l0.00586-.00342c0.16754-.148.35266-0.26556,0.52942-0.39813a5.8766,5.8766,0,0,1,3.58191-1.12189,5.95192,5.95192,0,0,1,3.2323,1.04218L16.72369,10.936l-0.35358.35358a0.49982,0.49982,0,0,0,0,.707l2.82861,2.82813a0.49982,0.49982,0,0,0,.707,0l0.35352-.35352,2.56714,2.56714a1.42542,1.42542,0,0,0,.2019.5603l0.05762,0.08594c1.47559,2.20856,2.06793,3.2572.6402,4.68494C23.71106,22.38452,23.702,22.39685,23.68665,22.412ZM17.07721,9.16791L17.07727,9.168a0.5,0.5,0,0,0,.70709,0h0l0.35376,0.35352-0.6322.6322a4.7602,4.7602,0,0,0-.70331-0.71124Zm6.56635,7.2735-1.26312-1.26312,0.70715-.70691,1.06073,1.06073a0.49995,0.49995,0,0,0,.707.707L25.209,16.59277l-0.707.707Zm-1.263-2.67706-0.70715.70691-0.70709-.70709,0.707-.707Zm-1.06073-1.76776-1.41406,1.41406-0.35352.35352-0.70715-.707,2.12109-2.12146,0.70715,0.70734Zm-1.06061-1.76794L18.138,12.35022l-0.70734-.70715,0.35352-.35352L19.19873,9.875l0.35352-.35352ZM13.43164,6.77441a9.027,9.027,0,0,1,3.751.89893,0.49985,0.49985,0,0,0-.10547.08057l-1.1167,1.1167A4.09985,4.09985,0,0,0,13.791,8.33643a8.58291,8.58291,0,0,0-4.686,1.79529c-0.14874.10931-.29559,0.22174-0.436,0.34338-0.02417.02094-.04205,0.04449-0.06567,0.06567l-0.00513.00415-0.00293.00391A3.993,3.993,0,0,0,7.248,12.81494a3.74815,3.74815,0,0,0,1.66553,3.80762L22.2002,23.30029a1.748,1.748,0,0,0,1.99695-.04559,0.50036,0.50036,0,0,0,.172-0.1087l0.02106-.022,0.0014-.001,0.00574-.00653c1.98608-1.96649,1.75922-3.27655.64807-4.94611l1.16748-1.16748c1.76788,2.99164,1.70288,5.21277-.12738,7.22034a3.80005,3.80005,0,0,1-4.59967.26306L8.19922,17.80811a5.76365,5.76365,0,0,1-2.33545-6.42822A5.35464,5.35464,0,0,1,7.1319,9.18073a8.92283,8.92283,0,0,1,6.11322-2.40826C13.30713,6.77246,13.36963,6.77295,13.43164,6.77441Z" fill="#231f20"/>
</symbol>
<symbol id="coffee-pot" viewBox="0 0 32 32"><title>kamp</title><path d="M24.4585,8H20.9494A2.504,2.504,0,0,0,18.5,6H18.48975A2.51276,2.51276,0,0,0,17.5,5.22516V5a2,2,0,0,0-4,0V5.22516A2.51276,2.51276,0,0,0,12.51025,6H12.5a2.504,2.504,0,0,0-2.4494,2H6.5a0.50019,0.50019,0,0,0-.44727.72363L9.27637,15.1709l0.05682-.02844L8.1123,27.35107A1.50023,1.50023,0,0,0,9.605,29H8.5a0.5,0.5,0,0,0,0,1h14a0.5,0.5,0,0,0,0-1H21.395a1.5003,1.5003,0,0,0,1.49268-1.64941L22.11206,19.595l4.74146-4.74146A0.49964,0.49964,0,0,0,27,14.5V10.5415A2.54441,2.54441,0,0,0,24.4585,8Zm-2.74768,7.58215L21.25256,11H23.5a0.50034,0.50034,0,0,1,.5.5v1.793ZM15.5,4a1.0013,1.0013,0,0,1,1,1h-2A1.0013,1.0013,0,0,1,15.5,4Zm-3,3h1a0.498,0.498,0,0,0,.36023-0.84387A1.46363,1.46363,0,0,1,14.5,6h2a1.46363,1.46363,0,0,1,.63977.15613A0.498,0.498,0,0,0,17.5,7h1a1.5031,1.5031,0,0,1,1.41455,1h-8.8291A1.5031,1.5031,0,0,1,12.5,7ZM7.30908,9H9.94745L9.50769,13.39728ZM21.76563,27.83545A0.49477,0.49477,0,0,1,21.395,28H9.605a0.50032,0.50032,0,0,1-.49756-0.5498L10.85614,9.96484h9.28772l1.74872,17.48486A0.494,0.494,0,0,1,21.76563,27.83545ZM26,14.293l-3.12811,3.12811-0.17621-1.40973,2.15784-2.15784A0.49964,0.49964,0,0,0,25,13.5v-2A1.50164,1.50164,0,0,0,23.5,10H22.07074l-0.125-1H24.4585A1.54311,1.54311,0,0,1,26,10.5415V14.293Z" fill="#231f20"/><path d="M12.53662,12.03564a0.50373,0.50373,0,0,0-.54736.44775L10.69531,25.42285a0.49993,0.49993,0,0,0,.44775.54736c0.01709,0.00146.03369,0.00244,0.05029,0.00244a0.50013,0.50013,0,0,0,.49707-0.4502L12.98438,12.583A0.49993,0.49993,0,0,0,12.53662,12.03564Z" fill="#231f20"/>
</symbol>
<symbol id="compass" viewBox="0 0 32 32"><title>kamp</title><path d="M27.9881,17.76471C27.98962,17.67578,28,17.58936,28,17.5a0.49157,0.49157,0,0,0-.03381-0.16785A12.00719,12.00719,0,0,0,18.68463,6.3136a3.00011,3.00011,0,1,0-5.36926,0A12.00719,12.00719,0,0,0,4.03381,17.33215,0.49157,0.49157,0,0,0,4,17.5c0,0.08936.01038,0.17578,0.0119,0.26471C4.01038,17.84375,4,17.92059,4,18a11.92,11.92,0,0,0,.70007,4C6.3526,27.23468,10.787,31,16,31s9.6474-3.76532,11.29993-9A11.92,11.92,0,0,0,28,18C28,17.92059,27.98962,17.84375,27.9881,17.76471ZM16,5V4.999L16.5,5H16ZM14.58594,3.58594a1.99379,1.99379,0,0,1,3.28717,2.0993,9.558,9.558,0,0,0-1.05682-.14069A0.97244,0.97244,0,0,0,17,5a1,1,0,0,0-2,0,0.97405,0.97405,0,0,0,.19617.563,9.416,9.416,0,0,0-1.05652.16443A1.98822,1.98822,0,0,1,14.58594,3.58594ZM16,7A11.00676,11.00676,0,0,1,26.98816,17.76593a13.93284,13.93284,0,0,1-.62994,3.90076,10.98208,10.98208,0,0,1-20.71643,0,13.93284,13.93284,0,0,1-.62994-3.90076A11.00676,11.00676,0,0,1,16,7Z" fill="#231f20"/><path d="M16,27a9,9,0,1,0-9-9A9.01015,9.01015,0,0,0,16,27Zm0-1a8.00917,8.00917,0,0,1-8-8c0-3.85986,3.58887-7,8-7s8,3.14014,8,7A8.00917,8.00917,0,0,1,16,26Z" fill="#231f20"/><path d="M10.69141,16.53809a0.50014,0.50014,0,0,0-.54492.1084l-1,1a0.49982,0.49982,0,0,0,0,.707l1,1A0.49989,0.49989,0,0,0,10.5,19.5a0.494,0.494,0,0,0,.19141-0.03809A0.50022,0.50022,0,0,0,11,19V17A0.50022,0.50022,0,0,0,10.69141,16.53809Z" fill="#231f20"/><path d="M21.30859,16.53809A0.50022,0.50022,0,0,0,21,17v2a0.50022,0.50022,0,0,0,.30859.46191A0.494,0.494,0,0,0,21.5,19.5a0.49989,0.49989,0,0,0,.35352-0.14648l1-1a0.49982,0.49982,0,0,0,0-.707l-1-1A0.50068,0.50068,0,0,0,21.30859,16.53809Z" fill="#231f20"/><path d="M17,23H15a0.5,0.5,0,0,0-.35352.85352l1,1a0.49982,0.49982,0,0,0,.707,0l1-1A0.5,0.5,0,0,0,17,23Z" fill="#231f20"/><path d="M16.3125,11.10938a0.502,0.502,0,0,0-.625,0l-2.5,2A0.50024,0.50024,0,0,0,13.5,14h1v2.69122a2.00005,2.00005,0,1,0,3,0V14h1a0.50024,0.50024,0,0,0,.3125-0.89062ZM16,19a1,1,0,1,1,1-1A1.001,1.001,0,0,1,16,19Z" fill="#231f20"/>
</symbol>
<symbol id="cooler" viewBox="0 0 32 32"><title>kamp</title><path d="M27.5,10.207l0.35291-.35291,0.00122-.00122,0.99939-.99939A0.49964,0.49964,0,0,0,29,8.5v-1A0.49971,0.49971,0,0,0,28.5,7H19.86066l0.114-.3418A0.50063,0.50063,0,0,0,19.5,6h-6a0.50063,0.50063,0,0,0-.47461.6582L13.13934,7H3.5a0.49971,0.49971,0,0,0-.5.5v1a0.49964,0.49964,0,0,0,.14648.35352L4.14587,9.85291,4.14709,9.85413,4.5,10.207V10.793l-0.35291.35291-0.00122.00122-0.99939.99939A0.49964,0.49964,0,0,0,3,12.5v11A2.50263,2.50263,0,0,0,5.5,26h-2a0.5,0.5,0,0,0,0,1h25a0.5,0.5,0,0,0,0-1h-2A2.50263,2.50263,0,0,0,29,23.5v-11a0.49964,0.49964,0,0,0-.14648-0.35352l-0.99939-.99939-0.00122-.00122L27.5,10.793V10.207ZM16.5,12a0.5,0.5,0,1,1-.5.5A0.50065,0.50065,0,0,1,16.5,12Zm1.4079,0H21a0.50065,0.50065,0,0,1-.5.5H18A1.48253,1.48253,0,0,0,17.9079,12ZM28,8V8.293L27.293,9H19.194l0.33331-1H28ZM18.80664,7l-0.667,2h-3.2793l-0.667-2h4.61328ZM4,8h9.47266L13.806,9H4.707L4,8.293V8Zm0.707,4H15.0921A1.48253,1.48253,0,0,0,15,12.5a1.49436,1.49436,0,0,0,2.60986,1H20.5A1.50164,1.50164,0,0,0,22,12h5.293L28,12.707V20H4V12.707ZM26.5,25H5.5A1.50164,1.50164,0,0,1,4,23.5V21H28v2.5A1.50164,1.50164,0,0,1,26.5,25Z" fill="#231f20"/><path d="M9.22266,18.916a0.49993,0.49993,0,0,0,.55469,0l3-2a0.5,0.5,0,0,0,0-.832l-3-2a0.49873,0.49873,0,0,0-.55469,0l-3,2a0.5,0.5,0,0,0,0,.832ZM9.5,15.10107L11.59863,16.5H7.40137Z" fill="#231f20"/>
</symbol>
<symbol id="firewood" viewBox="0 0 32 32"><title>kamp</title><path d="M23,20.49023a0.5,0.5,0,0,0-.5-0.5l-5,.002a0.5,0.5,0,0,0,0,1l5-.002A0.5,0.5,0,0,0,23,20.49023Z" fill="#231f20"/><path d="M22,22.49023a0.5,0.5,0,0,0,.5.5l3-.00146a0.5,0.5,0,0,0,0-1l-3,.00146A0.5,0.5,0,0,0,22,22.49023Z" fill="#231f20"/><path d="M14.5,21.99023l-4,.00146a0.5,0.5,0,0,0,0,1l4-.00146A0.5,0.5,0,1,0,14.5,21.99023Z" fill="#231f20"/><path d="M11.5,13.99023h2a0.5,0.5,0,0,0,0-1h-2A0.5,0.5,0,0,0,11.5,13.99023Z" fill="#231f20"/><path d="M18,15.4917a0.5,0.5,0,0,0,.5.5l3-.00146a0.5,0.5,0,0,0,0-1l-3,.00146A0.5,0.5,0,0,0,18,15.4917Z" fill="#231f20"/><path d="M16.5,13.99365h0.00049l4-.00244a0.5,0.5,0,0,0-.00049-1H20.49951l-4,.00244A0.5,0.5,0,0,0,16.5,13.99365Z" fill="#231f20"/><path d="M23.5,13.99072l3-.00049a0.5,0.5,0,0,0,0-1l-3,.00049A0.5,0.5,0,0,0,23.5,13.99072Z" fill="#231f20"/><path d="M30.5,24.99023H29.31714a6.92867,6.92867,0,0,0,.10522-5.76318,2.00335,2.00335,0,0,0-1.17816-1.101,7.4706,7.4706,0,0,0,.70276-2.42139,0.49,0.49,0,0,0,.053-0.215,0.47374,0.47374,0,0,0-.01923-0.09521,7.13161,7.13161,0,0,0-.74347-3.57422,1.5042,1.5042,0,0,0-1.35742-.83008L6.49854,11a0.49665,0.49665,0,0,0-.19818.04169A1.17238,1.17238,0,0,0,5.999,11H5.998c-1.313.001-1.999,2.01318-1.998,4.001a6.98489,6.98489,0,0,0,.481,2.67139c0.05066,0.118.10413,0.21948,0.1579,0.31787H4.5a0.48145,0.48145,0,0,0-.16779.05084A1.17677,1.17677,0,0,0,3.999,17.99023H3.99854a1.74023,1.74023,0,0,0-1.52,1.32861A6.98229,6.98229,0,0,0,2,21.99121a6.98409,6.98409,0,0,0,.481,2.6709,3.64588,3.64588,0,0,0,.163.32813H2.5a0.5,0.5,0,0,0,0,1H6.85376A1.13,1.13,0,0,0,7.001,26H7.002c0.0177,0,.03241-0.009.04987-0.00977H7.455A0.46215,0.46215,0,0,0,7.50342,26l21-.00977H30.5A0.5,0.5,0,0,0,30.5,24.99023Zm-23.527,0a1.12847,1.12847,0,0,1-.57312-0.71191,4.46358,4.46358,0,0,1-.22974-0.75122l0.68335-.68335A0.5,0.5,0,0,0,6.5,21.99023H6.00043C6.00183,20.136,6.64667,19,6.999,19a1.05422,1.05422,0,0,1,.60107.72168A6.06475,6.06475,0,0,1,8,22c0.001,1.8172-.61456,2.93878-0.97223,2.99023H6.973Zm21.52747-5.376c0.05273,0.12555.09143,0.25043,0.13586,0.37555l-2.7301.00092a0.5,0.5,0,0,0,0,1l3-.001,0.006-.00122a5.76916,5.76916,0,0,1-.28192,3.028A0.48365,0.48365,0,0,0,28.5,23.99023H8.74915A7.82365,7.82365,0,0,0,9,21.999a8.35784,8.35784,0,0,0-.06732-1.007L12.5,20.99023a0.5,0.5,0,1,0,0-1l-3.75592.00183a5.13873,5.13873,0,0,0-.225-0.66443A3.63368,3.63368,0,0,0,8.356,18.99933l19.187-.00909A1.04316,1.04316,0,0,1,28.50049,19.61426Zm-1.16357-7.35938a6.24007,6.24007,0,0,1,.6554,2.73492L24.5,14.99023a0.5,0.5,0,0,0,0,1l3.41486-.00043a6.34507,6.34507,0,0,1-.28754,1.02612A0.48245,0.48245,0,0,0,27.5,16.99023H7.74915a7.11518,7.11518,0,0,0,.18628-1.00055L12.5,15.98877a0.5,0.5,0,0,0,0-1l-4.50043.00085a6.97926,6.97926,0,0,0-.48053-2.662,3.65252,3.65252,0,0,0-.163-0.32806l19.5238-.00934A0.50092,0.50092,0,0,1,27.33691,12.25488ZM5.999,12a1.05422,1.05422,0,0,1,.60107.72168A6.06475,6.06475,0,0,1,7,15c0.001,1.86035-.646,3-0.999,3a1.05422,1.05422,0,0,1-.60107-0.72168A6.06475,6.06475,0,0,1,5,15l0.00043-.01L5.5,14.99023a0.5,0.5,0,0,0,.35352-0.85352l-0.6814-.6814A1.83319,1.83319,0,0,1,5.999,12ZM3.39795,19.7124A1.03638,1.03638,0,0,1,3.999,18.99023a1.03872,1.03872,0,0,1,.59137.70258l-0.44391.44391A0.5,0.5,0,0,0,4.5,20.99023H4.9259A7.31352,7.31352,0,0,1,5,21.98975c0.001,1.86035-.646,3-0.999,3a1.05422,1.05422,0,0,1-.60107-0.72168A6.06208,6.06208,0,0,1,3,21.99023,6.05424,6.05424,0,0,1,3.39795,19.7124Z" fill="#231f20"/>
</symbol>
<symbol id="first-aid" viewBox="0 0 32 32"><title>kamp</title><path d="M26,9.0506V8.5A0.49971,0.49971,0,0,0,25.5,8h-3a0.49971,0.49971,0,0,0-.5.5V9H20V8.5l-0.0022-.0108A2.49171,2.49171,0,0,0,18.5,4h-5a2.49171,2.49171,0,0,0-1.4978,4.4892L12,8.5V9H10V8.5A0.49971,0.49971,0,0,0,9.5,8h-3a0.49971,0.49971,0,0,0-.5.5V9.0506A2.50379,2.50379,0,0,0,4,11.5v15A2.50263,2.50263,0,0,0,6.5,29h19A2.50263,2.50263,0,0,0,28,26.5v-15A2.50379,2.50379,0,0,0,26,9.0506ZM13.5,5h5a1.5,1.5,0,0,1,0,3h-1a0.49971,0.49971,0,0,0-.5.5V9H15V8.5A0.49971,0.49971,0,0,0,14.5,8h-1A1.5,1.5,0,0,1,13.5,5ZM5,11.5A1.50164,1.50164,0,0,1,6.5,10h19A1.50164,1.50164,0,0,1,27,11.5v13A1.50164,1.50164,0,0,1,25.5,26H6.5A1.50164,1.50164,0,0,1,5,24.5v-13ZM25.80206,26.96942A1.502,1.502,0,0,1,25.5,27,2.453,2.453,0,0,0,25.80206,26.96942ZM6.5,27a1.502,1.502,0,0,1-.30206-0.03058A2.453,2.453,0,0,0,6.5,27Zm-0.30206.96942A2.453,2.453,0,0,0,6.5,28,1.502,1.502,0,0,1,6.19794,27.96942Zm19.60413,0A1.502,1.502,0,0,1,25.5,28,2.453,2.453,0,0,0,25.80206,27.96942Z" fill="#231f20"/><path d="M14.5,19.5V21a0.49971,0.49971,0,0,0,.5.5h2a0.49971,0.49971,0,0,0,.5-0.5V19.5H19a0.49971,0.49971,0,0,0,.5-0.5V17a0.49971,0.49971,0,0,0-.5-0.5H17.5V15a0.49971,0.49971,0,0,0-.5-0.5H15a0.49971,0.49971,0,0,0-.5.5v1.5H13a0.49971,0.49971,0,0,0-.5.5v2a0.49971,0.49971,0,0,0,.5.5h1.5Zm-1-2H15a0.49971,0.49971,0,0,0,.5-0.5V15.5h1V17a0.49971,0.49971,0,0,0,.5.5h1.5v1H17a0.49971,0.49971,0,0,0-.5.5v1.5h-1V19a0.49971,0.49971,0,0,0-.5-0.5H13.5v-1Z" fill="#231f20"/><path d="M16,23.5A5.5,5.5,0,1,0,10.5,18,5.50654,5.50654,0,0,0,16,23.5Zm0-10A4.5,4.5,0,1,1,11.5,18,4.50492,4.50492,0,0,1,16,13.5Z" fill="#231f20"/>
</symbol>
<symbol id="fish" viewBox="0 0 32 32"><title>kamp</title><path d="M29.98486,12.62109a0.49972,0.49972,0,0,0-.7085-0.56836l-4.65918,2.32959a21.53866,21.53866,0,0,0-7.46747-2.25085l0.8244-2.47327a0.49971,0.49971,0,0,0-.70752-0.6001l-6.24231,3.299A14.95822,14.95822,0,0,0,4.16943,15.125a0.50029,0.50029,0,0,0-.02295.72852L4.793,16.5l-0.64648.64648a0.49933,0.49933,0,0,0,.01758.72363,18.34792,18.34792,0,0,0,8.0368,3.78027L15.2002,23.8999A0.49645,0.49645,0,0,0,15.5,24a0.49983,0.49983,0,0,0,.5-0.5V21.9715a16.6502,16.6502,0,0,0,7.90332-2.869c0.27-.16211.52686-0.31592,0.77051-0.45654l4.60254,2.30127a0.49972,0.49972,0,0,0,.7085-0.56836L29.01563,16.5ZM20,18.5a0.497,0.497,0,0,1-.15082.35632A1.50047,1.50047,0,0,0,19.60986,18.5a1.50047,1.50047,0,0,0,.23932-0.35632A0.497,0.497,0,0,1,20,18.5Zm8.01514-2.12109a0.49582,0.49582,0,0,0,0,.24219l0.33136,1.32538-3.44507-.86127a1.19133,1.19133,0,0,1-.04687-0.17651l2.80365-.93457a0.49982,0.49982,0,1,0-.31641-0.94824l-2.186.7287a4.28655,4.28655,0,0,1,.65283-0.84973l2.94287-1.47125Zm-11.89172-4.33C15.7525,12.02728,15.38531,12,15,12c-0.39264,0-.76892.02637-1.1499,0.04547-0.02185-.00525-0.04272-0.01233-0.06488-0.01666l2.84613-1.50439ZM15,14.5a0.497,0.497,0,0,1-.15082.35632A1.50047,1.50047,0,0,0,14.60986,14.5a1.50047,1.50047,0,0,0,.23932-0.35632A0.497,0.497,0,0,1,15,14.5Zm-1.29559-1.454A0.49862,0.49862,0,0,1,13.5,14a0.5,0.5,0,0,0,0,1,0.5,0.5,0,0,1,0,1,0.5,0.5,0,0,0,0,1,1.497,1.497,0,0,0,1.42975-1.07025,1.49013,1.49013,0,0,0,0-2.8595c-0.00677-.02246-0.01312-0.045-0.02087-0.067C14.93988,13.00311,14.96893,13,15,13a20.126,20.126,0,0,1,9.257,2.325,2.8047,2.8047,0,0,0-.40344,1.66919,2.20693,2.20693,0,0,0,.16455.605,0.49036,0.49036,0,0,0,.0835.19183c-0.33514.1615-.654,0.33179-0.97705,0.51416a11.139,11.139,0,0,1-2.42871,1.09064,1.4842,1.4842,0,0,0-.76605-2.32556A1.497,1.497,0,0,0,18.5,16a0.5,0.5,0,0,0,0,1,0.5,0.5,0,0,1,0,1,0.5,0.5,0,0,0,0,1,0.50034,0.50034,0,0,1,.5.5,0.48746,0.48746,0,0,1-.10022.28479A23.56407,23.56407,0,0,1,15.5,20c-6.43561,0-8.73425-1.514-10.22565-2.56732l0.57916-.57916a0.49982,0.49982,0,0,0,0-.707l-0.604-.604A17.006,17.006,0,0,1,13.70441,13.046Z" fill="#231f20"/><path d="M8,17a1,1,0,1,0-1-1A1.0013,1.0013,0,0,0,8,17Zm0.5-1H8.00049L8,15.999Z" fill="#231f20"/><path d="M10.14648,18.85352a0.49982,0.49982,0,0,0,.707,0,2.97588,2.97588,0,0,0,0-4.707,0.49995,0.49995,0,0,0-.707.707,2.01418,2.01418,0,0,1,0,3.293A0.49982,0.49982,0,0,0,10.14648,18.85352Z" fill="#231f20"/><path d="M6,11.5a0.5,0.5,0,0,0-1,0,0.5,0.5,0,0,1-1,0V9.84625a0.96614,0.96614,0,0,0,0-1.6925V1.5a0.5,0.5,0,0,0-1,0V8.15375a0.96614,0.96614,0,0,0,0,1.6925V11.5A1.5,1.5,0,0,0,6,11.5ZM3.50049,9L3.50043,8.99994,3.50482,8.999,4,9H3.50049Z" fill="#231f20"/>
</symbol>
<symbol id="flashlight" viewBox="0 0 32 32"><title>kamp</title><path d="M27,7a8.00886,8.00886,0,0,0-7.411,5H17V11.5a0.49971,0.49971,0,0,0-.5-0.5h-4a0.49971,0.49971,0,0,0-.5.5V12H3.5C2.46387,12,2,13.75781,2,15.5S2.46387,19,3.5,19H19.589A8.00886,8.00886,0,0,0,27,24c1.96973,0,3-4.27588,3-8.5S28.96973,7,27,7ZM24.09546,22A16.534,16.534,0,0,1,23,15.5c0-3.01593.55157-5.78363,1.37738-6.98547a6.94552,6.94552,0,0,1,1.0144-.32068C24.47443,9.75751,24,12.63843,24,15.5A18.69649,18.69649,0,0,0,25.00189,22H24.09546ZM25,15.5c0-.17023.00482-0.33344,0.008-0.499A0.94255,0.94255,0,0,1,26,15.5a0.94255,0.94255,0,0,1-.992.499C25.00482,15.83344,25,15.67023,25,15.5ZM13,12h3v0.78564H13V12Zm-1,1v0.28564c0,0.0116.0058,0.0213,0.00659,0.03271C12.0058,13.32977,12,13.33948,12,13.35107v1a0.49971,0.49971,0,0,0,.5.5h4a0.49971,0.49971,0,0,0,.5-0.5v-1c0-.0116-0.0058-0.0213-0.00659-0.03271C16.9942,13.30695,17,13.29724,17,13.28564V13h2.26331A7.95978,7.95978,0,0,0,19,15v1a8.00884,8.00884,0,0,0,.06946,1H5.14612A7.173,7.173,0,0,1,5,15.5,4.7118,4.7118,0,0,1,5.5,13H12ZM3.5,13H4.40643A6.92715,6.92715,0,0,0,4,15.5,8.63972,8.63972,0,0,0,4.13031,17H3.14612A7.173,7.173,0,0,1,3,15.5,4.7118,4.7118,0,0,1,3.5,13ZM20,16V15a6.98793,6.98793,0,0,1,2.88-5.64642A19.44079,19.44079,0,0,0,22,15.5a19.46459,19.46459,0,0,0,.87958,6.14606A6.988,6.988,0,0,1,20,16Zm7,7c-0.72247,0-1.73291-2.29651-1.95435-6.00336A1.77051,1.77051,0,0,0,27,15.5a1.77051,1.77051,0,0,0-1.95435-1.49664,17.59655,17.59655,0,0,1,.62927-3.90131A0.61082,0.61082,0,0,1,26,10c1.39032,0,2.362,1.47119,2.92224,3.55621C28.97052,14.16553,29,14.8114,29,15.5,29,20.07813,27.81543,23,27,23Z" fill="#231f20"/>
</symbol>
<symbol id="hatchet" viewBox="0 0 32 32"><title>kamp</title><path d="M24.52148,5.00049C17.53418,4.72314,12.80371,3.83838,8.70215,2.042a0.5,0.5,0,0,0-.66113.26367C6.667,5.56006,6.66016,9.5918,8.01953,14.63037a0.472,0.472,0,0,0,.02771.0531,0.48947,0.48947,0,0,0,.0556.10638,0.48063,0.48063,0,0,0,.0578.06378,0.48766,0.48766,0,0,0,.09393.07184c0.01373,0.00806.02289,0.02185,0.03741,0.02863,0.01221,0.00562.02612,0.00372,0.0387,0.0083a0.65959,0.65959,0,0,0,.203.03058c0.01318-.00085.02533,0.00409,0.03857,0.00214l5.78125-.82568a3.422,3.422,0,0,1,2.02637.32861l0.72015,0.36a81.28648,81.28648,0,0,1-1.09125,13.56232,0.48946,0.48946,0,0,0,.02209.22949,1.447,1.447,0,0,0,1.1615,1.71338l3.03809,0.60742a1.49048,1.49048,0,0,0,.293.0293A1.48138,1.48138,0,0,0,22.002,29.519l-0.00177-.01013L22.002,29.5V14.73364A2.92466,2.92466,0,0,1,23.916,14H24.502a0.49971,0.49971,0,0,0,.5-0.5v-8A0.49992,0.49992,0,0,0,24.52148,5.00049ZM8.77734,3.16162C12.792,4.83447,17.40625,5.687,24.002,5.97949V11h-0.5a2.50263,2.50263,0,0,0-2.5,2.5V14H18.10327c-0.00043-.0188.00067-0.03882,0.00024-0.05762A2.51191,2.51191,0,0,0,14.9859,11.558,0.40374,0.40374,0,0,0,15.002,11.5v-1a0.5,0.5,0,0,0-.94727-0.22363l-0.90607,1.81219A37.71246,37.71246,0,0,0,8.834,13.79248C7.74707,9.48779,7.72852,5.99854,8.77734,3.16162ZM18.09155,17H21.002v1H18.05908C18.07135,17.66541,18.084,17.33105,18.09155,17Zm-0.08514,2H21.002v5.28088l-3.35565-.67114Q17.897,21.25693,18.00641,19ZM21.002,25.30042v0.98047l-3.58228-.71649c0.04083-.31714.09143-0.63983,0.1286-0.95471Zm-6.79-12.12122-1.97736.28247c0.90045-.32922,1.88135-0.64642,2.96368-0.92993a1.504,1.504,0,0,1,1.87292,1.19379l-0.244-.122A4.42089,4.42089,0,0,0,14.21191,13.1792Zm6.61426,16.71143a0.48171,0.48171,0,0,1-.39941.09961l-3.03809-.60742a0.48188,0.48188,0,0,1-.38672-0.47168,0.48128,0.48128,0,0,1,.47754-0.481,0.50861,0.50861,0,0,1,.09766.00977l3.03809,0.60791A0.4805,0.4805,0,0,1,20.82617,29.89063ZM23.916,13a3.92088,3.92088,0,0,0-1.91406.52191V13.5a1.50164,1.50164,0,0,1,1.5-1.5h0.5v1H23.916Z" fill="#231f20"/>
</symbol>
<symbol id="hotdog" viewBox="0 0 32 32"><title>kamp</title><circle cx="16.39001" cy="22.50061" r="1" fill="#231f20"/><path d="M30.71094,5.75146l-1.44336-2.5A0.49956,0.49956,0,0,0,28.40234,3.251L27.33966,5.08716a2.90227,2.90227,0,0,0-.58673-0.62866,2.83535,2.83535,0,0,0-2.47754-.50244,30.43249,30.43249,0,0,1-15.77051,0,2.84355,2.84355,0,0,0-2.47852.50244,2.90619,2.90619,0,0,0-.58716.6297L4.37793,3.25A0.49956,0.49956,0,0,0,3.5127,3.24951L2.06738,5.749A0.4994,0.4994,0,0,0,2.5,6.49951L4.92,6.49994c-0.00818.08948-.0304,0.1756-0.0304,0.26666A2.91019,2.91019,0,0,0,6.96582,9.55615a32.65938,32.65938,0,0,0,5.92383,1.2179v2.72644a3.495,3.495,0,0,0,3,3.44946v3.10114a2.50379,2.50379,0,0,0-2,2.4494v7a0.49971,0.49971,0,0,0,.5.5h4a0.49971,0.49971,0,0,0,.5-0.5v-7a2.50379,2.50379,0,0,0-2-2.4494V16.95a3.495,3.495,0,0,0,3-3.44946V10.77411a32.64467,32.64467,0,0,0,5.92383-1.218A2.90931,2.90931,0,0,0,27.88965,6.7666c0-.09082-0.02222-0.1767-0.03033-0.26593l2.419,0.00079A0.5,0.5,0,0,0,30.71094,5.75146Zm-27.34473-.252,0.5791-1L4.52246,5.5ZM6.63672,5.251A1.84688,1.84688,0,0,1,8.249,4.92285c0.55792,0.14777,1.11713.27063,1.67645,0.38788l-0.35809.71613a0.50006,0.50006,0,0,0,.89453.44727l0.375-.75a0.4893,0.4893,0,0,0,.04645-0.23206q0.96542,0.172,1.93243.28528l-0.19568.88086A0.50066,0.50066,0,0,0,13,7.25488a0.5185,0.5185,0,0,0,.1084.01172,0.50075,0.50075,0,0,0,.48828-0.3916l0.22186-.99866q1.03528,0.086,2.07111.103V7.00049a0.5,0.5,0,0,0,1,0V5.97943q1.03949-.01675,2.07819-0.10376L19.1543,6.62158a0.5,0.5,0,0,0,.48535.37891,0.48978,0.48978,0,0,0,.12109-0.01514,0.49993,0.49993,0,0,0,.36426-0.606l-0.15076-.60315Q20.9361,5.665,21.89594,5.49213a0.48891,0.48891,0,0,0,.04645.232l0.375,0.75a0.50006,0.50006,0,1,0,.89453-0.44727l-0.358-.716c0.55969-.11725,1.11914-0.24017,1.67737-0.388a1.84619,1.84619,0,0,1,1.61133.32813,1.89936,1.89936,0,0,1,.74707,1.51563,1.48572,1.48572,0,0,1-1.332,1.20459,41.54129,41.54129,0,0,1-18.33594,0,1.48572,1.48572,0,0,1-1.332-1.20459A1.90006,1.90006,0,0,1,6.63672,5.251ZM17.88965,22.50049v5.5h-3v-5.5A1.5,1.5,0,0,1,17.88965,22.50049Zm1-9a2.5,2.5,0,0,1-5,0V10.88837c0.83307,0.0672,1.6665.10577,2.5,0.10577s1.667-.03857,2.5-0.10571v2.61206ZM28.25586,5.501L28.834,4.50049,29.41211,5.501H28.25586Z" fill="#231f20"/>
</symbol>
<symbol id="knife-hunting" viewBox="0 0 32 32"><title>kamp</title><path d="M29.5166,25.71143L17.14191,13.33673l1.06073-1.06085a0.49982,0.49982,0,0,0,0-.707l-1.41406-1.41406a0.51466,0.51466,0,0,0-.707,0L15.021,11.21539,11.13184,7.32666a1.49887,1.49887,0,0,1,0-2.12158,0.50082,0.50082,0,0,0,0-.707L9.71729,3.084a0.49982,0.49982,0,0,0-.707,0L7.24268,4.85156,6.88916,4.498a0.49982,0.49982,0,0,0-.707,0L4.06055,6.61914a0.49982,0.49982,0,0,0,0,.707l0.35352,0.354L2.64648,9.44775a0.49982,0.49982,0,0,0,0,.707l1.41406,1.41406a0.49982,0.49982,0,0,0,.707,0,1.50359,1.50359,0,0,1,2.12158,0l1.41309,1.41309,0.001,0.00146,0.00146,0.001,2.47382,2.47382L9.71777,16.519a0.49982,0.49982,0,0,0,0,.707l1.41406,1.41406a0.49982,0.49982,0,0,0,.707,0l1.06055-1.06061,7.4248,7.42438a9.54942,9.54942,0,0,0,6.15918,2.499,4.175,4.175,0,0,0,3.0332-1.08447A0.49982,0.49982,0,0,0,29.5166,25.71143ZM11.48535,14.751l-0.707-.707,2.82837-2.8288L14.314,11.92236ZM9.364,12.62964L12.1925,9.80115l0.70709,0.707-2.82831,2.82874ZM7.9082,11.17383l2.82819-2.82861,0.749,0.749L8.657,11.92261ZM5.47461,8.03369a0.49982,0.49982,0,0,0,0-.707l-0.35352-.354L6.53564,5.55859,6.88916,5.91211a0.49982,0.49982,0,0,0,.707,0L9.36377,4.14453l0.70752,0.707L4.41406,10.5083l-0.707-.707Zm6.01074,9.5459-0.707-.707,5.65674-5.65723,0.707,0.707Zm9.5459,6.71729-6.81079-6.8103L17.04907,14.658,28.417,26.02588C26.50391,27.24414,22.68164,25.94727,21.03125,24.29688Z" fill="#231f20"/><path d="M16.916,16.64648a0.49995,0.49995,0,0,0-.707.707l5.17578,5.17578a0.49995,0.49995,0,0,0,.707-0.707Z" fill="#231f20"/>
</symbol>
<symbol id="knife-pocket" viewBox="0 0 32 32"><title>kamp</title><path d="M26,25H25V24a0.5,0.5,0,0,0-1,0v1H23a0.5,0.5,0,0,0,0,1h1v1a0.5,0.5,0,0,0,1,0V26h1A0.5,0.5,0,0,0,26,25Z" fill="#231f20"/><path d="M21.53564,12.18555a0.50005,0.50005,0,0,0,.92871-0.37109l-2-5a0.50005,0.50005,0,1,0-.92871.37109Z" fill="#231f20"/><path d="M6,16.5A0.49971,0.49971,0,0,0,6.5,16V13a0.5,0.5,0,0,0-1,0v3A0.49971,0.49971,0,0,0,6,16.5Z" fill="#231f20"/><path d="M29.96,24.959A3.38289,3.38289,0,0,0,30,24.5a4.48906,4.48906,0,0,0-1.89417-3.65491L21.25928,2.32666a0.50016,0.50016,0,0,0-.2666-0.28418,0.49466,0.49466,0,0,0-.39014-0.00586,7.61454,7.61454,0,0,0-4.09814,9.647L19.096,19H10V17.64893a0.522,0.522,0,0,0-.04541-0.38232,0.53536,0.53536,0,0,0-.91895.04785,0.47892,0.47892,0,0,1-.52393.1499A0.76331,0.76331,0,0,1,8,16.73975V14.9375l1.50439,0.062a0.51027,0.51027,0,0,0,.44238-0.231,0.49993,0.49993,0,0,0,.022-0.49854l-2.0625-3.9834a0.50044,0.50044,0,0,0-.43555-0.27L4.5083,9.96631a0.4761,0.4761,0,0,0-.35889.14355A0.49858,0.49858,0,0,0,4,10.46631V25a0.48667,0.48667,0,0,0,.02954.14648,1.43715,1.43715,0,0,0-.02954.29v0.12109a1.43385,1.43385,0,0,0,.038.318,4.45621,4.45621,0,0,0,.24744,1.15326A1.97351,1.97351,0,0,0,4,27a2,2,0,1,0,1.97742,2.22357A4.47325,4.47325,0,0,0,8.5,30h17A4.50492,4.50492,0,0,0,30,25.5a4.404,4.404,0,0,0-.04846-0.47931Zm-24.9483.65631C5.01038,25.57611,5,25.53949,5,25.5c0-.04346.01123-0.0838,0.01282-0.12683A0.43164,0.43164,0,0,1,5.43652,25H6v1H5.44238A0.43746,0.43746,0,0,1,5.01166,25.6153ZM9,21H8.99951L9,20.99988V21ZM20.50732,3.17627L26.8078,20.21661A4.43775,4.43775,0,0,0,25.5,20H20.51093l-3.06024-8.63916A6.58042,6.58042,0,0,1,20.50732,3.17627ZM5,10.9751l2.15576,0.03613,1.52881,2.95361L7.52051,13.917a0.48062,0.48062,0,0,0-.3667.13867A0.50046,0.50046,0,0,0,7,14.4165v2.32324a1.76054,1.76054,0,0,0,1.21631,1.67969A1.472,1.472,0,0,0,9,18.45117v1.549L8.99951,20H8.5A4.475,4.475,0,0,0,5,21.70648V10.9751ZM4,30a1,1,0,1,1,1-1A1.0013,1.0013,0,0,1,4,30Zm21.5-1H8.5a3.49577,3.49577,0,0,1-3.15424-2.00977C5.3783,26.99243,5.4093,27,5.44238,27H6.5A0.49971,0.49971,0,0,0,7,26.5v-2A0.49971,0.49971,0,0,0,6.5,24H5.43652c-0.02441,0-.04712.006-0.07123,0.0072,0.02338-.04944.03864-0.10333,0.06415-0.15143l0.00952-.0174a3.50585,3.50585,0,0,1,.32019-0.48828c0.01538-.01959.0318-0.03839,0.04761-0.05768A3.5203,3.5203,0,0,1,6.172,22.90619c0.03369-.03027.06989-0.0575,0.10474-0.08649a3.51263,3.51263,0,0,1,.38348-0.28394c0.05969-.03717.12372-0.06732,0.18573-0.101a3.45559,3.45559,0,0,1,.3703-0.18335c0.1-.03967.20581-0.066,0.31-0.09644,0.10175-.03015.201-0.06677,0.30615-0.08752A3.49311,3.49311,0,0,1,8.5,22h17a3.49311,3.49311,0,0,1,.6676.0675c0.10516,0.02075.20441,0.05737,0.30615,0.08752,0.10419,0.03046.21,0.05676,0.31,0.09644a3.45559,3.45559,0,0,1,.3703.18335c0.062,0.03363.126,0.06378,0.18573,0.101a3.51263,3.51263,0,0,1,.38348.28394c0.03485,0.029.071,0.05621,0.10474,0.08649a3.52029,3.52029,0,0,1,.36523.38623c0.01581,0.01929.03223,0.03809,0.04761,0.05768a3.50585,3.50585,0,0,1,.32019.48828l0.00952,0.0174a3.49726,3.49726,0,0,1,.38306,1.20673l0.00317,0.00983A3.43348,3.43348,0,0,1,29,25.5,3.50425,3.50425,0,0,1,25.5,29Z" fill="#231f20"/>
</symbol>
<symbol id="lantern" viewBox="0 0 32 32"><title>kamp</title><path d="M23.85352,22.56055l-1.41406-1.41406a0.49982,0.49982,0,0,0-.707,0l-0.976.97565A2.81869,2.81869,0,0,0,20,22.00244V18h2.5a0.5,0.5,0,0,0,0-1H22V8h1.5A0.49971,0.49971,0,0,0,24,7.5,2.50294,2.50294,0,0,0,21.5,5H20V4h0.50732a0.49971,0.49971,0,0,0,.5-0.5,2.50294,2.50294,0,0,0-2.5-2.5H14.5A2.50294,2.50294,0,0,0,12,3.5a0.49971,0.49971,0,0,0,.5.5H13V5H11.5A2.50294,2.50294,0,0,0,9,7.5a0.49971,0.49971,0,0,0,.5.5H11v9H10.5a0.5,0.5,0,0,0,0,1H13v4.00244a2.86,2.86,0,0,0-2.8335,2.85547V28H9.5a0.49971,0.49971,0,0,0-.5.5v2a0.49971,0.49971,0,0,0,.5.5h14a0.49971,0.49971,0,0,0,.5-0.5v-2a0.49971,0.49971,0,0,0-.5-0.5H22.8335V24.85791a2.84256,2.84256,0,0,0-.05237-0.51758l1.07239-1.07275A0.49982,0.49982,0,0,0,23.85352,22.56055ZM14,19h1.0921A1.48253,1.48253,0,0,0,15,19.5a1.5,1.5,0,0,0,3,0,1.48253,1.48253,0,0,0-.0921-0.5H19v3H14V19ZM15,9h1v2.98877a1.16273,1.16273,0,0,1-1-1.1499V9Zm2,0h1v1.83887a1.16273,1.16273,0,0,1-1,1.1499V9Zm1,7v1H15V16h3Zm-1,3.5a0.5,0.5,0,1,1-.5-0.5A0.50034,0.50034,0,0,1,17,19.5ZM19.5,17H19V15.5a0.49971,0.49971,0,0,0-.5-0.5H17V12.9837a2.15667,2.15667,0,0,0,2-2.14484V9h2v8H19.5Zm-5-15h4.00732a1.5031,1.5031,0,0,1,1.41455,1H13.08545A1.5031,1.5031,0,0,1,14.5,2Zm-3,4h10a1.5031,1.5031,0,0,1,1.41455,1H10.08545A1.5031,1.5031,0,0,1,11.5,6ZM12,17V9h2v1.83887a2.15667,2.15667,0,0,0,2,2.14484V15H14.5a0.49971,0.49971,0,0,0-.5.5V17H12Zm1.02441,6h6.95117a1.86007,1.86007,0,0,1,1.85791,1.85791V27H11.1665V24.85791A1.86007,1.86007,0,0,1,13.02441,23ZM23,30H10V29H23v1Zm-0.61963-6.67316a2.86872,2.86872,0,0,0-.68115-0.73328l0.38672-.38654,0.707,0.707Z" fill="#231f20"/><path d="M14.5,26h3a0.49964,0.49964,0,0,0,.35352-0.14648l1-1A0.5,0.5,0,0,0,18.5,24h-3a0.49964,0.49964,0,0,0-.35352.14648l-1,1A0.5,0.5,0,0,0,14.5,26Z" fill="#231f20"/>
</symbol>
<symbol id="map" viewBox="0 0 32 32"><title>kamp</title><path d="M29.5,4.97461H16.57465L3.64648,1.022A0.49966,0.49966,0,0,0,3,1.5v23a0.49972,0.49972,0,0,0,.35352.478l4.348,1.32935-1.641,3.01636A0.50029,0.50029,0,0,0,6.5,30.0625h22a0.49971,0.49971,0,0,0,.5-0.5V28.97461h0.5a0.49971,0.49971,0,0,0,.5-0.5v-23A0.49971,0.49971,0,0,0,29.5,4.97461Zm-2,16H23.15985a1.75974,1.75974,0,0,0,.2005-0.34375l0.00879-.00244a3.10581,3.10581,0,0,0,2.332-1.54346,0.51123,0.51123,0,0,0,.0459-0.2251,1.89175,1.89175,0,0,0-.65137-1.46045,2.83717,2.83717,0,0,0-2.22852-.4458,9.39261,9.39261,0,0,0-1.84863.49854c-0.13965.05127-.28516,0.11768-0.43359,0.187a1.484,1.484,0,0,1-.81641.22949,3.80863,3.80863,0,0,0-2.33691.23389c-0.12671.04077-.26239,0.08368-0.43164,0.13385V17.37384a2.13232,2.13232,0,0,0,1.19043-.69464,2.80615,2.80615,0,0,1,.3623-0.31885,1.15118,1.15118,0,0,1,.93066.05322l0.19141,0.05371a4.27409,4.27409,0,0,0,1.874.05078c0.25781-.043.5166-0.09717,0.77441-0.15137a9.206,9.206,0,0,1,1.61035-.22363,13.41527,13.41527,0,0,1,2.51953.34668A16.72722,16.72722,0,0,0,29,16.85242V22.305a1.45807,1.45807,0,0,1-1,.52844V21.47461A0.49971,0.49971,0,0,0,27.5,20.97461Zm-21-4.66113a0.99974,0.99974,0,0,0-1,1v2.03613a0.98337,0.98337,0,0,0,.37134.76007A4.06485,4.06485,0,0,0,4,20.829V18.52356a6.42277,6.42277,0,0,1,.584-2.421A4.89359,4.89359,0,0,1,5.14355,15.21l0.127-.17187a4.36152,4.36152,0,0,1,.30658-0.397A0.99843,0.99843,0,0,0,6.5,15.25928a0.98713,0.98713,0,0,0,.97009-0.85168c0.043-.00427.07849-0.01062,0.12463-0.014a2.03514,2.03514,0,0,1,1.29785.23584,2.30051,2.30051,0,0,1,.6084.96631,3.48884,3.48884,0,0,0,1.70117,2.01172c0.46289,0.21387.61621-.07666,1.11816-1.05469,0.06641-.12842.11914-0.23242,0.13574-0.26221a2.9028,2.9028,0,0,1,.79688-0.92285A0.65271,0.65271,0,0,1,13.957,15.313a1.48887,1.48887,0,0,1,.459.354,0.9914,0.9914,0,0,1,.10059.23145,1.50492,1.50492,0,0,0,.39941.66992,1.22848,1.22848,0,0,0,.88672.27734h0.00391a1.12822,1.12822,0,0,1,.18262.0083L16,16.85742v1.07477a1.0278,1.0278,0,0,0-.10156-0.03864,1.36751,1.36751,0,0,0-.416-0.01318,1.02345,1.02345,0,0,1-.11523.00586,1.066,1.066,0,0,1-.18555-0.03467,2.37382,2.37382,0,0,0-.31152-0.05566,2.64044,2.64044,0,0,0-1.73437.67041,4.39153,4.39153,0,0,1-.43848.28564,2.1444,2.1444,0,0,1-1.0791.28809,2.4476,2.4476,0,0,1-1.63477-.47363l-0.11426-.11719a2.59612,2.59612,0,0,0-.292-0.27686,1.34544,1.34544,0,0,0-.8457-0.291A0.67724,0.67724,0,0,0,8.249,18.084a0.72258,0.72258,0,0,0-.1709.311l-0.10547.36816c-0.28735,1.04041-.49023,1.44928-0.97223,1.433A0.98553,0.98553,0,0,0,7.5,19.34961V17.31348A0.99974,0.99974,0,0,0,6.5,16.31348ZM6.49512,10.15625a1.00507,1.00507,0,0,0,.26367.03564,0.99364,0.99364,0,0,0,.85968-0.51221A7.06856,7.06856,0,0,1,8.7998,12.21582a0.50752,0.50752,0,0,0,.125.25342,4.39576,4.39576,0,0,1,.43066.55664,6.15838,6.15838,0,0,0,.79.9668,0.52235,0.52235,0,0,0,.38281.14648L10.8125,14.123a0.49851,0.49851,0,0,0,.34863-0.17041l0.124-.14258c0.35059-.40137.749-0.85645,1.08008-1.31152a0.972,0.972,0,0,1,1.29395.00293c0.50977,0.31787,1.00879.66162,1.50879,1.00488l0.2832,0.19385c0.11523,0.0791.22266,0.15674,0.3252,0.23047,0.079,0.05688.14941,0.10236,0.22363,0.15417v1.7674a1.76,1.76,0,0,1-.416-0.0285,0.65587,0.65587,0,0,1-.124-0.25732,1.82193,1.82193,0,0,0-.23242-0.4834,2.43472,2.43472,0,0,0-.82227-0.66406,1.65894,1.65894,0,0,0-1.69531.10889,3.761,3.761,0,0,0-1.10059,1.231c-0.01953.03125-.09082,0.166-0.17871,0.3374-0.05762.11328-.126,0.24609-0.18945,0.36914a3.20829,3.20829,0,0,1-.82715-1.27686,3.03433,3.03433,0,0,0-.959-1.38525,2.9869,2.9869,0,0,0-1.93457-.40674L7.5,13.39886V12.22266a1,1,0,0,0-2,0v1.43079a0.72813,0.72813,0,0,0-.11914.00525,1.8018,1.8018,0,0,0-.92187.79443l-0.10254.13867A5.98384,5.98384,0,0,0,4,15.09937V10.24274a2.73729,2.73729,0,0,0,.90918-1.44147L4.9873,8.5542a3.74979,3.74979,0,0,0,.24121-1.90869,0.7161,0.7161,0,0,0-.55176-0.58594C4.45178,5.99506,4.227,5.93756,4,5.88715V4.88855a1.43907,1.43907,0,0,1,.63574.07239,0.673,0.673,0,0,1,.40527.34912c0.06543,0.14941.123,0.314,0.18652,0.49463A8.80283,8.80283,0,0,0,6.20978,7.855,5.58436,5.58436,0,0,0,5.793,8.92871,0.99941,0.99941,0,0,0,6.49512,10.15625ZM29,15.85181a15.98313,15.98313,0,0,1-2.34961-.342,14.323,14.323,0,0,0-2.707-.3667,8.3201,8.3201,0,0,0-1.82617.24512c-0.24414.05127-.48828,0.103-0.7334,0.14355a3.28768,3.28768,0,0,1-1.44922-.03027l-0.17578-.04932a2.011,2.011,0,0,0-1.76465.0791,3.79306,3.79306,0,0,0-.502.43115,2.19822,2.19822,0,0,1-.459.37939c-0.01135-.00964-0.02185-0.01654-0.0332-0.02557v-1.8891a2.11859,2.11859,0,0,0,.72168-0.21765,6.583,6.583,0,0,1,2.43066-.39258c0.292-.01221.57715-0.02441,0.84961-0.04639a13.866,13.866,0,0,1,3.58887.126c1.50665,0.26813,2.81244.582,4.40918,0.971v0.98431Zm-6.16016,3.88306a0.50076,0.50076,0,0,0-.35059.353,1.13142,1.13142,0,0,1-.89453.80176l-0.19751.085H20.5a0.49971,0.49971,0,0,0-.5.5v1.36823a3.33337,3.33337,0,0,1-1.2207.624,6.10054,6.10054,0,0,0-1.21777.54346l-0.28418.20654a0.49705,0.49705,0,0,0-.19336.29346,3.58968,3.58968,0,0,0,.082,1.54785,1.6994,1.6994,0,0,1,.06543.77832,0.41557,0.41557,0,0,1-.18109.08191A0.45639,0.45639,0,0,0,17.04,26.86426,0.46833,0.46833,0,0,0,17,26.802V22.35675q0.1745-.134.35254-0.28888a4.53257,4.53257,0,0,1,.459-0.3667,0.50259,0.50259,0,0,0,.21484-0.51758l-0.03516-.17236a0.50107,0.50107,0,0,0-.374-0.38623A1.94024,1.94024,0,0,0,17,20.5918v-1.3197c0.0871-.01935.17194-0.04254,0.25293-0.06653,0.16016-.0459.32227-0.09863,0.4873-0.15186a2.98092,2.98092,0,0,1,1.7373-.229,2.15254,2.15254,0,0,0,1.52832-.27832c0.12207-.05713.24121-0.11279,0.35547-0.15479a8.44714,8.44714,0,0,1,1.65234-.44873,1.89816,1.89816,0,0,1,1.44043.22314,0.85653,0.85653,0,0,1,.28516.60352,2.35841,2.35841,0,0,1-1.625.89209ZM4,6.92261c0.09052,0.02313.17517,0.03448,0.26855,0.06079a3.2519,3.2519,0,0,1-.2334,1.26416L4,8.35925V6.92261ZM16,21.83789a6.15618,6.15618,0,0,0-.91992.73486,2.48185,2.48185,0,0,1-1.25684.57568,6.59542,6.59542,0,0,1-1.248-.88965,8.70949,8.70949,0,0,0,1.85449-.3623A7.42276,7.42276,0,0,1,16,21.58643v0.25146Zm0,5.74353v0.21735l-4.29736-1.31384-0.35181-.10754,0.29175-.7016a2.2681,2.2681,0,0,1,1.03223.3418,3.8686,3.8686,0,0,0,2.06152.54541,0.724,0.724,0,0,1,.332.39648,0.4816,0.4816,0,0,0,.10547.13721L15.458,27.35547a0.53779,0.53779,0,0,0,.09082.06592A1.43787,1.43787,0,0,0,16,27.58142Zm1,0.39319V27.94043a1.49305,1.49305,0,0,0,1.00684-.47217,1.83441,1.83441,0,0,0,.13867-1.6123,3.54932,3.54932,0,0,1-.1123-0.9541l0.082-.06006a5.2814,5.2814,0,0,1,1-.43262A7.367,7.367,0,0,0,20,24.03534V26.4165a3.85774,3.85774,0,0,0-.0484,1.55811H17Zm4-4.49091V21.97461h6v4H21V23.4837ZM29,13.839c-1.50494-.36621-2.77417-0.66718-4.2334-0.92688a14.98273,14.98273,0,0,0-3.84668-.13867c-0.25879.02148-.53125,0.03271-0.80957,0.04395a7.41234,7.41234,0,0,0-2.81445.48682A1.57933,1.57933,0,0,1,17,13.41547V9.47461h0.44531a1,1,0,0,0,0-2H17v-1.5H29V13.839ZM16,5.84473V7.276l-0.251-.07678a1.00012,1.00012,0,0,0-.584,1.91309L16,9.36755v3.4967l-0.26562-.18213c-0.51172-.35156-1.02441-0.70312-1.5459-1.0293a1.92279,1.92279,0,0,0-2.63184.25684c-0.27734.38086-.61816,0.77686-0.93066,1.13525a5.44438,5.44438,0,0,1-.44629-0.58545A5.8611,5.8611,0,0,0,9.75391,11.895,8.42806,8.42806,0,0,0,8.06683,8.62939a2.16485,2.16485,0,0,1,.35211-0.4751A0.99978,0.99978,0,0,0,7.03613,6.71C6.96021,6.78259,6.89441,6.8678,6.824,6.94727a8.3265,8.3265,0,0,1-.65405-1.47559C6.09766,5.26709,6.03223,5.08154,5.959,4.9126a1.65726,1.65726,0,0,0-.96777-0.88574A2.41473,2.41473,0,0,0,4,3.88794V2.17578ZM4,22.02094c0.08313-.05371.165-0.104,0.25-0.1601a2.91045,2.91045,0,0,1,2.34473-.71094c1.64746,0.34912,2.08594-1.19531,2.3418-2.12012L8.958,18.957l0.00488,0.00439a1.62126,1.62126,0,0,1,.17871.17383c0.04883,0.05225.09863,0.10449,0.15137,0.1543A3.31779,3.31779,0,0,0,11.5957,20.04a3.14322,3.14322,0,0,0,1.57031-.4043,5.52509,5.52509,0,0,0,.54492-0.35156,1.90129,1.90129,0,0,1,1.07031-.49219,1.25463,1.25463,0,0,1,.1748.03418,2.1532,2.1532,0,0,0,.35938.05908,1.8228,1.8228,0,0,0,.25-0.0083,0.71568,0.71568,0,0,1,.13184-0.00391A1.274,1.274,0,0,1,16,19.05182v1.53546a8.186,8.186,0,0,0-1.834.34436,5.07529,5.07529,0,0,1-2.42285.26855,0.50028,0.50028,0,0,0-.59863.5708c0.15918,0.95557,1.36523,1.79932,2.34961,2.33936a0.4996,0.4996,0,0,0,.24023.06152,0.513,0.513,0,0,0,.07715-0.00586,3.63616,3.63616,0,0,0,1.97949-.89062c0.06409-.06342.13971-0.12128,0.209-0.18225v3.40344L15.91016,26.415a1.52865,1.52865,0,0,0-1.03516-.85156,0.50822,0.50822,0,0,0-.21191-0.002,2.915,2.915,0,0,1-1.55957-.44775c-0.77148-.36572-1.73242-0.82324-2.30566.01758a0.46153,0.46153,0,0,0-.04883.09033l-0.35864.86206L4,24.12988V22.02094Zm24.5,5.95367H20.95673l-0.0036-.03467a6.913,6.913,0,0,1-.05768-0.96533H27.5a0.49971,0.49971,0,0,0,.5-0.5V23.864c0.054-.01276.11426-0.02991,0.166-0.04175A4.42233,4.42233,0,0,0,29,23.56781v4.4068H28.5Z" fill="#231f20"/><path d="M23.5,10.97461h4.041a0.5,0.5,0,0,0,.43262-0.75l-2.02051-3.5a0.51914,0.51914,0,0,0-.86523,0l-2.02051,3.5A0.5,0.5,0,0,0,23.5,10.97461Zm2.02051-3,1.1543,2H24.36621Z" fill="#231f20"/><path d="M25.5,23.97461h-3a0.5,0.5,0,0,0,0,1h3A0.5,0.5,0,0,0,25.5,23.97461Z" fill="#231f20"/><path d="M20.5,9.47461h1a1,1,0,0,0,0-2h-1A1,1,0,0,0,20.5,9.47461Z" fill="#231f20"/><path d="M10.4209,7.69336a4.17032,4.17032,0,0,1,.78711.2085l1.03613,0.31689a0.97705,0.97705,0,0,0,.292.04443,1.00013,1.00013,0,0,0,.292-1.95654L11.876,6.019a5.65734,5.65734,0,0,0-1.13867-.30029A0.9999,0.9999,0,1,0,10.4209,7.69336Z" fill="#231f20"/><path d="M6.5,21.417a0.99974,0.99974,0,0,0-1,1v1a1,1,0,0,0,2,0v-1A0.99974,0.99974,0,0,0,6.5,21.417Z" fill="#231f20"/>
</symbol>
<symbol id="marshmallow" viewBox="0 0 32 32"><title>kamp</title><path d="M26.79883,10.61523a0.99989,0.99989,0,0,0-1.41406-1.41406L24.844,9.74194c0.11493-1.364-.29248-3.54041-2.96509-6.10278a0.50027,0.50027,0,0,0-.84619.3501,5.83483,5.83483,0,0,1-.56348,2.32422,2.30723,2.30723,0,0,1-.979-1.3623,4.9254,4.9254,0,0,1-.04883-2.75342,0.477,0.477,0,0,0-.20312-0.57715,0.54814,0.54814,0,0,0-.65674.0708c-0.51318.47754-1.04395,0.97168-1.53809,1.51758a14.30993,14.30993,0,0,0-3.8916,9.209,6.32979,6.32979,0,0,0,3.28625,5.72986L6.293,28.293A0.99989,0.99989,0,1,0,7.707,29.707L18.34808,19.066a5.326,5.326,0,0,0,2.95612,1.433,1.22613,1.22613,0,0,0,.90186-0.34131,1.0725,1.0725,0,0,0,.15-0.23346,0.48927,0.48927,0,0,0,.20007-0.11664l3.54541-3.54492c0.87469-.87469.53247-2.59-0.7561-4.20728,0.012-.01093.02771-0.01453,0.03931-0.02612Zm-12.647,1.80859a13.31042,13.31042,0,0,1,3.63379-8.54395c0.15576-.17236.31445-0.33838,0.479-0.50342a7.07061,7.07061,0,0,0,.26855,1.86377,3.34528,3.34528,0,0,0,1.95068,2.21533,0.49925,0.49925,0,0,0,.64941-0.22412,7.88147,7.88147,0,0,0,.77881-2.12109C24.308,7.7948,23.93176,9.78888,23.684,10.48163A6.04894,6.04894,0,0,0,22.11035,9.644a2.201,2.201,0,0,0-2.33057.29688l-3.89551,3.89551a0.49471,0.49471,0,0,0-.11139.17328c-0.46509.68323-.11658,1.80231,0.63763,2.92542A5.24953,5.24953,0,0,1,14.15186,12.42383ZM21.499,19.45068a1.22823,1.22823,0,0,1-1.01562-.17236,6.6704,6.6704,0,0,1-1.425-.92267l0.3161-.3161a0.99989,0.99989,0,0,0-1.41406-1.41406l-0.31128.31128a6.61526,6.61526,0,0,1-.8855-1.37769,1.22609,1.22609,0,0,1-.17236-1.01562,0.28085,0.28085,0,0,1,.19531-0.05273,5.39947,5.39947,0,0,1,2.96875,1.79639,7.70871,7.70871,0,0,1,1.57129,2.14844A1.225,1.225,0,0,1,21.499,19.45068Zm0.89874-.97058a0.49876,0.49876,0,0,0,.06018.01172l-0.04193.042C22.41071,18.51617,22.40344,18.49786,22.39777,18.4801Zm3.07611-4.135a0.4771,0.4771,0,0,0-.07739.05139l-3.25,3.25a0.48031,0.48031,0,0,0-.06183.09314,9.12068,9.12068,0,0,0-1.62225-2.15955,7.77152,7.77152,0,0,0-2.95355-1.95416l2.978-2.978a1.32061,1.32061,0,0,1,1.30957-.0542,5.861,5.861,0,0,1,2.15808,1.41113c0.007,0.00739.009,0.01721,0.01624,0.02441,0.01013,0.01013.0238,0.01318,0.03424,0.02277a5.89038,5.89038,0,0,1,1.44379,2.194C25.46027,14.281,25.46381,14.311,25.47388,14.34509Z" fill="#231f20"/>
</symbol>
<symbol id="matches" viewBox="0 0 32 32"><title>kamp</title><path d="M22.5,9H22V2.5A0.49971,0.49971,0,0,0,21.5,2H9.5a0.49971,0.49971,0,0,0-.5.5V9H8.5a0.49971,0.49971,0,0,0-.5.5v21a0.49971,0.49971,0,0,0,.5.5h14a0.49971,0.49971,0,0,0,.5-0.5V9.5A0.49971,0.49971,0,0,0,22.5,9ZM18,9V8h1V9H18ZM16,9V6.5a1.5,1.5,0,0,0-3,0V9H12V6.5A1.50164,1.50164,0,0,0,10.5,5a1.48253,1.48253,0,0,0-.5.0921V4H21V5.0921a1.45315,1.45315,0,0,0-1.5.298A1.49347,1.49347,0,0,0,17,6.5V9H16ZM14,8h1V9H14V8Zm6,0h1V9H20V8ZM10,8h1V9H10V8ZM9.5,10H22V28H9V10H9.5Z" fill="#231f20"/><path d="M10.5,27h10a0.49971,0.49971,0,0,0,.5-0.5v-15a0.49971,0.49971,0,0,0-.5-0.5h-10a0.49971,0.49971,0,0,0-.5.5v15A0.49971,0.49971,0,0,0,10.5,27ZM11,12h9V26H11V12Z" fill="#231f20"/><path d="M17.92285,15.2666L17.00293,14.877l0.10742-.9502a0.50016,0.50016,0,0,0-.78516-0.46436L15.5,14.04395l-0.8252-.58154a0.50016,0.50016,0,0,0-.78516.46436l0.10742,0.9502-0.91992.38965a0.50026,0.50026,0,0,0,0,.9209l0.91992,0.39014-0.10742.9502a0.5013,0.5013,0,0,0,.24219.48584,0.495,0.495,0,0,0,.543-0.02148L15.5,17.41064l0.8252,0.58154a0.50016,0.50016,0,0,0,.78516-0.46436l-0.10742-.9502,0.91992-.39014A0.50026,0.50026,0,0,0,17.92285,15.2666Z" fill="#231f20"/><path d="M17.92285,21.18359l-0.91992-.39014,0.10742-.94971a0.50016,0.50016,0,0,0-.78516-0.46436L15.5,19.96045l-0.8252-.58105a0.50016,0.50016,0,0,0-.78516.46436l0.10742,0.94971-0.91992.39014a0.50026,0.50026,0,0,0,0,.9209l0.91992,0.38965-0.10742.9502a0.50016,0.50016,0,0,0,.78516.46436L15.5,23.32715l0.8252,0.58154a0.50016,0.50016,0,0,0,.78516-0.46436l-0.10742-.9502,0.91992-.38965A0.50026,0.50026,0,0,0,17.92285,21.18359Z" fill="#231f20"/>
</symbol>
<symbol id="offroad" viewBox="0 0 32 32"><title>kamp</title><path d="M13.5,15h5a0.49971,0.49971,0,0,0,.5-0.5v-4a0.49971,0.49971,0,0,0-.5-0.5h-3a0.5002,0.5002,0,0,0-.44727.27637l-2,4A0.50019,0.50019,0,0,0,13.5,15Zm2.30908-4H18v3H14.30908Z" fill="#231f20"/><path d="M20.5,15h6a0.49971,0.49971,0,0,0,.5-0.5v-4a0.49971,0.49971,0,0,0-.5-0.5h-6a0.49971,0.49971,0,0,0-.5.5v4A0.49971,0.49971,0,0,0,20.5,15ZM26,11v3H24V11h2Zm-5,0h2v3H21V11Z" fill="#231f20"/><path d="M30.5,13H29V8.707l0.85291-.85291A0.50607,0.50607,0,0,0,30,7.5v-2A0.49971,0.49971,0,0,0,29.5,5H29V2.5625a0.49971,0.49971,0,0,0-.5-0.5h-4a0.49971,0.49971,0,0,0-.5.5V5H22.98315A2.162,2.162,0,0,0,20.8335,3h-4.667a2.162,2.162,0,0,0-2.14966,2H13.5a0.49971,0.49971,0,0,0-.5.5v2a0.50607,0.50607,0,0,0,.14709.35413l0.74481,0.74481L11.17432,14.0332l-6.93652.77051A2.51251,2.51251,0,0,0,2,17.30371V19.9585H1.5a0.49971,0.49971,0,0,0-.5.5V21.5a0.49971,0.49971,0,0,0,.5.5H3.57184l0.08362,0.0249A3.452,3.452,0,0,0,3.5,23a3.48925,3.48925,0,0,0,1.726,3H3.5a0.5,0.5,0,0,0,0,1h23a0.5,0.5,0,0,0,0-1H24.774a3.40484,3.40484,0,0,0,1.60071-3.87823l0.52136-.26074,0.081-.02411-0.00427-.01422,1.75085-.87543A0.5002,0.5002,0,0,0,29,20.5V20h1.5a0.49971,0.49971,0,0,0,.5-0.5v-6A0.49971,0.49971,0,0,0,30.5,13ZM7,21.5A1.5,1.5,0,1,1,5.5,23,1.50164,1.50164,0,0,1,7,21.5Zm0-2a3.46365,3.46365,0,0,0-.546.05524,2.72541,2.72541,0,0,1,1.09155-.00006A3.46624,3.46624,0,0,0,7,19.5Zm16,2A1.5,1.5,0,1,1,21.5,23,1.50164,1.50164,0,0,1,23,21.5Zm0-2a3.46365,3.46365,0,0,0-.546.05524,2.72541,2.72541,0,0,1,1.09155-.00006A3.46624,3.46624,0,0,0,23,19.5Zm3.18488,0.59851A3.96587,3.96587,0,0,0,19.897,20H10.10266A3.95915,3.95915,0,0,0,3.897,20H3V19H3.5A1.50164,1.50164,0,0,0,5,17.5V17H17v0.5a0.49971,0.49971,0,0,0,.5.5h1a0.49971,0.49971,0,0,0,.5-0.5V17h8v0.5a0.49971,0.49971,0,0,0,.5.5H28v1.19092ZM3.0567,17H4v0.5a0.50034,0.50034,0,0,1-.5.5H3V17.30371A1.45981,1.45981,0,0,1,3.0567,17ZM24.5,6H25V7H24V6h0.5ZM29,6V7H28V6h1ZM26.5,6H27V7H26V6h0.5ZM23,6V7H22V6h1ZM21,7H20V6h1V7ZM19,6V7H18V6h1ZM17,7H16V6h1V7ZM28,5H27V3.0625h1V5ZM25,3.0625h1V5H25V3.0625ZM21.98828,5H19V4.03125C19,4.02014,18.99445,4.01093,18.99371,4H20.8335A1.16845,1.16845,0,0,1,21.98828,5ZM16.1665,4h1.83978C18.00555,4.01093,18,4.02014,18,4.03125V5H15.01172A1.16845,1.16845,0,0,1,16.1665,4ZM14,6h1V7H14V6ZM4.34814,15.79785l7.207-.80078a0.50053,0.50053,0,0,0,.39209-0.27344L14.80957,9H28v7H3.76215A1.49307,1.49307,0,0,1,4.34814,15.79785ZM8.774,26A3.48925,3.48925,0,0,0,10.5,23a3.45066,3.45066,0,0,0-.15533-0.97461L10.42981,22h9.142l0.08362,0.0249A3.452,3.452,0,0,0,19.5,23a3.48925,3.48925,0,0,0,1.726,3H8.774Z" fill="#231f20"/><circle cx="7" cy="23" r="0.5" fill="#231f20"/><circle cx="23" cy="23" r="0.5" fill="#231f20"/><path d="M30.5,26h-2a0.5,0.5,0,0,0,0,1h2A0.5,0.5,0,0,0,30.5,26Z" fill="#231f20"/>
</symbol>
<symbol id="paddles" viewBox="0 0 32 32"><title>kamp</title><path d="M30.97339,26.66583c0.00562-.032.017-0.06219,0.02173-0.09454l-0.03137-.00464a3.461,3.461,0,0,0-.98914-2.10376,37.41622,37.41622,0,0,0-9.73828-7.01953l-0.292-.145-0.01172-.00586-1.88434-1.88531,8.91461-8.915,0.60449-.60449a4.37163,4.37163,0,0,1,1.7002-1.05078l0.47461-.1582a0.8656,0.8656,0,0,0,.33789-1.43311l-1.99219-1.9917a0.86552,0.86552,0,0,0-1.43359.33887l-0.15723.47314A4.38051,4.38051,0,0,1,25.44629,3.7666l-0.60449.60449-8.91553,8.91553L7.07422,4.43457l-0.001-.00146-0.60449-.605A4.3636,4.3636,0,0,1,5.418,2.12842l-0.1582-.47461a0.86674,0.86674,0,0,0-1.43359-.33838V1.31592L1.833,3.30859a0.86609,0.86609,0,0,0,.33984,1.43213l0.47363,0.1582A4.38807,4.38807,0,0,1,4.34766,5.94971l0.60449,0.605L13.80493,15.408l-1.95142,1.95142-0.13184.06592a37.39183,37.39183,0,0,0-9.73828,7.019A3.50015,3.50015,0,0,0,6.93359,29.394c0.4317-.43164.82977-0.89148,1.23877-1.34222,0.03-.024.05829-0.03992,0.08838-0.06451l-0.01355-.0166Q9.11072,27.01324,9.90234,26H9.958V25.929q0.96835-1.241,1.82922-2.5589a0.4903,0.4903,0,0,0,.13837-0.20917,37.47874,37.47874,0,0,0,2.02655-3.50513l0.14551-.2915,0.00684-.01318,1.82239-1.82251,2.01355,2.0144,0.06543,0.13135a37.41122,37.41122,0,0,0,7.01953,9.73828A3.5,3.5,0,0,0,31,26.938C31,26.84558,30.98047,26.757,30.97339,26.66583ZM24.88959,21.438H22.5a0.49971,0.49971,0,0,0-.5.5v2.389c-0.35223-.48566-0.67206-0.99384-1-1.49658V20.438h2.39313C23.89587,20.76593,24.404,21.08575,24.88959,21.438Zm2.04791,7.16888V23.04346c0.36438,0.3064.70978,0.63574,1.0625,0.95667v4.60059A2.48707,2.48707,0,0,1,26.9375,28.60687ZM25,27.69226V22.438h0.9375v5.81409A7.055,7.055,0,0,1,25,27.69226ZM23,22.438h1v4.3905c-0.34644-.39862-0.67163-0.81317-1-1.22589V22.438Zm6.96643,4.15582a2.47494,2.47494,0,0,1-.66663,1.23334A3.89166,3.89166,0,0,1,29,28.09747V24.923c0.08685,0.08514.18152,0.16089,0.26758,0.24695A2.47118,2.47118,0,0,1,29.96643,26.59381ZM25.603,6.438l-0.707-.707,0.29932-.29932,0.707,0.707Zm0.55029-1.96436a5.38188,5.38188,0,0,0,1.293-2.09229l0.08887-.2666,1.68359,1.68457-0.26758.08887a5.37539,5.37539,0,0,0-2.09082,1.29248l-0.251.251-0.707-.707ZM2.96289,3.95068L2.69531,3.86084,4.37988,2.17676,4.46875,2.44482a5.3632,5.3632,0,0,0,1.293,2.09082l0.251,0.251-0.707.707-0.251-.25146A5.38384,5.38384,0,0,0,2.96289,3.95068ZM6.71973,5.49414L6.947,5.72144l-0.707.707L6.0127,6.20117ZM6.947,7.1355l0.707-.707,7.56519,7.56519-0.70728.70728ZM8.958,22.5v3.08508c-0.32837.41272-.6535,0.82721-1,1.22583V22.5h1Zm-5,6.093V24H3.93823c0.33948-.30933.66943-0.63007,1.01978-0.9259v5.54608A2.45518,2.45518,0,0,1,3.958,28.593Zm3-.87909a6.82508,6.82508,0,0,1-1,.58307V22.5h1v5.21393Zm-4-2.80945v3.16565c-0.09521-.07916-0.1853-0.16071-0.26758-0.243a2.47689,2.47689,0,0,1-.69049-1.33759,2.47482,2.47482,0,0,1,.69049-1.3382C2.77649,25.06531,2.87115,24.98962,2.958,24.90448ZM9.458,21.5H6.96625c0.48132-.35175.9826-0.67444,1.48083-1.0022L8.458,20.5h2.5v2.31244c-0.32794.50281-.64777,1.01111-1,1.49677V22A0.49971,0.49971,0,0,0,9.458,21.5Zm3.81738-2.73437a0.46718,0.46718,0,0,0-.13086.27l-0.08691.17334c-0.34058.681-.71881,1.33893-1.09961,1.99493V20a0.49971,0.49971,0,0,0-.5-0.5H10.02783c0.70209-.41187,1.41016-0.8147,2.14111-1.18018l0.2041-.10205a0.50057,0.50057,0,0,0,.12988-0.09375l2.267-2.267a0.34857,0.34857,0,0,0,.19116-0.19116L24.189,6.438l0.707,0.707Zm5.52344,0.2583a0.48409,0.48409,0,0,0-.09375-0.13037L17.2066,17.39447l0.70734-.70734,1.43274,1.43347a0.4801,0.4801,0,0,0,.26172.12744L19.79,18.33838c0.681,0.34052,1.33881.71881,1.99481,1.09961H20.5a0.49971,0.49971,0,0,0-.5.5V21.222c-0.3808-.65594-0.75909-1.31366-1.09961-1.99451Z" fill="#231f20"/>
</symbol>
<symbol id="picnic-table" viewBox="0 0 32 32"><title>kamp</title><path d="M29.5,23a0.48711,0.48711,0,0,0,.2359-0.067,0.46341,0.46341,0,0,0,.05194-0.035,0.48773,0.48773,0,0,0,.1366-0.14929c0.00592-.01.01758-0.01453,0.02283-0.025l1-2L30.95,20.71057A0.492,0.492,0,0,0,31,20.5v-2a0.49971,0.49971,0,0,0-.5-0.5h-6a0.49971,0.49971,0,0,0-.5.5V20H23.47168l-2.25-6H26.5a0.49971,0.49971,0,0,0,.5-0.5v-2a0.4684,0.4684,0,0,0-.0144-0.07153A0.4684,0.4684,0,0,0,27,11.35693V9.5A0.49971,0.49971,0,0,0,26.5,9h-4c-0.0155,0-.02844.00739-0.04358,0.00879H6.5a0.49971,0.49971,0,0,0-.5.5v1.85742a0.47212,0.47212,0,0,0,.01349.06689A0.47212,0.47212,0,0,0,6,11.5v2a0.49971,0.49971,0,0,0,.5.5h5.27832l-2.25,6H9V18.5A0.49971,0.49971,0,0,0,8.5,18h-6a0.49971,0.49971,0,0,0-.5.5v2a0.492,0.492,0,0,0,.05.21057l0.00275,0.01306,1,2c0.00525,0.0105.01691,0.015,0.02283,0.025a0.48772,0.48772,0,0,0,.1366.14929,0.46341,0.46341,0,0,0,.05194.035A0.48711,0.48711,0,0,0,3.5,23H8.40332l-2.25,6H2.5a0.5,0.5,0,0,0,0,1h28a0.5,0.5,0,0,0,0-1H26.84668l-2.25-6H29.5ZM9.875,21H23.19092l0.5,1H22.5a0.5,0.5,0,0,0-1,0h-10a0.5,0.5,0,0,0-1,0H9.49237l-0.3125-1H9.875Zm6.65332-6,1.875,5H14.59668l1.875-5h0.05664Zm-3.05664,8h6.05664l2.25,6H11.22168ZM25,19h5v1H25V19Zm-5.52832,1-1.875-5h2.93164l1.875,5H19.47168ZM26,10.85693H23V10h3v0.85693Zm-4,.00928H19V10.00879h3v0.85742Zm-4,0H15V10.00879h3v0.85742Zm-4,0H11V10.00879h3v0.85742Zm-7-.85742h3v0.85742H7V10.00879ZM7,12H7.5a0.5,0.5,0,0,0,1,0h16a0.5,0.5,0,0,0,1,0H26v1H7V12Zm5.47168,3h2.93164l-1.875,5H10.59668ZM3,19H8v1H3V19ZM7.22168,29l1.875-5h2.93164l-1.875,5H7.22168Zm15.625,0-1.875-5h2.93164l1.875,5H22.84668Z" fill="#231f20"/>
</symbol>
<symbol id="rope" viewBox="0 0 32 32"><title>kamp</title><path d="M27.98871,22.53839a0.49349,0.49349,0,0,0-.35-0.51886A3.74817,3.74817,0,0,1,25,18.50488l-0.00031-.00171L25,18.5a1.48855,1.48855,0,0,0-.39014-1,1.47667,1.47667,0,0,0,0-2A1.49347,1.49347,0,0,0,23.5,13H23.36206c0.08051-.41656.16522-0.81189,0.261-1.1709a6.78845,6.78845,0,0,0,.11377-3.43555,8.50223,8.50223,0,0,0-16.6001.5791A6.59034,6.59034,0,0,0,7.28613,11.688c0.10577,0.44263.183,0.87671,0.26459,1.312H7.5a1.49347,1.49347,0,0,0-1.10986,2.5,1.47667,1.47667,0,0,0,0,2A1.49347,1.49347,0,0,0,7.5,20H7.72308a11.63108,11.63108,0,0,1-.28461,1.20508,6.655,6.655,0,0,0,.05859,4.16553,8.5029,8.5029,0,0,0,16.23975-.76416,5.53655,5.53655,0,0,0,.1449-0.96283,5.39954,5.39954,0,0,0,2.51868,1.34613A0.50117,0.50117,0,0,0,26.50049,25c0.01306,0,.02472-0.00549.0376-0.00653a0.62545,0.62545,0,0,0,.16211.029,0.69642,0.69642,0,0,0,.29053-0.06543,2.156,2.156,0,0,0,.84814-1.15771A2.4592,2.4592,0,0,0,27.98871,22.53839Zm-7.3642-1.23175a5.33528,5.33528,0,0,1-2.98389,6.26123A5.59474,5.59474,0,0,1,12,26.74268a5.24685,5.24685,0,0,1-1.65332-5.32617c0.035-.13226.06567-0.27814,0.09857-0.4165h0.9693c-0.0282.11169-.05316,0.23108-0.083,0.33936A4.38582,4.38582,0,0,0,17.47949,26.542a4.50816,4.50816,0,0,0,2.16406-5.293c-0.02136-.07916-0.03931-0.16779-0.05981-0.249H20.5531C20.57727,21.10089,20.59894,21.20807,20.62451,21.30664Zm-1.9458.20361a3.5117,3.5117,0,0,1-1.63965,4.13428,3.55146,3.55146,0,0,1-4.0166-.67236,3.44831,3.44831,0,0,1-.72705-3.3667V21.605c0.05389-.19519.10291-0.39948,0.15161-0.605h0.964c-0.06757.2674-.13312,0.53583-0.21179,0.79639a2.43484,2.43484,0,1,0,4.60156-.00049c-0.07867-.26031-0.14417-0.52869-0.21173-0.7959h0.96387C18.59381,21.17249,18.63428,21.34595,18.67871,21.51025Zm-1.30695-1.48444L17.36664,20H17.5A0.48392,0.48392,0,0,0,17.37177,20.02582Zm-0.528,2.05963a1.49,1.49,0,0,1-.28369,1.4751,1.53374,1.53374,0,0,1-2.12061,0,1.4904,1.4904,0,0,1-.2832-1.47461A19.46278,19.46278,0,0,0,14.66113,20h1.67773A19.42533,19.42533,0,0,0,16.84375,22.08545Zm-3.21552-2.05963A0.48343,0.48343,0,0,0,13.5,20h0.13336ZM7,16.5A0.50034,0.50034,0,0,1,7.5,16h16a0.5,0.5,0,0,1,0,1H7.5A0.50034,0.50034,0,0,1,7,16.5Zm1.25879-5.04395a5.61861,5.61861,0,0,1-.1377-2.30469,7.50209,7.50209,0,0,1,14.647-.51074,5.816,5.816,0,0,1-.11084,2.93066c-0.11768.43945-.22217,0.91016-0.31738,1.42871h-0.9834c0.07275-.37939.1499-0.72363,0.23584-1.05518a6.34019,6.34019,0,0,0-3.562-7.43359,6.61059,6.61059,0,0,0-6.667.97461,6.18388,6.18388,0,0,0-1.9834,6.35449C9.47559,12.19971,9.562,12.58252,9.64258,13h-1.062C8.48779,12.48975,8.38281,11.97559,8.25879,11.45605ZM19.36328,13c0.08569-.44275.17633-0.86371,0.28027-1.24854A4.50888,4.50888,0,0,0,17.48,6.458a4.56516,4.56516,0,0,0-5.16553.86377,4.445,4.445,0,0,0-.98291,4.33936c0.11371,0.41174.21191,0.863,0.3042,1.33887H10.655c-0.094-.50873-0.19391-0.98468-0.30835-1.4165A5.24685,5.24685,0,0,1,12,6.25732a5.593,5.593,0,0,1,5.64063-.8252,5.33528,5.33528,0,0,1,2.98389,6.26123C20.5199,12.09607,20.43,12.53015,20.34369,13H19.36328Zm-5.207-2.08545a1.49,1.49,0,0,1,.28369-1.4751,1.53374,1.53374,0,0,1,2.12061,0,1.4904,1.4904,0,0,1,.2832,1.47461A19.46278,19.46278,0,0,0,16.33887,13H14.66113A19.42533,19.42533,0,0,0,14.15625,10.91455Zm3.11182-2.18213a2.5604,2.5604,0,0,0-3.53564,0,2.46342,2.46342,0,0,0-.5332,2.47168c0.17407,0.57611.31232,1.175,0.43414,1.7959H12.65967c-0.10742-.58105-0.22705-1.10937-0.36426-1.60547a3.44831,3.44831,0,0,1,.72705-3.3667,3.55064,3.55064,0,0,1,4.0166-.67236,3.5117,3.5117,0,0,1,1.63965,4.13428v0.00049C18.55225,11.957,18.44092,12.4541,18.34033,13H17.36664c0.12183-.62091.26007-1.21991,0.43414-1.79639A2.46373,2.46373,0,0,0,17.26807,8.73242ZM7.5,14h16a0.5,0.5,0,0,1,0,1H7.5A0.5,0.5,0,0,1,7.5,14ZM7,18.5A0.50034,0.50034,0,0,1,7.5,18h16a0.5,0.5,0,0,1,0,1H7.5A0.50034,0.50034,0,0,1,7,18.5Zm15.76807,5.85938a7.50292,7.50292,0,0,1-14.32959.67334,5.6523,5.6523,0,0,1-.04395-3.53564C8.44305,21.3382,8.48529,21.1684,8.52832,21H9.41608c-0.01282.05042-.023,0.11017-0.03619,0.15967a6.18388,6.18388,0,0,0,1.9834,6.35449,6.60692,6.60692,0,0,0,6.667.97461,6.34054,6.34054,0,0,0,3.562-7.43408C21.58783,21.03754,21.58447,21.01721,21.58008,21H22.5a0.46391,0.46391,0,0,0,.05011-0.01013c0.03516,0.14777.0694,0.298,0.10712,0.43884A5.816,5.816,0,0,1,22.76807,24.35938ZM23.90674,22.209a0.48049,0.48049,0,0,0-.08423-0.07812,8.78979,8.78979,0,0,0-.19946-0.96c-0.01575-.059-0.029-0.12592-0.04425-0.18622a0.48817,0.48817,0,0,0,.27472-0.13116l0.50916-.50916a4.78577,4.78577,0,0,0,2.14453,2.26941,3.512,3.512,0,0,0-.2821.58691,3.44185,3.44185,0,0,0-.17273.648A5.27393,5.27393,0,0,1,23.90674,22.209Z" fill="#231f20"/>
</symbol>
<symbol id="rv" viewBox="0 0 32 32"><title>kamp</title><path d="M7.5,17h5a0.49971,0.49971,0,0,0,.5-0.5v-3a0.49971,0.49971,0,0,0-.5-0.5h-4a0.501,0.501,0,0,0-.47461.3418l-1,3A0.50063,0.50063,0,0,0,7.5,17Zm1.36035-3H12v2H8.19336Z" fill="#231f20"/><path d="M28.5,12h-6a0.49971,0.49971,0,0,0-.5.5v4a0.49971,0.49971,0,0,0,.5.5h6a0.49971,0.49971,0,0,0,.5-0.5v-4A0.49971,0.49971,0,0,0,28.5,12ZM23,16V13h2v3H23Zm5,0H26V13h2v3Z" fill="#231f20"/><path d="M30.5,26h-2a0.5,0.5,0,0,0,0,1h2A0.5,0.5,0,0,0,30.5,26Z" fill="#231f20"/><path d="M28.50293,7H4.5a0.50036,0.50036,0,0,0-.48535.37891L3.32422,10.14209A1.49469,1.49469,0,0,0,4.77441,12H6.7619l-1.631,4.07715-2.84863.71191A1.51535,1.51535,0,0,0,1.16016,18.5l0.24615,1.47736A0.49275,0.49275,0,0,0,1,20.4585V21.5a0.49971,0.49971,0,0,0,.5.5H1.74329l0.26355,1.582A0.50011,0.50011,0,0,0,2.5,24h1V23.97906l0.04968,0.01257A2.99734,2.99734,0,0,0,4.84772,26H3.5a0.5,0.5,0,0,0,0,1h23a0.5,0.5,0,0,0,0-1H24.15228a2.99754,2.99754,0,0,0,1.29718-2H30.5a0.49971,0.49971,0,0,0,.5-0.5V9.49658A2.49971,2.49971,0,0,0,28.50293,7ZM12,8V9H9V8h3ZM2.52441,17.75928l3.09668-.77441a0.4969,0.4969,0,0,0,.34277-0.29932L7.83807,12H14v7H10.707l0.14648-.14648A0.5,0.5,0,0,0,10.5,18H2.2121A0.50351,0.50351,0,0,1,2.52441,17.75928ZM15,12h5v7H15V12Zm8.5,11.5a1,1,0,0,1-2,0V23h2v0.5ZM2.60278,19.97919A0.47818,0.47818,0,0,0,2.5,19.9585H2.417L2.2572,19H3v0.5A0.49355,0.49355,0,0,1,2.60278,19.97919ZM2.745,21.92688A0.49307,0.49307,0,0,0,3,21.5V20.9079A1.49758,1.49758,0,0,0,4,19.5V19H9.293l-0.14648.14648A0.5,0.5,0,0,0,9.5,20H14v2H9.19958a3.57809,3.57809,0,0,0-1.46106-1.22485c-0.03076-.014-0.05908-0.03174-0.09039-0.0448a3.12911,3.12911,0,0,0-.36945-0.11493c-0.06543-.01776-0.12744-0.04309-0.19452-0.0564a2.92075,2.92075,0,0,0-1.1684,0c-0.06622.01312-.12738,0.03815-0.192,0.0556a3.11266,3.11266,0,0,0-.37268.116c-0.02979.01239-.05676,0.0293-0.08612,0.04266A3.57719,3.57719,0,0,0,3.80011,22H2.7572ZM6.5,22.5a1,1,0,1,1-1,1A1.001,1.001,0,0,1,6.5,22.5Zm13.5-1V22H15V20h5v1.5ZM8.15228,26a2.99754,2.99754,0,0,0,1.29718-2H19.55054a2.99754,2.99754,0,0,0,1.29718,2H8.15228ZM26,22H25.707l-0.85352-.85352A0.49964,0.49964,0,0,0,24.5,21H21V20h9v2H26Zm4-10v6H29a0.49971,0.49971,0,0,0-.5.5V19H21V11.5a0.49971,0.49971,0,0,0-.5-0.5H4.77441a0.49484,0.49484,0,0,1-.47949-0.61523L4.89063,8H8V9.5a0.49971,0.49971,0,0,0,.5.5h4A0.49971,0.49971,0,0,0,13,9.5V8H28.50293A1.49872,1.49872,0,0,1,30,9.49658V10H29a0.5,0.5,0,0,0,0,1h1v1Z" fill="#231f20"/><path d="M18.5,13h-2a0.49971,0.49971,0,0,0-.5.5v3a0.49971,0.49971,0,0,0,.5.5h2a0.49971,0.49971,0,0,0,.5-0.5v-3A0.49971,0.49971,0,0,0,18.5,13ZM18,16H17V14h1v2Z" fill="#231f20"/>
</symbol>
<symbol id="sleeping-bag" viewBox="0 0 32 32"><title>kamp</title><path d="M23.5,1H7.5a0.49971,0.49971,0,0,0-.5.5v27A2.50294,2.50294,0,0,0,9.5,31h14A2.50294,2.50294,0,0,0,26,28.5V3.5A2.50294,2.50294,0,0,0,23.5,1ZM9.793,2l3.808,3.808-0.907.679L8.207,2H9.793Zm3,0,2.52362,2.52362-0.90692.679L11.207,2H12.793Zm3,0,1.23932,1.23932L16.239,3.83319a0.48383,0.48383,0,0,0-.06732.05042l-0.04633.03467L14.207,2H15.793Zm3.0752,0,1.08337,1.08337c-0.41827-.01361-0.86432-0.025-1.34216-0.034l-0.543-.19L17.207,2h1.66113Zm3.07178,0,1.28284,1.28284q-0.75146-.08029-1.795-0.13727L20.28223,2h1.65771ZM17.77075,3.936a0.48736,0.48736,0,0,0,.17291.053L17.061,11.45361l-1.10632-.1106,1.00763-6.80176ZM8.82813,10.63037l0.35742-.26758-0.09784.29352Zm6.99713-5.238-0.86676,5.851-0.97717-.09772L14.9549,6.044Zm-2.84308,5.65338-0.95441-.09546L12.86285,7.61,13.767,6.93323Zm-1.96014-.196-0.91461-.09143L10.5896,9.31177l1.00507-.75238Zm0.86328-3.75739-0.907.679L8,4.793V3.207Zm-1.7157,1.2843-0.90692.679L8,7.793V6.207ZM8.454,9.661L8,10.00085V9.207ZM8,19.66986c1.62891-.89636,15.37109-0.89636,17,0V23.64c-1.11249-.3443-3.466-0.64-8.5-0.64s-7.38751.29572-8.5,0.64V19.66986ZM16.5,18c-5.034,0-7.38751.29572-8.5,0.64V14.66986c1.62891-.89636,15.37109-0.89636,17,0V18.64C23.88751,18.29572,21.534,18,16.5,18Zm0-5c-5.034,0-7.38751.29572-8.5,0.64V12.5h9.50049a0.49362,0.49362,0,0,0,.1861-0.0376,0.48674,0.48674,0,0,0,.05811-0.03534,0.31411,0.31411,0,0,0,.14417-0.12567,0.482,0.482,0,0,0,.05933-0.08807,0.48914,0.48914,0,0,0,.02478-0.07916,0.47619,0.47619,0,0,0,.02362-0.07556L18.35712,9.009C22.78033,9.0976,24.56921,9.42932,25,9.64691V13.64C23.88751,13.29572,21.534,13,16.5,13Zm1.97491-4.98773,0.46771-3.95636C23.581,4.16022,24.72687,4.50836,25,4.64911V8.59033A29.65227,29.65227,0,0,0,18.47491,8.01227ZM25,3.5V3.593c-0.02441-.00714-0.04865-0.01428-0.07428-0.0213L23.354,2H23.5A1.50164,1.50164,0,0,1,25,3.5ZM8,24.66986c1.62891-.89636,15.37109-0.89636,17,0V28.5a1.48639,1.48639,0,0,1-.04419.34583C24.19543,28.42621,22.16632,28,16.75,28c-6.88062,0-8.291.687-8.58185,1.17548A1.48082,1.48082,0,0,1,8,28.5V24.66986Z" fill="#231f20"/>
</symbol>
<symbol id="tent" viewBox="0 0 32 32"><title>kamp</title><path d="M30.5,26H30.12225l0.86212-3.37646A0.49974,0.49974,0,0,0,30.5,22h-1a0.49971,0.49971,0,0,0-.5.5v1.44006l-1.59326-2.23059-0.00458-.00427-0.00372-.00745L16.62622,7.498,18.2749,5.2998a0.4998,0.4998,0,1,0-.7998-0.59961L15.98755,6.68365,14.39063,4.6875a0.50024,0.50024,0,0,0-.78125.625L15.366,7.5083,4.60156,21.69775a0.49374,0.49374,0,0,0-.06995.13977L3,23.95532V22.5A0.49971,0.49971,0,0,0,2.5,22h-1a0.49974,0.49974,0,0,0-.48437.62354L1.87775,26H1.5a0.5,0.5,0,0,0,0,1h2a0.5,0.5,0,0,0,0-1H3V25.662l2.43652-3.369,0.00293-.00641L7,21.0097V25.5a0.49971,0.49971,0,0,0,.5.5h-1a0.5,0.5,0,0,0,0,1h19a0.5,0.5,0,0,0,0-1h-1a0.49971,0.49971,0,0,0,.5-0.5V21.0097l1.63239,1.33563L29,25.66V26H28.5a0.5,0.5,0,0,0,0,1h2A0.5,0.5,0,0,0,30.5,26ZM12.5285,25c0.16571-.47931.69263-2.04315,2.42261-7.25183L14.058,25H12.5285ZM24.0174,18.91357L16.5,12.763V8.98627l7.52026,9.91315ZM15.5,12.763L7.9826,18.91357l-0.00287-.01416L15.5,8.98627V12.763ZM8,20.49109A0.48417,0.48417,0,0,0,8.09937,20.486a0.49326,0.49326,0,0,0,.09015-0.03381,0.4714,0.4714,0,0,0,.07562-0.02838L14.251,16.68292c-1.19678,3.60321-2.60937,7.84784-2.7124,8.12421A0.4942,0.4942,0,0,0,11.50116,25H8V20.49109ZM17.942,25l-0.897-7.28339L19.47314,25H17.942Zm2.55157,0a0.49054,0.49054,0,0,0-.01947-0.1582l-2.7182-8.15454,5.97894,3.73657a0.49667,0.49667,0,0,0,.26465.07617L24,20.49988V25H20.49359Z" fill="#231f20"/>
</symbol>
<symbol id="thermos" viewBox="0 0 32 32"><title>kamp</title><path d="M23.5,13h-1a0.4964,0.4964,0,0,0-.46527.3277L21,12.293V11.5a0.503,0.503,0,0,0-.14709-0.35413L19,9.293V2.5A1.50164,1.50164,0,0,0,17.5,1h-5A1.50164,1.50164,0,0,0,11,2.5V9.293L9.14709,11.14587A0.503,0.503,0,0,0,9,11.5v17A1.50164,1.50164,0,0,0,10.5,30h-1a0.5,0.5,0,0,0,0,1h11a0.5,0.5,0,0,0,0-1h-1A1.50164,1.50164,0,0,0,21,28.5V24.707l1.03473-1.03473A0.4964,0.4964,0,0,0,22.5,24h1A1.50164,1.50164,0,0,0,25,22.5v-8A1.50164,1.50164,0,0,0,23.5,13ZM23,14h0.5a0.50065,0.50065,0,0,1,.5.5V22H23V14ZM10,25V12h2.5a0.5,0.5,0,0,0,0-1H10.707l1-1H18.293l1,1H17.5a0.5,0.5,0,0,0,0,1H20V25H10ZM21,14.707l1,1V21.293l-1,1V14.707ZM12,2.5A0.50065,0.50065,0,0,1,12.5,2h5a0.50065,0.50065,0,0,1,.5.5V8H12V2.5ZM19.5,29h-9a0.50065,0.50065,0,0,1-.5-0.5V26h1v1.5a0.5,0.5,0,0,0,1,0V26h8v2.5A0.50065,0.50065,0,0,1,19.5,29Z" fill="#231f20"/><path d="M17.5,13h-5A1.50164,1.50164,0,0,0,11,14.5v1A1.50164,1.50164,0,0,0,12.5,17h5A1.50164,1.50164,0,0,0,19,15.5v-1A1.50164,1.50164,0,0,0,17.5,13ZM18,15.5a0.50065,0.50065,0,0,1-.5.5h-5a0.50065,0.50065,0,0,1-.5-0.5v-1a0.50065,0.50065,0,0,1,.5-0.5h5a0.50065,0.50065,0,0,1,.5.5v1Z" fill="#231f20"/><path d="M13.5,3a0.49971,0.49971,0,0,0-.5.5v3a0.5,0.5,0,0,0,1,0v-3A0.49971,0.49971,0,0,0,13.5,3Z" fill="#231f20"/>
</symbol>
<symbol id="tree" viewBox="0 0 32 32"><title>kamp</title><path d="M25.5,29H20.707l0.14648-.14648a0.49995,0.49995,0,0,0-.707-0.707l-0.82129.82129,0.62207-1.24414a0.50006,0.50006,0,0,0-.89453-0.44727L19,27.38184V24h6.5a0.50039,0.50039,0,0,0,.38428-0.82031L21.56738,18H24.5a0.50039,0.50039,0,0,0,.38428-0.82031L20.56738,12H23.5a0.5,0.5,0,0,0,.35352-0.85352L19.707,7H21.5a0.5,0.5,0,0,0,.35352-0.85352l-5-5a0.49982,0.49982,0,0,0-.707,0l-5,5A0.5,0.5,0,0,0,11.5,7h1.71692l-0.11414.19019-3.9563,3.9563A0.5,0.5,0,0,0,9.5,12h2.93262L8.11572,17.17969A0.50039,0.50039,0,0,0,8.5,18h2.93262L7.11572,23.17969A0.50039,0.50039,0,0,0,7.5,24H14v3.84863l-1.084-1.626a0.5,0.5,0,0,0-.832.55469l1.19922,1.79883-0.42969-.42969a0.49995,0.49995,0,0,0-.707.707L12.293,29H7.5a0.5,0.5,0,0,0,0,1h18A0.5,0.5,0,0,0,25.5,29ZM11.9187,18.97882A0.47418,0.47418,0,0,0,12,19h2.5a0.50034,0.50034,0,0,0,.22363-0.05273l2-1a0.49029,0.49029,0,0,0,.10205-0.07477c0.00946-.00824.0213-0.01312,0.03015-0.02209a0.49706,0.49706,0,0,0,.1-0.14832c0.00623-.014.00751-0.02979,0.01245-0.04449a0.48971,0.48971,0,0,0,.02716-0.13477C16.99579,17.51483,17,17.50812,17,17.5c0-.01538-0.00739-0.02832-0.00873-0.04333a0.17841,0.17841,0,0,0-.02338-0.11609,0.47783,0.47783,0,0,0-.02832-0.06671,0.48536,0.48536,0,0,0-.06146-0.09119,0.47555,0.47555,0,0,0-.0462-0.051,0.49,0.49,0,0,0-.09747-0.06567A0.40457,0.40457,0,0,0,16.5,17H9.56738l3.35-4.01959A0.47776,0.47776,0,0,0,13,13h1.5a0.50034,0.50034,0,0,0,.22363-0.05273l2-1a0.49029,0.49029,0,0,0,.10205-0.07477c0.00946-.00824.0213-0.01312,0.03015-0.02209a0.49706,0.49706,0,0,0,.1-0.14832c0.00623-.014.00751-0.02979,0.01245-0.04449a0.48971,0.48971,0,0,0,.02716-0.13477C16.99579,11.51483,17,11.50812,17,11.5c0-.01538-0.00739-0.02832-0.00873-0.04333a0.17841,0.17841,0,0,0-.02338-0.11609,0.47783,0.47783,0,0,0-.02832-0.06671,0.48536,0.48536,0,0,0-.06146-0.09119,0.47555,0.47555,0,0,0-.0462-0.051,0.49,0.49,0,0,0-.09747-0.06567A0.40457,0.40457,0,0,0,16.5,11H10.707l3-3H14.5a0.50034,0.50034,0,0,0,.22363-0.05273l2-1a0.4903,0.4903,0,0,0,.10205-0.07477c0.00946-.00824.0213-0.01312,0.03015-0.02209a0.49706,0.49706,0,0,0,.1-0.14832c0.00623-.014.00751-0.02979,0.01245-0.04449a0.48971,0.48971,0,0,0,.02716-0.13477C16.99579,6.51483,17,6.50812,17,6.5c0-.01538-0.00739-0.02832-0.00873-0.04333a0.48364,0.48364,0,0,0-.00446-0.07141,69.81406,69.81406,0,0,0-.04724-0.11139,0.48536,0.48536,0,0,0-.06146-0.09119,0.47555,0.47555,0,0,0-.0462-0.051A0.49,0.49,0,0,0,16.73444,6.066,0.40457,0.40457,0,0,0,16.5,6H12.707L16.5,2.207,20.293,6H18.5a0.5,0.5,0,0,0-.35352.85352L22.293,11H18.5a0.49991,0.49991,0,0,0-.248.93408l1.75,1a0.46813,0.46813,0,0,0,.054.01434L23.43262,17H19.5a0.49991,0.49991,0,0,0-.248.93408l1.75,1a0.46813,0.46813,0,0,0,.054.01434L24.43262,23H8.56738ZM16,29V27.5a0.49971,0.49971,0,0,0-.5-0.5H15V25h2v1.5a0.49971,0.49971,0,0,0,.5.5H18v2H16Z" fill="#231f20"/><path d="M5.5,29h-1a0.5,0.5,0,0,0,0,1h1A0.5,0.5,0,0,0,5.5,29Z" fill="#231f20"/><path d="M2.1499,29.1499a0.48321,0.48321,0,0,0,0,.69971,0.48213,0.48213,0,0,0,.69971,0,0.48213,0.48213,0,0,0,0-.69971A0.50079,0.50079,0,0,0,2.1499,29.1499Z" fill="#231f20"/><path d="M29.5,29h-2a0.5,0.5,0,0,0,0,1h2A0.5,0.5,0,0,0,29.5,29Z" fill="#231f20"/>
</symbol>
<symbol id="walkie-talkie" viewBox="0 0 32 32"><title>kamp</title><path d="M21,9.0506V6h0.5A0.49971,0.49971,0,0,0,22,5.5V3a2,2,0,0,0-4,0V5.5a0.49971,0.49971,0,0,0,.5.5H19V9H12.5A2.50263,2.50263,0,0,0,10,11.5V12H9.5A1.50164,1.50164,0,0,0,8,13.5v4A1.50164,1.50164,0,0,0,9.5,19H10v9.5A2.50263,2.50263,0,0,0,12.5,31h8A2.50263,2.50263,0,0,0,23,28.5v-17A2.50379,2.50379,0,0,0,21,9.0506ZM19,3a1,1,0,0,1,2,0V5H19V3Zm-8,8.5A1.50164,1.50164,0,0,1,12.5,10h8A1.50164,1.50164,0,0,1,22,11.5v16A1.50164,1.50164,0,0,1,20.5,29h-8A1.50164,1.50164,0,0,1,11,27.5v-16ZM9.5,13H10v4H9V13.5A0.50065,0.50065,0,0,1,9.5,13Zm2.69794,16.96942A2.453,2.453,0,0,0,12.5,30,1.502,1.502,0,0,1,12.19794,29.96942Zm8.60413,0A1.502,1.502,0,0,1,20.5,30,2.453,2.453,0,0,0,20.80206,29.96942Z" fill="#231f20"/><path d="M13.833,21h5.334A1.83516,1.83516,0,0,0,21,19.1665v-6.333A1.83516,1.83516,0,0,0,19.167,11H13.833A1.83516,1.83516,0,0,0,12,12.8335v6.333A1.83516,1.83516,0,0,0,13.833,21Zm0-8h5.334a0.83449,0.83449,0,0,1,.833.8335V14H13V13.8335A0.83449,0.83449,0,0,1,13.833,13Zm5.11646,3a2.47751,2.47751,0,0,0-.4621-1H20v1H18.94946ZM17.9079,16H15.0921A1.49109,1.49109,0,0,1,17.9079,16Zm-3.85736,0H13V15h1.51263A2.47751,2.47751,0,0,0,14.05054,16Zm0,1a2.47751,2.47751,0,0,0,.4621,1H13V17h1.05054Zm1.04156,0h2.8158A1.49109,1.49109,0,0,1,15.0921,17Zm3.85736,0H20v1H18.48737A2.47751,2.47751,0,0,0,18.94946,17ZM19.167,20H13.833A0.83449,0.83449,0,0,1,13,19.1665V19h7v0.1665A0.83449,0.83449,0,0,1,19.167,20Z" fill="#231f20"/><path d="M16.73242,22.73242a2.5,2.5,0,1,0,3.53516,0A2.48107,2.48107,0,0,0,16.73242,22.73242Zm2.82813,2.82813a1.5353,1.5353,0,0,1-2.12109,0,1.48767,1.48767,0,0,1,1.696-2.40308l-0.282.282a0.49995,0.49995,0,1,0,.707.707l0.28931-.28931A1.48205,1.48205,0,0,1,19.56055,25.56055Z" fill="#231f20"/><path d="M12.5,27h2a0.49971,0.49971,0,0,0,.5-0.5v-4a0.49971,0.49971,0,0,0-.5-0.5h-2a0.49971,0.49971,0,0,0-.5.5v4A0.49971,0.49971,0,0,0,12.5,27ZM14,23v1.5H13V23h1Z" fill="#231f20"/>
</symbol></svg>