<?xml version="1.0" encoding="utf-8"?>
<!-- Generator: Adobe Illustrator 19.2.1, SVG Export Plug-In . SVG Version: 6.00 Build 0)  -->
<svg version="1.1" id="Layer_1" xmlns="http://www.w3.org/2000/svg" xmlns:xlink="http://www.w3.org/1999/xlink" x="0px" y="0px"
	 width="732.5px" height="657.9px" viewBox="0 0 732.5 657.9" style="enable-background:new 0 0 732.5 657.9;" xml:space="preserve"
	>
<style type="text/css">
	.st0{fill:none;stroke:#DDD6CA;stroke-linejoin:round;stroke-opacity:0.2;}
	.st1{fill:none;stroke:#DDD6CA;stroke-width:2;stroke-linejoin:round;stroke-opacity:0.2;}
</style>
<title>maperitive_1</title>
<path class="st0" d="M617,615l10,14v14l2,14"/>
<path class="st0" d="M401,615l-4,14l-1,4l-10,10v14"/>
<path class="st0" d="M382,615l-5,11h-10l-10,1l-9,2l1,14l8,7l7,7"/>
<path class="st0" d="M325,615l-3,14l4,14l3,3l9,10l2,1"/>
<path class="st0" d="M312,615l-3,5l-4,9l4,14v4l5,10"/>
<path class="st0" d="M285,615l-4,9l-5,5l-5,4l-10-1l-9,3l-2,8v14"/>
<path class="st0" d="M242,615l-3,14l3,14v14"/>
<path class="st0" d="M229,615l-2,14l2,14l-6,11l-10-1l-6,4"/>
<path class="st0" d="M216,615l-1,14l-2,4l-7,10l-2,2l-10,5l-7,7"/>
<path class="st0" d="M195,615l-1,3l-5,11l-5,5l-8,9l-1,2l-10,12l0,0"/>
<path class="st0" d="M-26,657l-11-1h-19l-5,1"/>
<path class="st0" d="M187,615l-3,4l-4,10l-5,7l-9,7l-10,10l-10,3l-6,1"/>
<path class="st0" d="M-10,657l-7-3l-10-5l-10-1l-9,1l-10-3l-6-3l-3-1l-10-1l-4,2l4,6l3,8"/>
<path class="st0" d="M54,657l-4-2l-10,2l0,0"/>
<path class="st0" d="M180,615l-5,11l-2,3l-8,8l-7,6l-2,3l-10,2l-10-4l-9,13l0,0"/>
<path class="st0" d="M0,657l-8-9l-9-2l-5-3l-5-3h-10l-9,2l-10-3l-9-4l-10-3l-10,5l-8,6l8,8l4,6"/>
<path class="st0" d="M173,615l-7,14l-10,9h-10l-10-8h-9l-9,13l-1,2l-9,7l-10,4l-10,1l-9-7l-10-1l-10-1l-9-2l-10-3l-6,14"/>
<path class="st0" d="M-94,615l-10,5l-10,6l-2,3l2,12l1,2l9,13l1,1"/>
<path class="st0" d="M98,615l-10,3l-9,3l-10,8l-10-1l-9-1l-10-4l-9-1l-9,7v14l-1,4l-10-1l-1-3l-8-6l-10-4l-9-2l-4-2l-6-3l-10,2l-6,1
	l-3,1l-6-1h-4l-9-5l-10-5l-6-4"/>
<path class="st0" d="M-121,615l-2,4l-3,10l3,9l2,5l5,14"/>
<path class="st0" d="M25,615l-4,2l-8,12l-2,2l-9-2l-10-2l-9-2l-10-5l-10,1l-9,4l-10-1l-9-5l-7-4"/>
<path class="st0" d="M59,615l-9,1l-2-1"/>
<path class="st0" d="M-139,615l3,14l3,9l2,5l4,14"/>
<path class="st0" d="M-37,615l-9,5l-10-1l-7-4"/>
<path class="st0" d="M9,615l-7,5H-8l-9-2l-8-3"/>
<path class="st0" d="M-152,615l8,14l2,11v3l2,14"/>
<path class="st0" d="M-172,615l1,2l6,12l3,8l3,6l2,14"/>
<path class="st0" d="M-180,615l4,14l5,14l5,14"/>
<path class="st0" d="M-189,615l3,14l3,14l2,6l4,8"/>
<path class="st0" d="M-201,615l1,2l4,12l-1,14l6,14"/>
<path class="st0" d="M-226,615l7,14l2,14l1,14"/>
<path class="st0" d="M-240,615l1,14l5,14l5,12l1,2"/>
<path class="st0" d="M-248,615v4l-1,10l1,14l-2,14"/>
<path class="st0" d="M-259,615v14l-5,14l-3,14l0,0"/>
<path class="st0" d="M-415,657l-6-5l-10-4l-9,1l-8,8"/>
<path class="st0" d="M-277,615l-4,14l-4,14l3,14"/>
<path class="st0" d="M-404,657l-8-6l-9-8l-10-1l-9,1l-10,6l-6,8"/>
<path class="st0" d="M-283,615l-4,10l-2,4l-3,14l2,14"/>
<path class="st0" d="M-342,657l-2-1l-10-2l-9,1l-10,2h-10l-9-2l-10-5l-9-7l-10-7l-10-1l-9,2l-10,3l-10,2l-4,1l-1,14"/>
<path class="st0" d="M-291,615l-5,10l-2,4l-1,14l-3,14"/>
<path class="st0" d="M-327,657l-8-3l-9-5l-10-1h-9l-10,1h-10l-9-3l-6-3l-4-2l-10-8l-8-4h-11l-9,3l-10,2l-10-1l-8-4l-11-2l-3,2l3,14
	l5,14"/>
<path class="st0" d="M-302,615l-4,10l-1,4l-2,14l-6,12l-6,2"/>
<path class="st0" d="M-491,615l-7,11l-2,3l-4,14l-4,14l0,0"/>
<path class="st0" d="M-410,615l-2,1l-9,2l-10-1l-9,3l-10,1l-10-2l-6-4"/>
<path class="st0" d="M-327,615l-8,6l-9,8l-10,2l-9,1h-10l-10-1l-3-2l-6-10l-5-4"/>
<path class="st0" d="M-502,615l-5,14l-1,3l-4,11l-5,14"/>
<path class="st0" d="M-351,615l-3,2l-9,4l-10-1l-8-5"/>
<path class="st0" d="M-514,615l-1,14l-2,6l-4,8l-5,14"/>
<path class="st0" d="M-524,615l-2,14l-6,14l-4,14"/>
<path class="st0" d="M-719,630l9-9l6-6"/>
<path class="st0" d="M-548,615v14l-3,14l-5,9l-2,5"/>
<path class="st0" d="M-719,640l9-9l4-2l6-5l8-9"/>
<path class="st0" d="M-565,615l3,14l-3,14l-4,14"/>
<path class="st0" d="M-719,650l8-7l11-7l10-6l9-8l10-4l10-1l9-1l2-1"/>
<path class="st0" d="M-589,615l4,6l4,8v14l-2,14"/>
<path class="st0" d="M-713,657l3-2l10-6l9-6l10-7l10-4l8-3l11-1l10-3l9-1l10,2l10,3h9l10,14l-2,14"/>
<path class="st0" d="M-671,657l10-3l7,3"/>
<path class="st0" d="M319,29L319,29"/>
<path class="st0" d="M593,1l-5,7l-3,7l3,2l10,12l9,8l5,5l5,14l4,14l-4,6l-4,8l-6,14l-9,11l-10,1l-9-5l-5,7l5,10l3,4l-3,4l-10,1
	l-10-5l-9-14l9-9l10,4l6-9l-6-6l-6-8l-4-4l-9-7l-5-3l-5-2l-8-12l-11-5l-10-5l-9-4l-10,5h-10l-9-5l-10-4l-9-9V15h-10l-10-5l-9-5
	l-7,10l7,9l5,5l4,6l5,7l-5,14l-9-7h-19l-10,3l-10,4l-4-14l-5-3l-10,3l-10,14l10,7l5,7l5,7l9,7l10,3l10,2l4-5l5-4l10,4l5,14l1,14l3,7
	l5,7l5,2l8,12l2,1h9l10,3l9,7l3,3l6,14l1,4l6,10l3,14l1,14h9l4,14v14l6,14v14l6,14l4,14l9,14l10,14h9l5,14l5,7l5,7l-5,7l-5,7l-5,7
	l-2,7l2,14l4,14l6,14l10,14l9,14l-9,7l-3,7l3,7l3,7l-3,7l-5,7l5,13l3,14l6,10l3,4l7,10l5,4l-5,14l9,14l10,14l10,14l-10,14l0,0"/>
<path class="st0" d="M367,1h10"/>
<path class="st0" d="M406,1h9"/>
<path class="st0" d="M430,70l4-14h10l5,14l-5,7h-10L430,70"/>
<path class="st0" d="M444,56l10-7l9,7l-9,7L444,56"/>
<path class="st0" d="M502,15L502,15"/>
<path class="st0" d="M569,420l10-10l3,10l-3,14L569,420"/>
<path class="st0" d="M576,1l3,4l4-4"/>
<path class="st0" d="M607,559l10-7l5,7l-5,14L607,559"/>
<path class="st0" d="M720,15l3-7l9,7l-9,3L720,15"/>
<path class="st0" d="M76,1l3,2l5,12l4,14l10,13l10-2l2,2l7,10h10l9,3l2,1l8,6l10-3l2-3l7-7l10-7h9l10-1l3,1l7,10l2,4l7,4l4-4l6-8
	l10-3l9,2l10,4l9,4l3,1l7,7l7,7l3,3l9,10l5,15l5,8l9,5l6,1l4,2l10,2l9,1l10,1h19l10,1l9,3l7,4l3,3l10,6l8,5l11,6l9,1l10,3l7,4l3,3
	l9,7l7,4l3,3l6,11l-2,14l-2,14l-2,9l-2,5v14l2,11v3l2,14v14l-2,3l-10,9l-6,2l-3,2l-8,12l2,14l-3,14l-1,2l-10,10l-2,2v14l2,5l6,9l4,7
	l5,7l5,5l5,9l4,4l8,10l-8,6l-9,8l9,7l7,7l-2,14l-5,5l-9,3l-10,6l-10,8l-9,2l-3,4l-3,13l-4,10l-1,4l-3,14l4,5l5,9l1,14l-6,14l-9,7
	l-10,3l-4,4l4,14l5,14"/>
<path class="st0" d="M15,1l6,3l10,6l4,5l5,3l10,3l9,2l10,2l3,4l-2,13l1,14l8,4l9,9l3,1l7,2l10,2l9,2h10l9,8l10-1l10,1l9,3l10-1l3-2
	l6-6l10,1l6,5l4,4l9-2l2-2l8-8l10-4l9,2l10,8l1,2l6,14l2,2l10,6l10,3l2,3l7,3l10,4l9,3l10,4l10,2l9,1l10-1h9l10,4l10,4l7,4l2,1l10,3
	l10,2l9,6l10,1h9l5,1l5,5l8,9l2,1l9,6l8,7l-3,14l-2,14l-3,7l-2,7l-1,14l-1,14l-5,14l-10,12l-2,2l-8,5l-3,9l-1,14l-5,14l-10,12l-1,2
	l-4,14l4,14l1,14l-3,14l3,9l2,5l3,14l-5,2l-9,9l-2,3l2,7l4,7l-1,14l-3,14l-5,14l-2,13l-3,6l-7,8l-3,4l-9,10l5,14v14l-5,6l-9,8l-1,4
	l-4,10l4,3l10,11l5,14"/>
<path class="st0" d="M-13,1l5,9l10,3l5,2l4,4l10,10l10,6l2,7l7,14l7,14l3,1l9,2l10,2l10,1l9,5l8,3l2,1l10,1l9,4l10,4l9,3l10-1h10
	l9,1l3,1l7,2h9l10,3l10,3l9-1l10-3l10,3l9,5l3,2l7,3l9,5l10,1l10,1l9,3l3,1l7,2l9,4l10,3l10,1l9,3l6,1l4,1l9,1l10,6l10,4l9,2l10,1
	l10,3l9,3l10,1l9,4l2,2l8,10l10,4l4,14l-1,14l-3,9l-2,5l-3,14l-5,11l-2,3l-8,13l-9,10l-10,4v3l4,12l-4,9l-3,5l-6,5l-10,2l-3,7l3,6
	l2,8l1,14l5,14l-2,14l-6,4l-10,4l-9,5v3l8,12l1,3l6,11l-6,11v3l-1,14l1,14l-9,14l1,14l-1,3l-10,9l-4,15l-2,14l2,14v14l-6,9l-2,5
	l-6,14l7,14l-8,7l-10,2l-9,2l-4,3"/>
<path class="st0" d="M-557,1l-8,13l-2,15l2,1l9-1l10-7l2-7l5-14"/>
<path class="st0" d="M-114,1l10,7l7-7"/>
<path class="st0" d="M-73,1l-2,4l-6,10l6,7l8,7h11l10,1l9,10l4,2l6,3l10,5l9,2l10,2l2,2l7,14l10,10l10,4h9l10,1l9,4h10l10-1l9,2
	l10,3l10,3l5,2l4,4l10,5l9-1l10,1h10l9-1l10,3l9,3l10,6l10,3l9-2l10-2l10,2l9,5l4,2l6,2l9,2l10,1h10l9,2l10,3l8,4l1,2l10,2h10l9,3
	l10,4l7,3l2,2l10,5l10,6l5,1l4,1h20l9,3l10,6l3,4l6,5l10,5l3,4l2,14l-4,14l-1,3l-7,11l-3,5l-6,9l-3,5l-10,8l-9,7l-5,8l-5,10l-10,3
	l-7,15v14l7,8l4,6l2,14l1,14l-7,7l-9,4l-10,1l-6,2l-4,14l10,12l1,2l8,14l-4,14l-2,14l-3,10v11l1,7l-8,14l-3,2l-7,11l-1,14l-1,3
	l-3,11l2,14l1,2l3,12l-3,7l-3,7l-6,14l-1,2l-9,5l-10,5l-2,2l-5,14"/>
<path class="st0" d="M-711,1l11,10l10-4l2-6"/>
<path class="st0" d="M-575,1l-6,14l-4,10l-1,4l-7,13l-1,2l-10,11l-9,9l-7,6l-3,4l-10,10v5l10,4l10-3l9-2l9-4l10-8l10-6l10-5l7-9l2-2
	l4,2l6,5l7,9l2,7l8,7l2,3l3-3l3-14l-3-14l-3-8l-2-6l-2-13l3-14l1-2l10-11l2-1"/>
<path class="st0" d="M-362,1l-1,3l-10,9l-3,2l-2,14l-5,11l-2,2l2,2l10,9l3,3l7,14l9-3l7-11l3-10v-4l9-10l6-3l4-3l10,1l9-5l4-7l6-8
	l8-6"/>
<path class="st0" d="M-200,1l10,1l9,3l7,10l-6,14l9,12l9-5l8-7l2-3l10-8l9,2l3,9l7,13l7,14l2,7l10,3l10-2l9,1l10,5l10,4l9,10l10,10
	l9,2l7,2l3,1l10,7l9,6l10,5h9l9-5l11-3l8,3l11,3l7-3l2-1l10-3l10-1l9,1l10,4l10,6l9,5h10l9-2l10,3l4,2l6,3l9,4l10,3l9,4l10,6l10,4
	l9-4l10-4l10,1l9,2l10,2l9-1h10l10,1l9,1l10,3l4,3l5,3l10,2h10l9,6l6,3l4,3l9,6l8,5l2,2l10,3l9,4l10-2l10,3l3,4l1,14l5,9l2,5l-2,1
	l-9,9l-10-1l-3,5l-7,9l-2,5l-4,14l-3,4l-10,7l-5,3l-5,12l-9,14l-2,2l2,2l9,12l8,14l-3,14l-5,2l-9,2h-10l-9,1l-10,1l-7,8l7,7l5,7l5,7
	l4,7l5,8l4,6l6,7l6,7l-3,14l-3,7l-6,7l-4,14l2,14l-2,3l-4,11l-5,13v3l-4,11l-6,7l-7,7l-3,5l-8,9l8,9l10,3l3,2l-3,4l-5,10l-5,4l-9,9
	l-2,1l-4,14l-4,7l-5,7"/>
<path class="st0" d="M-719,2l9,8l5,5l5,7l10,6l6-13l3-9l7-5"/>
<path class="st0" d="M-582,1l-3,5l-3,9l-3,14l-3,5l-5,8l-5,6l-9,7l-2,1l-8,8l-5,6l-5,5l-8,9l-1,4l-4,10l4,12l9-5l10-2l8-5l11-4l10-3
	l9-6l3-1l7-3l10-5l8-6h4l7,5l4,9l5,13l10,8l6-7l4-4l6-10l-1-14l-5-12l-1-2l-5-14l-3-13l5-14l4-5l9-8l3-1"/>
<path class="st0" d="M-378,1l-5,1l-6,13l-3,8l-10,2l-10,2l10,15l-1,14h11l9,8l3,6l3,14l4,14l10-2l9-5l10-3l8-4l1-4l1-10l-1-4l-2-10
	l2-10l3-4l7-3l5,3l5,4l9-3l10-12l5-2l4-10l5,10l5,3l10,3l9-3l5-3l5-4l9-5l10,2l10,1l9,1l6,5l4,13l10,2l6,12l3,7l10-2l3-5l6-7l5-7
	l5-4l10-4l2,8l6,14l1,2l5,12l2,14l3,7l9-4l4-3l6-4h10l4,4l5,5l10,1l10,8l9,10l10,4h5l4,1l10,3l10,4l9,5l2,1l8,5l9-1l4-4l6-3l10-2
	l9,1l10,2l9-4l10-3l10-1l9,1l10,4l8,5l2,1l9,4h10l9-3l10,4l10,7l2,1l7,6l10,4l8,4l11,3l10,5l9-3l10-4l3-1l7-1l9,1l10,1l5-1h4l10-1
	l4,1l6,1l9,1l10,3l9,5l10,2l10,2l9,8l10,6l9,4l10,7l7,3l3,9l1,5l2,14v14l-3,14l-10,14l-10,5l-9,7l-2,2l-8,9l-6,5l-1,14l4,14l3,8l3,6
	l-3,2l-9,4l-10,2l-10,4l-1,2l-8,14l9,10l4,4l6,5l5,9l5,8l3,6l6,10l4,4v14l-4,4l-7,10l-2,8l-1,6l-3,14l-2,14l-4,12l-8,15l-2,3l-7,11
	l-2,3l-10,8l-4,3l4,11l2,3l6,14l-8,4l-9,9l-3,15l-7,8l-10-1l-9,2l-10,5l0,0"/>
<path class="st0" d="M-719,15l9,4l7,10l3,7l6,6l4,14l3-14l5-13l1-3l5-11l5-5l10-4l3-5"/>
<path class="st0" d="M-589,1l-5,11l-1,3l-2,14l-7,11l-2,2l-7,6l-10,8l-10,11l-3,3l-6,7l-7,7l-3,8l-3,6l-2,14l-2,14l7,6l7-6l3-3l9-9
	l6-2l4-1l10-4l9-5l9-4l10-4l10-3l10-2l5-5l4-3l4,3l6,6l3,8l6,14l10,6l5-6l5-6l8-8l1-2l7-12l-4-14l-3-6l-3-8l-6-14l-3-13l3-8l4-6l5-5
	l10-6l10,1l9-2l2-2"/>
<path class="st0" d="M-404,1l-8,8l-7,6l-2,4l-2,10l2,2l9,10v3l-9,10l-4,2l-1,14l5,10l9-3l10-5l9,12l-2,14l3,5l9,6l10-1l10-4l9-3
	l10-1h9l3-2l7-10l2-4l2-14l6-6l9-1l10-3l9-1l10,3h10l9-1l10-4l9,1l4-2l6-4l10-1l7,5l2,2l9,12l11,4l9,2h10l6-6l3-5l10,2l2,3l8,8l3,6
	l1,14l5,9l10,1l9-8l5-2l5-2l2,2l8,9l9,2l5,3l5,4l10,2l9,5l10,2l9-3l10,3l2,1l8,4l9,5l7,5l3,3l9,3l8-6l2-1l10-7l9-1l10,1l9-3l7-3l3-1
	l10-1l9,1l3,1l7,3l10,6l9,4h10l9-2l10,3l10,7l8,7l11,7l9,5l10,2l10,6l9-3l7-3l3-2l10-2l9-1l10-2l9-1l10-1l10,2l9,1l10,4l5,2l4,3
	l10,7l7,4l3,1l9,3l10,3l9,5l3,2l7,9l3,5v14l-1,14l-1,14l-11,6l-9,5l-10,2l-3,1l-6,3l-10,9l-1,2l-1,14l2,8l2,6l-2,7l-2,7l-4,14l-4,1
	l-9,10l-2,3l-8,10l-6,4l6,4l10,8l1,2l8,7l7,7l3,7l3,7l7,13l2,15l-2,2l-6,12l-3,14l-1,2l-6,12l-2,14l-2,4l-2,9l-7,14l-8,14l-2,2l-9,6
	l-7,6l5,14l-2,14l-6,9l-5,5l-5,4l-9,4l-10,2l-8,4l-1,2l-4,12"/>
<path class="st0" d="M-719,26l9,3l5,13l2,14l3,7l6,7l4,4l8-4l1-14l4-14l2-13l4-8l10-5l2-1l7-10l6-4"/>
<path class="st0" d="M-598,1l-6,12v5l1,11l-10,13l-10,7l-8,7l-2,2l-9,10l-2,2l-8,9l-4,5l-5,11l-2,3l-2,14v14l-2,14l-3,14l-1,7v7
	l10-8l2-6l7-12l1-2l9-9l7-5l2-3l10-2l10-3l7-6l2-1l10-2l9-4l10-2h10l6-5l3-1l2,1l8,8l3,6l6,14l10,2l1-2l9-9l4-5l5-6l10-7l10-15
	l-8-14l-2-2l-5-12l-5-8l-2-6l-4-13l6-10l6-4l4-3l10,1h9l10-10l5-2"/>
<path class="st0" d="M-420,1l-11,10l-2,4l1,14l1,3l9,10l-9,5l-9,8l-2,1l2,3l5,11l-5,9l-4,5l4,8l8,6h6l5-1l9-1l1,2l9,11l2,3l8,6h9
	l10-1l8-5l11-5h10l9,3l10,1l6-13l4-7l9-3l10,3l9-3l4-4l6-4l10-1l9,2l10-1l9-3l10-6l10,3l9,10l10-2l10,1l5,1l4,1l10,5l9,1l10,4l2,3
	l8,9l3,5l6,12l10-4l9-6l10,2l10,8l3,2l6,3h10l10,1l9,5l10,4l9-3l10,1l10,2l2,1l7,4l10,10l9,5l10-5l10-11l6-3l3-1l10,1l9-2l10-4l10-2
	l9,1l10,4l5,3l5,3l9,3l10,1l9-2l10,3l8,6l2,2l9,7l7,5l3,3l9,5l10,4l4,2l6,3l7-3l2-1l10-6l10-3l9-2l9-2l10-2l10-1l10,1l8,2l11,6l9,7
	l2,1l8,6l10,2l9,4l10,2l9,10l4,4l1,14l-2,14l-3,5l-9,7l-10,1h-9l-4,1l-6,8l-1,6l-8,14l-1,2l-2,12l-1,14l-3,14l-3,5l-8,9l-2,3l-3,11
	l-6,5l-10,7l-2,2l2,4l10,8l2,2l7,6l10,4l5,4l4,6l4,8l3,14l2,14l-3,14l-2,14l-4,5l-4,9l-3,14l-2,5l-3,8l-6,14l-10,11l-4,3l-6,6l-8,8
	l5,14l-2,14l-5,6l-9,4l-10,1l-9,3l-10,6l-4,8l-3,14"/>
<path class="st0" d="M-719,53l1,3v14l8,13l2,1l-2,5l-1,9l-8,14l9,8l10-2l10-4l9,1l4,11v14l-3,14l-1,2l-1,12l-3,14l-5,12l-1,2l-6,14
	l-3,6l-3,8v14l3,1l2-1l8-8l2-6l7-8l4-6l6-7l6-7l4-8l1-6l5-14l3-8l3-6l7-9l4-5l5-4l10-1l10,2l9-3l10-5l8-3l11-3l10-1h9l6,4l4,6l3,8
	l3,14l3,14l10-12l8-16l2-2l7-12l2-2l10-7l10-3l5-2l4-4l10,2l4,2l5,1l10,2l10,5h9l10,3l3,3l6,8l10,1l10-1l9-2h10l10-4l1-2l8-4l10,1
	l3,3l6,14l10,11l7-11l3-5l5-9l4-6l10-5l9-1h10l10-1l9-1l10-5l9-3h10l10,2l9-1l10-3l10,1l9,6l5,3l5,7l8,7l11,12l2,2l8,5l9-1l9-4l10-3
	l8,3l2,2l10,12l9-1l10-3l10,3l6,1l3,1l10,1l9,2l10,6l10-7l9,4l7,7l3,2l9,4h10l10-4l2-2l7-7l10-4l8-3l11-4l10-2h9l10,3l5,3l5,4l9,4
	l10,2l9,1l6,3l4,2l10,7l6,5l3,3l10,8l7,3l2,1l10,3l10-1l7-3l2-1l10-5l10-4l9-3l10-3l9-2l10-1l10,2l8,3l8,14l3,3l9,5l10,1l10,1l7,4
	l2,8l2,6l-2,2l-9,3h-10l-10,5l-2,4l-1,14l-3,14l-3,5l-6,9l-3,14l-1,3l-3,11l-6,9l-6,5l-4,4l-10,4l-5,6l-4,9l-2,5l-6,14l8,14l9,9
	l10,4l10,13l1,2l8,7l5,7l3,14l1,14l-1,14l-6,14l-2,2l-5,12l-4,11l-2,2l-8,9l-6,5l-4,3l-9,7l-10,4l-4,14l-5,14l-10,3l-10,8l-5,3l-4,5
	l-3,9l-2,14l-4,14"/>
<path class="st0" d="M-666,56l1-14l4-7l8-6l11-11l3-3l6-5l10,2l2,3l3,14l-5,4l-10,8l-9,9l-6,6l-4,5l-9,3L-666,56"/>
<path class="st0" d="M-496,42l8-12h9l3-1l7-5l9-7l10,6l2,6l-2,2l-10,10v15l6,14l-6,6l-9-2l-5-4l-5-3l-8-11l-1-2L-496,42"/>
<path class="st0" d="M-719,243h9l10,2l10,1l3-8l6-13l10-14l10-10l3-5l3-14l3-11l1-3l7-14l2-2l9-10l10-1l10,2h9l5-3l5-3l9-4l10-2
	l10-1h9l8,10l2,13l4,15l5,14l10,5l10-2l1-3l-1-3l-6-11l4-14l2-3l5-11l4-7l8-7l2-1l10-4l9-2h10l9,2l10,3l5,2l5,2l9,1l10,9l2,2l7,3
	l10-1l7-2h3l9-1l10,1l10-4l9-5l10,7l1,2l7,14l1,5l10,2l5-7l5-6l5-8l4-7l10-6l9,1l10,5l10,1l9-3l10-3l6-2l3-3l10-1l10-1l9-1l7,6l3,2
	l10,7l6,5l3,3l10,1l9,1l10,4l10,5l9-2l10-3l9-1l6,6l4,7l8,7l2,1l9-4l10-3l10,1h9l10,1l8,4l11,8l10-8l9,3l10,7l9,2l10,2l10-3l9-7l6-4
	l4-2l9-4l10-3l10-2l9-1l10,5l10,6l4,1l5,2l10,4l9,1l10,5l3,2l7,10l4,4l5,2l10,5l9,4h10l10-1l9-4l10-5l10-5l9-3l10-2l9-3l10-1l10,6
	l4,7l5,14l7,14l-2,14l4,14l-3,14l-6,9l-3,5l-4,14l-2,8l-4,6l-6,5l-10,4l-9,5l-8,14l-2,4l-4,10l-5,11l-3,3l3,14l9,4l8,10l2,2l9,5l9,7
	l1,2l10,12l8,14l1,14v7l1,7l-7,14l-3,6l-6,8l-4,5l-5,8l-5,5l-9,7l-4,2l-6,5l-9,7l-2,2l-6,14l-2,3l-10,8l-5,3l-4,3l-10,11l-1,14
	l-2,14l-4,14"/>
<path class="st0" d="M-719,128h9l4-2l6-2l10-1l4,3l4,14l-4,14l-1,14l-3,14l-9,14l-1,4l-3,10l-5,14l-2,3l-9,8"/>
<path class="st0" d="M-653,42h3l-2,2L-653,42"/>
<path class="st0" d="M-637,29l4-5l3,5l-3,2L-637,29"/>
<path class="st0" d="M-483,42l4-2l6,2l-6,6L-483,42"/>
<path class="st0" d="M-719,258l3-6l6-4l10,3l10,5l9-3v-15l7-14l3-4l10-10l9-12l1-2l1-14l4-14l4-7l5-7l4-4l10-3l10,2l9,1l10-4l9-6
	l10-2h10l9,1l6,15l3,14l1,6l3,8l4,14l2,2l5-2l5-1h10l5,1l4,3l1-3l-1-4l-2-10l-6-14l5-14l3-8l3-6l7-7l10-5l9-1h10l9,1l10,4l10,4l9,3
	l2,1l8,9h9l10-2l10-2h9l10,1l10-2l9-2l9,12l1,6l2,8l7,7l10-4l3-3l7-9l3-5l6-8l8-6l2-1l9,1l10,8l10,3l9-6l8-5l2-1l9-4l10-2h10l9,2
	l6,5l4,3l10,8l4,3l5,4l10-3h9l10,4l10,4l9-2l10-3l9,4l4,6l6,9l10,5l9-5l10-5l10-1h9l10,1l9,4l7,6l3,5h10l9-3l10,3l9,2l10,1l10-2l9-6
	l10-7l9-4l10-2l2-1l8-2h9l3,2l7,5l10,5l9,4l10,4h9l7,10l3,6l10,5l9,3l10,3l9,2l10-2l10-1l6-2l3-1l10-5l10-5l9-3l10-1l9-2l10,2l9,15
	l1,5l2,9l2,14l5,13v4l-1,11l-8,14l-5,14l-5,8l-10,5l-6,1l-3,1l-10,13l-8,14l-1,3l-8,11l-2,2l-10,6l-9,4l-4,2l4,9l2,5l7,14l10,1l6-1
	l4-1l9,11l3,4l7,3l9,3l5,8l5,8l5,6l5,12l1,16l-1,2l-10,11l-10,13l-6,15l-3,3l-10,6l-9,4l-3,1l-7,11l-2,3l-8,9l-9,5h-10l-10,7l-1,7
	l1,4l4,10l-2,14l-2,12l-4,16"/>
<path class="st0" d="M-719,135h9l10-3l10,2l2,6l-2,10l-2,4v14l-5,14l-3,4l-5,10l-3,14l-2,5l-5,9l-4,5"/>
<path class="st0" d="M-719,275l3-9l6-10l10,2l10,3h9l6-9v-14l4-7l5-7l5-5l9-6l4-3l3-14v-14l3-9l2-5l7-8l7-6l3-1l10,1l9,2h10l3-2l6-5
	l10-3h10l9,6l1,2l4,14l3,14v14l2,12l9,2l10-5l10,1l5,4l4,5l10,9l4-14l-4-10l-1-4l-5-14l-4-11l-1-3l1-3l5-11l5-12l1-2l9-5l9-2l10,1h9
	l10,5l3,1l7,4l9,6l5,4l5,5l9-3l4-2l6-2l10-1h9l10,1l10,1l4,1l5,10l1,4l6,14l3,6l9-2l7-4l3-1l10-11l2-2l7-10l4-4l6-4l9,4l10,9l8,5
	l2,1l9-9l5-6l5-3l9-5l10-4l10,2l9,5l9,5l11,9l6,5l3,2l10,1l7-3h6l6,1l10,2h19l9,8l2,3l8,9l10,2l9-5l8-6l2-1l10-2l9-1h10l7,4l2,2
	l9,12l1,2h10l9-2l10,2h19l10-1l3-1l6-3l10-7l7-4l2-1l10-3l10-2l9,2l7,4l3,2l10,5l7,7l2,2l10,4l7,8l2,2l10,5l10,1l9,3l10,2l9-2l10-2
	l10-2l9-2l10-4l10-6l9-2l10-1h9l10,8l4,14v14l6,13l1,15l-1,2l-7,12l-3,8l-4,6l-6,4l-9,1l-10,8l-9,15l-8,14l-2,4l-10,8l-3,2l-6,3
	l-10,5l-10,5v15l10,3l10,10l9,13h10l5,2l5,3l9,9l10,1l9,11l2,4l4,14l-1,14l-5,4l-7,10l-2,14l-10,13l-9,3l-10,3l-6,8l-4,6l-9,8l-10,3
	l-10,3l-9,3l-6,5l3,14l3,6l5,8v14l-4,14l-1,6l-2,8"/>
<path class="st0" d="M-719,143h9l10,11v14l-6,14l-4,8l-2,6v14l-7,11"/>
<path class="st0" d="M-719,299l3-5l6-14l10-8l10,1l9,2l10-1l10-7v-4l-2-11l2-8l1-6l8-8l10-5l9-12l2-3l1-14v-14l7-9l4-5l6-2l9,1l7,1
	l3,1l9-5l10-3h10l5,7l4,14l-1,14v14l1,14l10,4l9-2h10l10,4l9,8l10,5l10,7l4,2l5,3l1-3l2-14l-3-14l-3-14l-5-14l-1-4l-5-10v-14l5-10
	l3-4l6-5l10-2l9,1l10,4l3,2l7,6l7,8l2,3l10,6l9-4l8-5l2-1l10-1l9-1l10,2l2,1l8,11l1,3v14l-1,14l2,14l7,3l9-3l5-14l5-5l10-6l3-3l7-5
	l9-7l4-2l6-2l8,2l11,6l10,6l9-3l10-7l5-2l4-3l10-2h10l9-1l10,3l8,3l2,1l9,11l3,2l7,7l5-7l4-4l10-5h10l9,3l10,6l9,8l9,6l11,2l4-2l5-2
	l10-7l8-5l2-1l9-2l9,3l8,14l2,2l10,5h10l9-2H2l9-1l10-2l10-2l9-3l10-3l9-2l10-2l10-1l9,1l10,5l4,5l6,11l6,3l3,2l10,4l9,3l10,1l10,1
	l9,3h3l7,1l3-1l6-2l10-3l10-3l9-2l8-4l2-1l10-3l9-1l10-1l7,6l1,14l1,14l2,14l-2,2l-8,12l-11,7l-7,7l-2,2l-10,12l-9,14l-10,12l-2,2
	l-8,6l-10,7l-9,7l-10,2l-9,1l-5,5l3,14l2,2l9,10l10,1l2,1l7,4l8,10l2,2l10,11l9,9l10,3l3,3l7,11l1,3l-1,3l-6,11l-4,5h-10l-9-2l-8-3
	l-2-1l-3,15l3,2l6,12l-1,13l-5,6l-10,5l-9,2l-7,1l-3,1l-9,7l-5,6l-5,8l-3,6l3,7l6,7l4,5l6,9l2,14l-7,14l-1,2h-10l-3-2l-7-5l-9-2
	l-10,7l-9,10l-10,4l0,0"/>
<path class="st0" d="M-719,164l2,4l-2,7"/>
<path class="st0" d="M-81,615l-4-5l-9,5l0,0"/>
<path class="st0" d="M-719,306l7-12l2-5l9-9l11-1l4,1l5,3h10l4-3l6-3l8-11l-2-14l3-12l1-2l9-6l9-4l5-4l5-14l4-14v-14l6-6l9-1l10-1
	l9-3l7-3l3-1l10,1l4,14v14l-1,14v14l5,14h5l6-2l9-3l10-1l10,5l9,7l10,8l10,9l7,5l2,1l8-15v-14l-3-14l-3-14l-2-5l-3-9l-5-14l3-14l5-7
	l10-7l9,1l10,4l10,8l9,11l6,4l4,3l9-3l10-4l10-3l9-1l10,2l4,6l1,14v14l-2,14l7,11h9l10,2l7-13l2-6l9-8l11-9l6-5l3-2l10-3l9,2l6,3
	l4,3l10,8l9-1l7-10l3-2l9-5l10-2h19l10,3l10,6l9,10l4,4l6,6l8-6l1-2l10-10l5-2l5-1l2,1l7,4l10,7l5,3l4,3l10,7l10,2l9-5l10-5l2-2l8-5
	h9l4,5l6,5l9,5l9,4l11,3l6-3l3-1l10-2l9-1l10-1l10-3l9-3l10-3l9-1l10-2h10l9,2l2,1l8,14l10,11l6,3l3,1l10,3l9-1h10l10,1l9,3l10,3
	l9-4l10-4l6-2l4-1l9-2l10-4l10-3l9,2l10,8l-1,14v14l-9,10l-5,4l-4,4l-9,10l-11,14l-8,14l-1,2l-10,9l-2,3l-8,6l-9,8h-3l-7,1l-7-1h-3
	l-9,7l-9,7l7,14l2,2l8,12l2,2l9,6l10,1l6,5l3,4l8,10l2,8l2,6l-2,10l-1,4l-9,4l-8,10l-1,5l-2,9l2,3l9,11l-9,10l-5,3l-5,3l-9,6l-6,5
	l-4,5l-10,8l-9,15l3,14l-3,6l-7,8l-3,2l-9,8l-4,4l-6,6l-10,4l-9,4l-10,9l-10,5l0,0"/>
<path class="st0" d="M-72,615l-3-3l-7-11l-3-4l-9,1l-2,3l-8,11l-10,2l-7,1"/>
<path class="st0" d="M48,615l-8-1h-9l-6,1"/>
<path class="st0" d="M-719,314l4-6l5-9l4-5l6-6l10-1l9,6l10,1l10-9l9-5l5-14l1-14l4-11l4-3l5-1l10-6l3-7l5-14l2-4l3-10l6-11l3-3l7-2
	l9-3l10-4l10,8v22l-2,7l1,14l1,6l2,8l7,8l10-3l9-4l10-1l10,6l9,7l2,1l8,7l6,7l1,14l3,3l8-3l8-14l3-6l3-8v-14l-3-14l-4-14l-3-14l-3-9
	l-1-5l1-4l6-10l4-3l9-2l10,3l3,2l7,6l6,8l3,4l10,6l9-2l10-3l10-3l9-1l10,13l-1,14l-2,14l1,14l2,3l10,4l9-3l10,1l9-1l3-4l4-14l3-4
	l10-8l2-2l7-6l10-3l9,1l10,6l2,2l8,10l9,3l6-13l4-5l9-8l4-1l6-1h19l2,1l8,3l10,7l3,4l6,14l10,1l6-1l3-1l10-9l6-4l4-2l5,2l4,2l10,7
	l9,5l10,6l10,2l9-6l5-2l5-3l10-4l9,2l9,5l10,5l10,7l10,2l9-6l10-3l9-2l10-1l6-2l4-1l9-4l10-3l9-1h10l10,3l7,6l2,5l4,9l6,3l10,3l9,3
	l10,2l9-1l10-1l10,1l9,4l10,4l9-3l4-1l6-2l10-2l9-3l10-4l10-3l7,14l-4,14l-3,3l-10,11l-10,5l-6,9l-2,14l-1,2l-7,12l-3,3l-10,10l-9,8
	l-10,1l-9-2l-10,1l-6,7l-4,3l-9,7l-3,4l3,12l1,2l8,6l6,8l4,3l10,10l9,5l10,3l6,7l-1,14l-5,8l-4,6l-6,7l-7,7l-2,9l-1,5l1,2l6,12l-6,4
	l-9,9l-11,7l-9,4l-10,3l-6,14l-1,14l-2,7l-3,7l-7,12l-2,2l-8,11l-3,3l-6,4l-10,4l-10,5l-2,1l-7,4H31l-10,2l-10,6l-2,2"/>
<path class="st0" d="M-63,615l-2-1l-10-10l-2-3l-7-14l-1-2l-9,1l-9,15l-11,7l-9,2h-10l-6,5"/>
<path class="st0" d="M-25,615l-2-1l-10,1l0,0"/>
<path class="st0" d="M-719,322l9-13l2-1l8-10l10,3l4,7l5,7l10-6l10-15l9-5l8-9l2-5l2-9l4-14l3-4l10-4l5-6l5-9l2-5l6-14l1-4l5-10l5-5
	l9-7l3-2l7-2l2,2l1,14v14l1,14l2,14l4,8l8,6l11-3l9-3l10-1l10,5l2,2l7,6l9,8v14l1,9l3,5l7,1l9-8l7-7l3-5l3-9l5-14v-14l-3-14l-4-14
	l-1-8l-1-6l-2-14l3-4l9-6l10,3l10,7l9,12l4,2l6,3l9-2l4-1l6-2l10-2l9,2l2,2l1,14v14l-1,14l8,12l4,2l6,2l3-2l6-3l10-1l9,2l10-12l8-14
	l2-1l9-8l10-5l9,1l10,7l4,6l6,6l9,7l8-13l2-5l5-9l4-4l10-3l10-2l9,1l10,5l4,3l6,12l9,11l10-1l9-1l10-3l10-3h9l10,6l9,4l6,3l4,1l10,2
	l5-3l4-3l10-5l10-2l9,2l10,4l7,4l2,1l10,8l10,3l9-9l6-3l4-1l9-3l10-3l10-3l9-3l2-1l8-2l9-1l10,3l10,11l1,3l8,8l10,3l9,3l10,3l10,1
	l9-2l10-1l10,2l9,5l10,4l9-2h10l8,4l-2,14l-3,14v14l-3,4l-5,10l-5,4l-9,9l-2,1l-8,2l-6-2l-3-1l-10-3l-10,3l-9,14l-2,1l-8,12v5l1,11
	l9,12l2,2l7,8l8,6l2,2l10,9l5,3l4,10l1,4l-10,7l-6,7l-4,3l-5,11l-5,11l-2,3l2,14l-9,9l-7,4l-3,2l-9,8l-5,4l-2,14l-2,14l-11,14l-7,14
	l-2,3l-10,8l-8,3l-2,1l-9,4l-10,3l-9,1l-10,2l-10,3l-9,6l-10,6l-9-2l-10-4h-10l-9,7h-10l-9-7l-6-6l-4-7l-4-7l-6-12l-9,3l-7,9l-3,6
	l-7,8l-3,2l-9,1l-6-3l-4-2l-9-4l-10,2l-3,4l3,14"/>
<path class="st0" d="M-719,395l3-3l3-14l-6-8"/>
<path class="st0" d="M-719,339l3-3l6-7l10-2l8,9l2,1l9,3l8-4l2-3l7-11l3-3l9-7l4-4l6-5l9-9l3-14l6-14l11-9l8-5l1-2l10-11l9-1l8,14
	l2,5l6,9l4,2l8-2l11-3l9-3h10l10,5l2,1l3,14l1,14l3,12l1,2l9,9l8-9l2-1l9-7l9-6l10-14l5-14l5-10l3-4l-1-14l-2-3l-5-11v-14l5-12l10,4
	l9,7l2,1l8,4l9-1l10-2l10,8l1,5l-1,9l-1,5l1,7l1,7l8,5l10,5l7,4l3,2h9l3-2l7-4l9,3l3,1l7,4l9-4l1-2l1-12l5-14l3-3l10-6l9,1l10,8
	l10,10l5,4l4,4l10-4l5-14l4-10l4-4l6-4l10-3l9,1l6,6l1,14l3,5l10,7l9-2l10-3l9,1l10,2l10-1l9,1l10,2l9,2l10,2l10,2l9-3l10-7l10-2
	l9,3l10,4l9,7l10,6l8,2l11-6l10-8l9-5l10-4l10-4l6-1h13l9,2l10,9l2,3l8,13l9-2l10,2l10,5l9,2l10-1l9-5l10,1l10,5l9,7l3,1l7,6l4,8v14
	l-4,7l-6,7l-4,2l-9-1l-3-1l-7-4l-10-2l-6,6l-3,5l-8,9l-2,1l-9,10l-2,3l-4,14l-2,14l8,8l4,6l5,14l5,14l5,9l2,5l-2,8l-3,6l-7,3l-9,9
	l-1,2l-5,14l-4,14l-10,12l-9,11l-6,4l-1,14l-3,14l-10,5l-9,5l-10,2l-5,2l-4,2l-10,7l-5,5l-5,6H-8l-9,3l-10,5l-10,2l-9,7l-10,5l-9-11
	l-2-3l-6-14l-2-4l-6-10l-4-3l-8,3l-11,14l-10,12l-5,2l-4,1l-3-1l-7-4l-9-5l-10-1l-9,10l-1,2l-9,11l-2,1l1,14"/>
<path class="st0" d="M-719,428l1-8v-14l8-12l5-2l-1-14l-4-5l-7-9l-2-14l9-11l10-1l10,5l9,3l10-2l5-8l5-6l9-8l10-10l4-4l5-6l8-8l2-10
	l1-4l9-13l9-7l10-8l9,2l5,12l5,8l10,2l9-3l10-3l9-3l10,2l7,11l3,12l4,16l5,14l10,8l7-8l3-4l5-10l4-3l10-5l5-6l4-6l5-8l5-12l1-2l8-14
	l1-5l1-9l-1-2l-8-12l8-10l9,4l10,4l9-1h10l2,3l-1,14l2,14l7,7l9,4l8,3l2,1l10,10h9l10-7l9,1l10,7h10l5-12l3-14l1-2l10-11h9l10,7l6,6
	l4,4l9,10l10-3l7-11l2-8l3-6l7-8l10-3l9,7l1,4l8,14l11,6l9-3l9-3h10l10,3h19l10,1l9,1l10,2l10,4l9-2l10-8l5-1l5-1l3,1l6,2l10,6l8,6
	l11,4l10,2l9-3l5-3l5-4l9-8l4-2l6-3l10-3l9-1l10,2l9,4l2,1l3,14l5,8h10l9-2l10,2l10,4h19l9-3l10,2l5,3l5,5l9,7l2,2l2,14l-4,4l-9,1
	l-10-3l-10-2l-9,8l-4,6l-6,7l-9,7l-10,14l-5,14l-5,8l-2,6l2,4l10,6l4,4l6,10l1,4l3,14l1,14l-5,12l-1,2l-9,11l-2,3l-7,14l-6,14l-4,6
	l-6,7l-4,3l-10,8l-4,3l-5,8l-3,6l-7,7l-9,7l-10,6l-10,5l-6,3l-3,2l-10,1l-9,1l-10,7l-6,3l-4,3l-9,5h-10l-9-7l-6-15l-4-4l-10-8l-9,6
	l-8,6l-2,4l-7,10l-3,3l-9,3l-10-5l-2-1l-7-3l-10-1l-7,4l-3,3l-5,11l-4,5l-10,7l-2,2l2,7l1,7"/>
<path class="st0" d="M-719,446l4-12l2-14v-14l3-4l10-7l6-3l-5-14l-9-14l-2-9v-5l10-4l10,3l3,1l6,2h10l5-2l5-6l2-8l7-7l7-7l3-3l9-9
	l2-2l8-9l4-5l4-14l2-2l9-9l5-3l5-3l4,3l5,8l3,6l7,4h10l9-3l3-1l7-2l9-3l9,5l4,14l4,14l3,7l2,7l6,14l1,2l10,5l4-7l6-8l3-6l6-10l7-4
	l3-1l9-10l2-3l8-14l6-14l4-6l7-8l2-7l10-4l9,5l3,6l7,6l9,8l10,2l10,7l5,5l5,5l9-1l5-4l5-3h9l5,3l5,6h10l5-6l4-9l2-5l7-14l10-3l6,3
	l4,2l10,10l2,2l7,10l10-1l6-9l3-6l6-8l4-10l10-3l9,12l10,10l9,5l10-4l10-3l9,1l10,2h10l9-1l10,1h9l10,3l3,1l7,4l9-1l5-3l5-4l10-2
	l9,3l5,3l5,3l9,5l10,2l10,2l9-1l10-4l7-7l2-2l10-8l10-4l9,1l10,7l4,6l5,13l10,5l10-2h9l10,2l10,3h9l10,2l9,3l7,2l-7,1l-9,8l-3,5
	l-7,11l-1,3l-8,6l-8,8l-2,3l-7,11l-3,5l-2,9l-7,13v3l6,12l3,2l10,7l3,5l3,14l-3,14l-3,5l-9,9l-9,14l-1,4l-4,10l-6,11l-2,3l-8,6l-9,6
	l-3,1l-7,9l-1,5l-7,14l-1,2l-10,4l-10,4l-9,2l-10,1l-9,1l-10,11l-3,3l-7,4l-9,3l-10-2l-3-5l-6-7l-7-7l-3-2l-10-4l-9,6l-10,8l-6,6
	l-4,5l-9,5l-10-3l-9-3l-9-4l-11,6l-8,8l-1,3l-10,11l-9,5l-5,9l5,11l1,3"/>
<path class="st0" d="M-719,461l5-13l4-14l2-14l2-14l6-5l10-5l3-4l-2-14l-1-6l-6-8l6-3l9-1l10-2l10-3l4-5l5-14l10-10l4-4l5-5l8-9l2-3
	l10-10l9-14h10l9,9l10,1l10-1l9-3l10-2h9l6,9l4,14l5,14l5,11l1,3l8,12l4,2l6,3l3-3l7-13l8-15l1-2l10-8l6-4l3-4l7-10l3-5l4-9l6-12
	l2-2l7-9l10-2l9,5l6,6l4,3l10,4l9,1l8,6l2,4l10,10l9-3l10-7l9,2l8,8l2,2l10-2l9-10l3-4l5-14l2-4l9-5l10,4l5,5l5,6l6,8l3,4h10l4-4
	l5-8l5-6l5-8l10-4l9,6l7,6l3,3l10,3l9-3l10-3l9,1l10,1h10l9-1h10l9,1l10,3l10,6l9-1l10-6l10-2l9,4l10,6l7,2l2,1l10,2l10,1h9l10-2
	l3-2l6-6l8-8l2-2l10-2l8,4l1,2l7,12l3,2l9,6l10,3h10l9,1l10,2l10,5l4,9l-4,10l-3,4l-7,6l-6,8l-4,6l-5,8l-3,14l-1,2l-7,12l-3,14l10,7
	l9,6l7,15l-7,12l-1,2l-8,9l-4,5l-6,8l-3,6l-7,12l-1,2l-8,7l-9,7l-9,13l-1,5l-4,9l-6,6l-10,5l-9,1l-10,2l-9-1l-4,1l-6,3l-10,11l-9,6
	l-10-3l-2-3l-7-5l-10-7l-5-2l-5-1l-9,8l-10,7l-10,8l-9,4l-10,1l-9-2l-10-3l-10,2l-3,4l-6,8l-10,6l-9,7l-10,7l-8,14l7,14"/>
<path class="st0" d="M-719,491l7-1l2-2l4-12l2-14l2-14l2-8l1-6l1-14l8-9l9-4l2-1l4-14l2-14l2-3l10-6l9-3l3-2l4-14l3-8l2-6l7-7l8-7
	l2-3l10-8l5-3l4-3l10,1l9,1l10-2l10-3l9-2h10l7,8l2,9l2,5l6,14l2,5l5,9l5,4l9,7l5,3l5,3l10-1l1-2l4-14l4-9l2-5l8-14l9-8l9-6l1-2
	l7-12l3-8l3-6l6-7l10-2l9,7l3,2l7,4l10,2l9,5l2,3l7,14h5l6-1l9-3l10-2l5,6l4,4l10,1l9-5l10-8l5-6l5-8l5-6l4-6l10,3l2,3l8,8l5,6l4,6
	l10-1l7-5l2-3l10-10l10-7l9,4l3,2l7,4h10l9-2h10l9-2l10-1l10,1l9-1l10-1l9,1l4,1l6,3l10,6h9l10-4l10,1l9,4l10,3l4,1l5,2l10,1h10l9-1
	H2l9-2h10l10,2l9,3l10,2l9,4l10,3l10,4l5,10l-5,8l-3,6l-6,14l-1,5l-2,9l-8,11l-2,3l-7,10l-4,4l4,6l8,8l1,4l3,10l-3,3l-9,11l-10,12
	l-7,16l-2,2l-9,12l-8,14l-3,7l-4,6l-5,3h-19l-10,6l-10,4l-4,1l-5,3l-10,1l-6-4l-3-2l-10-7l-10,2l-5,7l-4,4l-10,10l-10,4l-9,3l-10,4
	l-9,1l-10-3l-10-3l-4,8l-5,6l-10,7l-8,1l-11,9l-10,5l-9,2l-10,11l-2,15l2,9l3,5"/>
<path class="st0" d="M-719,499l9-3l10-5l1-15l1-14l2-14l2-14l2-14l2-2l9-6l10-6l2-14l5-14l3-2l9-4l10-6l3-2v-14l5-14l11-10l5-4l5-4
	l9-2l10,2l9-1l10-4l10-4l4-1l5-1l5,1l5,2l4,12l5,13l7,15l3,4l10,7l4,3l5,4l10,5l10,1l7-10l2-7l2-7l6-14l2-3l5-11l4-3l10-7l4-4l6-10
	l2-4l7-13l7-1h3l9,6l10,4l10,2l2,2l6,14l1,3l10,3l10-2l9-2l10,1l9,10l10-1l10-6l8-6l11-13l9-10l10,1l8,8l2,3l9,11l10-3l9-6l6-5l4-4
	l10-7l9,4l10,4l10-1l9-2l10-1l9-1l10-1h19l10-2l9,1l10,5l9,5l10,2l6-2l4-2l6,2l4,1l9,3l10,3l9,2l10,1h10l9-1h19l10,3l10-2l9,2l6,2
	l4,2l9,4l10,5l4,3l-4,10l-1,4l-6,14l-2,14l-10,10l-4,4l-6,6l-9,8l8,14l1,14l-6,14l-3,9l-2,5l-8,12l-2,2l-8,7l-4,7l-5,10l-10,2l-9,1
	l-10,12l-2,2l-8,5l-9,2h-10l-9-5l-2-2l-8-5l-10-1l-9,2l-2,4l-6,14l-2,2l-10,6l-9,1l-9,5l-10,4l-10-3l-2-1l-8-4l-9,2l-2,2l-1,14l-7,5
	l-9,2l-10,3l-10,4l-9,7l-10,5l-2,2l-6,14l-2,10v4l-1,14"/>
<path class="st0" d="M-719,507l7-4l2-1l10-2l8-10l-2-14l1-14l2-14l1-7v-7l6-14l3-2l10-5l7-7l2-14l1-2l9-12l10-5l9-8l2-1l-2-11v-3
	l7-14l3-3l10-7h9l10,2l9-2l9-4l11-4l9-1l6,5l4,6l3,8l6,13l10,14l2,1l8,5l9,7l6,2l4,1l10,3l9-4l4-14l3-14l3-6l3-8l6-12l2-2l8-5l10-9
	l9-14l10-4l9,3l4,1l6,2l10,6l3,6l6,13l10-1l10-3l9-2l10,3l3,4l6,6l10-1l7-5l3-2l9-7l6-5l4-5l9-8h10l9,13l10,8l10-4l5-4l4-3l10-7l7-4
	l3-1l3,1l6,2l10,1l10-2l8-1l11-1l9-1l10-1h10l9-1l10-2l9,1l10,5l10,7l9,2l10-3l10,1l9,4l8,3l2,1l9,2h10l10-1l9-1l10,1l9,3l10,2l10-1
	l9,3l10,4l3,1l4,14l-6,14l-1,14l-10,7l-7,7l-2,2l-10,3l-6,9l6,12l2,2l4,14l-5,14l-8,14l-3,3l-8,11l-11,13l-9,4l-10,5l-4,6l-6,7l-9,4
	h-10l-9-6l-9-5l-11-5l-9-3l-8,8l-2,4l-6,9l-4,6l-9,5l-10-2l-8,5l-1,2l-10,1l-8-3h-5l-6,2l-10,11l-9,12l-5,3l-5,2l-10,4l-9,6l-4,2
	l-6,4l-10,10l-5,14l-2,14l-2,14"/>
<path class="st0" d="M-719,513l9-4l10-2l10-1l4-3l-1-13l-1-14l1-14l1-14l2-14l3-7l10-6l3-1l7-6l6-8l2-14l1-2l10-9l5-3l4-2l10-12
	l-3-14l3-6l7-8l3-2l9,1l10,1l9-2l10-2l10-3l9,3l3,4l7,10l2,4l4,14l3,3l10,5l10,5l9,7l10,3l10,2l9-1l9-10l1-11v-3l4-14l4-14l1-2
	l10-12l10-8l6-6l3-6l10-4l9,1l10,3l6,6l4,8l2,6l7,5l10-1l10-4l9-1l3,1l7,4l9,8l10-1l10-6l6-5l3-3l10-8l4-3l5-4l10,3l10,13l4,2l5,2
	l4-2l6-4l9-6l7-4l3-3l10-4l9,2h10l10-2l9-1l10-1l9-1l10-1l10-1l9-1l6-1l4-1l6,1l3,1l10,5l10,7l2,1l7,2l8-2l2-1l10,1l9,4l10,3l9,2h10
	l10-1h9l10,2l8,4l11,3l10,1l9,10l-2,14l-4,14l-3,2l-10,4l-10,2l-7,6l1,14l3,14l3,14l-4,14l-5,8l-4,6l-6,8l-3,6l-6,5l-10,4l-6,5l-4,4
	l-7,10l-2,1h-10l-3-1l-6-6l-10-7l-4-1l-6-2l-9-3l-9,5l-8,14l-3,3l-9,6l-10-3l-9,1l-9,6l-11,6l-9,2l-10,4l-6,2l-3,5l-4,9l-6,7l-10,6
	l-4,1l-5,3l-10,6l-4,5l-6,6l-5,8l-4,10l-2,4l-6,14l-2,9l-1,5"/>
<path class="st0" d="M-719,530l9-8l10-3h10l9,1l10-1l2-2l-2-6l-1-8l-5-13l1-14l3-14l-1-14l3-10l3-4l7-4h9l10-1l5-9l1-14l3-7l5-7l5-4
	l9-10l10-11l7-3l3-2l9-5l10-1l10,3l3,5l6,13l10,11l4,4l5,3l10,6l10,3h9l10-3h19l10-2l8-7l1-4l5-10l2-14l3-14l2-14l8-10l3-4l6-6l10-6
	l9,2l10,8l1,2l8,14l10,3l10-2l4-1l6-2h9l2,2l8,6l9,2l10-1l10-2l6-5l3-3l10-8l5-3l4-3l6,3l4,2l10,9l9,2l10-5l9-6l3-2l7-4l10-3l9-1h10
	l10-1l9-2l10-1l9-1l10-1l10-2h9l10-2l9,2l3,2l7,5l10,6l9,1h10l7,2l3,1l9,3l10,3l9,3h10l10,2l7,2l2,14l-9,11l-2,3l-2,14l2,14l-2,14
	l-6,10l-4,4l-1,14l-4,14l-10,6l-10,1h-9l-10-1l-10-3l-9-3h-5l-5-1l-10-2l-3,3l-6,11l-10,1l-3,2l-6,3l-10,11l-10,10l-4,4l-5,3l-10,4
	l-6,6l-3,2l-10,2l-6,10l-4,12l-2,2l-7,3l-10,3l-9,8l-10,13l-8,15l-2,3l-6,11l-3,5l-7,9l-3,12v2"/>
<path class="st0" d="M-719,539l7-8l2-2l10-3l10-1l9,1h10l10-7l1-2l-1-3l-5-11l-5-13v-3l2-11l6-14l-1-14l3-4h9l10-2l9-3l8-5v-14l2-7
	l2-7l7-14l10-11l5-3l5-3l9-6l10-1l8,10l2,2l7,12l2,2l10,7l6,5l3,2l10,6l10,2l9-1l10-6l10-3l9,1l10-1l9-4l9-10l5-14l2-14l1-14l2-14
	l10-14l10-6l9,3l4,3l6,10l2,4l8,8l9,1l10-2l10-2l9,2l9,7h3l7-1l10-2l10-1l9-6l5-4l5-4l9-5l10,4l6,5l4,3l9,2l9-5l10-7l10-5l5-2l5-2
	h19l10-1l9-2l10-2l9-1l10-1l10-1l9-1l10-1l9,4l10,7l2,1l8,4l9,1h10l10,3l9,3l8,3l2,1l9,7l9,6l-3,14l-2,14v14l-4,7l-4,7l-5,10l-2,4
	l-6,14l-2,1l-9,4h-10l-10-3l-7-2l-2-1l-10-1l-10,1l-9,7l-10,7l-9,6l-8,9l-2,2l-10,9l-2,3l-7,6l-10,4l-5,4l-4,4l-10,3l-10,3l-3,3
	l1,14l-7,9l-10,4l-2,1l-8,6l-7,8l-2,4l-10,7l-6,3l-2,14l-1,4l-4,10l-6,9l-3,5l-3,14"/>
<path class="st0" d="M-719,547l2-2l7-8l10-3l10-2h9l10,1l2-2l8-4l9-10l-6-14l-3-6l-4-7l4-11l1-3l8-10l10-4l9-11l10-3l9-14v-14l1-2
	l5-12l4-6l8-8l2-2l9-8l10,2l6,8l4,3l9,7l4,4l6,6l8,8l11,4l10,1h9l10-5l10-7h9l10-1l9-2l7-4l3-4l7-10l3-8l2-6l2-14l1-14l2-14l2-2
	l10-9l9,6l3,5l7,9l6,5l4,2l9-1l3-1l7-1l10-1l4,2l5,3l10,4l9-3l10-2h10l4-2l5-3l10-9l5-2l4-2l5,2l5,2l10,7l9,1l10-5l8-5l11-6l10-4h19
	l10-1l9-3l10-2l9-1l10-1l10-1h19l9,4l10,6l10,6l9,2h10l4,1l6,1l9,4l10,8l3,15l-3,8l-4,6l-4,14l-2,2l-4,12l-5,12l-10,2l-10-1l-9,1
	l-10,3l-10,2l-9,5l-7,4l-3,2l-9,4l-7,8l-3,3l-8,11l-2,1l-9,9l-8,4l-2,1l-9,5l-10,6l-2,2l-8,2l-9,11v14l-10,7l-10,5l-2,2l-7,8l-9,6
	l-10,5l-10,2l-6,7l6,11l1,3l-1,6l-1,8l-9,14l-4,14"/>
<path class="st0" d="M-719,556l9-9l2-2l8-4l10-2h9l10,1l10-5l4-4l5-5l10-9l-6-14l-4-6l-4-7l4-10l7-4l3-2l9-5l10-7l10-7l9-7v-4l-1-10
	v-14l1-3l8-11l2-2l9-7h10l10,7l3,2l6,5l8,9l2,1l9,7l10,2l10,3l9,1l10-5l10-8l2-1l7-2h19l10-6l5-6l5-7l4-7l5-12l2-2l2-14l3-14l3-5
	l9,2l2,3l8,6l10,6l9-4l10-2h10l9,7h10l9-4l10-1h10l9-5l4-3l6-5l9-4l10,4l7,5l3,2h9l3-2l7-4l9-6l10-4l10-3l9-1l10,1l10-1l9-4l10-2
	l9-2l10-1h19l10,1l9,5l10,5l4,2l6,4l9,4l10,1l10,2l6,3l-2,14l-4,7l-4,7l-5,14l-11,6l-9,7l-10,7l-10,5l-6,3l-3,1l-10,5l-9,3l-10,4
	l-9,15l-10,14l-10,5l-9,4l-10,2l-2,3l-8,6l-9,7l-6,14l-4,13l-10,7l-9,7l-2,1l-8,6l-9,3l-10-2l-10,3l-6,4l-2,14l8,11l2,3l-1,14l-1,2
	l-8,12l-1,4l-6,10"/>
<path class="st0" d="M-719,577l5-4l4-5l10-9l10-4l9-1l10,1l10-4l6-6l3-2l10-5l9-5l3-2l1-14l-4-10l-1-4l1-8l2-5l8-5l10-7l3-2l6-7
	l10-7l9-7l9-7l1-14l10-3l9,2l10,8l9,3l10,2h10l9-1l10-1l10-4l9-4l10-2l9-3l10-3l10-7l9-12l2-3l7-14l1-2l9-12l10-3l10,2l9-4l10-3
	l10,1l9,5h10l9-4l10-3l10,1l9-4l5-2l5-4l9-4l10,4l6,4l4,2l9,1l4-3l6-4l9-9l2-1l8-3l10-2h9l10,2l10-1l9-4l10-4l5-2l4-1l10-2h10l9,2
	l2,1l8,8l5,6l4,7l6,7l1,14l-7,12l-9,10l-8,6l-2,1l-9,1l-10,1l-10,2l-9,6l-2,3l-5,14l-3,4l-9,9l-4,1l-6,1l-10,3l-9,10l-10,2h-10
	l-6,12l5,14l-4,13l-4,4l-10,6l-9,3l-10-2l-10-1l-2,4l-7,14l-10,6l-9,2l-8,6l-2,7l-3,7l3,7l8,7l2,2l8,12l-8,11l-2,3l-8,13l-2,1"/>
<path class="st0" d="M-466,615l-3-2l-10-4l-9,2l-3,4"/>
<path class="st0" d="M-397,615l-5-2l-8,2"/>
<path class="st0" d="M-719,587l9-8l6-6l4-4l10-4l9-2l10,1l10-4l9-8l10-6l9-5l10-7l3-3l-2-14l-1-4l-4-10l4-7l7-6l3-2l9-7l5-5l5-4l9-6
	l10-3l5-1l5-3l9-4h29l10-1l9-2l10-1l10-2l3-1l6-2l10-3l9-3l10-4l5-2l5-2l9-9l3-3l7-13l7-15l2-3l10-5h10l9-3l6-3l4-2l10,2l9,5l10,1
	l9-5l4-1l6-2l10-1l9-3l10-5l9-2l10,3l10,5l9,1l10-5l4-5l5-5l10-5l10-2l9,1l10,3l10-2l9-2l3-2l7-3l9-3l10-2l10,3l7,5l2,3l10,11l-1,14
	l-8,14l-10,4l-10,1l-10,1l-9,3l-4,5l-6,6l-5,8l-4,7l-9,7l-11,3l-9,3l-10,6l-10,1l-9,8l-7,7l-3,4l-8,10l6,14l-7,5l-10-4l-10,5l-5,7
	l-4,8l-4,6l-6,9l-9,4l-3,1l-7,5l-9,9l-1,2l-2,12v14l-7,13l-1,15l-6,14"/>
<path class="st0" d="M-381,615l-2-3l-9-9l-10-1l-10,5l-9,4l-10-1l-9,2l-10,1l-10-3l-9-6l-6-3l-4-1l-9-2l-4,3l-6,8l-4,6"/>
<path class="st0" d="M-719,598l9-9l2-2l8-7l10-7l9-1h10l10-4l9-6l6-3l4-2l9-7l6-5l4-2l10-8l3-4l-3-8l-2-6l-3-14l5-4l9-6l7-3l3-3
	l9-11l10-3l10-1l9-2l10-1l9-1l10-2l10-4l9-3l10-1h10l9-1l10-3l9-4l5-2l5-2l10-5l9-6l2-1l8-9l2-5l7-14l10-12l8-2l2-1l9-1l10-3h10l9,3
	l10,2l9-6l10-4l10-1l9-3l10-4l9-2l10,3l6,3l4,2l9,1l10-1l3-2l6-7l10-7l10-1l4,1l5,2l10,1l10-1l9-2l10-4l9-2l10,3l3,3l-3,5l-8,9l-2,1
	l-9,3l-10,7l-1,3l-8,13l-10,12l-3,3l-7,3l-9-1l-10,2l-10,6l-8,4l-6,14l-5,4l-9,8l-4,2l-6,5l-9,9l-9,14l-8,13l-3,5l-9,9l-10,8l-10,6
	l-8,14l-1,4l-3,10l-7,13l-9,15l-10,4l-10,2l-9-2l-10,2l-10,5l-6,3l-3,1l-10,1h-19l-4-2l-6-2l-9-4l-10-4l-9-4l-10,4l-6,10l-4,5l-6,9"
	/>
<path class="st0" d="M-719,608l8-7l11-10l4-4l6-5l9-3h10l10-3l6-3l3-2l10-2l9-6l3-4l7-6l10-6l2-2l7-8l3-6l-3-7l-2-7l1-14l11-5l9-6
	l4-2l6-5l10-3l9-1h10l9-1l10-3l2-1l8-5l9-4l10-1l10,2l9,1l10-2l9-4l3-1l7-4l10-7l4-3l5-3l10-7l5-4l4-10l2-4l8-14l10-6l9-2l10-2l10-1
	l9,1l10,2l9-4l4-2l6-4l10-2l9-2l10-3l9-1l10,3l10,4l9,2l10-1l9-4l9-6l1-2h10l9,2l10,14l-10,9l-9,5l-10,4l-10,5l-8,5l-11,10l-1,4
	l-6,14l-2,2l-10,5l-9,7l-10,11l-2,3l-6,14l-2,3l-9,10l-10,11l-3,3l-7,5l-9,9l-10,14l-9,14l-10,8l-6,6l-4,3l-9,3l-10,4l-10,4l-9,4
	l-10,2h-19l-10-3l-5-3l-4-3l-10-4l-9-4l-5-3l-5-3l-6,3l-4,14l-9,11l-3,3l-4,14"/>
<path class="st0" d="M-704,615l4-4l10-10l9-5l10-2l10,1l9-1l10-3l9-1l10-1l5-2l5-4l7-10l2-3l10-8l4-3l5-7l3-7l-1-14v-14l8-5l10-6
	l3-3l6-2l10-2l9-1l10-1l10-4l6-3l3-2l10-4h10l9,1h10l9-4l10-2l10-2l3-1l6-6l10-6l4-2l5-5l10-8l2-1l4-14l4-8l8-6l11-4l10-3l9-1h10
	l9-3l5-3l5-3l10-3l9-1l10-2l9,3l7,6l1,14l-4,14l-4,4l-6,10l-3,3l-10,9l-1,2l-8,11l-2,3l-8,8l-7,6l-3,3l-9,10l-10,8l-6,6l-3,5l-7,9
	l-3,4l-8,10l-2,2l-9,7l-10,5l-10,4l-9,2l-10,3l-9-1l-10-2l-10-5l-2-1l-7-2l-10-6l-8-6l-11-1l-10-1l-7,2l-2,2l-10,6l-9,6l-1,2l-5,12
	l-4,9l-3,5l-1,14l2,14"/>
<path class="st0" d="M-692,615l2-1l9-6l10-3l10,1h9l10-3l7-2l12-1h10l9-5l10-5l4-3l5-14l10-3h10l2,3l-2,7l-3,7l-2,14l5,14"/>
<path class="st0" d="M-568,545l-3-14l6-6l6-8l3-2l10-5h9l10-1l10-3l5-3l4-1l10-6l10-4h19l8-2l11-3l10-2l9-5l8-4l2-1l9-7l10-5l2-1
	l8-8l8-6l1-4l6-10l4-3l10-5h9l10-1l9-5l10-4l10-7l9-1l10,3l2,9l-1,14l-11,14l-9,7l-5,7l-5,7l-6,7l-4,2l-9,7l-4,5l-6,4l-9,8l-2,1
	l-8,10l-4,4l-6,8l-5,6l-4,6l-10,6l-4,2l-6,4l-9,4l-10,3l-9-1l-10-3l-10-3l-8-4l-11-8l-9-4l-10-2h-10l-9-1l-3,1l-7,4l-10,6l-9,4
	l-10,10l-9-4L-568,545"/>
<path class="st0" d="M-650,615l8-2l9-1h10l10,1h9l10-1l5,3"/>
<path class="st0" d="M-490,503l2-1l9-1l10-1l9-2l10-3l10-2l5-3l4-3l10-4l9-6l3-1l7-4l10-5l9-4l2-1l8-6l8-8l2-2l9-4h10l9-3l10,4l1,5
	l-11,10l-3,4l-6,3l-10,5l-3,6l-6,8l-4,6l-6,5l-9,8l-1,2l-9,9l-5,3l-5,6l-10,8l-9,8l-10,3l-9-1l-10-3l-10-7l-9-7l-10-4l-5-3l-4-7
	L-490,503"/>
<path class="st0" d="M-454,517l1-14l3-1l10-1l9-3l10-4l3-4l6-3l10-2h10l3,5l-3,3l-9,10l-11,7l-9,3l-10,4l-9,5l-10-1L-454,517"/>
<path class="st1" d="M466,615l-3,4l-9,10l-10-2l-3,2l3,14l10,14"/>
<path class="st1" d="M300,615l-10,14v14l-9,7l-10,1l-10,4v2"/>
<path class="st1" d="M205,615l-1,14l-10,7l-8,7l-2,2l-8,12"/>
<path class="st1" d="M8,657l-6-12l-2-2l-8-3l-9-2l-10-5l-10,1l-9,2l-10-2l-9-5l-10-4l-10-1l-9,5l-10-1v8l1,7l9,12l2,2"/>
<path class="st1" d="M163,615l-7,14l-10-7l-10-5l-9,1l-10,10l-2,1l-7,6l-10,2l-10,2l-9-3l-10,3l-10-1l-9-2l-10-4l-9,5l-1,6l-3,14"/>
<path class="st1" d="M-161,615l6,14l3,9l1,5l2,14"/>
<path class="st1" d="M-212,615l2,4l4,10l-2,14l4,14"/>
<path class="st1" d="M-426,657l-5-3l-9,2l-2,1"/>
<path class="st1" d="M-270,615l-2,14l-5,13v3l3,12"/>
<path class="st1" d="M-313,615l-2,9l-3,5l-6,14l-11,2l-7-2l-12-2h-9l-10-1h-10l-9-5l-8-6l-2-1l-10-4l-9-1h-10l-9,3l-10,2l-10-2l-9-5
	l-10-3l-9,5l-4,6l-2,14l6,7l4,7"/>
<path class="st1" d="M-719,618l3-3"/>
<path class="st1" d="M-536,615l-1,4l-1,10l-4,14l-4,12l-1,2"/>
<path class="st1" d="M-693,657l3-2l9-7l10-5l10-2l9,1l10-1l9-1l10,2l2,1l8,6l3,8"/>
<path class="st1" d="M146,1l10,2l4-2"/>
<path class="st1" d="M201,1l3,1l9,2l10,1l10,10l9,12l1,2l9,8l7,5l2,2l10,4l10,8l9,9l5,5l5,7l5,7l4,14l10,3l10,2l9,2l10,1l9,1h20l9,1
	l10,4l10,9l2,5l7,5l10,6l7,3l2,1l10,3l10,4l8,6l11,6l7,8l2,5l5,9l-1,14l-2,14l-2,8l-1,6v14l1,14l5,14v14l-5,12l-9,13l-4,3l2,14l2,3
	l9,8l4,3l6,9l5,5l-2,14l7,9l2,5v14l7,10l4,4v14l-4,4l-9,3l-10,7v14l-2,14l-3,14l-5,14l-2,13l-7,11l-5,3v14l2,14l3,7l5,7l1,14l-6,14
	l-10,14l3,14"/>
<path class="st1" d="M510,517v-14l11-6l10-1l9,6l2,1l-2,7l-2,7l-7,5l-10,2l-10-5L510,517"/>
<path class="st1" d="M-567,1l-6,14l-2,3l-4,11l-6,10l-1,3l-8,13l-10,13l-3,2l3,4l10-1l3-3l6-6l10-4l6-4l4-4l9-8l10,3l9,2l2-7l-1-13
	l2-14l7-14h1"/>
<path class="st1" d="M-342,1l-2,7l-5,7l5,4h9l10-1l10-2l9-11l4-4"/>
<path class="st1" d="M-164,1l2,14l10,1l2-1l8-8l9-4l9,12l9,14l11,13l10,5l9-1h10l10,2l9,4l7,4l3,3l9,4l10,6l2,1l8,7l8,7l1,2L2,96
	l5,2l4,2l10,1l10-1h9l10-1l9,3l10-3l10-1l9,1l10,2l10,6l7,5l2,2l10,2l9-1l10,1l10,2l9-2l10,5l9,5l10,7l10,4l9-5l10-3l10,3l9,3l10,4
	h29l9,1l10,3l9,7l10,2l10-1l9,3l10,7l9,5l3,2l7,5l10,4l9,1l10-1l10,1l8,4l1,2l10,11l3,1l6,5l8,9l-7,14l-1,2l-9,10l-2,2l-8,9l-9,2
	l-10,1l-2,2l-3,14l-5,11l-4,3l-5,3l-7,11l-2,14l-1,14l10,12l2,2l5,14l-5,14l-2,1l-10,2h-19l-10-3l-5,14l5,8l5,6l5,7l6,7l3,3l8,11
	l-6,14l-2,6l-2,8l-1,14l-1,14l-5,8l-3,6l-4,13l-3,13l-9,15l7,14l2,6l2,8l-2,9l-2,5l-7,6l-10,5l-3,3l-7,7l-4,7l-5,14l0,0"/>
<path class="st1" d="M-719,37l6,5l2,14v14l1,3l10,6l5,5l-3,14l-2,14l10-10l4-4l5-5l10,5l-2,14l2,11v6l-1,11l-4,14l-1,14l-1,14l-3,6
	l-2,8l2,7l6-7l4-3l4-11l6-9l1-5l6-14l2-4l7-10l3-3l9-7l10-1l10-1l4-2l5-3l10-3l9-3l10-1l10-1l9-1l10,5l3,7l5,14l1,4l10-3l10-13l1-2
	l8-11l5-3l5-3l10-10l9-9l5-6l-5-4l-7-10l-2-3l-8-11l-2-3l-6-11l-3-13l9-9l10,1l9,1l9-7l10-8l10-1l8,9l2,5l1,9l-1,5l-6,8l-4,6l-2,8
	l2,4l6,10l-6,10l-4,4l-6,12l-1,2l1,2l10,4l10,6l9,2h10l9,8l7,6l3,2h10l6-2l3-1h10l10-6l9-5l10,1l9,6l5,5l5,9l5-9l5-12l1-2l8-6l10-1
	l9-4l7-3l3-2l10,2l9,1l3-1l7-2l9-4l10-3l10,5h9l10-3l10,1l9,3l5,3l5,5l9,2l10,4l3,3l5,14l2,3l9,6l10-5l8-4h3l8,4l10,9l3,1l6,1l7-1h8
	l5,1l9,4l10,2l9,1l10,2l10-2l9,4l2,2l8,8l9,6l10-2l10-10l1-2l8-5h10l9-3l10-3l10-3h9l10,4l10,7l9,3l10,2l7-2h4l8,4l10,8l3,2l6,5
	l10,9l9,4l10,5l10,1l9-4l10-5l3-1l7-3l9-3l10-2l9-2l10-1l10,1l9,4l10,6l9,13l7,1l3,1h10l9,5l10,6l2,2l4,14l-6,14l-10,4h-9l-10,1
	l-5,9l-3,14l-2,2l-7,12l-2,7l-2,7l-3,14l-5,12l-1,2l-8,11l-4,3l-3,14l-3,2l-10,6l-3,6l3,9l2,5l8,5l10,4l4,5l5,7l10,5l1,2l4,14l2,14
	v14l-2,14l-5,11l-1,3l-7,14l-2,5l-2,8l-7,14l-10,8l-10,5l-9,12l-3,3l3,7l3,7l-3,9l-10,5l-9,1l-10-1l-10,11l-2,3l-3,14l-3,14"/>
<path class="st1" d="M-615,1l2,4v10l3,14l-3,4l-10,9l-10,8l-6,6l-3,4l-9,10l-10,10l-8,4l-2,14l-2-14V70l-1-14l3-10l1-4l4-13l5-4l9-7
	l3-3l7-7l9-7h2"/>
<path class="st1" d="M-719,289l4-9l5-14l10-1l3,1l7,1l9,1l8-2l2-3l2-11l1-14l7-9l5-5l4-2l10-7l3-5l1-14l-1-14l6-10l3-4l7-6l10-2l9,2
	h10l9-5l10-2h10l9,12l4,15v14l1,14l5,10l9-1l10-3l10,6l2,2l7,3l10,7l6,4l4,2l2-2l2-14l-3-14l-1-4l-5-10l-5-12l-1-2l-1-14l2-5l4-9
	l6-10l6-4l3-1l10,1l9,1l10,4l10,7l2,2l7,7l9,7l10-4l10-5l10-1h9l10,1l10,5l2,4l5,14v14l1,14l1,2l1-2l9-7l9-7l10-6l9-8l10-11l6-3l4-3
	l6,3l3,2l10,7l10,5l9-3l10-8l9-3l10-4l10-1h9l10,3l3,2l7,5l9,8l3,1l7,5l5-5l4-3l10-1l10,1l9,3l10,3l9,9l3,2l7,6l10,1l9-4l4-3l6-5
	l10-4l9-2l10,2l9,8l10,14l10-2l9-1l10,1l9-1l10-1l10-1l9-4l10-3l3-1l6-3l10-3l10-3l9,3l10,4l3,2l7,8l9,6l10,5l9,7l5,2l5,2l10,1l9,3
	l10,1l9-3l10-2l5-2l5-1l9-2l10-4l10-5l8-2l11-1l4,1l5,2l6,12v14l4,14l2,14l-2,5l-5,9l-5,6l-9,4l-5,4l-5,3l-9,11l-9,14l-1,2l-9,12
	l-10,8l-10,6l-10,6l-9,7l-5,1l-2,14l7,4l9,4l10,5l9,15l10,8l10,3l3,3l7,6l9,5l8,3l2,4l1,10l-1,14l-10,12l-1,2l-4,14l-4,2l-6-2l-4-2
	l-10-1l-1,3v13l-7,14l-1,2l-10,4l-10,3l-9,2l-10,2l-2,1l-7,14l9,13l6,15l2,14l-4,14l-4,11l-2,3"/>
<path class="st1" d="M-719,151l7,3l2,11l1,3l-5,14l-4,14l1,14l-2,4"/>
<path class="st1" d="M-719,330l7-8l2-4l10-5l7,9l3,3l9,8l9-11l11-13l9-9l10-6l5-14l4-14l10-13l2-1l8-6l5-8l4-8l4-6l6-7l9-1l8,8l2,6
	l1,8l5,14l4,5l9,2l10-3l9-3l10-1l10,5l9,8l3,15l1,14l6,11l10-4l9-7l10-9l3-5l6-14l6-14l-1-14l-5-13l-2-15l-1-14l3-9l10-2l10,6l3,5
	l6,6l10,5l9-2l10-3h10l5,8l2,14l-2,14l4,11l2,3l8,4l10,5l9-3l10-4l9,4l10,2l4-8l3-14l3-4l9-8l3-2l7-4h9l5,4l5,4l8,10l2,2l9,7l9-9
	l1-2l5-12l4-7l10-7l10-2l9,1l3,1l7,8l3,6l2,14l5,4l9-1l10-2h9l10,1l10-2l9,1l10,2l9,3l10,3l10,2l9-5l10-6l10-1l4,1l5,2l10,3l9,6l5,3
	l5,4l10,2l8-6l11-8l9-4l6-2l4-2l10-3l9-2l10-2h9l10,6l3,3l6,14l1,2l9,2l10,1l10,5l9,3l10-2l9-3h10l10,3l5,3l4,3l10,5l9,5l4,15v14
	l-4,6l-4,8l-5,5l-10,4l-9-2l-10-4l-10-1l-8,12l-1,2l-10,7l-4,5l-3,14l-1,14l8,11l2,3l7,14l1,2l9,10l2,2l2,14l-4,9l-1,5l-8,12l-4,2
	l-6,8l-2,6l-1,14l-6,8l-5,5l-5,4l-7,10l-3,8l-2,6l-4,14l-3,5l-9,9l-1,2l-10,11l-2,1l-7,3l-10,5l-9,1l-7,5l-3,1l-10,4l-9,1l-10,6
	l-3,2l-6,2l-7-2l-3-1l-10-2l-3,3l-6,5l-10,2l-9-7l-8-14l-2-4l-5-10l-5-8l-9,5l-3,3l-7,10l-3,4l-7,8l-9,2l-10-6l-7-4l-2-1h-10l-10,12
	l-2,3l2,12l1,2"/>
<path class="st1" d="M-719,479l3-3l5-14l1-6l2-8l4-14l1-14l3-11l5-3l5-2l9-12v-17l10-10l6-1l4-1l9-11l1-2l5-14l4-4l9-9l2-1l8-10l5-4
	l5-5l9-8l10,1l9,3l10-1l10-2l7-2l2-1l10-2l6,3l3,3l4,11l5,14l1,4l4,10l6,9l3,5l6,5l10,6l10-10l6-15l3-6l5-8l5-5l9-7l3-2l7-11l2-3
	l6-14l2-4l8-10l11-3l4,3l5,4l10,7l10,2l4,1l5,1l9,13l1,2l10,4l9-2l8-4l2-1l2,1l7,6l10,6l10-5l8-7l9-14l2-5l8-9h4l7,3l9,11l10,12h10
	l9-10l3-2l7-10l6-4l4-2l5,2l4,2l10,9l10,1l9-2l10-2h9l10-1l10,1l9-1h19l10,4l5,3l5,3h9l6-3l4-2l10-1l7,3l2,1l10,5l9,2l10,2l10,1l9-1
	l10-1l9-5l5-4l5-4l8,4l2,2l9,6l10,4l3,2l6,2l10,3l10,1l9,3l10,4l-5,15l-5,7l-4,7l-5,9l-2,5l-4,14l-4,8l-4,6l-6,14l10,10l5,4l5,12
	l1,2l-10,14l-11,10l-3,4l-6,14l-10,9l-3,5l-6,6l-6,8l-3,13l-1,3l-10,10l-6,1l-3,1l-10,1h-9l-10,3l-10,6l-8,3l-1,2l-10-1l-9-4l-10-7
	h-10l-9,9l-2,1l-8,7l-10,5l-4,2l-5,4l-10,1h-9l-10-3h-10l-9,12l-10,6l-9,5l-3,3l-7,6l-10,4l-8,4l-1,3l-2,11l2,4l7,10"/>
<path class="st1" d="M-719,520l4-3l5-2l10-2h10l9-3l3-7l-3-9l-1-4v-14l1-12l1-2v-14l3-14l6-6l10-5l9-1l3-2l2-14l5-14l9-7l10-6l9-15
	l1-14l9-3h10l9-2l10-2h10l8,7l1,2l5,12l5,6l9,8l10,6l10,6l4,2l5,1l10,1l10,1h9l10-3l6-14l1-14l2-8l2-6l3-14l5-6l6-8l4-3l9-9l3-2l7-5
	l9,2l7,3l3,2l6,12l4,6l9,5l10-2l10-3l9-1l10,7l2,2l7,3h10l7-3l3-2l9-8l5-4l5-4l9-6l10,4l5,6l5,5l9,2l10-5l4-2l5-4l10-6l10-3h9l10-1
	h5l5-1l9-1l10-1l9-1l10-2l10-1l9-1l10-1l9,1l10,6l3,2l7,5l9,2l10-1l10,1l9,4l9,3l10,2h10l10-1l9,1l10,5l9,7l10,8l2,6l-2,3l-10,5
	l-9,5l-10,11l-1,4l1,14l3,14l-3,14v14l-9,14l-10,10l-5,4l-5,2l-9,5l-10,3l-9-2l-10-4l-10-3l-9-1h-10l-10,11l-1,3l-8,8l-10-6l-9,2
	l-10,8l-1,2l-9,9l-9,4l-10,4l-9,5l-9,5l-1,4l-1,10l-9,6l-9,4l-10,4l-10,11l-2,3l-7,12l-1,2l-8,14l-1,2l-9,12l-3,14"/>
<path class="st1" d="M-719,567l7-8l2-2l10-8l10-3l9-1l10,2l3-2l7-2l9-8l8-4l2-1l7-13l-5-14l-2-13l9-9l10-4l2-1l8-10l4-4l5-4l10-8
	l3-2l-3-12l-1-2l1-7l1-7l8-9l10-1l10,6l7,4l2,1l10,9l6,4l3,2l10,2l10,2l9-1l10-2l7-3l3-2l9-5l10-1l9-2l10-3l10-11l3-4l6-11l2-3l8-13
	l9-15l10,2l10,4l9-5l8-1l2-1l2,1l8,1l9,5h10l9-5l6-1l4-1l6,1h4l9-4l10-8l6-2l3-2l4,2l6,2l10,7l9,1l10-8l2-2l7-5l10-4l10-2h9l10,1
	l10-2l4-2l5-2l10-3l9-1l10-2h10l9,1l10,3l7,4l2,2l10,6l10,5l9,9l5,6l-5,9l-5,5l-4,4l-5,10l-5,5l-9,9l-10,6l-10,4l-9,2l-8,2l-12,7
	l-4,7l-5,9l-3,5l-7,8l-9,4h-10l-2,2l-8,6l-5,8l-4,3l-10,6l-2,5l-1,13l-7,11l-3,3l-6,4l-10,5l-9,4l-10-3l-10,4l-9,8l-10,5l-3,1l-5,14
	l8,4l10,8l1,2l1,14l-2,3l-9,11l-1,2l-7,12"/>
<path class="st1" d="M-716,615l6-5l9-9l11-9l6-5l3-1l10-1h10l9-3l10-2l9-2l10-3l1-2l7-14l2-1l9-6l7-7l3-8l1-6l-1-10l-1-4l9-14l11-4
	l10-6l9-2h10l9-1l10-3l10-6l8-5l11-2l4,2l6,1l9,2l10-1l6-2l3-3l10-4l10-4l4-3l5-4l10-8l3-2l6-4l6-10l4-11l2-3l8-10l9-3l4-1l6-2l10-1
	h19l9-2l10-6l10-3l9-1l10-3l9,1l10,3l10,8l9,6l-6,14l-3,10l-2,4l-8,8l-5,6l-5,3l-9,10l-10,14l-8,15l-11,8l-4,5l-6,6l-9,8l-10,13
	l-9,10l-5,5l-5,6l-10,8l-9,7l-10,6l-4,1l-6,2l-9,3l-10,2l-9,1l-10-1l-8-7l-11-4l-10-3l-9-5l-3-2l-7-4h-10l-8,4l-1,2l-10,12l1,14
	l-1,2l-6,12l-3,14"/>
</svg>
