<svg xmlns="http://www.w3.org/2000/svg" width="137.28065" height="25.00674" viewBox="0 0 137.28065 25.00674"><title>kamp-logo</title><style>path {fill:#ea7900;}</style><path d="M48.394,2.437l-0.09558.06024a1.19924,1.19924,0,0,0-.171-0.48309c-0.69971-1.11035-2.76758-.61865-4.4502.44141a6.98,6.98,0,0,0-2.00439,1.83057A2.55413,2.55413,0,0,0,41.194,5.42761l-0.04022-.02087L33.05225,21.04492a0.50043,0.50043,0,0,0,.01367.48535A7.1047,7.1047,0,0,0,39.08838,25h0.01123a1.51018,1.51018,0,0,0,1.34033-.82324L43.63959,18h4.95856a0.48486,0.48486,0,0,0,.13348-0.02692l4.09454,6.49469a0.49871,0.49871,0,0,0,.42285.2334h0.002A7.10694,7.10694,0,0,0,59.29,21.26074a1.508,1.508,0,0,0-.02637-1.582Zm-5.89795,2.4165a6.06592,6.06592,0,0,1,1.71436-1.55225,5.2207,5.2207,0,0,1,2.55127-.91162,0.62851,0.62851,0,0,1,.52.15771,1.05389,1.05389,0,0,1-.29053.89355,6.00566,6.00566,0,0,1-1.648,1.50671L44.89355,4.2334a0.50051,0.50051,0,0,0-.91113.15576l-0.307,1.35248a4.07325,4.07325,0,0,1-.53821.12848,1.05432,1.05432,0,0,1-.93115-0.123A1.05431,1.05431,0,0,1,42.49609,4.85351ZM39.54883,23.72265A0.47671,0.47671,0,0,1,39.09668,24a6.10286,6.10286,0,0,1-5.02588-2.74707L41.66632,6.591c0.02087,0.01569.039,0.03156,0.062,0.04669L41.626,6.70215l3.7,5.8689ZM44.15765,17L45.944,13.55145,46.8573,15H46.59814a0.5,0.5,0,0,0,0,1h0.88959l0.63043,1H44.15765Zm14.274,3.74707a6.10529,6.10529,0,0,1-4.91113,2.94727L42.92572,6.88916a3.44,3.44,0,0,0,.36871-0.03125,6.97965,6.97965,0,0,0,2.51611-1.019A6.9869,6.9869,0,0,0,47.81494,4.0083a3.64293,3.64293,0,0,0,.19073-0.31268L58.42139,20.21777A0.5031,0.5031,0,0,1,58.43164,20.74707Z" transform="translate(0 0.00674)" /><path d="M48.30127,6.043a0.49988,0.49988,0,1,0-.8457.5332L50.103,10.77978a0.49988,0.49988,0,1,0,.8457-0.5332Z" transform="translate(0 0.00674)" /><path d="M52.74072,15.8916a0.49988,0.49988,0,0,0-.8457.5332l2.1333,3.38281a0.49832,0.49832,0,0,0,.42334.2334,0.49177,0.49177,0,0,0,.26611-0.07715,0.49945,0.49945,0,0,0,.15625-0.68945Z" transform="translate(0 0.00674)" /><path d="M55.76953,17.88476a0.49988,0.49988,0,0,0-.8457.5332l1.59912,2.53809a0.5,0.5,0,0,0,.42334.2334,0.493,0.493,0,0,0,.26611-0.07715,0.49988,0.49988,0,0,0,.15625-0.68945Z" transform="translate(0 0.00674)" /><path d="M122.49609,8a0.49971,0.49971,0,0,0,.5-0.5v-2a0.5,0.5,0,0,0-1,0v2A0.49971,0.49971,0,0,0,122.49609,8Z" transform="translate(0 0.00674)" /><path d="M119.63574,7a0.50013,0.50013,0,0,0-.5.50049l0.00293,4a0.5,0.5,0,0,0,1-.001l-0.00293-4A0.49961,0.49961,0,0,0,119.63574,7Z" transform="translate(0 0.00674)" /><path d="M137.21973,10.65332a6.98968,6.98968,0,0,0-1.082-2.49023c-0.86237-1.29541-2.08105-2.35669-3.09631-2.41089L124.501,1.00854c-1.72626-1.569-7.50494-1.24335-7.50494.99146a1.20966,1.20966,0,0,0,.11383.5h-0.11383l0.00977,21.002a0.4981,0.4981,0,0,0,.23535.42383,7.10732,7.10732,0,0,0,6.94336.30762,1.50708,1.50708,0,0,0,.82129-1.35449l-0.00317-2.72467a1.46952,1.46952,0,0,0,.718-0.2431l10.55371-7.03271a0.49616,0.49616,0,0,0,.14191-0.1449,1.18743,1.18743,0,0,0,.27411-0.13245A1.74327,1.74327,0,0,0,137.21973,10.65332ZM131.8324,6.22485L128.80383,8.243l-2.02649-1.10437a0.49993,0.49993,0,1,0-.47852.87793l1.565,0.85284-1.70715,1.13763a0.48378,0.48378,0,0,0-.10492-0.08813l-1.05347-.57288-0.0022-6.84753A0.47252,0.47252,0,0,0,124.98,2.41876Zm-6.59131,4.3924-0.24237.1615-0.00006-.29333ZM120.99609,1l0.00977,0.00043V1.5a0.50022,0.50022,0,0,0,.30859.46191A0.494,0.494,0,0,0,121.50586,2a0.49989,0.49989,0,0,0,.35352-0.14648l0.68085-.68085A1.835,1.835,0,0,1,123.99609,2c0,0.35254-1.13867,1-3,1s-3-.64746-3-1S119.13477,1,120.99609,1Zm2.73535,22.34082a6.10185,6.10185,0,0,1-5.72559-.124l-0.00934-19.8645A6.52,6.52,0,0,0,120.99609,4a6.51889,6.51889,0,0,0,3.00024-.64807l0.00262,8.093-3.22748,2.15076a0.49971,0.49971,0,0,0-.22266.43066,7.09056,7.09056,0,0,0,1.54645,4.203,0.48654,0.48654,0,0,0-.09039.27063l0.001,3a0.5,0.5,0,1,0,1,0l-0.00073-2.34027a6.95993,6.95993,0,0,0,.99725.728l0.00348,3A0.50206,0.50206,0,0,1,123.73145,23.34082Zm1.42871-4.25781a0.49441,0.49441,0,0,1-.5293.02344,6.09965,6.09965,0,0,1-3.06836-4.83594l10.12238-6.74567a6.52117,6.52117,0,0,0,1.12372,2.856,6.98358,6.98358,0,0,0,1.87988,1.95752,3.63629,3.63629,0,0,0,.31848.183Zm10.97559-7.314a1.0504,1.0504,0,0,1-.90039-0.26758,6.06131,6.06131,0,0,1-1.59473-1.67529c-1.03125-1.54883-1.124-2.85547-.83008-3.05127,0.29395-.19727,1.46289.39355,2.49512,1.94287a6.06224,6.06224,0,0,1,.93066,2.11719A1.05354,1.05354,0,0,1,136.13574,11.769Z" transform="translate(0 0.00674)" /><path d="M132.69824,11.66162L131.083,12.7373a0.5,0.5,0,1,0,.55469.832l1.61523-1.07568A0.5,0.5,0,1,0,132.69824,11.66162Z" transform="translate(0 0.00674)" /><path d="M128.14551,12.03369L123.959,14.82031a0.5,0.5,0,1,0,.55469.832l4.18652-2.78662A0.5,0.5,0,0,0,128.14551,12.03369Z" transform="translate(0 0.00674)" /><path d="M40.82813,11.14844a0.49948,0.49948,0,0,0-.67383.21338l-0.9209,1.77539a0.50012,0.50012,0,0,0,.8877.46094l0.9209-1.77539A0.5,0.5,0,0,0,40.82813,11.14844Z" transform="translate(0 0.00674)" /><path d="M38.66748,15.5957a0.49893,0.49893,0,0,0-.67383.21484L36.1543,19.36328a0.49967,0.49967,0,1,0,.8877.459l1.83936-3.55273A0.49994,0.49994,0,0,0,38.66748,15.5957Z" transform="translate(0 0.00674)" /><path d="M40.00586,19.58008a0.49968,0.49968,0,0,0-.67383.21387L37.95166,22.458a0.50012,0.50012,0,0,0,.8877.46094l1.38037-2.66406A0.5008,0.5008,0,0,0,40.00586,19.58008Z" transform="translate(0 0.00674)" /><path d="M78.49121,5a0.49971,0.49971,0,0,0-.5.5v2a0.5,0.5,0,1,0,1,0v-2A0.49971,0.49971,0,0,0,78.49121,5Z" transform="translate(0 0.00674)" /><path d="M76.99023,13.0625a0.5,0.5,0,0,0-.5.5l0.002,4a0.5,0.5,0,0,0,1,0l-0.002-4A0.49971,0.49971,0,0,0,76.99023,13.0625Z" transform="translate(0 0.00674)" /><path d="M78.49023,16.53222a0.49971,0.49971,0,0,0-.5.5l0.001,3a0.5,0.5,0,0,0,1,0l-0.001-3A0.49971,0.49971,0,0,0,78.49023,16.53222Z" transform="translate(0 0.00674)" /><path d="M98.87823,2.49859A1.20968,1.20968,0,0,0,98.99121,2c0-2.626-8-2.626-8,0,0,0.03363.01587,0.062,0.01849,0.09479L86.19891,6.91211,80.91656,1.61664C80.17-.61456,72.99121-0.48969,72.99121,2a1.17835,1.17835,0,0,0,.05505.282,0.49,0.49,0,0,0-.05505.218L73.001,23.502a0.4981,0.4981,0,0,0,.23535.42383,7.10732,7.10732,0,0,0,6.94336.30762,1.50669,1.50669,0,0,0,.82129-1.35352l-0.00433-9.03162a7.10686,7.10686,0,0,0,4.34906,4.07556,1.52708,1.52708,0,0,0,.47266.0752,1.4873,1.4873,0,0,0,1.06641-.45117l4.11151-4.124L91.001,23.502a0.4981,0.4981,0,0,0,.23535.42383,7.10732,7.10732,0,0,0,6.94336.30762,1.50669,1.50669,0,0,0,.82129-1.35352L98.99121,2.49853ZM76.99121,1L77.001,1.00043V1.5a0.50022,0.50022,0,0,0,.30859.46191A0.494,0.494,0,0,0,77.501,2a0.49989,0.49989,0,0,0,.35352-0.14648l0.68085-.68085A1.835,1.835,0,0,1,79.99121,2c0,0.35254-1.13867,1-3,1s-3-.64746-3-1S75.12988,1,76.99121,1Zm2.73535,22.34082a6.10185,6.10185,0,0,1-5.72559-.124L73.99164,3.35229A6.52,6.52,0,0,0,76.99121,4a6.51855,6.51855,0,0,0,3.00043-.64813L80.001,22.88769A0.50206,0.50206,0,0,1,79.72656,23.34082ZM81.46,12.07471l-0.34863-.3584-0.11566.11249L80.99341,7.06061l0.34351,0.34369a0.49995,0.49995,0,0,0,.707-0.707l-0.89941-.8999a0.49459,0.49459,0,0,0-.15179-0.10083L80.99152,3.1076l4.945,4.95782a6.105,6.105,0,0,1-3.96094,4.13721A0.51017,0.51017,0,0,1,81.46,12.07471Zm4.71191,4.771a0.49651,0.49651,0,0,1-.51465.127,6.097,6.097,0,0,1-3.83185-3.74658,1.48031,1.48031,0,0,0,.46075-0.07324,7.10586,7.10586,0,0,0,4.69238-5.12646,0.49045,0.49045,0,0,0-.08887-0.39087l4.10205-4.1076,0.00262,5.66254L89.27246,10.915a0.4996,0.4996,0,1,0,.707.70605l1.0155-1.01715,0.00061,1.40338ZM94.99121,1c1.86133,0,3,.64746,3,1s-1.13867,1-3,1-3-.64746-3-1S93.12988,1,94.99121,1Zm2.73535,22.34082a6.10191,6.10191,0,0,1-5.72559-.124L91.99164,3.35229A6.52,6.52,0,0,0,94.99121,4a6.51855,6.51855,0,0,0,3.00043-.64813L98.001,22.88769A0.50206,0.50206,0,0,1,97.72656,23.34082Z" transform="translate(0 0.00674)" /><path d="M96.49121,5a0.49971,0.49971,0,0,0-.5.5V6.63525a0.5,0.5,0,1,0,1,0V5.5A0.49971,0.49971,0,0,0,96.49121,5Z" transform="translate(0 0.00674)" /><path d="M93.49023,9.3125a0.5,0.5,0,0,0-.5.5l0.002,6.125a0.5,0.5,0,1,0,1,0l-0.002-6.125A0.49971,0.49971,0,0,0,93.49023,9.3125Z" transform="translate(0 0.00674)" /><path d="M95.49023,14.8125a0.49971,0.49971,0,0,0-.5.5l0.001,3a0.5,0.5,0,0,0,1,0l-0.001-3A0.49971,0.49971,0,0,0,95.49023,14.8125Z" transform="translate(0 0.00674)" /><path d="M87.709,9.34619l-2.12012,2.12207a0.49995,0.49995,0,1,0,.707.707L88.416,10.05322A0.49995,0.49995,0,0,0,87.709,9.34619Z" transform="translate(0 0.00674)" /><path d="M5.5,8A0.49971,0.49971,0,0,0,6,7.5v-2a0.5,0.5,0,0,0-1,0v2A0.49971,0.49971,0,0,0,5.5,8Z" transform="translate(0 0.00674)" /><path d="M5.50122,13.00674H5.50171a0.49951,0.49951,0,0,1,.49951.49951v4.00049a0.5,0.5,0,0,1-.5.5H5.50073a0.49951,0.49951,0,0,1-.49951-0.49951V13.50674a0.5,0.5,0,0,1,.5-0.5Z" /><path d="M5.50928,19a0.49971,0.49971,0,0,0-.5.5l0.00049,3a0.5,0.5,0,0,0,1,0l-0.00049-3A0.5,0.5,0,0,0,5.50928,19Z" transform="translate(0 0.00674)" /><path d="M16.53662,5.88476L15.354,7.0708a0.49995,0.49995,0,1,0,.708.70605l1.18262-1.186A0.49995,0.49995,0,0,0,16.53662,5.88476Z" transform="translate(0 0.00674)" /><path d="M11.146,8.147L8.14893,11.14551a0.49995,0.49995,0,1,0,.707.707L11.853,8.854A0.49995,0.49995,0,0,0,11.146,8.147Z" transform="translate(0 0.00674)" /><path d="M20.39435,6.197a1.2243,1.2243,0,0,0,.24091-0.17749c0.92822-.92871-0.00977-2.83691-1.41553-4.2417C17.813,0.37256,15.90283-.563,14.97607.36523a1.17809,1.17809,0,0,0-.15967.23743,0.48962,0.48962,0,0,0-.19287.11511L8.00238,7.34857,8,2.498A0.4885,0.4885,0,0,0,7.94525,2.2807,1.17962,1.17962,0,0,0,8,2C8-.626,0-0.626,0,2a1.20961,1.20961,0,0,0,.11377.5H0L0.00977,23.502a0.4981,0.4981,0,0,0,.23535.42383,7.10732,7.10732,0,0,0,6.94336.30762,1.50919,1.50919,0,0,0,.82129-1.35352L8.00763,17.74243l7.12372,7.11108a0.49949,0.49949,0,0,0,.353.14648,0.49332,0.49332,0,0,0,.11279-0.0127,7.10666,7.10666,0,0,0,5.12744-4.69336,1.50711,1.50711,0,0,0-.377-1.53613L14.1214,12.54358l6.16132-6.17A0.49533,0.49533,0,0,0,20.39435,6.197ZM4,1L4.00977,1.00043V1.5a0.49995,0.49995,0,0,0,.85352.35352l0.68079-.68079A1.83553,1.83553,0,0,1,7,2C7,2.35254,5.86084,3,4,3S1,2.35254,1,2,2.13916,1,4,1ZM6.73584,23.34082a6.10286,6.10286,0,0,1-5.72607-.124L1.00043,3.35242A6.51992,6.51992,0,0,0,4,4a6.51861,6.51861,0,0,0,3.00043-.64807L7.00287,8.34955,5.22412,10.13086a0.50184,0.50184,0,0,0-.1333.46631A7.068,7.068,0,0,0,7.006,14.00348l0.00372,8.88324A0.50183,0.50183,0,0,1,6.73584,23.34082ZM19.64648,19.4707a0.50252,0.50252,0,0,1,.12744.51367,6.10569,6.10569,0,0,1-4.1377,3.96094L8.007,16.33,8.00641,14.838a6.99326,6.99326,0,0,0,1.77777.8866,1.51162,1.51162,0,0,0,1.53711-.377l2.09357-2.09656ZM10.6084,14.64648a0.50189,0.50189,0,0,1-.51416.127,6.028,6.028,0,0,1-2.08832-1.1969L8.00586,13.5H7.92334a6.08762,6.08762,0,0,1-1.79053-2.86377L14.72815,2.029a6.52078,6.52078,0,0,0,1.66394,2.57794,6.98164,6.98164,0,0,0,2.22949,1.54932,3.31553,3.31553,0,0,0,.35461.10968ZM19.92773,5.313a1.03822,1.03822,0,0,1-.93506-0.08545A6.06176,6.06176,0,0,1,17.09912,3.8999c-1.31641-1.31543-1.665-2.57812-1.416-2.82764,0.25049-.24854,1.51318.09766,2.82959,1.4126C19.8291,3.80029,20.17725,5.06347,19.92773,5.313Z" transform="translate(0 0.00674)" /><path d="M11.14648,16.14648a0.49982,0.49982,0,0,0,0,.707l2.83008,2.82715a0.49995,0.49995,0,0,0,.707-0.707l-2.83008-2.82715A0.49982,0.49982,0,0,0,11.14648,16.14648Z" transform="translate(0 0.00674)" /><path d="M17.958,20.60937a0.49995,0.49995,0,0,0,.707-0.707l-2.12158-2.12012a0.49995,0.49995,0,1,0-.707.707Z" transform="translate(0 0.00674)" /></svg>